<svg xmlns="http://www.w3.org/2000/svg" xmlns:xlink="http://www.w3.org/1999/xlink" viewBox="0 0 1288 240.04"><defs><style>.cls-1{fill:none;}.cls-2{fill:#a01d16;}.cls-3{fill:#a01d18;}.cls-4{fill:#fff;}.cls-5{fill:#a11e19;}.cls-6{fill:#1d1d1b;}.cls-7{fill:#d8b3c4;}.cls-8{fill:#a01e18;}.cls-9{fill:#a21e1b;}.cls-10{fill:#2d2d2d;}</style><symbol id="f1" data-name="f1" viewBox="0 0 134.74 66.91"><path class="cls-8" d="M33.86,26.44c-2,1.49-2.75,4.65-3.25,9.52s1.06,5.27,1.44,7.31c.3,1.64-1.5,6.94-1.5,6.94a7,7,0,0,0-2.44,4.88c-.14,1.31-3.75,5.78-3.75,5.78s-5.25.22-5.72,3.28c-.16,1,5.57,1.53,7.1.56,2.36-1.5,5.7-8.18,5.7-8.18a14.18,14.18,0,0,0,2.42-4.44c.43-1.36,5.57-6.83,5.88-9.63.11-1-1.5-3.87-1.5-3.87S38.83,22.79,33.86,26.44Z"/><path d="M39.46,42.86a11.56,11.56,0,0,0-7.38,1,32.36,32.36,0,0,1-1.53,6.36,7,7,0,0,0-2.44,4.88c-.14,1.31-3.75,5.78-3.75,5.78s-5.25.22-5.72,3.28c-.16,1,5.57,1.53,7.1.56,2.36-1.5,5.7-8.18,5.7-8.18a14.18,14.18,0,0,0,2.42-4.44c.41-1.3,5.09-6.32,5.79-9.22Z"/><path id="l_hindleg" class="cls-8" d="M69,19.91c-2.89,4.63,5.67,17.26,8.75,20s13,2.56,17.37,3.23A9.68,9.68,0,0,1,99.48,45c1.54,1.69.36,9.49,2.26,11.83s4,3.45,4.9,3.1c1-.42-.24-5.14-1.65-5-2.32.23-1-12-3.37-14.22s-7.82-.61-11.54-5.08S89.41,27.87,88.71,25C87.53,20.15,75.06,10.23,69,19.91Z"/><path d="M105,55c-2.32.23-1-12-3.37-14.22s-7.82-.61-11.54-5.08a8.74,8.74,0,0,1-1.35-2.19,10,10,0,0,0-1.89.43c-3.87,1.34-4.12,4.19-5,7.72a0,0,0,0,1,0,0c4.27,1,10.16,1,13.26,1.5A9.68,9.68,0,0,1,99.48,45c1.54,1.69.36,9.49,2.26,11.83s4,3.45,4.9,3.1C107.69,59.52,106.4,54.8,105,55Z"/><path class="cls-8" d="M18.82,0s-3.56,5.51-3.21,10.13c0,0,1-.82,7.19,1C22.8,11.16,20,7.6,18.82,0Z"/><path d="M18.82,0s-1.58,5.72-1.4,7.74c.37,4.18,5.23,3.2,5.23,3.2C19.94,7.13,18.82,0,18.82,0Z"/><path class="cls-8" d="M17.22,9.8s9.64-.47,9.64,7.1-10.73,7.56-10.73,7.56-9-.58-9-7.63S17.22,9.8,17.22,9.8Z"/><path class="cls-8" d="M8.05,13.6C6,18.9-.08,21.43.65,23.05c.93,2.06,13.85.63,13.85.63Z"/><path class="cls-4" d="M2.15,23.85s8-3.2,9.46-2.89S14,24.46,14,24.46,4.29,24.56,2.15,23.85Z"/><ellipse cx="0.93" cy="23.01" rx="0.89" ry="1.48" transform="translate(-5.46 0.88) rotate(-13.79)"/><path class="cls-4" d="M6,17.1s2.6,1.81,5.81-.85a3.42,3.42,0,0,0,.46-5.31,6.2,6.2,0,0,0-4.47,3.13Z"/><path d="M8.5,13.44a1.78,1.78,0,0,1,2.15,1.4C11,16.2,9.45,17,9.45,17A3.09,3.09,0,0,1,6,17.1l1.8-3A1.61,1.61,0,0,1,8.5,13.44Z"/><path class="cls-4" d="M10,15.36a.4.4,0,0,0,0-.79.4.4,0,0,0,0,.79Z"/><path class="cls-8" d="M14.65,0s-2.4,6.11-1.14,10.57c0,0,.77-1,7.25-.42C20.76,10.15,17.34,7.2,14.65,0Z"/><path d="M14.65,0s-.74,5.75-.29,7.73C15.3,11.82,21,10.19,21,10.19,17.22,6.71,14.65,0,14.65,0Z"/><path id="body" class="cls-8" d="M13.72,23.76c2.77,6.36,12.62,20.47,29.77,18.08C85.17,36,66,34.43,75,30c3.43-1.71,11.57,1.5,13.25-.37,4.37-4.88-2-14.65-3.07-15.07C73,9.79,52.7,15.54,39.36,16c-7.94.25-9.45-1.1-13.79-3.1C25.57,12.86,12.11,20.06,13.72,23.76Z"/><path class="cls-8" d="M85.17,14.52s24.11,5.61,27.69,7.57c8.25,4.5,16.5,10.87,21.88,21.37,0,0-8.21,1-26.46-8.57-3.83-2-10.17-3.55-16.58-13.18-2.28-3.41-3.83-3.31-3.83-3.31Z"/><path class="cls-4" d="M59,35.13A90.35,90.35,0,0,1,40.59,36,36,36,0,0,1,24.42,31c-4-2.46-8.44-6.56-12-9.4a2.64,2.64,0,0,0,.2,2.19c.26.86,1.38.82,1.38.82,3.38,6.78,13.26,19.56,29.44,17.3,28.79-4,31.46-6.49,32-10.66C70.78,31.68,64,34.47,59,35.13Z"/><path class="cls-4" d="M120.52,26.93c-1.09,1.86-.5,3.82,0,5.92.73,3,.46,5.3-.8,7.32,10.26,3.93,15,3.33,15,3.33A47.47,47.47,0,0,0,120.52,26.93Z"/><path class="cls-8" d="M33.36,21.56c-2.08,3.56,1.81,12.09,6.38,15.23s5.17,3.45,5.46,5.34c.38,2.56-.84,10.33-.84,10.33a4.48,4.48,0,0,0,2.25,5c3.25,1.72,7.31,4.6,10.46,3.69.76-.22.59-4.72-3.24-4.22-.64.08-1,.37-1.53.31-2.39-.29-2.71-1.4-3.1-2.28s-1.14-2.11-1.3-2.5c-.49-1.23,3.87-8.55,3.77-11.33-.07-1.9-3-7-3-7S38.68,12.48,33.36,21.56Z"/><path d="M53.83,56.93c-.64.08-1,.37-1.53.31-2.39-.29-2.71-1.4-3.1-2.28s-1.14-2.11-1.3-2.5c-.49-1.23,3.87-8.55,3.77-11.33a4.91,4.91,0,0,0-.28-1.27c-2.36.06-4.93.39-6.23,2.09,0,.06,0,.12,0,.18.38,2.56-.84,10.33-.84,10.33a4.48,4.48,0,0,0,2.25,5c3.25,1.72,7.31,4.6,10.46,3.69C57.83,60.93,57.66,56.43,53.83,56.93Z"/><path id="l_hindleg-2" data-name="l_hindleg" class="cls-8" d="M79.11,15.51C73.73,16.43,70,31.21,70,35.34s6.73,11.41,9.12,15.12c.65,1,1.63,3.32,1.5,4.5C80.37,57.23,76,62.84,76,62.84s-5,.33-4.46,3.5c.11.65,5.79,1,6.69-.35,4.41-6.63,7-10.45,7-12.28,0-3.15-4.75-6.25-3.88-12s5.36-5.67,7-8.09C91.24,29.5,90.36,13.6,79.11,15.51Z"/><path d="M81.36,41.71a8.47,8.47,0,0,1,.82-2.64c-3.68-2.76-7.81-2.54-10.88.27,2.08,3.88,6.08,8.44,7.81,11.12.65,1,1.63,3.32,1.5,4.5C80.37,57.23,76,62.84,76,62.84s-5,.33-4.46,3.5c.11.65,5.79,1,6.69-.35,4.41-6.63,7-10.45,7-12.28C85.24,50.56,80.49,47.46,81.36,41.71Z"/></symbol><symbol id="fox_run2" data-name="fox_run2" viewBox="0 0 161 80"><rect class="cls-1" width="161" height="80"/><use width="134.74" height="66.91" transform="scale(1.19 1.2)" xlink:href="#f1"/></symbol><symbol id="f3" data-name="f3" viewBox="0 0 134.74 66.78"><path id="l_hindleg-3" data-name="l_hindleg" class="cls-8" d="M71.78,19.07c-2.85,3.46-4.21,12.1,0,16.32A44.5,44.5,0,0,0,88,45.51c1.55.53,4.19.9,4.8,2.56,1.17,3.18-.48,10.11,1.66,12.31s4.69,3,6.12,2-.71-3.9-2.9-4.39c-3.59-.81-.29-11.41-2.32-14.14s-3.31-2-6.13-5.26c-3.26-3.76-.73-9.64-.38-14.21C89.56,14.24,77.74,11.83,71.78,19.07Z"/><path d="M97.63,57.94c-3.61-1,0-11.07-2.14-14.43-1.16-1.87-5.67-3.49-7-6A13.1,13.1,0,0,1,87.57,36c-1.06.08-4.32,1.36-4.93,1.45a15.59,15.59,0,0,1-9.85-1.55h0c3.9,4.17,10,7.71,15.08,9.62,1.9.72,4.18.89,4.85,2.58,1.29,3.24-.49,10.12,1.68,12.33s4.69,3,6.13,2S99.83,58.54,97.63,57.94Z"/><path class="cls-8" d="M36.7,16.7c-3.61,2-4.59,11.34-2.24,16.37s2.7,5.59,2,7.36c-1,2.41-6,8.48-6,8.48a4.46,4.46,0,0,0-.6,5.45c1.92,3.13,4,7.67,7.13,8.49.77.2,2.91-3.77-.65-5.28-.6-.26-1.09-.21-1.47-.51-1.92-1.46-1.62-2.59-1.52-3.54s.09-2.4.16-2.81c.2-1.31,7.67-5.4,9-7.85.9-1.67,1-7.54,1-7.54S45.89,11.58,36.7,16.7Z"/><path d="M36.36,57.57c-.6-.26-1.09-.21-1.47-.51-1.92-1.46-1.62-2.59-1.52-3.54s.09-2.4.16-2.81c.2-1.31,7.67-5.4,9-7.85a5,5,0,0,0,.4-1.24c-2.06-1.14-4.44-2.16-6.43-1.35a1.66,1.66,0,0,1-.06.16c-1,2.41-6,8.48-6,8.48a4.46,4.46,0,0,0-.6,5.45c1.92,3.13,4,7.67,7.13,8.49C37.78,63.05,39.92,59.08,36.36,57.57Z"/><path class="cls-8" d="M18.82,0s-3.56,5.51-3.21,10.13c0,0,1-.82,7.19,1C22.8,11.16,20,7.6,18.82,0Z"/><path d="M18.82,0s-1.58,5.72-1.4,7.74c.37,4.18,5.23,3.2,5.23,3.2C19.94,7.13,18.82,0,18.82,0Z"/><path class="cls-8" d="M17.22,9.8s9.64-.47,9.64,7.1-10.73,7.56-10.73,7.56-9-.58-9-7.63S17.22,9.8,17.22,9.8Z"/><path class="cls-8" d="M8.05,13.6C6,18.9-.08,21.43.65,23.05c.93,2.06,13.85.63,13.85.63Z"/><path class="cls-4" d="M2.15,23.85s8-3.2,9.46-2.89S14,24.46,14,24.46,4.29,24.56,2.15,23.85Z"/><ellipse cx="0.93" cy="23.01" rx="0.89" ry="1.48" transform="translate(-5.46 0.88) rotate(-13.79)"/><path class="cls-4" d="M6,17.1s2.6,1.81,5.81-.85a3.42,3.42,0,0,0,.46-5.31,6.2,6.2,0,0,0-4.47,3.13Z"/><path d="M8.5,13.44a1.78,1.78,0,0,1,2.15,1.4C11,16.2,9.45,17,9.45,17A3.09,3.09,0,0,1,6,17.1l1.8-3A1.61,1.61,0,0,1,8.5,13.44Z"/><path class="cls-4" d="M10,15.36a.4.4,0,0,0,0-.79.4.4,0,0,0,0,.79Z"/><path class="cls-8" d="M14.65,0s-2.4,6.11-1.14,10.57c0,0,.77-1,7.25-.42C20.76,10.15,17.34,7.2,14.65,0Z"/><path d="M14.65,0s-.74,5.75-.29,7.73C15.3,11.82,21,10.19,21,10.19,17.22,6.71,14.65,0,14.65,0Z"/><path id="body-2" data-name="body" class="cls-8" d="M13.72,23.76c2.77,6.36,12.62,20.47,29.77,18.08C85.17,36,66,34.43,75,30c3.43-1.71,11.57,1.5,13.25-.37,4.37-4.88-2-14.65-3.07-15.07C73,9.79,52.7,15.54,39.36,16c-7.94.25-9.45-1.1-13.79-3.1C25.57,12.86,12.11,20.06,13.72,23.76Z"/><path class="cls-8" d="M85.17,14.52s24.11,5.61,27.69,7.57c8.25,4.5,16.5,10.87,21.88,21.37,0,0-8.21,1-26.46-8.57-3.83-2-10.17-3.55-16.58-13.18-2.28-3.41-3.83-3.31-3.83-3.31Z"/><path class="cls-4" d="M59,35.13A90.35,90.35,0,0,1,40.59,36,36,36,0,0,1,24.42,31c-4-2.46-8.44-6.56-12-9.4a2.64,2.64,0,0,0,.2,2.19c.26.86,1.38.82,1.38.82,3.38,6.78,13.26,19.56,29.44,17.3,28.79-4,31.46-6.49,32-10.66C70.78,31.68,64,34.47,59,35.13Z"/><path class="cls-4" d="M120.52,26.93c-1.09,1.86-.5,3.82,0,5.92.73,3,.46,5.3-.8,7.32,10.26,3.93,15,3.33,15,3.33A47.47,47.47,0,0,0,120.52,26.93Z"/><path class="cls-8" d="M36.49,22.7c-2.18.15-2.47,5-1.5,9.77s4.86,7.75,5.82,9.59c.78,1.47.63,7.07.63,7.07a6.94,6.94,0,0,0-.88,5.38c.26,1.29-1.82,8.05-1.82,8.05s-5,.35-4.53,3.42c.15,1,6.44.86,6.78.38C42.6,64,44.17,54.9,44.17,54.9a14.18,14.18,0,0,0,1-5c0-1.43,3.29-8.17,2.75-10.94-.19-1-4.11-9.28-4.11-9.28S42.64,22.28,36.49,22.7Z"/><path d="M47.77,39.46A11.65,11.65,0,0,0,41,42.6a32.34,32.34,0,0,1,.43,6.53,6.94,6.94,0,0,0-.88,5.38c.26,1.29-1.82,8.05-1.82,8.05s-5,.35-4.53,3.42c.15,1,6.39,1,6.78.38,1.81-2.8,3.36-12.1,3.36-12.1a18.69,18.69,0,0,0,1-4.17c.21-1.24,2.75-7.7,2.56-10.67Z"/><path id="l_hindleg-4" data-name="l_hindleg" class="cls-8" d="M72.19,15.13c-4.82,2.56-1.36,18.11.44,21.82s11,7.34,14.81,9.63c1,.62,2.91,2.28,3.31,3.4C91.53,52.12,88,62.36,88,62.36s-3.56.25-3.43,3.75c0,.62,6.74,1.1,7-.5,1.24-7.82,3.7-16.82,2.9-18.47C93.11,44.3,89,42.53,87.76,36.82c-.48-2.3,2.39-5.89,2.61-9.43C91,16.94,80.82,10.57,72.19,15.13Z"/><path d="M88.18,38c-.37-1-.55-1.71-.55-1.71-4.51-.88-8.87.91-10.41,4.78,3.57,2.58,7.49,3.83,10.22,5.49,1,.62,2.91,2.28,3.31,3.4C91.53,52.12,88,62.36,88,62.36s-3.62.19-3.43,3.75c0,.66,6.63,1.16,7-.5,1.81-8.12,3.93-17,3.13-18.69C93.34,44.09,90.27,43.57,88.18,38Z"/></symbol><symbol id="fox_run4" data-name="fox_run4" viewBox="0 0 161 80"><rect class="cls-1" width="161" height="80"/><use width="134.74" height="66.78" transform="scale(1.19 1.2)" xlink:href="#f3"/></symbol><symbol id="f4" data-name="f4" viewBox="0 0 134.45 66.41"><path class="cls-8" d="M40.35,22.71c-1.8-.17-4.3,5.66-4.22,8.69s1.72,7,2.13,10.36c.34,2.67-1.65,5.63-1.71,8.28-1.39,2-1.39,2.89-1.7,5.71-.12,1.08-2.36,5-3.13,6.37-2,.51-4.76.53-4.53,3.41.08,1,5.95,1.1,6.41.47,2.19-3,3.58-6.91,4.9-9.81s.84-1.7,1.8-5.52c.51-2,5.23-6.46,6-10.36.29-1.43-.75-6.47-.82-9.33S45.43,23.2,40.35,22.71Z"/><path d="M46.09,41.06a11.78,11.78,0,0,0-7.74,1.29c-.54,2.58-1.43,5.13-1.82,7.7-1.34,2-1.38,2.89-1.68,5.7-.11,1.08-2.37,5-3.13,6.37-2,.53-4.77.5-4.53,3.42.08,1,5.94,1.13,6.42.47,2.24-3.07,3.9-7.5,5.15-10.3a33.52,33.52,0,0,0,1.79-4.81c.5-1.41,4.74-7.45,5.69-9.74C46.25,41,46.16,41.07,46.09,41.06Z"/><path class="cls-8" d="M18.54,0S15,5.51,15.33,10.13c0,0,1-.82,7.18,1C22.51,11.16,19.75,7.6,18.54,0Z"/><path d="M18.54,0S17,5.72,17.13,7.74c.37,4.18,5.23,3.2,5.23,3.2C19.65,7.13,18.54,0,18.54,0Z"/><path class="cls-8" d="M16.93,9.8s9.65-.47,9.65,7.1-10.73,7.56-10.73,7.56-9-.58-9-7.63S16.93,9.8,16.93,9.8Z"/><path class="cls-8" d="M7.77,13.6C5.67,18.9-.37,21.43.36,23.05c.93,2.06,13.85.63,13.85.63Z"/><path class="cls-4" d="M1.86,23.85s8.05-3.2,9.47-2.89,2.34,3.5,2.34,3.5S4,24.56,1.86,23.85Z"/><path class="cls-4" d="M5.67,17.1s2.59,1.81,5.8-.85a3.42,3.42,0,0,0,.47-5.31,6.19,6.19,0,0,0-4.47,3.13Z"/><path d="M8.21,13.44a1.78,1.78,0,0,1,2.15,1.4C10.73,16.2,9.16,17,9.16,17a3.08,3.08,0,0,1-3.49.07l1.8-3S7.82,13.53,8.21,13.44Z"/><path class="cls-4" d="M9.72,15.36a.4.4,0,0,0,0-.79.4.4,0,0,0,0,.79Z"/><path class="cls-8" d="M14.36,0S12,6.11,13.22,10.57c0,0,.78-1,7.25-.42C20.47,10.15,17.06,7.2,14.36,0Z"/><path d="M14.36,0s-.74,5.75-.28,7.73c.93,4.09,6.59,2.46,6.59,2.46C16.94,6.71,14.36,0,14.36,0Z"/><path id="body-3" data-name="body" class="cls-8" d="M13.43,23.76C16.2,30.12,26.06,44.23,43.2,41.84,84.89,36,65.75,34.43,74.7,30c3.44-1.71,11.57,1.5,13.25-.37,4.37-4.88-2-14.65-3.06-15.07C72.7,9.79,52.41,15.54,39.08,16c-7.94.25-9.45-1.1-13.8-3.1C25.28,12.86,11.83,20.06,13.43,23.76Z"/><path class="cls-8" d="M84.89,14.52s24.1,5.61,27.69,7.57c8.25,4.5,16.5,10.87,21.87,21.37,0,0-8.21,1-26.46-8.57-3.82-2-10.16-3.55-16.58-13.18-2.28-3.41-3.83-3.31-3.83-3.31Z"/><path class="cls-4" d="M58.66,35.13A90.31,90.31,0,0,1,40.3,36,36,36,0,0,1,24.13,31c-4-2.46-8.43-6.56-12-9.4a2.69,2.69,0,0,0,.19,2.19c.27.86,1.38.82,1.38.82,3.38,6.78,13.26,19.56,29.45,17.3,28.78-4,31.46-6.49,32-10.66C70.49,31.68,63.7,34.47,58.66,35.13Z"/><path class="cls-4" d="M120.23,26.93c-1.09,1.86-.49,3.82,0,5.92.73,3,.46,5.3-.8,7.32,10.26,3.93,15,3.33,15,3.33A47.37,47.37,0,0,0,120.23,26.93Z"/><ellipse cx="0.93" cy="23.01" rx="0.89" ry="1.48" transform="translate(-5.46 0.88) rotate(-13.79)"/><path class="cls-8" d="M39.13,18.28c-3.76,1.15-5,12.87-2.4,15.92s4.13,4.62,4.58,7.29c.6,3.62-.59,7.35-1,10.23s-.65,3.5,1.72,5.5,6.11,6.09,10.39,5c1-.26-.59-5-3.06-4.23a4.38,4.38,0,0,1-1.57,0,3.67,3.67,0,0,1-2.91-2.74c-.33-1.3-1-1.61-1.06-2.8-.23-3.82,3.55-6.46,4-10.29.33-2.63-.46-3.53-1.53-7.22S48.68,15.36,39.13,18.28Z"/><path d="M49.34,58a4.38,4.38,0,0,1-1.57,0,3.64,3.64,0,0,1-2.9-2.74c-.29-1.26-1.08-1.68-1.07-2.8,0-3.59,3.12-6.83,4.17-10.19a4,4,0,0,0,0-1.24c-2.22-.48-4.58-1-6.56.36-.06,0,0,.12,0,.2a45.36,45.36,0,0,1-1.1,10.12c-.54,2.72-.63,3.53,1.71,5.48s6.12,6.11,10.38,5C53.42,62,51.81,57.3,49.34,58Z"/><path id="l_hindleg-5" data-name="l_hindleg" class="cls-8" d="M71.63,19.23c-2.79,3.56-2.8,12.29,1.38,15.92A46.65,46.65,0,0,0,89,44.2c1.53.49,3.9.92,4.3,2.6.78,3.23-.07,9.65,2.5,11.44s5.18,2.12,6.42.88-1.23-3.76-3.61-3.79c-3.93-.06-1-10.32-2.68-12.86s-3.09-1.91-5.71-4.92c-3.05-3.5-.69-8.83-.71-13.3C89.41,14.37,77.46,11.79,71.63,19.23Z"/><path d="M98.78,55c-3.91-.24-1-9.76-2.68-12.88-.91-1.74-5.32-3.33-6.61-5.65a8.43,8.43,0,0,1-.84-1.44A21.21,21.21,0,0,0,84,36.72a11.44,11.44,0,0,0-4.22,3.48h0A42.24,42.24,0,0,0,89,44.44c1.23.41,3.59.74,4,2.39.7,3.18.28,9.65,2.82,11.41s5.19,2.15,6.42.87S101.15,55.18,98.78,55Z"/><path id="l_hindleg-6" data-name="l_hindleg" class="cls-8" d="M68.4,18.73C64.16,22,68,31.16,70.47,35.51S80.15,41.86,84,45.29c1,.92,2.71,2.9,2.68,4.85-.07,3.77-3.24,7.91-5,11.4-2,.69-4.63.84-4,3.73.1.52,6.45.56,6.75-.4,1.52-4.67,7.6-15.58,6.11-17.25-4.24-4.75-5.16-5.47-5.81-11.81-.26-2.56,2.81-6,2.54-9.2C86.53,17.14,76,12.82,68.4,18.73Z"/><path d="M85.06,37.33a13.6,13.6,0,0,1-.42-1.88c-4.46-.84-7.78-.22-9.85,4.09,2.79,2.71,4.77,3.82,8.09,6.33,1.15.87,4,1.6,3.56,4.51-.5,3.51-3,7.66-4.7,11.16-2,.69-4.69.75-4,3.73.12.56,6.37.51,6.76-.39,1.9-4.42,8.21-16.34,6.48-18A18.06,18.06,0,0,1,85.06,37.33Z"/></symbol><symbol id="fox_run3" data-name="fox_run3" viewBox="0 0 161 80"><rect class="cls-1" width="161" height="80"/><use width="134.45" height="66.41" transform="scale(1.2 1.2)" xlink:href="#f4"/></symbol><symbol id="f5" data-name="f5" viewBox="0 0 136.96 67.03"><path id="l_hindleg-7" data-name="l_hindleg" class="cls-8" d="M80.23,15C75.2,13.49,67.46,28.7,69,35S73.86,44.41,75.75,50a5.58,5.58,0,0,1-.32,4.4C74.06,57.22,72,60,70.5,62.84c-2,.71-4.77.75-4.19,3.87.12.64,6.08.24,6.42-.58,1.64-4,6.49-8.34,7.41-11.24,1.57-5-1-7.8-.25-12.35s3.55-3.76,5-7.45C87.34,28.83,90.73,18.13,80.23,15Z"/><path d="M80,42.5A22.33,22.33,0,0,1,80.65,40c-3.39-2.85-6.61-2.47-10.28-.26,1.84,3.44,4.45,6.51,5.39,10.36a6.12,6.12,0,0,1-.32,4.4C74,57.18,72,60,70.5,62.84c-2,.71-4.77.75-4.18,3.87.12.64,6.06.24,6.41-.58,1.72-4,6.38-8.32,7.42-11.24C82,49.88,78.79,47.16,80,42.5Z"/><path class="cls-8" d="M34.05,22.86c-2.76,3.2,2.67,12.83,5.65,14.72s5,3,6.3,5.43c1.72,3.31,1.59,6.49,2.48,9.56S49,55.48,52,57.34s6.46,7.84,11.19,6.57C64.34,63.6,62,58.46,60,59a4.89,4.89,0,0,1-1.71-.58,10.69,10.69,0,0,1-4-3.57c-.78-1.26-1.62-1.33-2-2.54-1.3-3.88,1-6.77.11-11-.58-2.87-1.69-3.74-3.7-7.41S41.1,14.69,34.05,22.86Z"/><path d="M60,59a4.82,4.82,0,0,1-1.71-.58A13.15,13.15,0,0,1,54,54.1c-.74-1.22-1.2-.82-1.52-2-1-3.64.18-7,0-10.68a4.76,4.76,0,0,0-.38-1.27c-2.37.41-4.42.91-6,2.82-.05.05,0,.12,0,.19,1.11,3,1.59,6.46,2.3,9.41s.55,2.93,3.51,4.74S58.5,65.21,63.2,63.9C64.33,63.59,62,58.47,60,59Z"/><path class="cls-8" d="M19.13,0s-3.62,5.6-3.26,10.3c0,0,1-.83,7.31,1C23.18,11.34,20.37,7.72,19.13,0Z"/><path d="M19.13,0s-1.6,5.82-1.42,7.86c.37,4.26,5.31,3.26,5.31,3.26C20.27,7.24,19.13,0,19.13,0Z"/><path class="cls-8" d="M17.5,10s9.81-.48,9.81,7.22S16.4,24.86,16.4,24.86s-9.17-.58-9.17-7.75S17.5,10,17.5,10Z"/><path class="cls-8" d="M8.19,13.82c-2.14,5.39-8.27,8-7.53,9.61.94,2.1,14.08.64,14.08.64Z"/><path class="cls-4" d="M2.18,24.24s8.18-3.25,9.63-2.93,2.38,3.55,2.38,3.55S4.36,25,2.18,24.24Z"/><ellipse cx="0.95" cy="23.39" rx="0.9" ry="1.5" transform="translate(-5.55 0.9) rotate(-13.79)"/><path class="cls-4" d="M6.05,17.39s2.64,1.83,5.9-.87a3.48,3.48,0,0,0,.48-5.4A6.3,6.3,0,0,0,7.88,14.3Z"/><path d="M8.64,13.66a1.8,1.8,0,0,1,2.18,1.43c.37,1.37-1.22,2.22-1.22,2.22a3.12,3.12,0,0,1-3.55.08L7.88,14.3S8.24,13.75,8.64,13.66Z"/><path class="cls-4" d="M10.17,15.61a.4.4,0,0,0,0-.79.4.4,0,0,0,0,.79Z"/><path class="cls-8" d="M14.89,0s-2.44,6.21-1.16,10.74c0,0,.79-1,7.37-.42C21.1,10.32,17.63,7.32,14.89,0Z"/><path d="M14.89,0s-.75,5.85-.29,7.85c1,4.16,6.7,2.51,6.7,2.51C17.51,6.82,14.89,0,14.89,0Z"/><path id="body-4" data-name="body" class="cls-8" d="M14,24.15C16.76,30.61,26.78,45,44.21,42.53c42.37-5.91,22.91-7.53,32-12.07C79.72,28.71,88,32,89.69,30.07c4.45-4.95-2-14.89-3.11-15.31-12.39-4.81-33,1-46.57,1.46-8.07.26-9.6-1.12-14-3.15C26,13.07,12.31,20.4,14,24.15Z"/><path class="cls-8" d="M86.58,14.76s24.5,5.7,28.15,7.69C123.11,27,131.5,33.5,137,44.18c0,0-8.34,1.07-26.89-8.72-3.89-2.05-10.34-3.61-16.86-13.39-2.31-3.47-3.89-3.37-3.89-3.37Z"/><path class="cls-4" d="M59.92,35.71c-5.93.77-12.7,1.42-18.66.92a36.49,36.49,0,0,1-16.44-5.16c-4.1-2.5-8.57-6.67-12.23-9.56a2.74,2.74,0,0,0,.19,2.23c.27.87,1.41.83,1.41.83,3.44,6.9,13.47,19.89,29.93,17.59,29.26-4.07,32-6.6,32.49-10.83C72,32.21,65,35,59.92,35.71Z"/><path class="cls-4" d="M122.51,27.37c-1.11,1.9-.51,3.89,0,6,.74,3.06.46,5.39-.82,7.45,10.44,4,15.25,3.37,15.25,3.37A48.23,48.23,0,0,0,122.51,27.37Z"/><path class="cls-8" d="M34.42,26.87c-2.06,1.52-2.79,4.73-3.3,9.68s1.07,5.36,1.46,7.44c.31,1.66-1.52,7-1.52,7a7,7,0,0,0-2.48,5c-.15,1.33-3.81,5.87-3.81,5.87s-5.34.22-5.82,3.34c-.17,1,5.66,1.55,7.21.57,2.41-1.52,5.8-8.31,5.8-8.31A14.45,14.45,0,0,0,34.42,53c.44-1.38,5.66-6.94,6-9.79.12-1,.78-10.79.78-10.79S39.47,23.17,34.42,26.87Z"/><path d="M40.11,43.57a11.73,11.73,0,0,0-7.5,1A32.88,32.88,0,0,1,31.06,51a7,7,0,0,0-2.48,5c-.15,1.33-3.81,5.87-3.81,5.87s-5.34.22-5.82,3.34c-.17,1,5.66,1.55,7.21.57,2.41-1.52,5.8-8.31,5.8-8.31A14.45,14.45,0,0,0,34.42,53c.42-1.32,5.18-6.43,5.89-9.37Z"/><path id="l_hindleg-8" data-name="l_hindleg" class="cls-8" d="M70.52,20.87c-2.59,4.41,4.49,15.91,9,19.1s11.28,3,16.4,4.76c1.37.48,3.17,1,4,2.49,1.61,2.8,3.13,9.39,5.28,11.13s4.44,2.82,5.61,1.65-.46-3.93-3-4.3c-4.21-.61-3.39-9.9-5.88-12.9s-7.48-2.56-10.14-6.59.1-6.79-1.55-11C87.43,18,76,11.65,70.52,20.87Z"/><path d="M107.82,55.7c-4.17-.61-3.48-9.9-5.87-12.9s-7.74-2.55-10.12-6.59a13.41,13.41,0,0,1-1.25-2.34,9.21,9.21,0,0,0-1.84.35c-3.56,1.45-4.14,4.13-5.06,7.59,0,0,0,0,0,0,4,.92,8.37,1.54,12.24,2.89,1.46.51,3.16,1,4,2.49,1.63,2.81,3.11,9.4,5.28,11.14s4.43,2.82,5.61,1.65S110.34,56.07,107.82,55.7Z"/></symbol><symbol id="fox_run5" data-name="fox_run5" viewBox="0 0 161 80"><rect class="cls-1" width="161" height="80"/><use width="136.96" height="67.03" transform="scale(1.18 1.19)" xlink:href="#f5"/></symbol><symbol id="f6" data-name="f6" viewBox="0 0 136.96 68.02"><path class="cls-8" d="M33.91,21.91c-2.12,3.63,1.84,12.3,6.49,15.49s5.25,3.51,5.54,5.42c.4,2.61-.85,10.51-.85,10.51a4.54,4.54,0,0,0,2.29,5.08c3.31,1.75,7.43,4.67,10.64,3.75.77-.22.6-4.8-3.3-4.29-.66.09-1.06.38-1.56.32-2.43-.3-2.75-1.43-3.15-2.32s-1.16-2.15-1.32-2.54c-.49-1.26,3.94-8.69,3.83-11.52-.07-1.93-3-7.12-3-7.12S39.32,12.68,33.91,21.91Z"/><path d="M54.72,57.87c-.66.09-1.06.38-1.56.32-2.43-.3-2.75-1.43-3.15-2.32s-1.16-2.15-1.32-2.54c-.49-1.26,3.94-8.69,3.83-11.52a5.27,5.27,0,0,0-.28-1.3c-2.4.07-5,.41-6.33,2.14l0,.17c.4,2.61-.85,10.51-.85,10.51a4.54,4.54,0,0,0,2.29,5.08c3.31,1.75,7.43,4.67,10.64,3.75C58.79,61.94,58.62,57.36,54.72,57.87Z"/><path id="l_hindleg-9" data-name="l_hindleg" class="cls-8" d="M80.42,15.77c-5.47.93-9.28,16-9.28,20.15S78,47.52,80.42,51.29c.65,1,1.65,3.38,1.52,4.58-.24,2.31-4.7,8-4.7,8s-5.08.34-4.53,3.56c.11.67,5.89,1,6.8-.35C84,60.35,86.64,56.46,86.64,54.6c0-3.21-4.82-6.36-3.93-12.2s5.45-5.76,7.15-8.23C92.75,30,91.85,13.82,80.42,15.77Z"/><path d="M82.71,42.4a8.65,8.65,0,0,1,.82-2.68c-3.73-2.81-7.93-2.59-11,.27,2.11,3.94,6.18,8.57,7.94,11.3.65,1,1.65,3.38,1.52,4.58-.24,2.31-4.7,8-4.7,8s-5.08.34-4.53,3.56c.11.67,5.89,1,6.8-.35C84,60.35,86.64,56.46,86.64,54.6,86.64,51.39,81.82,48.24,82.71,42.4Z"/><path class="cls-8" d="M19.13,0s-3.62,5.6-3.26,10.3c0,0,1-.83,7.31,1C23.18,11.34,20.37,7.72,19.13,0Z"/><path d="M19.13,0s-1.6,5.82-1.42,7.86c.37,4.26,5.31,3.26,5.31,3.26C20.27,7.24,19.13,0,19.13,0Z"/><path class="cls-8" d="M17.5,10s9.81-.48,9.81,7.22S16.4,24.86,16.4,24.86s-9.17-.58-9.17-7.75S17.5,10,17.5,10Z"/><path class="cls-8" d="M8.19,13.82c-2.14,5.39-8.27,8-7.53,9.61.94,2.1,14.08.64,14.08.64Z"/><path class="cls-4" d="M2.18,24.24s8.18-3.25,9.63-2.93,2.38,3.55,2.38,3.55S4.36,25,2.18,24.24Z"/><ellipse cx="0.95" cy="23.39" rx="0.9" ry="1.5" transform="translate(-5.55 0.9) rotate(-13.79)"/><path class="cls-4" d="M6.05,17.39s2.64,1.83,5.9-.87a3.48,3.48,0,0,0,.48-5.4A6.3,6.3,0,0,0,7.88,14.3Z"/><path d="M8.64,13.66a1.8,1.8,0,0,1,2.18,1.43c.37,1.37-1.22,2.22-1.22,2.22a3.12,3.12,0,0,1-3.55.08L7.88,14.3S8.24,13.75,8.64,13.66Z"/><path class="cls-4" d="M10.17,15.61a.4.4,0,0,0,0-.79.4.4,0,0,0,0,.79Z"/><path class="cls-8" d="M14.89,0s-2.44,6.21-1.16,10.74c0,0,.79-1,7.37-.42C21.1,10.32,17.63,7.32,14.89,0Z"/><path d="M14.89,0s-.75,5.85-.29,7.85c1,4.16,6.7,2.51,6.7,2.51C17.51,6.82,14.89,0,14.89,0Z"/><path id="body-5" data-name="body" class="cls-8" d="M14,24.15C16.76,30.61,26.78,45,44.21,42.53c42.37-5.91,22.91-7.53,32-12.07C79.72,28.71,88,32,89.69,30.07c4.45-4.95-2-14.89-3.11-15.31-12.39-4.81-33,1-46.57,1.46-8.07.26-9.6-1.12-14-3.15C26,13.07,12.31,20.4,14,24.15Z"/><path class="cls-8" d="M86.58,14.76s24.5,5.7,28.15,7.69C123.11,27,131.5,33.5,137,44.18c0,0-8.34,1.07-26.89-8.72-3.89-2.05-10.34-3.61-16.86-13.39-2.31-3.47-3.89-3.37-3.89-3.37Z"/><path class="cls-4" d="M59.92,35.71c-5.93.77-12.7,1.42-18.66.92a36.49,36.49,0,0,1-16.44-5.16c-4.1-2.5-8.57-6.67-12.23-9.56a2.74,2.74,0,0,0,.19,2.23c.27.87,1.41.83,1.41.83,3.44,6.9,13.47,19.89,29.93,17.59,29.26-4.07,32-6.6,32.49-10.83C72,32.21,65,35,59.92,35.71Z"/><path class="cls-4" d="M122.51,27.37c-1.11,1.9-.51,3.89,0,6,.74,3.06.46,5.39-.82,7.45,10.44,4,15.25,3.37,15.25,3.37A48.23,48.23,0,0,0,122.51,27.37Z"/><path class="cls-8" d="M34.42,26.87c-2.06,1.52-2.79,4.73-3.3,9.68s1.07,5.36,1.46,7.44c.31,1.66-1.52,7-1.52,7a7,7,0,0,0-2.48,5c-.15,1.33-3.81,5.87-3.81,5.87s-5.34.22-5.82,3.34c-.17,1,5.66,1.55,7.21.57,2.41-1.52,5.8-8.31,5.8-8.31A14.45,14.45,0,0,0,34.42,53c.44-1.38,5.66-6.94,6-9.79.12-1-1.52-3.94-1.52-3.94S39.47,23.17,34.42,26.87Z"/><path d="M40.11,43.57a11.73,11.73,0,0,0-7.5,1A32.88,32.88,0,0,1,31.06,51a7,7,0,0,0-2.48,5c-.15,1.33-3.81,5.87-3.81,5.87s-5.34.22-5.82,3.34c-.17,1,5.66,1.55,7.21.57,2.41-1.52,5.8-8.31,5.8-8.31A14.45,14.45,0,0,0,34.42,53c.42-1.32,5.18-6.43,5.89-9.37Z"/><path id="l_hindleg-10" data-name="l_hindleg" class="cls-8" d="M70.15,20.24c-2.94,4.7,5.76,17.54,8.89,20.33s13.22,2.6,17.66,3.29c1.19.18,3.62,1,4.43,1.9,1.56,1.71.36,9.64,2.29,12s4.08,3.51,5,3.15c1.07-.43-.25-5.22-1.68-5.08-2.36.24-1-12.17-3.42-14.45s-8-.62-11.73-5.17-.68-7.9-1.39-10.81C89,20.48,76.3,10.4,70.15,20.24Z"/><path d="M106.72,55.85c-2.36.24-1-12.17-3.42-14.45s-8-.62-11.73-5.17A8.53,8.53,0,0,1,90.2,34a10.1,10.1,0,0,0-1.92.43c-3.94,1.37-4.2,4.27-5,7.86a0,0,0,0,0,0,0c4.33,1,10.32,1,13.47,1.53,1.19.18,3.62,1,4.43,1.9,1.56,1.71.36,9.64,2.29,12s4.08,3.51,5,3.15C109.47,60.5,108.15,55.71,106.72,55.85Z"/></symbol><symbol id="fox_run6" data-name="fox_run6" viewBox="0 0 161 80"><rect class="cls-1" width="161" height="80"/><use width="136.96" height="68.02" transform="scale(1.18 1.18)" xlink:href="#f6"/></symbol><symbol id="f8" data-name="f8" viewBox="0 0 136.96 67.89"><path id="l_hindleg-11" data-name="l_hindleg" class="cls-8" d="M73.38,15.38c-4.9,2.6-1.38,18.41.45,22.19s11.22,7.45,15,9.78c1,.63,3,2.32,3.37,3.45C93,53,89.48,63.39,89.48,63.39s-3.63.25-3.5,3.81c0,.63,6.86,1.12,7.12-.51,1.26-7.94,3.76-17.1,3-18.77-1.4-2.89-5.62-4.69-6.84-10.49-.49-2.34,2.42-6,2.65-9.59C92.53,17.22,82.15,10.74,73.38,15.38Z"/><path d="M89.64,38.64c-.38-1-.56-1.73-.56-1.73-4.59-.9-9,.93-10.58,4.86,3.62,2.62,7.6,3.9,10.38,5.58,1,.63,3,2.32,3.37,3.45C93,53,89.48,63.39,89.48,63.39s-3.69.19-3.5,3.81c0,.67,6.74,1.18,7.12-.51,1.84-8.25,4-17.31,3.18-19C94.88,44.82,91.76,44.29,89.64,38.64Z"/><path class="cls-8" d="M37.09,23.08c-2.22.15-2.51,5-1.52,9.92s4.93,7.89,5.92,9.75c.79,1.5.64,7.19.64,7.19a7.06,7.06,0,0,0-.9,5.47c.26,1.31-1.85,8.19-1.85,8.19s-5.07.35-4.61,3.46c.16,1,6.56.88,6.89.39,1.64-2.36,3.24-11.64,3.24-11.64a14.66,14.66,0,0,0,1-5.05c0-1.45,3.34-8.3,2.8-11.12-.21-1-4.19-9.43-4.19-9.43S43.34,22.65,37.09,23.08Z"/><path d="M48.56,40.11a11.87,11.87,0,0,0-6.87,3.19,32.88,32.88,0,0,1,.44,6.64,7.06,7.06,0,0,0-.9,5.47c.26,1.31-1.85,8.19-1.85,8.19s-5.07.35-4.61,3.46c.16,1,6.5,1,6.89.39,1.85-2.84,3.43-12.3,3.43-12.3a18.52,18.52,0,0,0,1.06-4.23c.22-1.27,2.79-7.83,2.6-10.85Z"/><path class="cls-8" d="M19.13,0s-3.62,5.6-3.26,10.3c0,0,1-.83,7.31,1C23.18,11.34,20.37,7.72,19.13,0Z"/><path d="M19.13,0s-1.6,5.82-1.42,7.86c.37,4.26,5.31,3.26,5.31,3.26C20.27,7.24,19.13,0,19.13,0Z"/><path class="cls-8" d="M17.5,10s9.81-.48,9.81,7.22S16.4,24.86,16.4,24.86s-9.17-.58-9.17-7.75S17.5,10,17.5,10Z"/><path class="cls-8" d="M8.19,13.82c-2.14,5.39-8.27,8-7.53,9.61.94,2.1,14.08.64,14.08.64Z"/><path class="cls-4" d="M2.18,24.24s8.18-3.25,9.63-2.93,2.38,3.55,2.38,3.55S4.36,25,2.18,24.24Z"/><ellipse cx="0.95" cy="23.39" rx="0.9" ry="1.5" transform="translate(-5.55 0.9) rotate(-13.79)"/><path class="cls-4" d="M6.05,17.39s2.64,1.83,5.9-.87a3.48,3.48,0,0,0,.48-5.4A6.3,6.3,0,0,0,7.88,14.3Z"/><path d="M8.64,13.66a1.8,1.8,0,0,1,2.18,1.43c.37,1.37-1.22,2.22-1.22,2.22a3.12,3.12,0,0,1-3.55.08L7.88,14.3S8.24,13.75,8.64,13.66Z"/><path class="cls-4" d="M10.17,15.61a.4.4,0,0,0,0-.79.4.4,0,0,0,0,.79Z"/><path class="cls-8" d="M14.89,0s-2.44,6.21-1.16,10.74c0,0,.79-1,7.37-.42C21.1,10.32,17.63,7.32,14.89,0Z"/><path d="M14.89,0s-.75,5.85-.29,7.85c1,4.16,6.7,2.51,6.7,2.51C17.51,6.82,14.89,0,14.89,0Z"/><path id="body-6" data-name="body" class="cls-8" d="M14,24.15C16.76,30.61,26.78,45,44.21,42.53c42.37-5.91,22.91-7.53,32-12.07C79.72,28.71,88,32,89.69,30.07c4.45-4.95-2-14.89-3.11-15.31-12.39-4.81-33,1-46.57,1.46-8.07.26-9.6-1.12-14-3.15C26,13.07,12.31,20.4,14,24.15Z"/><path class="cls-8" d="M86.58,14.76s24.5,5.7,28.15,7.69C123.11,27,131.5,33.5,137,44.18c0,0-8.34,1.07-26.89-8.72-3.89-2.05-10.34-3.61-16.86-13.39-2.31-3.47-3.89-3.37-3.89-3.37Z"/><path class="cls-4" d="M59.92,35.71c-5.93.77-12.7,1.42-18.66.92a36.49,36.49,0,0,1-16.44-5.16c-4.1-2.5-8.57-6.67-12.23-9.56a2.74,2.74,0,0,0,.19,2.23c.27.87,1.41.83,1.41.83,3.44,6.9,13.47,19.89,29.93,17.59,29.26-4.07,32-6.6,32.49-10.83C72,32.21,65,35,59.92,35.71Z"/><path class="cls-4" d="M122.51,27.37c-1.11,1.9-.51,3.89,0,6,.74,3.06.46,5.39-.82,7.45,10.44,4,15.25,3.37,15.25,3.37A48.23,48.23,0,0,0,122.51,27.37Z"/><path id="l_hindleg-12" data-name="l_hindleg" class="cls-8" d="M73,19.38c-2.9,3.53-4.28,12.3,0,16.59A44.93,44.93,0,0,0,89.4,46.26c1.57.54,4.26.92,4.88,2.6,1.19,3.23-.48,10.28,1.69,12.52s4.77,3.06,6.22,2-.73-4-2.94-4.47c-3.66-.81-.31-11.59-2.36-14.37s-3.37-2-6.23-5.34c-3.32-3.83-.75-9.8-.4-14.45C91,14.48,79,12,73,19.38Z"/><path d="M99.25,58.9c-3.68-1-.06-11.26-2.18-14.67-1.18-1.9-5.76-3.55-7.16-6.15a13.66,13.66,0,0,1-.9-1.54c-1.07.08-4.43.88-5,1A8.78,8.78,0,0,0,78.5,41h0a70.08,70.08,0,0,0,10.64,5.42c1.94.73,4.43.74,5.11,2.45,1.31,3.3-.49,10.29,1.71,12.54s4.77,3.08,6.23,2S101.47,59.51,99.25,58.9Z"/><path class="cls-8" d="M37.31,17C33.64,19,32.64,28.5,35,33.61s2.74,5.69,2,7.49c-1,2.44-6.07,8.62-6.07,8.62a4.55,4.55,0,0,0-.61,5.54c2,3.18,4,7.8,7.26,8.63.77.2,2.95-3.83-.67-5.37-.61-.26-1.1-.22-1.5-.52-1.94-1.48-1.64-2.63-1.54-3.6s.1-2.44.16-2.85c.21-1.34,7.8-5.49,9.15-8,.92-1.7,1-7.67,1-7.67S46.65,11.77,37.31,17Z"/><path d="M37,58.52c-.61-.26-1.1-.22-1.5-.52-1.94-1.48-1.64-2.63-1.54-3.6s.1-2.44.16-2.85c.21-1.34,7.8-5.49,9.15-8a5.17,5.17,0,0,0,.41-1.26c-2.1-1.16-4.52-2.2-6.53-1.38l-.06.17c-1,2.44-6.07,8.62-6.07,8.62a4.55,4.55,0,0,0-.61,5.54c2,3.18,4,7.8,7.26,8.63C38.4,64.09,40.58,60.06,37,58.52Z"/></symbol><symbol id="fox_run8" data-name="fox_run8" viewBox="0 0 161 80"><rect class="cls-1" width="161" height="80"/><use width="136.96" height="67.89" transform="scale(1.18 1.18)" xlink:href="#f8"/></symbol><symbol id="f7" data-name="f7" viewBox="0 0 136.67 67.51"><path class="cls-8" d="M39.77,18.58C36,19.75,34.72,31.67,37.33,34.76s4.21,4.7,4.66,7.41c.61,3.68-.6,7.48-1,10.4s-.67,3.57,1.75,5.6,6.2,6.18,10.55,5.11c1.05-.26-.59-5-3.11-4.3a4.49,4.49,0,0,1-1.59,0,3.74,3.74,0,0,1-3-2.79c-.33-1.32-1-1.63-1.08-2.84-.23-3.89,3.61-6.57,4.11-10.47.34-2.66-.46-3.58-1.55-7.33S49.48,15.61,39.77,18.58Z"/><path d="M50.15,59a4.49,4.49,0,0,1-1.59,0,3.71,3.71,0,0,1-3-2.78c-.3-1.29-1.09-1.71-1.08-2.85,0-3.65,3.16-6.95,4.24-10.36a4.1,4.1,0,0,0,0-1.26c-2.25-.49-4.66-1-6.67.36-.05,0,0,.13,0,.2A46.76,46.76,0,0,1,41,52.6c-.55,2.77-.64,3.6,1.73,5.58s6.22,6.2,10.55,5.1C54.3,63,52.67,58.24,50.15,59Z"/><path id="l_hindleg-13" data-name="l_hindleg" class="cls-8" d="M69.53,19c-4.32,3.36-.39,12.64,2.1,17.06S81.47,42.55,85.41,46C86.47,47,88.17,49,88.14,51c-.07,3.83-3.29,8-5,11.58-2,.7-4.71.86-4.09,3.8.11.53,6.55.56,6.87-.41,1.54-4.74,7.72-15.84,6.21-17.53-4.32-4.84-5.24-5.56-5.91-12-.27-2.6,2.86-6.09,2.59-9.35C88,17.43,77.25,13,69.53,19Z"/><path d="M86.46,38A14.12,14.12,0,0,1,86,36c-4.54-.85-7.91-.22-10,4.16,2.83,2.76,4.85,3.88,8.22,6.44,1.17.88,4,1.63,3.62,4.58-.51,3.57-3,7.79-4.78,11.34-2,.71-4.77.77-4.09,3.8.13.57,6.48.52,6.87-.4,1.94-4.49,8.35-16.61,6.59-18.26A18.46,18.46,0,0,1,86.46,38Z"/><path class="cls-8" d="M18.84,0s-3.62,5.6-3.26,10.3c0,0,1-.83,7.31,1C22.89,11.34,20.08,7.72,18.84,0Z"/><path d="M18.84,0s-1.61,5.82-1.42,7.86c.37,4.26,5.31,3.26,5.31,3.26C20,7.24,18.84,0,18.84,0Z"/><path class="cls-8" d="M17.21,10S27,9.48,27,17.18s-10.9,7.68-10.9,7.68-9.17-.58-9.17-7.75S17.21,10,17.21,10Z"/><path class="cls-8" d="M7.9,13.82c-2.14,5.39-8.27,8-7.53,9.61.94,2.1,14.08.64,14.08.64Z"/><path class="cls-4" d="M1.89,24.24s8.18-3.25,9.62-2.93,2.39,3.55,2.39,3.55S4.07,25,1.89,24.24Z"/><path class="cls-4" d="M5.76,17.39s2.64,1.83,5.9-.87a3.48,3.48,0,0,0,.48-5.4A6.3,6.3,0,0,0,7.59,14.3Z"/><path d="M8.35,13.66a1.8,1.8,0,0,1,2.18,1.43c.37,1.37-1.22,2.22-1.22,2.22a3.12,3.12,0,0,1-3.55.08L7.59,14.3S8,13.75,8.35,13.66Z"/><path class="cls-4" d="M9.88,15.61a.4.4,0,0,0,0-.79.4.4,0,0,0,0,.79Z"/><path class="cls-8" d="M14.6,0s-2.44,6.21-1.16,10.74c0,0,.79-1,7.37-.42C20.81,10.32,17.34,7.32,14.6,0Z"/><path d="M14.6,0s-.75,5.85-.29,7.85C15.26,12,21,10.36,21,10.36,17.22,6.82,14.6,0,14.6,0Z"/><path id="body-7" data-name="body" class="cls-8" d="M13.65,24.15C16.47,30.61,26.49,45,43.91,42.53c42.38-5.91,22.92-7.53,32-12.07,3.5-1.75,11.76,1.52,13.47-.39,4.45-4.95-2-14.89-3.11-15.31-12.39-4.81-33,1-46.57,1.46-8.07.26-9.6-1.12-14-3.15C25.7,13.07,12,20.4,13.65,24.15Z"/><path class="cls-8" d="M86.29,14.76s24.5,5.7,28.14,7.69c8.39,4.58,16.78,11.05,22.24,21.73,0,0-8.34,1.07-26.89-8.72-3.89-2.05-10.34-3.61-16.86-13.39C90.61,18.6,89,18.7,89,18.7Z"/><path class="cls-4" d="M59.63,35.71c-5.93.77-12.7,1.42-18.66.92a36.49,36.49,0,0,1-16.44-5.16C20.43,29,16,24.8,12.3,21.91a2.74,2.74,0,0,0,.19,2.23c.27.87,1.41.83,1.41.83,3.43,6.9,13.47,19.89,29.93,17.59,29.26-4.07,32-6.6,32.49-10.83C71.65,32.21,64.75,35,59.63,35.71Z"/><path class="cls-4" d="M122.22,27.37c-1.11,1.9-.51,3.89,0,6,.75,3.06.47,5.39-.81,7.45,10.44,4,15.25,3.37,15.25,3.37A48.33,48.33,0,0,0,122.22,27.37Z"/><ellipse cx="0.95" cy="23.39" rx="0.9" ry="1.5" transform="translate(-5.55 0.9) rotate(-13.79)"/><path class="cls-8" d="M41,23.09c-1.83-.18-2.67,4.81-2.59,7.88s0,8.09.47,11.48c.34,2.71-1.69,5.73-1.74,8.42-1.42,2-1.42,2.94-1.74,5.8-.12,1.1-2.4,5-3.18,6.47-2.07.53-4.83.54-4.6,3.47.08,1,6,1.12,6.51.48,2.23-3.08,3.65-7,5-10S40,55.39,41,51.51c.51-2.06,5.31-6.57,6.1-10.53.3-1.46,2.24-8.59,2.17-11.49S46.18,23.58,41,23.09Z"/><path d="M46.85,41.74A12,12,0,0,0,39,43.05c-.55,2.62-1.45,5.22-1.85,7.83-1.36,2-1.4,2.93-1.71,5.79-.11,1.09-2.4,5-3.18,6.47-2.07.55-4.84.51-4.6,3.48.08,1,6,1.15,6.52.48,2.28-3.12,4-7.63,5.24-10.47a34.65,34.65,0,0,0,1.82-4.89c.51-1.43,4.82-7.58,5.78-9.9C47,41.66,46.92,41.75,46.85,41.74Z"/><path id="l_hindleg-14" data-name="l_hindleg" class="cls-8" d="M72.81,19.55C70,23.17,70,32,74.22,35.73a47.33,47.33,0,0,0,16.21,9.2c1.55.5,4,.94,4.37,2.64.79,3.28-.07,9.81,2.54,11.63s5.27,2.15,6.53.89-1.25-3.82-3.67-3.85c-4-.05-1-10.49-2.72-13.07s-3.15-1.94-5.82-5c-3.09-3.56-.69-9-.72-13.52C90.89,14.61,78.74,12,72.81,19.55Z"/><path d="M100.41,56c-4-.25-1-9.92-2.72-13.1-.93-1.76-5.41-3.38-6.73-5.74a8.66,8.66,0,0,1-.85-1.46,21.66,21.66,0,0,0-4.75,1.67,11.56,11.56,0,0,0-4.29,3.54h0a42.68,42.68,0,0,0,9.39,4.31c1.25.42,3.65.75,4,2.43.71,3.23.27,9.81,2.86,11.6s5.28,2.19,6.53.89S102.82,56.09,100.41,56Z"/></symbol><symbol id="fox_run7" data-name="fox_run7" viewBox="0 0 161 80"><rect class="cls-1" width="161" height="80"/><use width="136.67" height="67.51" transform="scale(1.18 1.19)" xlink:href="#f7"/></symbol><symbol id="f2" data-name="f2" viewBox="0 0 134.74 65.94"><path class="cls-8" d="M33.86,26.44c-2,1.49-2.75,4.65-3.25,9.52s1.06,5.27,1.44,7.31c.3,1.64-1.5,6.94-1.5,6.94a7,7,0,0,0-2.44,4.88c-.14,1.31-3.75,5.78-3.75,5.78s-5.25.22-5.72,3.28c-.16,1,5.57,1.53,7.1.56,2.36-1.5,5.7-8.18,5.7-8.18a14.18,14.18,0,0,0,2.42-4.44c.43-1.36,5.57-6.83,5.88-9.63.11-1-1.5-3.87-1.5-3.87S38.83,22.79,33.86,26.44Z"/><path d="M39.46,42.86a11.56,11.56,0,0,0-7.38,1,32.36,32.36,0,0,1-1.53,6.36,7,7,0,0,0-2.44,4.88c-.14,1.31-3.75,5.78-3.75,5.78s-5.25.22-5.72,3.28c-.16,1,5.57,1.53,7.1.56,2.36-1.5,5.7-8.18,5.7-8.18a14.18,14.18,0,0,0,2.42-4.44c.41-1.3,5.09-6.32,5.79-9.22Z"/><path id="l_hindleg-15" data-name="l_hindleg" class="cls-8" d="M69.38,20.53c-2.56,4.34,4.41,15.65,8.87,18.79S89.35,42.23,94.38,44c1.35.48,3.12,1,3.94,2.45,1.58,2.75,3.07,9.24,5.19,10.95S107.88,60.18,109,59s-.46-3.87-3-4.23c-4.14-.6-3.33-9.74-5.78-12.69s-7.36-2.52-10-6.48.1-6.69-1.53-10.87C86,17.68,74.72,11.46,69.38,20.53Z"/><path d="M106.07,54.8c-4.11-.6-3.42-9.74-5.78-12.69s-7.61-2.52-10-6.49a12.35,12.35,0,0,1-1.23-2.3,8.29,8.29,0,0,0-1.81.35c-3.5,1.42-4.07,4.06-5,7.46,0,0,0,0,0,0,4,.9,8.24,1.52,12,2.84,1.44.51,3.12,1,4,2.46,1.62,2.76,3.07,9.24,5.2,10.95S107.87,60.18,109,59,108.55,55.16,106.07,54.8Z"/><path class="cls-8" d="M18.82,0s-3.56,5.51-3.21,10.13c0,0,1-.82,7.19,1C22.8,11.16,20,7.6,18.82,0Z"/><path d="M18.82,0s-1.58,5.72-1.4,7.74c.37,4.18,5.23,3.2,5.23,3.2C19.94,7.13,18.82,0,18.82,0Z"/><path class="cls-8" d="M17.22,9.8s9.64-.47,9.64,7.1-10.73,7.56-10.73,7.56-9-.58-9-7.63S17.22,9.8,17.22,9.8Z"/><path class="cls-8" d="M8.05,13.6C6,18.9-.08,21.43.65,23.05c.93,2.06,13.85.63,13.85.63Z"/><path class="cls-4" d="M2.15,23.85s8-3.2,9.46-2.89S14,24.46,14,24.46,4.29,24.56,2.15,23.85Z"/><ellipse cx="0.93" cy="23.01" rx="0.89" ry="1.48" transform="translate(-5.46 0.88) rotate(-13.79)"/><path class="cls-4" d="M6,17.1s2.6,1.81,5.81-.85a3.42,3.42,0,0,0,.46-5.31,6.2,6.2,0,0,0-4.47,3.13Z"/><path d="M8.5,13.44a1.78,1.78,0,0,1,2.15,1.4C11,16.2,9.45,17,9.45,17A3.09,3.09,0,0,1,6,17.1l1.8-3A1.61,1.61,0,0,1,8.5,13.44Z"/><path class="cls-4" d="M10,15.36a.4.4,0,0,0,0-.79.4.4,0,0,0,0,.79Z"/><path class="cls-8" d="M14.65,0s-2.4,6.11-1.14,10.57c0,0,.77-1,7.25-.42C20.76,10.15,17.34,7.2,14.65,0Z"/><path d="M14.65,0s-.74,5.75-.29,7.73C15.3,11.82,21,10.19,21,10.19,17.22,6.71,14.65,0,14.65,0Z"/><path id="body-8" data-name="body" class="cls-8" d="M13.72,23.76c2.77,6.36,12.62,20.47,29.77,18.08C85.17,36,66,34.43,75,30c3.43-1.71,11.57,1.5,13.25-.37,4.37-4.88-2-14.65-3.07-15.07C73,9.79,52.7,15.54,39.36,16c-7.94.25-9.45-1.1-13.79-3.1C25.57,12.86,12.11,20.06,13.72,23.76Z"/><path class="cls-8" d="M85.17,14.52s24.11,5.61,27.69,7.57c8.25,4.5,16.5,10.87,21.88,21.37,0,0-8.21,1-26.46-8.57-3.83-2-10.17-3.55-16.58-13.18-2.28-3.41-3.83-3.31-3.83-3.31Z"/><path class="cls-4" d="M59,35.13A90.35,90.35,0,0,1,40.59,36,36,36,0,0,1,24.42,31c-4-2.46-8.44-6.56-12-9.4a2.64,2.64,0,0,0,.2,2.19c.26.86,1.38.82,1.38.82,3.38,6.78,13.26,19.56,29.44,17.3,28.79-4,31.46-6.49,32-10.66C70.78,31.68,64,34.47,59,35.13Z"/><path class="cls-4" d="M120.52,26.93c-1.09,1.86-.5,3.82,0,5.92.73,3,.46,5.3-.8,7.32,10.26,3.93,15,3.33,15,3.33A47.47,47.47,0,0,0,120.52,26.93Z"/><path class="cls-8" d="M33.5,22.49C30.78,25.64,36.12,35.11,39.06,37s4.95,3,6.19,5.35c1.7,3.25,1.57,6.37,2.44,9.4s.52,2.86,3.48,4.68,6.35,7.72,11,6.47C63.29,62.57,61,57.52,59,58a4.7,4.7,0,0,1-1.69-.57,10.49,10.49,0,0,1-3.92-3.51c-.77-1.24-1.6-1.31-2-2.5-1.28-3.82.94-6.66.11-10.79-.58-2.82-1.67-3.68-3.64-7.29S40.43,14.46,33.5,22.49Z"/><path d="M59,58a4.7,4.7,0,0,1-1.69-.57,12.82,12.82,0,0,1-4.16-4.2c-.73-1.2-1.18-.81-1.49-1.93-1-3.58.17-6.89,0-10.51a4.52,4.52,0,0,0-.36-1.24c-2.34.4-4.35.89-5.92,2.77-.05,0,0,.12,0,.19,1.09,2.92,1.56,6.35,2.26,9.26s.54,2.88,3.45,4.66,6.37,7.73,11,6.45C63.28,62.56,61,57.52,59,58Z"/><path id="l_hindleg-16" data-name="l_hindleg" class="cls-8" d="M78.92,14.75C74,13.27,66.36,28.23,67.86,34.41s4.8,9.28,6.66,14.82a5.43,5.43,0,0,1-.32,4.32c-1.34,2.74-3.42,5.48-4.84,8.27-1.94.7-4.69.74-4.12,3.81.11.63,6,.23,6.31-.58,1.61-4,6.39-8.2,7.29-11,1.55-4.9-.94-7.67-.25-12.15s3.5-3.7,4.92-7.33C85.92,28.36,89.26,17.84,78.92,14.75Z"/><path d="M78.68,41.81a23.23,23.23,0,0,1,.66-2.51c-3.33-2.8-6.5-2.43-10.11-.25,1.8,3.38,4.37,6.4,5.3,10.18a6,6,0,0,1-.31,4.33c-1.42,2.69-3.4,5.5-4.86,8.26-1.94.7-4.7.74-4.12,3.81.12.63,6,.23,6.31-.58,1.69-4,6.28-8.18,7.3-11C80.62,49.07,77.51,46.39,78.68,41.81Z"/></symbol><symbol id="fox_run1" data-name="fox_run1" viewBox="0 0 161 80"><rect class="cls-1" width="161" height="80"/><use width="134.74" height="65.94" transform="scale(1.19 1.21)" xlink:href="#f2"/></symbol><symbol id="af1" data-name="af1" viewBox="0 0 161 80"><rect class="cls-1" width="161" height="80"/><path class="cls-2" d="M37.71,14.08a61.2,61.2,0,0,1-11.35,3.41s.67-1.35-3.31-8.07A19.2,19.2,0,0,0,37.71,14.08Z"/><path d="M37.71,14.08s-6.34.47-8.71,1c-4.92,1.11-6.11-5.86-6.11-5.86C28.61,11.46,37.71,14.08,37.71,14.08Z"/><path class="cls-3" d="M28.75,25.65S29.84,36,39.26,49.45c0,0-1.83,1.22-10.78-2.67,0,0-14.33-5.9-17.15-2.7,0,0,2-13.29,4.64-19.85C16,24.23,19.42,28.1,28.75,25.65Z"/><path class="cls-3" d="M28.48,46.78S33,36.34,36.73,45.6c2.7,6.73,13.09,20,9.32,26.07S37.41,77.93,27.19,78,8.76,72.48,7.88,68.15s1.62-21,3.45-24.07C13.76,40,28.48,46.78,28.48,46.78Z"/><path class="cls-4" d="M22.81,27.21a68,68,0,0,0,2.62,17.46s25.42,35.16,0,33.28C2.65,76.26,13.14,43.83,13.14,43.83s2-12.89,3.33-18.95Z"/><path class="cls-5" d="M32.75,62.21c0,7.69,3.44,13.92,7.67,13.92S48.1,69.9,48.1,62.21s-5.79-13.78-10-13.78S32.75,54.53,32.75,62.21Z"/><path class="cls-5" d="M6.53,62.35c0,7.5,1.11,13.48,2.47,13.59,9.43.73,2.46-6.09,2.46-13.59s-1-12.72-2.4-12.72S6.53,54.84,6.53,62.35Z"/><path d="M45.44,72s3.7,3.46,2.37,4.6c-1.17,1-2.19.48-5.22,1.2C35.06,79.56,38,77.27,37.9,76,37.83,74.55,42.59,77.78,45.44,72Z"/><path d="M14.2,74.2c1.87,5.45-5.86,1.72-6.33,1.86,0,0-1.14-3.71-.48-3.22A9.1,9.1,0,0,0,14.2,74.2Z"/><path d="M20.35,78.72A24.44,24.44,0,0,0,24,79c2.1,0,2.05-.56,2.05-.56s.52-3.4-2.43-3.4S20.35,78.72,20.35,78.72Z"/><ellipse cx="24.75" cy="63.72" rx="2.54" ry="2.87"/><path d="M25.33,48.44c-.81.07-.49,2.65-2.67,5.6-1.71,2.3-.39,9.42-.39,9.42.81-2.72,2.83-2.4,3.89-1.66a2.43,2.43,0,0,1,.82,1s.91-7.4,1.21-8.92C28.74,51.15,28,48.21,25.33,48.44Z"/><path d="M27.18,64.55s-2.11,7-1.2,12.62c0,0-1.55-3-3.74-1.56a38.33,38.33,0,0,0,.28-11.23A3.39,3.39,0,0,0,23.57,66C24.53,66.63,26.1,66.6,27.18,64.55Z"/><path d="M14.46,62.93a2.72,2.72,0,0,1-2.54,2.87,2.72,2.72,0,0,1-2.54-2.87c0-1.58,1.14-3.22,2.54-3.22S14.46,61.35,14.46,62.93Z"/><path d="M12.1,47.47c.81,0,.21.94.19,4.61s2,9.84,2,9.84c-1.17-2.57-3.13-2-4.08-1.11a2.4,2.4,0,0,0-.67,1.11V53.35C9.55,50.56,9.38,47.61,12.1,47.47Z"/><path d="M9.62,64.15a20.57,20.57,0,0,1,.52,10.45s1.16-1,3.7,1.13c0,0-.54-8.46.33-12a2.55,2.55,0,0,1-.86,1.61C12.35,66,10.7,66.2,9.62,64.15Z"/><path class="cls-3" d="M47.49,65.8s4.62-1.88,6.33-6c4.57-11,12.62-32.74,39.24-38.3,0,0-10.22,47.8-47.08,49.52C46,71,47.49,69.82,47.49,65.8Z"/><path class="cls-4" d="M93.06,21.45a44.4,44.4,0,0,0-15.75,6.17A5.68,5.68,0,0,1,80,32.89c-.57,8.84,6.08,7.58,6.08,7.58A87.18,87.18,0,0,0,93.06,21.45Z"/><polygon points="23.19 78.66 22.97 79.99 22.48 78.66 23.19 78.66"/><polygon points="21.25 78.82 20.59 80 20.58 78.57 21.25 78.82"/><polygon points="22.21 78.71 21.75 79.98 21.51 78.58 22.21 78.71"/><path d="M8.28,77.62a24.44,24.44,0,0,0,3.6.27c2.1,0,2-.56,2-.56s.52-3.4-2.43-3.4S8.28,77.62,8.28,77.62Z"/><polygon points="11.12 77.55 10.9 78.89 10.41 77.55 11.12 77.55"/><polygon points="9.18 77.71 8.52 78.9 8.51 77.47 9.18 77.71"/><polygon points="10.14 77.61 9.68 78.88 9.44 77.47 10.14 77.61"/><path d="M33.89,78.67a24.38,24.38,0,0,0,3.59.27c2.09,0,2-.56,2-.56S40,75,37.1,75,33.89,78.67,33.89,78.67Z"/><polygon points="36.73 78.61 36.5 79.94 36.02 78.61 36.73 78.61"/><polygon points="34.8 78.77 34.14 79.94 34.13 78.53 34.8 78.77"/><polygon points="35.75 78.66 35.29 79.93 35.06 78.53 35.75 78.66"/><path class="cls-2" d="M25.58,9.71s11,3.84,7.54,12.28-15.37,3.56-15.37,3.56-10.09-6.17-7.5-6c5.11.41,6-.31,6.53-1.49.76-1.6-6.51-3-5.63-5.12C14.34,5.11,25.58,9.71,25.58,9.71Z"/><path class="cls-2" d="M38.27,15.82s-5.62,3-11.18,2.73c0,0,.95-1.17-1.44-8.61C25.65,9.94,29.11,14.57,38.27,15.82Z"/><path class="cls-2" d="M13.66,9.8A12.46,12.46,0,0,1,8.23,13c-.28.08-.59-.08-1.05.07-.28.09-.39.34-.52.38-.36.1-.55-.1-1,0s-.49.36-.71.4-.48-.14-.73-.09-.54.34-.74.38-.55,0-.82,0c-1.41.31-2.23.77-2,1.45,1,3.29,8.06,1.6,15.52,3.47C19.06,19.76,13.66,9.8,13.66,9.8Z"/><path class="cls-4" d="M2.16,18.23s9.59,1.21,11,2.2S25.07,27,25.07,27s-4.48.85-13.26-4.08C8.65,21.15,1.72,20,2.16,18.23Z"/><ellipse cx="1.08" cy="15.2" rx="1.52" ry="1.06" transform="translate(-14.05 13.4) rotate(-79.12)"/><path class="cls-4" d="M9.73,12.76s2.08,3.19,6.85,1.67c1.63-.51,3.67-2.44,3.85-3.17,0,0-5.28-.94-6.45-1.68,0,0,.25-.23-.87.61Z"/><path d="M14.22,9.83A2.13,2.13,0,0,1,16,12.36c-.2,1.68-2.32,1.9-2.32,1.9a3.71,3.71,0,0,1-3.93-1.5l3.38-2.57A1.92,1.92,0,0,1,14.22,9.83Z"/><path class="cls-4" d="M13.43,11.44a.47.47,0,0,0,0-.94.47.47,0,0,0,0,.94Z"/><path d="M38.27,15.82a71.8,71.8,0,0,1-8.08,1c-5.05,0-4.65-6.78-4.65-6.78C30.61,13.47,38.27,15.82,38.27,15.82Z"/><path d="M14,9.58c.65.19,1.31.34,2,.49s1.31.3,2,.42c1.31.3,2.65.53,4,.88a25.09,25.09,0,0,1-4-.52c-.66-.15-1.33-.3-2-.51A10.23,10.23,0,0,1,14,9.58Z"/><path class="cls-4" d="M12.54,11.28a.24.24,0,0,0,0-.47.24.24,0,0,0,0,.47Z"/><path class="cls-6" d="M3.51,17.73s.19.53.36,1.22a4.32,4.32,0,0,1,.7-1.08Z"/><path class="cls-6" d="M1.58,17a3.59,3.59,0,0,0,.14,1.42,1.85,1.85,0,0,1,.89-1A4,4,0,0,1,1.58,17Z"/><path class="cls-6" d="M6.06,18a12.37,12.37,0,0,1,.46,1.19,4.27,4.27,0,0,1,.61-1.14Z"/><path class="cls-6" d="M8.79,18.18s.23.51.45,1.18a4.27,4.27,0,0,1,.61-1.14Z"/><path class="cls-6" d="M11.55,18.4s.2.44.39,1a3.21,3.21,0,0,1,.67-.9Z"/><path class="cls-6" d="M13.85,18.73a8.84,8.84,0,0,1,.31.95,3,3,0,0,1,.73-.76Z"/><path class="cls-6" d="M13.41,19.55a5,5,0,0,1-.3-.52,2.64,2.64,0,0,0-.34.54Z"/><path class="cls-6" d="M10.82,19.5a4.32,4.32,0,0,1-.24-.55,4,4,0,0,0-.4.49Z"/><path class="cls-6" d="M8.23,19.07A4.17,4.17,0,0,1,8,18.51,3.81,3.81,0,0,0,7.6,19Z"/><path class="cls-6" d="M5.52,18.68a5.25,5.25,0,0,1-.21-.56l-.42.47Z"/><path class="cls-6" d="M3.09,18.33s-.11-.24-.22-.56l-.41.48Z"/><path d="M2.88,76.27a24.44,24.44,0,0,0,3.6.27c2.1,0,2-.56,2-.56s.52-3.41-2.43-3.41S2.88,76.27,2.88,76.27Z"/><polygon points="5.72 76.2 5.5 77.54 5.01 76.2 5.72 76.2"/><polygon class="cls-6" points="3.78 76.36 3.12 77.54 3.11 76.12 3.78 76.36"/><polygon points="4.75 76.25 4.28 77.53 4.04 76.12 4.75 76.25"/></symbol><symbol id="af2" data-name="af2" viewBox="0 0 161 80"><rect class="cls-1" width="161" height="80"/><path class="cls-3" d="M28.75,25.65S29.84,36,39.26,49.45c0,0-1.83,1.22-10.78-2.67,0,0-14.33-5.9-17.15-2.7,0,0,2.15-13.87,4.77-20.43C16.1,23.65,19.42,28.1,28.75,25.65Z"/><path class="cls-3" d="M28.48,46.78S33,36.34,36.73,45.6c2.7,6.73,13.09,20,9.32,26.07S37.41,77.93,27.19,78,8.76,72.48,7.88,68.15s1.62-21,3.45-24.07C13.76,40,28.48,46.78,28.48,46.78Z"/><path class="cls-4" d="M22.81,27.21a68,68,0,0,0,2.62,17.46s25.42,35.16,0,33.28C2.65,76.26,13.14,43.83,13.14,43.83s2.15-13.61,3.45-19.67Z"/><path class="cls-5" d="M32.75,62.21c0,7.69,3.44,13.92,7.67,13.92S48.1,69.9,48.1,62.21s-5.79-13.78-10-13.78S32.75,54.53,32.75,62.21Z"/><path class="cls-5" d="M6.53,62.35c0,7.5,1.11,13.48,2.47,13.59,9.43.73,2.46-6.09,2.46-13.59s-1-12.72-2.4-12.72S6.53,54.84,6.53,62.35Z"/><path d="M45.44,72s3.7,3.46,2.37,4.6c-1.17,1-2.19.48-5.22,1.2C35.06,79.56,38,77.27,37.9,76,37.83,74.55,42.59,77.78,45.44,72Z"/><path d="M14.2,74.2c1.87,5.45-5.86,1.72-6.33,1.86,0,0-1.14-3.71-.48-3.22A9.1,9.1,0,0,0,14.2,74.2Z"/><path d="M20.35,78.72A24.44,24.44,0,0,0,24,79c2.1,0,2.05-.56,2.05-.56s.52-3.4-2.43-3.4S20.35,78.72,20.35,78.72Z"/><ellipse cx="24.75" cy="63.72" rx="2.54" ry="2.87"/><path d="M25.33,48.44c-.81.07-.49,2.65-2.67,5.6-1.71,2.3-.39,9.42-.39,9.42.81-2.72,2.83-2.4,3.89-1.66a2.43,2.43,0,0,1,.82,1s.91-7.4,1.21-8.92C28.74,51.15,28,48.21,25.33,48.44Z"/><path d="M27.18,64.55s-2.11,7-1.2,12.62c0,0-1.55-3-3.74-1.56a38.33,38.33,0,0,0,.28-11.23A3.39,3.39,0,0,0,23.57,66C24.53,66.63,26.1,66.6,27.18,64.55Z"/><path d="M14.46,62.93a2.72,2.72,0,0,1-2.54,2.87,2.72,2.72,0,0,1-2.54-2.87c0-1.58,1.14-3.22,2.54-3.22S14.46,61.35,14.46,62.93Z"/><path d="M12.1,47.47c.81,0,.21.94.19,4.61s2,9.84,2,9.84c-1.17-2.57-3.13-2-4.08-1.11a2.4,2.4,0,0,0-.67,1.11V53.35C9.55,50.56,9.38,47.61,12.1,47.47Z"/><path d="M9.62,64.15a20.57,20.57,0,0,1,.52,10.45s1.16-1,3.7,1.13c0,0-.54-8.46.33-12a2.55,2.55,0,0,1-.86,1.61C12.35,66,10.7,66.2,9.62,64.15Z"/><path class="cls-3" d="M47.49,65.8s4.62-1.88,6.33-6c4.57-11,12.62-32.74,39.24-38.3,0,0-10.22,47.8-47.08,49.52C46,71,47.49,69.82,47.49,65.8Z"/><path class="cls-4" d="M93.06,21.45a44.4,44.4,0,0,0-15.75,6.17A5.68,5.68,0,0,1,80,32.89c-.57,8.84,6.08,7.58,6.08,7.58A87.18,87.18,0,0,0,93.06,21.45Z"/><polygon points="23.19 78.66 22.97 79.99 22.48 78.66 23.19 78.66"/><polygon points="21.25 78.82 20.59 80 20.58 78.57 21.25 78.82"/><polygon points="22.21 78.71 21.75 79.98 21.51 78.58 22.21 78.71"/><path d="M8.28,77.62a24.44,24.44,0,0,0,3.6.27c2.1,0,2-.56,2-.56s.52-3.4-2.43-3.4S8.28,77.62,8.28,77.62Z"/><polygon points="11.12 77.55 10.9 78.89 10.41 77.55 11.12 77.55"/><polygon points="9.18 77.71 8.52 78.9 8.51 77.47 9.18 77.71"/><polygon points="10.14 77.61 9.68 78.88 9.44 77.47 10.14 77.61"/><path d="M33.89,78.67a24.38,24.38,0,0,0,3.59.27c2.09,0,2-.56,2-.56S40,75,37.1,75,33.89,78.67,33.89,78.67Z"/><polygon points="36.73 78.61 36.5 79.94 36.02 78.61 36.73 78.61"/><polygon points="34.8 78.77 34.14 79.94 34.13 78.53 34.8 78.77"/><polygon points="35.75 78.66 35.29 79.93 35.06 78.53 35.75 78.66"/><path d="M2.88,76.27a24.44,24.44,0,0,0,3.6.27c2.1,0,2-.56,2-.56s.52-3.41-2.43-3.41S2.88,76.27,2.88,76.27Z"/><polygon points="5.72 76.2 5.5 77.54 5.01 76.2 5.72 76.2"/><polygon class="cls-6" points="3.78 76.36 3.12 77.54 3.11 76.12 3.78 76.36"/><polygon points="4.75 76.25 4.28 77.53 4.04 76.12 4.75 76.25"/><path class="cls-2" d="M38.63,18.69a62.14,62.14,0,0,1-11.85-.23s1.06-1.08-.68-8.7A19.2,19.2,0,0,0,38.63,18.69Z"/><path d="M38.63,18.69S32.45,17.2,30,17c-5-.45-4-7.45-4-7.45C30.77,13.41,38.63,18.69,38.63,18.69Z"/><path class="cls-2" d="M28.43,10.81s9.25,7,3.41,14S16.12,23.5,16.12,23.5s-7.72-9-5.31-8c4.73,2,5.77,1.53,6.67.58,1.21-1.29-5.3-4.8-3.8-6.59C19.13,3,28.43,10.81,28.43,10.81Z"/><path class="cls-2" d="M38.63,20.51s-6.27,1.17-11.48-.82c0,0,1.26-.82,1.27-8.63C28.42,11.06,30.29,16.52,38.63,20.51Z"/><path class="cls-2" d="M17,7.25a12.39,12.39,0,0,1-6.13,1.36c-.29,0-.54-.26-1-.26-.29,0-.48.21-.62.21-.37,0-.49-.27-.9-.32s-.59.2-.8.17-.42-.28-.67-.31-.62.16-.82.14S5.56,8,5.29,8c-1.44-.14-2.36.05-2.37.76-.08,3.44,7.18,4,13.71,8.06C19.14,18.38,17,7.25,17,7.25Z"/><path class="cls-4" d="M3.52,11.75s8.76,4.09,9.83,5.47,9.29,9.9,9.29,9.9-4.52-.57-11.38-7.95C8.8,16.52,2.55,13.32,3.52,11.75Z"/><ellipse cx="3.42" cy="8.54" rx="1.52" ry="1.06" transform="translate(-5.71 7.44) rotate(-61.28)"/><path class="cls-4" d="M12.4,8.86s1,3.67,6,3.69c1.71,0,4.24-1.2,4.64-1.84,0,0-4.74-2.51-5.63-3.58,0,0,.31-.14-1,.32Z"/><path d="M17.58,7.45a2.13,2.13,0,0,1,.89,3c-.7,1.53-2.79,1.09-2.79,1.09A3.69,3.69,0,0,1,12.4,8.86l4-1.41A1.91,1.91,0,0,1,17.58,7.45Z"/><path class="cls-4" d="M16.47,8.76a.47.47,0,0,0,0-.94.47.47,0,0,0,0,.94Z"/><path d="M38.63,20.51a70.17,70.17,0,0,1-8-1.54c-4.8-1.56-2.36-7.87-2.36-7.87C32.06,15.94,38.63,20.51,38.63,20.51Z"/><path d="M17.42,7.13c.56.39,1.14.73,1.73,1.07s1.15.69,1.75,1c1.16.69,2.36,1.32,3.5,2.06a25.84,25.84,0,0,1-3.69-1.74c-.58-.34-1.16-.69-1.72-1.09A9.33,9.33,0,0,1,17.42,7.13Z"/><path class="cls-4" d="M15.6,8.32a.24.24,0,0,0,0-.47.24.24,0,0,0,0,.47Z"/><path class="cls-6" d="M5,11.69a11.79,11.79,0,0,1,0,1.27,4.5,4.5,0,0,1,1-.82Z"/><path class="cls-6" d="M3.33,10.44A3.61,3.61,0,0,0,3,11.83a1.85,1.85,0,0,1,1.15-.66A4,4,0,0,1,3.33,10.44Z"/><path class="cls-6" d="M7.3,12.75s.06.56.07,1.27a4.09,4.09,0,0,1,.93-.9Z"/><path class="cls-6" d="M9.84,13.73A11.4,11.4,0,0,1,9.91,15a4.09,4.09,0,0,1,.93-.9Z"/><path class="cls-6" d="M12.4,14.79a9.71,9.71,0,0,1,.06,1.08,3.36,3.36,0,0,1,.92-.66Z"/><path class="cls-6" d="M14.49,15.81a7.8,7.8,0,0,1,0,1,2.92,2.92,0,0,1,.93-.5Z"/><path class="cls-6" d="M13.83,16.45a5.9,5.9,0,0,1-.14-.58,2.49,2.49,0,0,0-.48.41Z"/><path class="cls-6" d="M11.37,15.61s0-.26-.06-.59a4.59,4.59,0,0,0-.53.34Z"/><path class="cls-6" d="M9,14.41a4.57,4.57,0,0,1,0-.6,3.93,3.93,0,0,0-.54.33Z"/><path class="cls-6" d="M6.58,13.21s0-.27,0-.6L6,12.93Z"/><path class="cls-6" d="M4.38,12.13a4.57,4.57,0,0,1,0-.6l-.54.33Z"/></symbol><symbol id="af3" data-name="af3" viewBox="0 0 161 80"><rect class="cls-1" width="161" height="80"/><path class="cls-3" d="M28.75,25.65S29.84,36,39.26,49.45c0,0-1.83,1.22-10.78-2.67,0,0-14.33-5.9-17.15-2.7,0,0,2.27-14,4.89-20.58C16.22,23.5,19.42,28.1,28.75,25.65Z"/><path class="cls-3" d="M28.48,46.78S33,36.34,36.73,45.6c2.7,6.73,13.09,20,9.32,26.07S37.41,77.93,27.19,78,8.76,72.48,7.88,68.15s1.62-21,3.45-24.07C13.76,40,28.48,46.78,28.48,46.78Z"/><path class="cls-4" d="M22.81,27.21a68,68,0,0,0,2.62,17.46s25.42,35.16,0,33.28C2.65,76.26,13.14,43.83,13.14,43.83S15.32,30,16.62,24Z"/><path class="cls-5" d="M32.75,62.21c0,7.69,3.44,13.92,7.67,13.92S48.1,69.9,48.1,62.21s-5.79-13.78-10-13.78S32.75,54.53,32.75,62.21Z"/><path class="cls-5" d="M6.53,62.35c0,7.5,1.11,13.48,2.47,13.59,9.43.73,2.46-6.09,2.46-13.59s-1-12.72-2.4-12.72S6.53,54.84,6.53,62.35Z"/><path d="M45.44,72s3.7,3.46,2.37,4.6c-1.17,1-2.19.48-5.22,1.2C35.06,79.56,38,77.27,37.9,76,37.83,74.55,42.59,77.78,45.44,72Z"/><path d="M14.2,74.2c1.87,5.45-5.86,1.72-6.33,1.86,0,0-1.14-3.71-.48-3.22A9.1,9.1,0,0,0,14.2,74.2Z"/><path d="M20.35,78.72A24.44,24.44,0,0,0,24,79c2.1,0,2.05-.56,2.05-.56s.52-3.4-2.43-3.4S20.35,78.72,20.35,78.72Z"/><ellipse cx="24.75" cy="63.72" rx="2.54" ry="2.87"/><path d="M25.33,48.44c-.81.07-.49,2.65-2.67,5.6-1.71,2.3-.39,9.42-.39,9.42.81-2.72,2.83-2.4,3.89-1.66a2.43,2.43,0,0,1,.82,1s.91-7.4,1.21-8.92C28.74,51.15,28,48.21,25.33,48.44Z"/><path d="M27.18,64.55s-2.11,7-1.2,12.62c0,0-1.55-3-3.74-1.56a38.33,38.33,0,0,0,.28-11.23A3.39,3.39,0,0,0,23.57,66C24.53,66.63,26.1,66.6,27.18,64.55Z"/><path d="M14.46,62.93a2.72,2.72,0,0,1-2.54,2.87,2.72,2.72,0,0,1-2.54-2.87c0-1.58,1.14-3.22,2.54-3.22S14.46,61.35,14.46,62.93Z"/><path d="M12.1,47.47c.81,0,.21.94.19,4.61s2,9.84,2,9.84c-1.17-2.57-3.13-2-4.08-1.11a2.4,2.4,0,0,0-.67,1.11V53.35C9.55,50.56,9.38,47.61,12.1,47.47Z"/><path d="M9.62,64.15a20.57,20.57,0,0,1,.52,10.45s1.16-1,3.7,1.13c0,0-.54-8.46.33-12a2.55,2.55,0,0,1-.86,1.61C12.35,66,10.7,66.2,9.62,64.15Z"/><path class="cls-3" d="M47.49,65.8s4.62-1.88,6.33-6c4.57-11,12.62-32.74,39.24-38.3,0,0-10.22,47.8-47.08,49.52C46,71,47.49,69.82,47.49,65.8Z"/><path class="cls-4" d="M93.06,21.45a44.4,44.4,0,0,0-15.75,6.17A5.68,5.68,0,0,1,80,32.89c-.57,8.84,6.08,7.58,6.08,7.58A87.18,87.18,0,0,0,93.06,21.45Z"/><polygon points="23.19 78.66 22.97 79.99 22.48 78.66 23.19 78.66"/><polygon points="21.25 78.82 20.59 80 20.58 78.57 21.25 78.82"/><polygon points="22.21 78.71 21.75 79.98 21.51 78.58 22.21 78.71"/><path d="M8.28,77.62a24.44,24.44,0,0,0,3.6.27c2.1,0,2-.56,2-.56s.52-3.4-2.43-3.4S8.28,77.62,8.28,77.62Z"/><polygon points="11.12 77.55 10.9 78.89 10.41 77.55 11.12 77.55"/><polygon points="9.18 77.71 8.52 78.9 8.51 77.47 9.18 77.71"/><polygon points="10.14 77.61 9.68 78.88 9.44 77.47 10.14 77.61"/><path d="M33.89,78.67a24.38,24.38,0,0,0,3.59.27c2.09,0,2-.56,2-.56S40,75,37.1,75,33.89,78.67,33.89,78.67Z"/><polygon points="36.73 78.61 36.5 79.94 36.02 78.61 36.73 78.61"/><polygon points="34.8 78.77 34.14 79.94 34.13 78.53 34.8 78.77"/><polygon points="35.75 78.66 35.29 79.93 35.06 78.53 35.75 78.66"/><path d="M2.88,76.27a24.44,24.44,0,0,0,3.6.27c2.1,0,2-.56,2-.56s.52-3.41-2.43-3.41S2.88,76.27,2.88,76.27Z"/><polygon points="5.72 76.2 5.5 77.54 5.01 76.2 5.72 76.2"/><polygon class="cls-6" points="3.78 76.36 3.12 77.54 3.11 76.12 3.78 76.36"/><polygon points="4.75 76.25 4.28 77.53 4.04 76.12 4.75 76.25"/><path class="cls-7" d="M3.72,11.89l7.45,3.8-1.05-.08s-6-2.56-6.23-3A2.22,2.22,0,0,1,3.72,11.89Z"/><path class="cls-7" d="M3.68,10C3.32,10.44,17,17,17,17L6.49,9.59S4.1,9.4,3.68,10Z"/><path class="cls-2" d="M38.73,18.69a62.15,62.15,0,0,1-11.85-.23s1.06-1.08-.68-8.7A19.2,19.2,0,0,0,38.73,18.69Z"/><path d="M38.54,18.64s-6-1.3-8.33-1.48c-4.87-.36-3.83-6.76-3.83-6.76C31,13.9,38.54,18.64,38.54,18.64Z"/><path class="cls-2" d="M28.52,10.81s9.26,7,3.41,14S16.22,23.5,16.22,23.5s-7.72-9-5.32-8c4.74,2,5.78,1.53,6.68.58,1.21-1.29-5.3-4.8-3.8-6.59C19.23,3,28.52,10.81,28.52,10.81Z"/><path class="cls-2" d="M37.39,22.88s-6.38-.07-11.11-3c0,0,1.4-.56,2.91-8.23C29.19,11.63,30,17.36,37.39,22.88Z"/><path class="cls-2" d="M17.14,7.25A12.4,12.4,0,0,1,11,8.61c-.29,0-.53-.26-1-.26-.3,0-.48.21-.62.21-.38,0-.49-.27-.91-.32s-.58.2-.79.17S7.25,8.13,7,8.1s-.61.16-.81.14S5.66,8,5.39,8C4,7.86,3.21,8.08,3,8.76,2.33,11.13,5.65,9,6.9,10.44s5.83,3.89,9.83,6.38C19.24,18.38,17.14,7.25,17.14,7.25Z"/><path class="cls-4" d="M3.62,11.75a4.19,4.19,0,0,0,1.6,1.36c2.62,1.28,7.47,3.13,8.22,4.11,1.07,1.38,9.3,9.9,9.3,9.9s-4.52-.57-11.38-7.95C8.9,16.52,2.65,13.32,3.62,11.75Z"/><ellipse cx="3.52" cy="8.54" rx="1.52" ry="1.06" transform="translate(-5.66 7.52) rotate(-61.28)"/><path class="cls-4" d="M12.5,8.86s1,3.67,6,3.69c1.71,0,4.24-1.2,4.64-1.84,0,0-5.19-2.46-6.65-3.26h0Z"/><path d="M17.42,7.73c.73.38,1.86,1.14,1.15,2.67s-2.79,1.09-2.79,1.09A3.69,3.69,0,0,1,12.5,8.86l4-1.41A2.82,2.82,0,0,1,17.42,7.73Z"/><path d="M16.57,8.29"/><path class="cls-4" d="M16.57,8.76a.47.47,0,0,0,0-.94.47.47,0,0,0,0,.94Z"/><path d="M37.39,22.88A69.36,69.36,0,0,1,30.15,20c-4.25-2.31-.89-7.48-.89-7.48C32,17.54,37.39,22.88,37.39,22.88Z"/><path d="M16.57,7.43c1.33.49,2.6,1.11,3.87,1.72s2.51,1.28,3.71,2a41.89,41.89,0,0,1-3.88-1.71A41.8,41.8,0,0,1,16.57,7.43Z"/><path d="M15.7,8.09"/><path class="cls-4" d="M15.7,8.32a.24.24,0,0,0,0-.47.24.24,0,0,0,0,.47Z"/><path d="M5.26,11.19s0,.57,0,1.28a4,4,0,0,1,1-.82Z"/><path d="M3.62,10.16a3.61,3.61,0,0,0-.3,1.39,1.89,1.89,0,0,1,1.15-.66A4,4,0,0,1,3.62,10.16Z"/><path d="M7.39,12.37s.07.56.08,1.27a4.09,4.09,0,0,1,.93-.9Z"/><path d="M9.81,13.48s.06.56.07,1.26a4.34,4.34,0,0,1,.93-.9Z"/><path d="M12.5,14.79a9.71,9.71,0,0,1,.06,1.08,3.36,3.36,0,0,1,.92-.66Z"/><path d="M14.59,15.81s0,.45,0,1a2.79,2.79,0,0,1,.93-.5Z"/><path d="M13.9,16.54a6.25,6.25,0,0,1-.11-.67,3.06,3.06,0,0,0-.5.49Z"/><path d="M11.42,15.73s0-.32,0-.71a4.82,4.82,0,0,0-.57.45Z"/><path d="M9.07,14.57a6.82,6.82,0,0,1,0-.76,5.17,5.17,0,0,0-.61.48Z"/><path class="cls-6" d="M6.58,13.3s0-.37.08-.83L6,13Z"/><path d="M4.41,12.17a7.38,7.38,0,0,1,.06-.84s-.3.27-.64.55Z"/></symbol><symbol id="af4" data-name="af4" viewBox="0 0 161 80"><rect class="cls-1" width="161" height="80"/><path class="cls-3" d="M28.75,25.65S29.84,36,39.26,49.45c0,0-1.83,1.22-10.78-2.67,0,0-14.33-5.9-17.15-2.7,0,0,2.3-14.14,4.92-20.7C16.25,23.38,19.42,28.1,28.75,25.65Z"/><path class="cls-3" d="M28.48,46.78S33,36.34,36.73,45.6c2.7,6.73,13.09,20,9.32,26.07S37.41,77.93,27.19,78,8.76,72.48,7.88,68.15s1.62-21,3.45-24.07C13.76,40,28.48,46.78,28.48,46.78Z"/><path class="cls-4" d="M22.81,27.21a68,68,0,0,0,2.62,17.46s25.42,35.16,0,33.28C2.65,76.26,13.14,43.83,13.14,43.83s2.24-14.1,3.54-20.16Z"/><path class="cls-5" d="M32.75,62.21c0,7.69,3.44,13.92,7.67,13.92S48.1,69.9,48.1,62.21s-5.79-13.78-10-13.78S32.75,54.53,32.75,62.21Z"/><path class="cls-5" d="M6.53,62.35c0,7.5,1.11,13.48,2.47,13.59,9.43.73,2.46-6.09,2.46-13.59s-1-12.72-2.4-12.72S6.53,54.84,6.53,62.35Z"/><path d="M45.44,72s3.7,3.46,2.37,4.6c-1.17,1-2.19.48-5.22,1.2C35.06,79.56,38,77.27,37.9,76,37.83,74.55,42.59,77.78,45.44,72Z"/><path d="M14.2,74.2c1.87,5.45-5.86,1.72-6.33,1.86,0,0-1.14-3.71-.48-3.22A9.1,9.1,0,0,0,14.2,74.2Z"/><path d="M20.35,78.72A24.44,24.44,0,0,0,24,79c2.1,0,2.05-.56,2.05-.56s.52-3.4-2.43-3.4S20.35,78.72,20.35,78.72Z"/><ellipse cx="24.75" cy="63.72" rx="2.54" ry="2.87"/><path d="M25.33,48.44c-.81.07-.49,2.65-2.67,5.6-1.71,2.3-.39,9.42-.39,9.42.81-2.72,2.83-2.4,3.89-1.66a2.43,2.43,0,0,1,.82,1s.91-7.4,1.21-8.92C28.74,51.15,28,48.21,25.33,48.44Z"/><path d="M27.18,64.55s-2.11,7-1.2,12.62c0,0-1.55-3-3.74-1.56a38.33,38.33,0,0,0,.28-11.23A3.39,3.39,0,0,0,23.57,66C24.53,66.63,26.1,66.6,27.18,64.55Z"/><path d="M14.46,62.93a2.72,2.72,0,0,1-2.54,2.87,2.72,2.72,0,0,1-2.54-2.87c0-1.58,1.14-3.22,2.54-3.22S14.46,61.35,14.46,62.93Z"/><path d="M12.1,47.47c.81,0,.21.94.19,4.61s2,9.84,2,9.84c-1.17-2.57-3.13-2-4.08-1.11a2.4,2.4,0,0,0-.67,1.11V53.35C9.55,50.56,9.38,47.61,12.1,47.47Z"/><path d="M9.62,64.15a20.57,20.57,0,0,1,.52,10.45s1.16-1,3.7,1.13c0,0-.54-8.46.33-12a2.55,2.55,0,0,1-.86,1.61C12.35,66,10.7,66.2,9.62,64.15Z"/><path class="cls-3" d="M47.49,65.8s4.62-1.88,6.33-6c4.57-11,12.62-32.74,39.24-38.3,0,0-10.22,47.8-47.08,49.52C46,71,47.49,69.82,47.49,65.8Z"/><path class="cls-4" d="M93.06,21.45a44.4,44.4,0,0,0-15.75,6.17A5.68,5.68,0,0,1,80,32.89c-.57,8.84,6.08,7.58,6.08,7.58A87.18,87.18,0,0,0,93.06,21.45Z"/><polygon points="23.19 78.66 22.97 79.99 22.48 78.66 23.19 78.66"/><polygon points="21.25 78.82 20.59 80 20.58 78.57 21.25 78.82"/><polygon points="22.21 78.71 21.75 79.98 21.51 78.58 22.21 78.71"/><path d="M8.28,77.62a24.44,24.44,0,0,0,3.6.27c2.1,0,2-.56,2-.56s.52-3.4-2.43-3.4S8.28,77.62,8.28,77.62Z"/><polygon points="11.12 77.55 10.9 78.89 10.41 77.55 11.12 77.55"/><polygon points="9.18 77.71 8.52 78.9 8.51 77.47 9.18 77.71"/><polygon points="10.14 77.61 9.68 78.88 9.44 77.47 10.14 77.61"/><path d="M33.89,78.67a24.38,24.38,0,0,0,3.59.27c2.09,0,2-.56,2-.56S40,75,37.1,75,33.89,78.67,33.89,78.67Z"/><polygon points="36.73 78.61 36.5 79.94 36.02 78.61 36.73 78.61"/><polygon points="34.8 78.77 34.14 79.94 34.13 78.53 34.8 78.77"/><polygon points="35.75 78.66 35.29 79.93 35.06 78.53 35.75 78.66"/><path d="M2.88,76.27a24.44,24.44,0,0,0,3.6.27c2.1,0,2-.56,2-.56s.52-3.41-2.43-3.41S2.88,76.27,2.88,76.27Z"/><polygon points="5.72 76.2 5.5 77.54 5.01 76.2 5.72 76.2"/><polygon class="cls-6" points="3.78 76.36 3.12 77.54 3.11 76.12 3.78 76.36"/><polygon points="4.75 76.25 4.28 77.53 4.04 76.12 4.75 76.25"/><path class="cls-7" d="M3.93,12.12l7.46,3.8-1.06-.07s-6-2.57-6.22-3A2.47,2.47,0,0,1,3.93,12.12Z"/><path class="cls-7" d="M3.89,10.2c-.36.47,13.32,7,13.32,7L6.7,9.82S4.31,9.63,3.89,10.2Z"/><path class="cls-2" d="M38.94,18.92a61.23,61.23,0,0,1-11.85-.23s1.06-1.08-.68-8.7A19.17,19.17,0,0,0,38.94,18.92Z"/><path d="M38.94,18.92s-6.18-1.49-8.6-1.71c-5-.45-4-7.45-4-7.45C31.08,13.64,38.94,18.92,38.94,18.92Z"/><path class="cls-2" d="M28.73,11.05s9.26,7,3.42,14-15.72-1.31-15.72-1.31-7.72-9-5.31-8c4.73,2,5.77,1.54,6.67.58C19,15,12.49,11.54,14,9.74,19.44,3.22,28.73,11.05,28.73,11.05Z"/><path class="cls-2" d="M37.61,23.12s-6.39-.08-11.12-3c0,0,1.41-.56,2.91-8.22C29.4,11.87,30.19,17.59,37.61,23.12Z"/><path class="cls-2" d="M17.35,7.48a12.28,12.28,0,0,1-6.13,1.36c-.29,0-.54-.25-1-.25-.29,0-.48.21-.62.2-.37,0-.49-.27-.9-.31s-.59.19-.8.17-.42-.29-.67-.32-.62.16-.82.14-.52-.21-.79-.23c-1.44-.15-2.17.07-2.37.75-.68,2.38,2.63.26,3.89,1.68s5.82,3.89,9.82,6.38C19.45,18.61,17.35,7.48,17.35,7.48Z"/><path class="cls-4" d="M3.83,12a4.29,4.29,0,0,0,1.6,1.36c2.62,1.28,7.47,3.13,8.23,4.11,1.06,1.39,9.29,9.9,9.29,9.9s-4.52-.57-11.38-8C9.11,16.75,2.86,13.55,3.83,12Z"/><ellipse cx="3.73" cy="8.77" rx="1.52" ry="1.06" transform="translate(-5.75 7.83) rotate(-61.28)"/><path class="cls-4" d="M12.71,9.1s1.16,2.31,6.17,2.33A34.45,34.45,0,0,0,23.36,11s-5.76-2.2-6.65-3.27h0Z"/><path d="M17.5,8.32c.73.38,2,.78,1.28,2.31s-5.11.22-6.07-1.53l4-1.42A3.06,3.06,0,0,0,17.5,8.32Z"/><path class="cls-4" d="M16.58,9.22a.45.45,0,0,0,0-.9.45.45,0,0,0,0,.9Z"/><path d="M37.61,23.12a71.7,71.7,0,0,1-7.55-3.06c-4.41-2.45-.79-8.18-.79-8.18C32,17.36,37.61,23.12,37.61,23.12Z"/><path d="M16.71,7.68a3.38,3.38,0,0,0,.84.62,10.28,10.28,0,0,0,.93.49c.63.3,1.27.57,1.93.82,1.3.53,2.64,1,3.95,1.51A22.43,22.43,0,0,1,20.27,10,17.92,17.92,0,0,1,18.34,9,4.66,4.66,0,0,1,16.71,7.68Z"/><path class="cls-4" d="M15.64,8.7a.24.24,0,0,0,0-.47.24.24,0,0,0,0,.47Z"/><path d="M5.47,11.43a11.79,11.79,0,0,1,0,1.27,4.3,4.3,0,0,1,1-.82Z"/><path d="M3.83,10.39a3.67,3.67,0,0,0-.3,1.39,1.86,1.86,0,0,1,1.15-.65A4.18,4.18,0,0,1,3.83,10.39Z"/><path d="M7.61,12.6s.06.56.07,1.27a4.09,4.09,0,0,1,.93-.9Z"/><path d="M10,13.71s.06.56.07,1.27a4.09,4.09,0,0,1,.93-.9Z"/><path d="M12.71,15a9.71,9.71,0,0,1,.06,1.08,3.22,3.22,0,0,1,.92-.65Z"/><path d="M14.8,16s0,.45,0,1a3.17,3.17,0,0,1,.93-.5Z"/><path d="M14.12,16.77A4.61,4.61,0,0,1,14,16.1a3.06,3.06,0,0,0-.5.49Z"/><path d="M11.64,16a6.67,6.67,0,0,1,0-.71,6.62,6.62,0,0,0-.57.45Z"/><path d="M9.28,14.8a6.82,6.82,0,0,1,0-.76,4.75,4.75,0,0,0-.61.49Z"/><path d="M6.79,13.53s0-.37.08-.83c0,0-.26.23-.65.54Z"/><path d="M4.62,12.4s0-.37.06-.84L4,12.12Z"/></symbol></defs><title>testfox</title><g id="Layer_2" data-name="Layer 2"><g id="Layer_1-2" data-name="Layer 1"><use width="161" height="80" transform="translate(161 80.04)" xlink:href="#fox_run2"/><use width="161" height="80" transform="translate(483 80.04)" xlink:href="#fox_run4"/><use width="161" height="80" transform="translate(322 80.04)" xlink:href="#fox_run3"/><use width="161" height="80" transform="translate(644 80.04)" xlink:href="#fox_run5"/><use width="161" height="80" transform="translate(805 80.04)" xlink:href="#fox_run6"/><use width="161" height="80" transform="translate(1127 80.04)" xlink:href="#fox_run8"/><use width="161" height="80" transform="translate(965.95 80.04)" xlink:href="#fox_run7"/><use width="161" height="80" transform="translate(0 80.04)" xlink:href="#fox_run1"/><rect class="cls-1" y="0.04" width="161" height="80"/><path class="cls-3" d="M29.89,26.73s.22,9.23,5.26,16.63c0,0-4.58-4-14.44,3.92,0,0-13.5-5.54-16.15-2.53,0,0,1.72-12.13,4.18-18.31C8.74,26.44,19.86,31.24,29.89,26.73Z" transform="translate(0 0)"/><path class="cls-3" d="M20.71,47.28s10.62-9.13,15.34-2.82c4.09,5.47,7.06,19,3.51,24.71S29.12,76.6,19.49,76.66,2.14,71.47,1.31,67.4,2.83,47.65,4.56,44.75C6.85,40.88,20.71,47.28,20.71,47.28Z" transform="translate(0 0)"/><path class="cls-4" d="M24.89,30.13A28.93,28.93,0,0,0,26,43.79s15.75,34.59-8.2,32.82c-21.45-1.58-8-32.46-8-32.46S10.47,33,11.4,30.58Z" transform="translate(0 0)"/><path class="cls-2" d="M19.42,8.18s15-.69,15,10.49-15,10.25-15,10.25S3.72,29,3.72,18.56,19.42,8.18,19.42,8.18Z" transform="translate(0 0)"/><path class="cls-4" d="M28.1,15.5c-1.07-1.3-3.57-2.33-6.76.8-2.87,2.82-2.55,6.05-.94,7.2,1.36,1,4.1,1.68,6.84-.89S29.36,17,28.1,15.5Z" transform="translate(0 0)"/><path class="cls-4" d="M7.93,15.5c1.06-1.3,3.57-2.33,6.76.8,2.87,2.82,2.54,6.05.94,7.2-1.37,1-4.1,1.68-6.85-.89S6.67,17,7.93,15.5Z" transform="translate(0 0)"/><ellipse cx="22.82" cy="20.98" rx="3.57" ry="3.4"/><ellipse cx="13.2" cy="20.96" rx="3.55" ry="3.37"/><path class="cls-2" d="M32.05.08s1.89,7.08.24,12.84c0,0-2.3-3.11-9.56-4.3C22.73,8.62,24.91,3.44,32.05.08Z" transform="translate(0 0)"/><path class="cls-2" d="M5.7.45S3.81,7.53,5.46,13.29c0,0,2.3-3.11,9.56-4.3C15,9,12.84,3.81,5.7.45Z" transform="translate(0 0)"/><path d="M28.87,6.42A7.86,7.86,0,0,1,29,10.54a7,7,0,0,0-3.35-1.19A6.45,6.45,0,0,1,28.87,6.42Z" transform="translate(0 0)"/><path d="M8.46,6.87a9.65,9.65,0,0,0-.08,4.41s.79-1.07,3.28-1.48A6.45,6.45,0,0,0,8.46,6.87Z" transform="translate(0 0)"/><path class="cls-2" d="M27.62,27.59s-9.38,8.86-11,8.86-8-10.09-8-10.09C14.67,29.87,27.62,27.59,27.62,27.59Z" transform="translate(0 0)"/><path class="cls-4" d="M27,28.2a7.31,7.31,0,0,0-3.18,1.31c-1.2,1-5.68,5.71-5.68,5.71a1,1,0,0,1-1.55,0s.5,1.08.76.93C20.53,34.33,27,28.2,27,28.2Z" transform="translate(0 0)"/><path class="cls-4" d="M9.09,27.18a6.3,6.3,0,0,1,2.45,1.75c.82,1.12,3.71,6.09,3.71,6.09a.88.88,0,0,0,1.32.29s-.64.85-.84.67C13.36,33.78,9.09,27.18,9.09,27.18Z" transform="translate(0 0)"/><ellipse cx="16.56" cy="35.94" rx="1.69" ry="0.72"/><ellipse class="cls-5" cx="34.58" cy="61.63" rx="5.7" ry="12.79"/><ellipse class="cls-5" cx="3.88" cy="61.94" rx="3.84" ry="12.79"/><path d="M38.59,70.71S41.15,74,40.23,75s-1.54.37-3.62,1.13a2.39,2.39,0,0,1-3.24-1.66S36.69,75.29,38.59,70.71Z" transform="translate(0 0)"/><path d="M9.83,74.93c.13,1.74-2.81.9-3.25,1,0,0-1.9-1.52-.69-3.12Z" transform="translate(0 0)"/><circle class="cls-4" cx="25.34" cy="19.74" r="0.29"/><circle class="cls-4" cx="25.2" cy="20.76" r="0.5"/><path d="M32.43,12.43a21.24,21.24,0,0,0,.14-3,29.18,29.18,0,0,0-.14-3c-.1-1-.21-2-.38-2.94S31.71,1.6,31.5.63L32,.88a29.58,29.58,0,0,0-4.67,2.87A21.15,21.15,0,0,0,25.2,5.52a20.33,20.33,0,0,0-1.91,2A17.27,17.27,0,0,1,27,3.33,22.93,22.93,0,0,1,31.7.24l.39-.2.1.44a32.45,32.45,0,0,1,.79,6c0,1,0,2,0,3A17.43,17.43,0,0,1,32.43,12.43Z" transform="translate(0 0)"/><path d="M5.26,12.81a16.45,16.45,0,0,1-.5-3c-.07-1-.08-2,0-3a32.45,32.45,0,0,1,.79-6L5.6.42,6,.62A22.79,22.79,0,0,1,10.7,3.71a16.8,16.8,0,0,1,3.69,4.2,21.28,21.28,0,0,0-1.9-2,20.93,20.93,0,0,0-2.12-1.77A30.88,30.88,0,0,0,5.7,1.25L6.19,1C6,2,5.78,3,5.64,3.92s-.28,2-.38,3a29.18,29.18,0,0,0-.14,3A21.24,21.24,0,0,0,5.26,12.81Z" transform="translate(0 0)"/><path d="M19.3,78.73a4.85,4.85,0,0,0,3,.72c2.28,0,3-.72,3-.72s.22-4.54-3-4.54S19.3,78.73,19.3,78.73Z" transform="translate(0 0)"/><path d="M16.37,78.73a4.87,4.87,0,0,1-3,.72c-2.27,0-3-.72-3-.72s-.21-4.54,3-4.54S16.37,78.73,16.37,78.73Z" transform="translate(0 0)"/><ellipse cx="21.44" cy="64.13" rx="1.96" ry="2.7"/><path d="M21.3,49.58c-.62,0-2,.31-2,3.76s.26,9.84.26,9.84c.91-2.42,2.42-1.87,3.15-1a2.44,2.44,0,0,1,.52,1S24.75,56.4,25.14,55C25.85,52.54,23.4,49.71,21.3,49.58Z" transform="translate(0 0)"/><path d="M23.21,65.27s-.32,6.75-.07,10a8.67,8.67,0,0,0-3.8,2.37s.34-11.43.21-12.8a3.33,3.33,0,0,0,.81,1.52C21.11,67,22.38,67.2,23.21,65.27Z" transform="translate(0 0)"/><ellipse cx="14.23" cy="64.13" rx="1.96" ry="2.7"/><path d="M14.36,49.58c.63,0,2,.31,2,3.76s-.27,9.84-.27,9.84c-.9-2.42-2.41-1.87-3.15-1a2.36,2.36,0,0,0-.51,1S10.92,56.4,10.53,55C9.82,52.54,12.27,49.71,14.36,49.58Z" transform="translate(0 0)"/><path d="M12.45,65.27s.33,6.75.07,10a8.79,8.79,0,0,1,3.81,2.39S16,66.24,16.12,64.87a3.39,3.39,0,0,1-.82,1.52C14.56,67,13.29,67.2,12.45,65.27Z" transform="translate(0 0)"/><path d="M6.88,76.63a4.85,4.85,0,0,1-3,.72c-2.28,0-3-.72-3-.72s-.22-4.54,3-4.54S6.88,76.63,6.88,76.63Z" transform="translate(0 0)"/><path d="M37,78a4.8,4.8,0,0,1-3,.73c-2.28,0-3-.73-3-.73s-.21-4.53,3-4.53S37,78,37,78Z" transform="translate(0 0)"/><path class="cls-9" d="M39.25,64s19-9.82,31.54-5.36S83.1,71.24,98.61,72.49c0,0-24.11,11.27-39,.89C50,66.68,47.15,66.56,39,69.79Z" transform="translate(0 0)"/><path class="cls-4" d="M80,63.87s12.41,8.4,18.57,8.57c0,0-15.84,8.24-31.5,4.33,0,0,11.58,1.21,10-7.2A4.94,4.94,0,0,1,80,63.87Z" transform="translate(0 0)"/><rect class="cls-1" x="161" y="0.04" width="161" height="80"/><path class="cls-3" d="M190.85,26.69s.22,9.23,5.26,16.63c0,0-4.58-4-14.44,3.92,0,0-13.5-5.54-16.15-2.54,0,0,1.72-12.13,4.18-18.3C169.7,26.4,180.82,31.2,190.85,26.69Z" transform="translate(0 0)"/><path class="cls-3" d="M181.67,47.24s10.62-9.13,15.34-2.82c4.09,5.46,7.06,19,3.51,24.7s-10.44,7.44-20.07,7.49-17.35-5.19-18.18-9.26,1.52-19.74,3.25-22.65C167.81,40.84,181.67,47.24,181.67,47.24Z" transform="translate(0 0)"/><path class="cls-4" d="M185.85,30.08A28.94,28.94,0,0,0,187,43.74s15.75,34.6-8.2,32.83c-21.45-1.58-8-32.46-8-32.46s.61-11.14,1.54-13.57Z" transform="translate(0 0)"/><path class="cls-2" d="M180.38,8.14s15-.69,15,10.49-15,10.25-15,10.25-15.7.05-15.7-10.36S180.38,8.14,180.38,8.14Z" transform="translate(0 0)"/><path class="cls-2" d="M193,0s1.89,7.07.25,12.84c0,0-2.31-3.11-9.57-4.3C183.69,8.58,185.87,3.4,193,0Z" transform="translate(0 0)"/><path class="cls-2" d="M166.66.41s-1.89,7.08-.24,12.84c0,0,2.3-3.11,9.56-4.3C176,9,173.8,3.77,166.66.41Z" transform="translate(0 0)"/><path d="M189.83,6.38A7.86,7.86,0,0,1,190,10.5a7,7,0,0,0-3.35-1.19A6.45,6.45,0,0,1,189.83,6.38Z" transform="translate(0 0)"/><path d="M169.42,6.83a9.65,9.65,0,0,0-.08,4.41s.79-1.07,3.28-1.48A6.45,6.45,0,0,0,169.42,6.83Z" transform="translate(0 0)"/><path class="cls-2" d="M188.59,27.55s-9.39,8.86-11,8.86-8-10.09-8-10.09C175.63,29.82,188.59,27.55,188.59,27.55Z" transform="translate(0 0)"/><path class="cls-4" d="M187.93,28.16a7.31,7.31,0,0,0-3.18,1.31c-1.2,1-5.68,5.71-5.68,5.71a1,1,0,0,1-1.55,0s.5,1.07.76.93C181.49,34.29,187.93,28.16,187.93,28.16Z" transform="translate(0 0)"/><path class="cls-4" d="M170.05,27.14a6.3,6.3,0,0,1,2.45,1.75c.82,1.12,3.71,6.09,3.71,6.09a.88.88,0,0,0,1.32.29s-.64.85-.84.67C174.32,33.74,170.05,27.14,170.05,27.14Z" transform="translate(0 0)"/><ellipse cx="177.52" cy="35.9" rx="1.69" ry="0.72"/><ellipse class="cls-5" cx="195.54" cy="61.59" rx="5.7" ry="12.79"/><ellipse class="cls-5" cx="164.84" cy="61.89" rx="3.84" ry="12.79"/><path d="M199.55,70.66s2.56,3.26,1.64,4.33-1.54.37-3.62,1.13a2.39,2.39,0,0,1-3.24-1.66S197.65,75.24,199.55,70.66Z" transform="translate(0 0)"/><path d="M170.79,74.89c.13,1.73-2.81.9-3.25,1,0,0-1.9-1.52-.69-3.13Z" transform="translate(0 0)"/><circle class="cls-4" cx="186.16" cy="20.72" r="0.5"/><path d="M193.39,12.39a21.24,21.24,0,0,0,.14-3,29.18,29.18,0,0,0-.14-3c-.1-1-.21-2-.38-2.94s-.34-1.95-.55-2.92l.49.25a29.58,29.58,0,0,0-4.67,2.87,21.15,21.15,0,0,0-2.12,1.77,21.38,21.38,0,0,0-1.91,2,17,17,0,0,1,3.7-4.2A22.53,22.53,0,0,1,192.66.2l.39-.2.1.44a32.45,32.45,0,0,1,.79,6c0,1,0,2-.05,3A16.45,16.45,0,0,1,193.39,12.39Z" transform="translate(0 0)"/><path d="M166.22,12.77a16.6,16.6,0,0,1-.5-3c-.07-1-.08-2-.05-3a32.45,32.45,0,0,1,.79-6l.1-.44.39.19a23,23,0,0,1,4.71,3.1,16.8,16.8,0,0,1,3.69,4.2,22.69,22.69,0,0,0-1.9-2,23.94,23.94,0,0,0-2.12-1.77,30.33,30.33,0,0,0-4.67-2.87l.49-.24c-.21,1-.41,1.94-.55,2.91s-.28,2-.38,2.94a29.52,29.52,0,0,0-.14,3A21.31,21.31,0,0,0,166.22,12.77Z" transform="translate(0 0)"/><path d="M180.26,78.68a4.8,4.8,0,0,0,3,.73c2.28,0,3-.73,3-.73s.22-4.53-3-4.53S180.26,78.68,180.26,78.68Z" transform="translate(0 0)"/><path d="M177.33,78.68a4.8,4.8,0,0,1-3,.73c-2.28,0-3-.73-3-.73s-.21-4.53,3-4.53S177.33,78.68,177.33,78.68Z" transform="translate(0 0)"/><ellipse cx="182.4" cy="64.09" rx="1.96" ry="2.7"/><path d="M182.26,49.54c-.62,0-2,.31-2,3.76s.26,9.84.26,9.84c.91-2.42,2.42-1.87,3.15-1a2.44,2.44,0,0,1,.52,1s1.48-6.78,1.87-8.16C186.81,52.5,184.36,49.67,182.26,49.54Z" transform="translate(0 0)"/><path d="M184.17,65.23s-.32,6.74-.07,10a8.67,8.67,0,0,0-3.8,2.37s.34-11.43.21-12.8a3.44,3.44,0,0,0,.81,1.52C182.07,66.94,183.34,67.16,184.17,65.23Z" transform="translate(0 0)"/><ellipse cx="175.19" cy="64.09" rx="1.96" ry="2.7"/><path d="M175.32,49.54c.63,0,2,.31,2,3.76s-.27,9.84-.27,9.84c-.9-2.42-2.41-1.87-3.15-1a2.49,2.49,0,0,0-.51,1s-1.48-6.78-1.87-8.16C170.78,52.5,173.23,49.67,175.32,49.54Z" transform="translate(0 0)"/><path d="M173.41,65.23s.33,6.74.07,10a8.79,8.79,0,0,1,3.81,2.39s-.34-11.45-.21-12.82a3.39,3.39,0,0,1-.82,1.52C175.52,66.94,174.25,67.16,173.41,65.23Z" transform="translate(0 0)"/><path d="M167.84,76.59a4.85,4.85,0,0,1-3,.72c-2.28,0-3-.72-3-.72s-.22-4.54,3-4.54S167.84,76.59,167.84,76.59Z" transform="translate(0 0)"/><path d="M197.94,77.91a4.8,4.8,0,0,1-3,.73c-2.28,0-3-.73-3-.73s-.21-4.53,3-4.53S197.94,77.91,197.94,77.91Z" transform="translate(0 0)"/><path class="cls-9" d="M200.21,64s19-9.81,31.54-5.35,12.31,12.58,27.82,13.83c0,0-24.11,11.27-39,.89-9.6-6.7-12.49-6.82-20.62-3.6Z" transform="translate(0 0)"/><path class="cls-4" d="M241,63.83s12.41,8.4,18.57,8.57c0,0-15.84,8.24-31.5,4.33,0,0,11.58,1.2,10-7.2A4.93,4.93,0,0,1,241,63.83Z" transform="translate(0 0)"/><path class="cls-4" d="M189,15.5c-1.06-1.3-3.55-2.32-6.73.79-2.86,2.81-2.53,6-.94,7.17,1.36,1,4.09,1.67,6.82-.88S190.28,17,189,15.5Z" transform="translate(0 0)"/><path class="cls-4" d="M168.94,15.5c1.06-1.3,3.55-2.32,6.73.79,2.86,2.81,2.53,6,.94,7.17-1.37,1-4.09,1.67-6.82-.88S167.68,17,168.94,15.5Z" transform="translate(0 0)"/><ellipse cx="174.19" cy="20.93" rx="3.53" ry="3.36"/><path d="M190.3,17.47a10.39,10.39,0,0,1-4.82,1.93,14.15,14.15,0,0,1-5.19-.11c1.73-.17,3.41-.32,5.08-.58A26,26,0,0,0,190.3,17.47Z" transform="translate(0 0)"/><path d="M190,17.6c-.89-4-4.17-4-6.45-2.36a7.56,7.56,0,0,0-3.19,4C187.21,19.19,190,17.6,190,17.6Z" transform="translate(0 0)"/><ellipse cx="183.73" cy="20.93" rx="3.53" ry="3.36"/><circle class="cls-4" cx="186.56" cy="20.34" r="0.29"/><circle class="cls-4" cx="186.08" cy="21.55" r="0.49"/><path d="M167.65,17.45a26,26,0,0,0,4.93,1.23c1.67.27,3.35.42,5.08.59a14.37,14.37,0,0,1-5.19.11A10.46,10.46,0,0,1,167.65,17.45Z" transform="translate(0 0)"/><path d="M167.94,17.57c.89-4,4.17-4,6.45-2.36a7.54,7.54,0,0,1,3.18,4.06C170.74,19.17,167.94,17.57,167.94,17.57Z" transform="translate(0 0)"/><rect class="cls-1" x="322" y="0.04" width="161" height="80"/><path class="cls-3" d="M351.85,26.69s.22,9.23,5.26,16.63c0,0-4.58-4-14.44,3.92,0,0-13.5-5.54-16.15-2.54,0,0,1.72-12.13,4.18-18.3C330.7,26.4,341.82,31.2,351.85,26.69Z" transform="translate(0 0)"/><path class="cls-3" d="M342.67,47.24s10.62-9.13,15.34-2.82c4.09,5.46,7.06,19,3.51,24.7s-10.44,7.44-20.07,7.49-17.35-5.19-18.18-9.26,1.52-19.74,3.25-22.65C328.81,40.84,342.67,47.24,342.67,47.24Z" transform="translate(0 0)"/><path class="cls-4" d="M346.85,30.08A28.94,28.94,0,0,0,348,43.74s15.75,34.6-8.2,32.83c-21.45-1.58-8-32.46-8-32.46s.61-11.14,1.54-13.57Z" transform="translate(0 0)"/><path class="cls-2" d="M341.38,8.14s15-.69,15,10.49-15,10.25-15,10.25-15.7.05-15.7-10.36S341.38,8.14,341.38,8.14Z" transform="translate(0 0)"/><path class="cls-2" d="M354,0s1.89,7.07.25,12.84c0,0-2.31-3.11-9.57-4.3C344.69,8.58,346.87,3.4,354,0Z" transform="translate(0 0)"/><path class="cls-2" d="M327.66.41s-1.89,7.08-.24,12.84c0,0,2.3-3.11,9.56-4.3C337,9,334.8,3.77,327.66.41Z" transform="translate(0 0)"/><path d="M350.83,6.38A7.86,7.86,0,0,1,351,10.5a7,7,0,0,0-3.35-1.19A6.45,6.45,0,0,1,350.83,6.38Z" transform="translate(0 0)"/><path d="M330.42,6.83a9.65,9.65,0,0,0-.08,4.41s.79-1.07,3.28-1.48A6.45,6.45,0,0,0,330.42,6.83Z" transform="translate(0 0)"/><path class="cls-2" d="M349.59,27.55s-9.39,8.86-11,8.86-8-10.09-8-10.09C336.63,29.82,349.59,27.55,349.59,27.55Z" transform="translate(0 0)"/><path class="cls-4" d="M348.93,28.16a7.31,7.31,0,0,0-3.18,1.31c-1.2,1-5.68,5.71-5.68,5.71a1,1,0,0,1-1.55,0s.5,1.07.76.93C342.49,34.29,348.93,28.16,348.93,28.16Z" transform="translate(0 0)"/><path class="cls-4" d="M331.05,27.14a6.3,6.3,0,0,1,2.45,1.75c.82,1.12,3.71,6.09,3.71,6.09a.88.88,0,0,0,1.32.29s-.64.85-.84.67C335.32,33.74,331.05,27.14,331.05,27.14Z" transform="translate(0 0)"/><ellipse cx="338.52" cy="35.9" rx="1.69" ry="0.72"/><ellipse class="cls-5" cx="356.54" cy="61.59" rx="5.7" ry="12.79"/><ellipse class="cls-5" cx="325.84" cy="61.89" rx="3.84" ry="12.79"/><path d="M360.55,70.66s2.56,3.26,1.64,4.33-1.54.37-3.62,1.13a2.39,2.39,0,0,1-3.24-1.66S358.65,75.24,360.55,70.66Z" transform="translate(0 0)"/><path d="M331.79,74.89c.13,1.73-2.81.9-3.25,1,0,0-1.9-1.52-.69-3.13Z" transform="translate(0 0)"/><path d="M354.39,12.39a21.24,21.24,0,0,0,.14-3,29.18,29.18,0,0,0-.14-3c-.1-1-.21-2-.38-2.94s-.34-1.95-.55-2.92l.49.25a29.58,29.58,0,0,0-4.67,2.87,21.15,21.15,0,0,0-2.12,1.77,21.38,21.38,0,0,0-1.91,2,17,17,0,0,1,3.7-4.2A22.53,22.53,0,0,1,353.66.2l.39-.2.1.44a32.45,32.45,0,0,1,.79,6c0,1,0,2-.05,3A16.45,16.45,0,0,1,354.39,12.39Z" transform="translate(0 0)"/><path d="M327.22,12.77a16.6,16.6,0,0,1-.5-3c-.07-1-.08-2-.05-3a32.45,32.45,0,0,1,.79-6l.1-.44.39.19a23,23,0,0,1,4.71,3.1,16.8,16.8,0,0,1,3.69,4.2,22.69,22.69,0,0,0-1.9-2,23.94,23.94,0,0,0-2.12-1.77,30.33,30.33,0,0,0-4.67-2.87l.49-.24c-.21,1-.41,1.94-.55,2.91s-.28,2-.38,2.94a29.52,29.52,0,0,0-.14,3A21.31,21.31,0,0,0,327.22,12.77Z" transform="translate(0 0)"/><path d="M341.26,78.68a4.8,4.8,0,0,0,3,.73c2.28,0,3-.73,3-.73s.22-4.53-3-4.53S341.26,78.68,341.26,78.68Z" transform="translate(0 0)"/><path d="M338.33,78.68a4.8,4.8,0,0,1-3,.73c-2.28,0-3-.73-3-.73s-.21-4.53,3-4.53S338.33,78.68,338.33,78.68Z" transform="translate(0 0)"/><ellipse cx="343.4" cy="64.09" rx="1.96" ry="2.7"/><path d="M343.26,49.54c-.62,0-2,.31-2,3.76s.26,9.84.26,9.84c.91-2.42,2.42-1.87,3.15-1a2.44,2.44,0,0,1,.52,1s1.48-6.78,1.87-8.16C347.81,52.5,345.36,49.67,343.26,49.54Z" transform="translate(0 0)"/><path d="M345.17,65.23s-.32,6.74-.07,10a8.67,8.67,0,0,0-3.8,2.37s.34-11.43.21-12.8a3.44,3.44,0,0,0,.81,1.52C343.07,66.94,344.34,67.16,345.17,65.23Z" transform="translate(0 0)"/><ellipse cx="336.19" cy="64.09" rx="1.96" ry="2.7"/><path d="M336.32,49.54c.63,0,2,.31,2,3.76s-.27,9.84-.27,9.84c-.9-2.42-2.41-1.87-3.15-1a2.49,2.49,0,0,0-.51,1s-1.48-6.78-1.87-8.16C331.78,52.5,334.23,49.67,336.32,49.54Z" transform="translate(0 0)"/><path d="M334.41,65.23s.33,6.74.07,10a8.79,8.79,0,0,1,3.81,2.39s-.34-11.45-.21-12.82a3.39,3.39,0,0,1-.82,1.52C336.52,66.94,335.25,67.16,334.41,65.23Z" transform="translate(0 0)"/><path d="M328.84,76.59a4.85,4.85,0,0,1-3,.72c-2.28,0-3-.72-3-.72s-.22-4.54,3-4.54S328.84,76.59,328.84,76.59Z" transform="translate(0 0)"/><path d="M358.94,77.91a4.8,4.8,0,0,1-3,.73c-2.28,0-3-.73-3-.73s-.21-4.53,3-4.53S358.94,77.91,358.94,77.91Z" transform="translate(0 0)"/><path class="cls-9" d="M361.21,64s19-9.81,31.54-5.35,12.31,12.58,27.82,13.83c0,0-24.11,11.27-39,.89-9.6-6.7-12.49-6.82-20.62-3.6Z" transform="translate(0 0)"/><path class="cls-4" d="M402,63.83s12.41,8.4,18.57,8.57c0,0-15.84,8.24-31.5,4.33,0,0,11.58,1.2,10.05-7.2A4.93,4.93,0,0,1,402,63.83Z" transform="translate(0 0)"/><path d="M350,15.5c-1.06-1.3-3.55-2.32-6.73.79-2.86,2.81-2.53,6-.94,7.16,1.36,1,4.09,1.67,6.82-.88S351.28,17,350,15.5Z" transform="translate(0 0)"/><path d="M329.94,15.5c1.06-1.3,3.55-2.32,6.73.79,2.86,2.81,2.53,6,.94,7.16-1.36,1-4.09,1.67-6.82-.88S328.68,17,329.94,15.5Z" transform="translate(0 0)"/><path class="cls-6" d="M348.33,22.85a.92.92,0,0,1,.68.83.92.92,0,0,1-.48-.31A.87.87,0,0,1,348.33,22.85Z" transform="translate(0 0)"/><path class="cls-6" d="M347.28,23.66a.9.9,0,0,1,.49.95.89.89,0,0,1-.4-.39A.87.87,0,0,1,347.28,23.66Z" transform="translate(0 0)"/><path class="cls-6" d="M346.09,24a.89.89,0,0,1,.27.5.86.86,0,0,1-.07.56.86.86,0,0,1-.27-.49A.9.9,0,0,1,346.09,24Z" transform="translate(0 0)"/><path class="cls-6" d="M344.86,24.14a.93.93,0,0,1,.19.53,1,1,0,0,1-.17.54.89.89,0,0,1-.18-.53A.87.87,0,0,1,344.86,24.14Z" transform="translate(0 0)"/><path class="cls-6" d="M331.77,22.83a.9.9,0,0,1-.2.53.93.93,0,0,1-.47.31.9.9,0,0,1,.2-.53A.93.93,0,0,1,331.77,22.83Z" transform="translate(0 0)"/><path class="cls-6" d="M332.82,23.64a.86.86,0,0,1-.09.56.91.91,0,0,1-.4.4.93.93,0,0,1,.09-.56A1,1,0,0,1,332.82,23.64Z" transform="translate(0 0)"/><path class="cls-6" d="M334,24a.86.86,0,0,1,.07.56.89.89,0,0,1-.27.5.94.94,0,0,1-.07-.56A.86.86,0,0,1,334,24Z" transform="translate(0 0)"/><path class="cls-6" d="M335.24,24.12a.87.87,0,0,1,.16.54.9.9,0,0,1-.18.54.9.9,0,0,1,0-1.08Z" transform="translate(0 0)"/><path class="cls-6" d="M331,21.79a.88.88,0,0,1-.21.52.85.85,0,0,1-.47.31.88.88,0,0,1,.68-.83Z" transform="translate(0 0)"/><path class="cls-6" d="M349.09,21.79a.88.88,0,0,1,.68.83.93.93,0,0,1-.47-.31A.88.88,0,0,1,349.09,21.79Z" transform="translate(0 0)"/><path class="cls-10" d="M337.73,22.68a6,6,0,0,1-4.88.13,5.49,5.49,0,0,1-2.05-1.47,6.11,6.11,0,0,1-.73-1,10.15,10.15,0,0,1-.49-1.13,12.29,12.29,0,0,0,1.61,1.75,6.43,6.43,0,0,0,1.93,1.22,7.6,7.6,0,0,0,2.23.55A11.17,11.17,0,0,0,337.73,22.68Z" transform="translate(0 0)"/><path class="cls-10" d="M342.1,22.32a12.06,12.06,0,0,0,2.38.19,7.71,7.71,0,0,0,2.25-.4,6.69,6.69,0,0,0,2-1.08,13.28,13.28,0,0,0,1.73-1.64c-.17.37-.36.74-.57,1.1a6.57,6.57,0,0,1-.8,1A5.64,5.64,0,0,1,347,22.78,6,6,0,0,1,342.1,22.32Z" transform="translate(0 0)"/><use width="161" height="80" transform="translate(0 160.04)" xlink:href="#af1"/><use width="161" height="80" transform="translate(161 160.04)" xlink:href="#af2"/><use width="161" height="80" transform="translate(322 160.04)" xlink:href="#af3"/><use width="161" height="80" transform="translate(483 160.03)" xlink:href="#af4"/></g></g></svg>
