<?xml version="1.0" encoding="utf-8"?>
<!-- Generator: Adobe Illustrator 22.0.0, SVG Export Plug-In . SVG Version: 6.00 Build 0)  -->
<svg version="1.1" id="Layer_1" xmlns="http://www.w3.org/2000/svg" xmlns:xlink="http://www.w3.org/1999/xlink" x="0px" y="0px"
	 viewBox="0 0 353 102" style="enable-background:new 0 0 353 102;" xml:space="preserve">
<style type="text/css">
	.st0{fill:#FF0000;}
	.st1{fill:#FFFFFF;}
	.st2{fill:#231F20;}
	.st3{enable-background:new    ;}
</style>
<g>
	<path class="st0" d="M317.6,87.5H27.4c-7.7,0-13.9-6.2-13.9-13.9V32.4c0-7.7,6.2-13.9,13.9-13.9h290.2c7.7,0,13.9,6.2,13.9,13.9
		v41.2C331.5,81.3,325.3,87.5,317.6,87.5z"/>
	<path d="M317.6,89H27.4C18.9,89,12,82.1,12,73.6V32.4C12,23.9,18.9,17,27.4,17h290.2c8.5,0,15.4,6.9,15.4,15.4v41.2
		C333,82.1,326.1,89,317.6,89z M27.4,20C20.6,20,15,25.6,15,32.4v41.2C15,80.4,20.6,86,27.4,86h290.2c6.8,0,12.4-5.6,12.4-12.4V32.4
		c0-6.8-5.6-12.4-12.4-12.4H27.4z"/>
</g>
<g>
	<g>
		<path class="st1" d="M86.2,54c0,1.8-0.3,3.4-1,4.7s-1.6,2.4-2.6,3.2s-2.3,1.5-3.7,1.9c-1.4,0.4-2.8,0.6-4.2,0.6h-7.4
			c-0.1,0-0.3-0.1-0.3-0.3V44c0-0.1,0.1-0.3,0.3-0.3h7.2c1.5,0,2.9,0.2,4.3,0.5c1.4,0.3,2.7,0.9,3.8,1.7c1.1,0.8,2,1.8,2.7,3.2
			C85.9,50.4,86.2,52,86.2,54z M81,54c0-1.2-0.2-2.1-0.6-2.9c-0.4-0.8-0.9-1.4-1.5-1.8c-0.6-0.5-1.3-0.8-2.2-1
			C76,48.1,75.2,48,74.3,48h-2.2c-0.1,0-0.3,0.1-0.3,0.3v11.5c0,0.1,0.1,0.3,0.3,0.3h2.1c0.9,0,1.8-0.1,2.6-0.3
			c0.8-0.2,1.6-0.5,2.2-1c0.6-0.5,1.1-1.1,1.5-1.9C80.8,56.1,81,55.1,81,54z"/>
		<path class="st2" d="M74.6,67.3h-7.4c-1.8,0-3.3-1.5-3.3-3.3V44c0-1.8,1.5-3.3,3.3-3.3h7.2c1.7,0,3.4,0.2,5,0.6
			c1.8,0.4,3.4,1.2,4.8,2.2c1.5,1.1,2.7,2.5,3.6,4.2c0.9,1.7,1.4,3.8,1.4,6.3c0,2.3-0.4,4.3-1.3,6c-0.9,1.7-2,3.1-3.5,4.2
			c-1.4,1.1-3,1.9-4.7,2.4C78,67.1,76.3,67.3,74.6,67.3z M74.8,51v6c0.4,0,0.8-0.1,1.2-0.2c0.4-0.1,0.8-0.3,1.1-0.5
			c0.2-0.2,0.4-0.4,0.6-0.8c0.1-0.2,0.3-0.7,0.3-1.6c0-0.9-0.2-1.4-0.3-1.6c-0.2-0.3-0.3-0.6-0.6-0.7c-0.3-0.2-0.7-0.4-1.1-0.5
			C75.7,51.1,75.3,51,74.8,51z"/>
	</g>
	<g>
		<path class="st1" d="M89.6,64.1V44c0-0.1,0.1-0.3,0.3-0.3h13.3c0.1,0,0.3,0.1,0.3,0.3v3.7c0,0.1-0.1,0.3-0.3,0.3h-8.5
			c-0.1,0-0.3,0.1-0.3,0.3v3.4c0,0.1,0.1,0.3,0.3,0.3h8c0.1,0,0.3,0.1,0.3,0.3v3.5c0,0.1-0.1,0.3-0.3,0.3h-8c-0.1,0-0.3,0.1-0.3,0.3
			v3.8c0,0.1,0.1,0.3,0.3,0.3h9.1c0.1,0,0.3,0.1,0.3,0.3v3.7c0,0.1-0.1,0.3-0.3,0.3H89.9C89.7,64.3,89.6,64.2,89.6,64.1z"/>
		<path class="st2" d="M103.7,67.3H89.9c-1.8,0-3.3-1.5-3.3-3.3V44c0-1.8,1.5-3.3,3.3-3.3h13.3c1.8,0,3.3,1.5,3.3,3.3v3.7
			c0,1-0.4,1.9-1.1,2.5c0.4,0.5,0.6,1.2,0.6,1.9v3.5c0,0.7-0.2,1.4-0.6,1.9c1,0.6,1.7,1.6,1.7,2.8v3.7
			C107,65.9,105.5,67.3,103.7,67.3z"/>
	</g>
	<g>
		<path class="st1" d="M107.4,64.1V44c0-0.1,0.1-0.3,0.3-0.3h4.5c0.1,0,0.3,0.1,0.3,0.3v15.8c0,0.1,0.1,0.3,0.3,0.3h7.5
			c0.1,0,0.3,0.1,0.3,0.3v3.8c0,0.1-0.1,0.3-0.3,0.3h-12.5C107.5,64.3,107.4,64.2,107.4,64.1z"/>
		<path class="st2" d="M120.1,67.3h-12.5c-1.8,0-3.3-1.5-3.3-3.3V44c0-1.8,1.5-3.3,3.3-3.3h4.5c1.8,0,3.3,1.5,3.3,3.3v13h4.7
			c1.8,0,3.3,1.5,3.3,3.3v3.8C123.4,65.9,121.9,67.3,120.1,67.3z"/>
	</g>
	<g>
		<path class="st1" d="M122.8,64.1V44c0-0.1,0.1-0.3,0.3-0.3h13.3c0.1,0,0.3,0.1,0.3,0.3v3.7c0,0.1-0.1,0.3-0.3,0.3h-8.5
			c-0.1,0-0.3,0.1-0.3,0.3v3.4c0,0.1,0.1,0.3,0.3,0.3h8c0.1,0,0.3,0.1,0.3,0.3v3.5c0,0.1-0.1,0.3-0.3,0.3h-8c-0.1,0-0.3,0.1-0.3,0.3
			v3.8c0,0.1,0.1,0.3,0.3,0.3h9.1c0.1,0,0.3,0.1,0.3,0.3v3.7c0,0.1-0.1,0.3-0.3,0.3h-13.9C122.9,64.3,122.8,64.2,122.8,64.1z"/>
		<path class="st2" d="M136.9,67.3h-13.9c-1.8,0-3.3-1.5-3.3-3.3V44c0-1.8,1.5-3.3,3.3-3.3h13.3c1.8,0,3.3,1.5,3.3,3.3v3.7
			c0,1-0.4,1.9-1.1,2.5c0.4,0.5,0.6,1.2,0.6,1.9v3.5c0,0.7-0.2,1.4-0.6,1.9c1,0.6,1.7,1.6,1.7,2.8v3.7
			C140.2,65.9,138.7,67.3,136.9,67.3z"/>
	</g>
	<g>
		<path class="st1" d="M164,58.4c0,1.1-0.2,2.1-0.7,2.8c-0.4,0.8-1,1.4-1.8,1.8c-0.7,0.5-1.6,0.8-2.5,1c-0.9,0.2-1.9,0.3-2.9,0.3
			h-7.9c-0.1,0-0.3-0.1-0.3-0.3V44c0-0.1,0.1-0.3,0.3-0.3h7.9c0.8,0,1.6,0.1,2.4,0.2c0.8,0.2,1.6,0.4,2.3,0.8
			c0.7,0.4,1.2,0.9,1.7,1.6c0.4,0.7,0.6,1.5,0.6,2.6c0,1.1-0.3,2.1-0.9,2.8c-0.6,0.7-1.4,1.3-2.4,1.6v0.1c0.6,0.1,1.1,0.3,1.6,0.5
			c0.5,0.3,1,0.6,1.3,1s0.7,0.9,0.9,1.4C163.9,57.1,164,57.7,164,58.4z M158.4,49.7c0-0.7-0.3-1.2-0.8-1.5c-0.5-0.3-1.3-0.5-2.4-0.5
			H153c-0.1,0-0.3,0.1-0.3,0.3v3.7c0,0.1,0.1,0.3,0.3,0.3h2.4c0.9,0,1.7-0.2,2.2-0.6C158.1,51,158.4,50.4,158.4,49.7z M159,57.9
			c0-0.9-0.3-1.4-1-1.8c-0.6-0.3-1.5-0.5-2.6-0.5H153c-0.1,0-0.3,0.1-0.3,0.3v4.2c0,0.1,0.1,0.3,0.3,0.3h2.5c0.4,0,0.8,0,1.2-0.1
			c0.4-0.1,0.8-0.2,1.1-0.4c0.3-0.2,0.6-0.4,0.8-0.7C158.9,58.8,159,58.4,159,57.9z"/>
		<path class="st2" d="M156.2,67.3h-7.9c-1.8,0-3.3-1.5-3.3-3.3V44c0-1.8,1.5-3.3,3.3-3.3h7.9c1,0,2,0.1,3,0.3
			c1.2,0.2,2.2,0.6,3.2,1.2c1.1,0.6,2,1.5,2.7,2.6c0.7,1.2,1.1,2.6,1.1,4.2c0,1.5-0.4,2.9-1.1,4.1c0.6,0.7,1.1,1.4,1.4,2.3
			c0.4,0.9,0.6,1.9,0.6,3c0,1.7-0.4,3.1-1.1,4.3c-0.7,1.2-1.6,2.2-2.8,2.9c-1,0.7-2.2,1.1-3.5,1.4C158.6,67.2,157.4,67.3,156.2,67.3
			z M156.5,57.2C156.5,57.2,156.5,57.2,156.5,57.2C156.5,57.2,156.5,57.2,156.5,57.2z M155.8,49.7L155.8,49.7h2.6H155.8z"/>
	</g>
	<g>
		<path class="st1" d="M167.4,64.1V44c0-0.1,0.1-0.3,0.3-0.3h4.5c0.1,0,0.3,0.1,0.3,0.3v20.1c0,0.1-0.1,0.3-0.3,0.3h-4.5
			C167.5,64.3,167.4,64.2,167.4,64.1z"/>
		<path class="st2" d="M172.2,67.3h-4.5c-1.8,0-3.3-1.5-3.3-3.3V44c0-1.8,1.5-3.3,3.3-3.3h4.5c1.8,0,3.3,1.5,3.3,3.3v20.1
			C175.4,65.9,174,67.3,172.2,67.3z"/>
	</g>
	<g>
		<path class="st1" d="M176.8,64.1V44c0-0.1,0.1-0.3,0.3-0.3h4.5c0.1,0,0.3,0.1,0.3,0.3v15.8c0,0.1,0.1,0.3,0.3,0.3h7.5
			c0.1,0,0.3,0.1,0.3,0.3v3.8c0,0.1-0.1,0.3-0.3,0.3H177C176.9,64.3,176.8,64.2,176.8,64.1z"/>
		<path class="st2" d="M189.5,67.3H177c-1.8,0-3.3-1.5-3.3-3.3V44c0-1.8,1.5-3.3,3.3-3.3h4.5c1.8,0,3.3,1.5,3.3,3.3v13h4.7
			c1.8,0,3.3,1.5,3.3,3.3v3.8C192.8,65.9,191.3,67.3,189.5,67.3z"/>
	</g>
	<g>
		<path class="st1" d="M192.2,64.1V44c0-0.1,0.1-0.3,0.3-0.3h4.5c0.1,0,0.3,0.1,0.3,0.3v15.8c0,0.1,0.1,0.3,0.3,0.3h7.5
			c0.1,0,0.3,0.1,0.3,0.3v3.8c0,0.1-0.1,0.3-0.3,0.3h-12.5C192.3,64.3,192.2,64.2,192.2,64.1z"/>
		<path class="st2" d="M204.9,67.3h-12.5c-1.8,0-3.3-1.5-3.3-3.3V44c0-1.8,1.5-3.3,3.3-3.3h4.5c1.8,0,3.3,1.5,3.3,3.3v13h4.7
			c1.8,0,3.3,1.5,3.3,3.3v3.8C208.2,65.9,206.7,67.3,204.9,67.3z"/>
	</g>
	<g>
		<path class="st1" d="M207.6,64.1V44c0-0.1,0.1-0.3,0.3-0.3h13.3c0.1,0,0.3,0.1,0.3,0.3v3.7c0,0.1-0.1,0.3-0.3,0.3h-8.5
			c-0.1,0-0.3,0.1-0.3,0.3v3.4c0,0.1,0.1,0.3,0.3,0.3h8c0.1,0,0.3,0.1,0.3,0.3v3.5c0,0.1-0.1,0.3-0.3,0.3h-8c-0.1,0-0.3,0.1-0.3,0.3
			v3.8c0,0.1,0.1,0.3,0.3,0.3h9.1c0.1,0,0.3,0.1,0.3,0.3v3.7c0,0.1-0.1,0.3-0.3,0.3h-13.9C207.7,64.3,207.6,64.2,207.6,64.1z"/>
		<path class="st2" d="M221.7,67.3h-13.9c-1.8,0-3.3-1.5-3.3-3.3V44c0-1.8,1.5-3.3,3.3-3.3h13.3c1.8,0,3.3,1.5,3.3,3.3v3.7
			c0,1-0.4,1.9-1.1,2.5c0.4,0.5,0.6,1.2,0.6,1.9v3.5c0,0.7-0.2,1.4-0.6,1.9c1,0.6,1.7,1.6,1.7,2.8v3.7
			C225,65.9,223.5,67.3,221.7,67.3z"/>
	</g>
	<g>
		<path class="st1" d="M244.6,54c0,1.8-0.3,3.4-1,4.7c-0.7,1.3-1.6,2.4-2.6,3.2s-2.3,1.5-3.7,1.9c-1.4,0.4-2.8,0.6-4.2,0.6h-7.4
			c-0.1,0-0.3-0.1-0.3-0.3V44c0-0.1,0.1-0.3,0.3-0.3h7.2c1.5,0,2.9,0.2,4.3,0.5c1.4,0.3,2.7,0.9,3.8,1.7c1.1,0.8,2,1.8,2.7,3.2
			C244.3,50.4,244.6,52,244.6,54z M239.5,54c0-1.2-0.2-2.1-0.6-2.9c-0.4-0.8-0.9-1.4-1.5-1.8c-0.6-0.5-1.3-0.8-2.2-1
			c-0.8-0.2-1.6-0.3-2.5-0.3h-2.2c-0.1,0-0.3,0.1-0.3,0.3v11.5c0,0.1,0.1,0.3,0.3,0.3h2.1c0.9,0,1.8-0.1,2.6-0.3
			c0.8-0.2,1.6-0.5,2.2-1c0.6-0.5,1.1-1.1,1.5-1.9C239.3,56.1,239.5,55.1,239.5,54z"/>
		<path class="st2" d="M233.1,67.3h-7.4c-1.8,0-3.3-1.5-3.3-3.3V44c0-1.8,1.5-3.3,3.3-3.3h7.2c1.7,0,3.4,0.2,5,0.6
			c1.8,0.4,3.4,1.2,4.8,2.2c1.5,1.1,2.7,2.5,3.6,4.2c0.9,1.7,1.4,3.8,1.4,6.3c0,2.3-0.4,4.3-1.3,6c-0.9,1.7-2,3.1-3.5,4.2
			c-1.4,1.1-3,1.9-4.7,2.4C236.5,67.1,234.8,67.3,233.1,67.3z M233.3,51v6c0.4,0,0.8-0.1,1.2-0.2c0.4-0.1,0.8-0.3,1.1-0.5
			c0.2-0.2,0.4-0.4,0.6-0.8c0.1-0.2,0.3-0.7,0.3-1.6c0-0.9-0.2-1.4-0.3-1.6c-0.2-0.3-0.3-0.6-0.6-0.7c-0.3-0.2-0.7-0.4-1.1-0.5
			C234.1,51.1,233.7,51,233.3,51z"/>
	</g>
	<g>
		<path class="st1" d="M248,64.1V44c0-0.1,0.1-0.3,0.3-0.3h13.3c0.1,0,0.3,0.1,0.3,0.3v3.7c0,0.1-0.1,0.3-0.3,0.3h-8.5
			c-0.1,0-0.3,0.1-0.3,0.3v3.4c0,0.1,0.1,0.3,0.3,0.3h8c0.1,0,0.3,0.1,0.3,0.3v3.5c0,0.1-0.1,0.3-0.3,0.3h-8c-0.1,0-0.3,0.1-0.3,0.3
			v3.8c0,0.1,0.1,0.3,0.3,0.3h9.1c0.1,0,0.3,0.1,0.3,0.3v3.7c0,0.1-0.1,0.3-0.3,0.3h-13.9C248.2,64.3,248,64.2,248,64.1z"/>
		<path class="st2" d="M262.2,67.3h-13.9c-1.8,0-3.3-1.5-3.3-3.3V44c0-1.8,1.5-3.3,3.3-3.3h13.3c1.8,0,3.3,1.5,3.3,3.3v3.7
			c0,1-0.4,1.9-1.1,2.5c0.4,0.5,0.6,1.2,0.6,1.9v3.5c0,0.7-0.2,1.4-0.6,1.9c1,0.6,1.7,1.6,1.7,2.8v3.7
			C265.4,65.9,263.9,67.3,262.2,67.3z"/>
	</g>
	<g>
		<path class="st1" d="M274.6,48.3v15.8c0,0.1-0.1,0.3-0.3,0.3h-4.5c-0.1,0-0.3-0.1-0.3-0.3V48.3c0-0.1-0.1-0.3-0.3-0.3h-5.3
			c-0.1,0-0.3-0.1-0.3-0.3V44c0-0.1,0.1-0.3,0.3-0.3h16.1c0.1,0,0.3,0.1,0.3,0.3v3.7c0,0.1-0.1,0.3-0.3,0.3h-5.3
			C274.7,48,274.6,48.1,274.6,48.3z"/>
		<path class="st2" d="M274.4,67.3h-4.5c-1.8,0-3.3-1.5-3.3-3.3V51h-2.6c-1.8,0-3.3-1.5-3.3-3.3V44c0-1.8,1.5-3.3,3.3-3.3h16.1
			c1.8,0,3.3,1.5,3.3,3.3v3.7c0,1.8-1.5,3.3-3.3,3.3h-2.6v13.1C277.6,65.9,276.2,67.3,274.4,67.3z"/>
	</g>
</g>
<g class="st3">
	<path class="st1" d="M86,54c0,1.8-0.3,3.4-1,4.7s-1.6,2.4-2.6,3.2s-2.3,1.5-3.7,1.9c-1.4,0.4-2.8,0.6-4.2,0.6h-7.7V43.7h7.4
		c1.5,0,2.9,0.2,4.3,0.5c1.4,0.3,2.7,0.9,3.8,1.7c1.1,0.8,2,1.8,2.7,3.2C85.7,50.4,86,52,86,54z M80.8,54c0-1.2-0.2-2.1-0.6-2.9
		c-0.4-0.8-0.9-1.4-1.5-1.8c-0.6-0.5-1.3-0.8-2.2-1C75.8,48.1,75,48,74.1,48h-2.5v12H74c0.9,0,1.8-0.1,2.6-0.3
		c0.8-0.2,1.6-0.5,2.2-1c0.6-0.5,1.1-1.1,1.5-1.9C80.7,56.1,80.8,55.1,80.8,54z"/>
	<path class="st1" d="M89.5,64.3V43.7h13.8v4.2h-9v3.9h8.6v4h-8.6v4.3h9.6v4.2H89.5z"/>
	<path class="st1" d="M107.3,64.3V43.7h5V60h8v4.3H107.3z"/>
	<path class="st1" d="M122.7,64.3V43.7h13.8v4.2h-9v3.9h8.6v4h-8.6v4.3h9.6v4.2H122.7z"/>
	<path class="st1" d="M164,58.4c0,1.1-0.2,2.1-0.7,2.8c-0.4,0.8-1,1.4-1.8,1.8c-0.7,0.5-1.6,0.8-2.5,1c-0.9,0.2-1.9,0.3-2.9,0.3
		h-8.2V43.7h8.2c0.8,0,1.6,0.1,2.4,0.2c0.8,0.2,1.6,0.4,2.3,0.8c0.7,0.4,1.2,0.9,1.7,1.6c0.4,0.7,0.6,1.5,0.6,2.6
		c0,1.1-0.3,2.1-0.9,2.8c-0.6,0.7-1.4,1.3-2.4,1.6v0.1c0.6,0.1,1.1,0.3,1.6,0.5c0.5,0.3,1,0.6,1.3,1s0.7,0.9,0.9,1.4
		C163.9,57.1,164,57.7,164,58.4z M158.3,49.7c0-0.7-0.3-1.2-0.8-1.5c-0.5-0.3-1.3-0.5-2.4-0.5h-2.4V52h2.7c0.9,0,1.7-0.2,2.2-0.6
		C158.1,51,158.3,50.4,158.3,49.7z M159,57.9c0-0.9-0.3-1.4-1-1.8c-0.6-0.3-1.5-0.5-2.6-0.5h-2.8v4.7h2.8c0.4,0,0.8,0,1.2-0.1
		c0.4-0.1,0.8-0.2,1.1-0.4c0.3-0.2,0.6-0.4,0.8-0.7C158.9,58.8,159,58.4,159,57.9z"/>
	<path class="st1" d="M167.4,64.3V43.7h5v20.6H167.4z"/>
	<path class="st1" d="M176.8,64.3V43.7h5V60h8v4.3H176.8z"/>
	<path class="st1" d="M192.3,64.3V43.7h5V60h8v4.3H192.3z"/>
	<path class="st1" d="M207.7,64.3V43.7h13.8v4.2h-9v3.9h8.6v4h-8.6v4.3h9.6v4.2H207.7z"/>
	<path class="st1" d="M244.8,54c0,1.8-0.3,3.4-1,4.7s-1.6,2.4-2.6,3.2s-2.3,1.5-3.7,1.9c-1.4,0.4-2.8,0.6-4.2,0.6h-7.7V43.7h7.4
		c1.5,0,2.9,0.2,4.3,0.5c1.4,0.3,2.7,0.9,3.8,1.7c1.1,0.8,2,1.8,2.7,3.2C244.4,50.4,244.8,52,244.8,54z M239.6,54
		c0-1.2-0.2-2.1-0.6-2.9c-0.4-0.8-0.9-1.4-1.5-1.8c-0.6-0.5-1.3-0.8-2.2-1c-0.8-0.2-1.6-0.3-2.5-0.3h-2.5v12h2.4
		c0.9,0,1.8-0.1,2.6-0.3c0.8-0.2,1.6-0.5,2.2-1c0.6-0.5,1.1-1.1,1.5-1.9S239.6,55.1,239.6,54z"/>
	<path class="st1" d="M248.2,64.3V43.7H262v4.2h-9v3.9h8.6v4H253v4.3h9.6v4.2H248.2z"/>
	<path class="st1" d="M274.8,48v16.3h-5V48H264v-4.2h16.6V48H274.8z"/>
</g>
</svg>
