<?xml version="1.0" encoding="utf-8"?>
<!-- Generator: Adobe Illustrator 22.0.0, SVG Export Plug-In . SVG Version: 6.00 Build 0)  -->
<svg version="1.1" id="Layer_1" xmlns="http://www.w3.org/2000/svg" xmlns:xlink="http://www.w3.org/1999/xlink" x="0px" y="0px"
	 viewBox="0 0 353 150" style="enable-background:new 0 0 353 150;" xml:space="preserve">
<style type="text/css">
	.st0{fill:#F2912A;}
	.st1{enable-background:new    ;}
	.st2{fill:#FFFFFF;}
	.st3{fill:#231F20;}
	.st4{fill:#F9B188;}
	.st5{fill:#653525;}
	.st6{fill:#D46C53;}
	.st7{fill:#C88868;}
	.st8{fill:#D59575;}
	.st9{fill:#F69220;}
	.st10{opacity:0.34;fill:#FFFFFF;}
	.st11{fill:#152230;}
	.st12{fill:#F18F29;}
	.st13{opacity:0.82;fill:#FFFFFF;}
</style>
<g>
	<path class="st0" d="M319.7,133.5H29.3c-7.6,0-13.8-6.2-13.8-13.8V78.3c0-7.6,6.2-13.8,13.8-13.8h290.5c7.6,0,13.8,6.2,13.8,13.8
		v41.5C333.5,127.3,327.3,133.5,319.7,133.5z"/>
	<path d="M319.7,135H29.3c-8.4,0-15.3-6.8-15.3-15.3V78.3C14,69.8,20.8,63,29.3,63h290.5c8.4,0,15.3,6.8,15.3,15.3v41.5
		C335,128.2,328.2,135,319.7,135z M29.3,66C22.5,66,17,71.5,17,78.3v41.5c0,6.8,5.5,12.3,12.3,12.3h290.5c6.8,0,12.3-5.5,12.3-12.3
		V78.3c0-6.8-5.5-12.3-12.3-12.3H29.3z"/>
</g>
<g class="st1">
	<g>
		<path class="st2" d="M121.1,94.2c0,1.2-0.2,2.2-0.7,3c-0.4,0.8-1,1.5-1.8,2c-0.8,0.5-1.6,0.9-2.6,1.1c-1,0.2-2,0.3-3.1,0.3h-2.1
			c-0.2,0-0.4,0.2-0.4,0.4v7c0,0.2-0.2,0.4-0.4,0.4h-4.2c-0.2,0-0.4-0.2-0.4-0.4V88.2c0-0.2,0.2-0.4,0.4-0.4h7.2
			c1.1,0,2.2,0.1,3.1,0.3c1,0.2,1.8,0.6,2.6,1.1c0.7,0.5,1.3,1.1,1.7,1.9C120.9,92,121.1,93,121.1,94.2z M116.1,94.2
			c0-0.5-0.1-0.9-0.3-1.2c-0.2-0.3-0.5-0.6-0.8-0.7c-0.3-0.2-0.7-0.3-1.1-0.3c-0.4-0.1-0.8-0.1-1.3-0.1h-1.8c-0.2,0-0.4,0.2-0.4,0.4
			v4.1c0,0.2,0.2,0.4,0.4,0.4h1.7c0.5,0,0.9,0,1.3-0.1c0.4-0.1,0.8-0.2,1.1-0.4c0.3-0.2,0.6-0.4,0.8-0.8
			C116,95.1,116.1,94.7,116.1,94.2z"/>
		<path class="st3" d="M110.1,111.4h-4.2c-1.9,0-3.4-1.5-3.4-3.4V88.2c0-1.9,1.5-3.4,3.4-3.4h7.2c1.3,0,2.6,0.1,3.8,0.4
			c1.3,0.3,2.5,0.8,3.6,1.5c1.1,0.8,2,1.8,2.7,3c0.6,1.2,1,2.7,1,4.4c0,1.7-0.3,3.2-1,4.5c-0.7,1.3-1.6,2.3-2.8,3.1
			c-1,0.7-2.3,1.2-3.6,1.5c-1,0.2-2.1,0.4-3.2,0.4v4.4C113.4,109.9,111.9,111.4,110.1,111.4z"/>
	</g>
	<g>
		<path class="st2" d="M135.1,108.2l-4-7.4c-0.2-0.3-0.5-0.6-0.9-0.6l0,0c-0.6,0-1.1,0.5-1.1,1.1v6.7c0,0.2-0.2,0.4-0.4,0.4h-4.1
			c-0.2,0-0.4-0.2-0.4-0.4V88.2c0-0.2,0.2-0.4,0.4-0.4h7.4c1,0,1.9,0.1,2.9,0.3c0.9,0.2,1.8,0.5,2.5,1c0.7,0.5,1.3,1.1,1.8,1.9
			c0.4,0.8,0.7,1.8,0.7,3c0,1.4-0.4,2.6-1.1,3.5c-0.7,0.8-1.6,1.5-2.7,1.9c-0.2,0.1-0.3,0.3-0.2,0.5c0.9,1.4,3.8,6.2,4.8,7.8
			c0.2,0.3,0,0.6-0.3,0.6h-4.9C135.3,108.4,135.1,108.3,135.1,108.2z M135,94.2c0-0.5-0.1-0.9-0.3-1.2c-0.2-0.3-0.5-0.5-0.8-0.7
			c-0.3-0.2-0.7-0.3-1.1-0.3c-0.4-0.1-0.8-0.1-1.2-0.1h-2.3c-0.2,0-0.4,0.2-0.4,0.4v4c0,0.2,0.2,0.4,0.4,0.4h2c0.4,0,0.8,0,1.3-0.1
			c0.4-0.1,0.8-0.2,1.2-0.4c0.4-0.2,0.6-0.4,0.9-0.8C134.9,95.1,135,94.7,135,94.2z"/>
		<path class="st3" d="M140.3,111.4h-4.9c-1.2,0-2.4-0.7-3-1.8l-0.5-0.9c-0.3,1.5-1.7,2.6-3.3,2.6h-4.1c-1.9,0-3.4-1.5-3.4-3.4V88.2
			c0-1.9,1.5-3.4,3.4-3.4h7.4c1.2,0,2.4,0.1,3.5,0.4c1.3,0.3,2.5,0.8,3.5,1.4c1.2,0.7,2.1,1.7,2.8,3c0.7,1.2,1.1,2.7,1.1,4.4
			c0,2.1-0.6,3.9-1.8,5.4c-0.4,0.5-0.8,0.9-1.3,1.3l3.4,5.5c0.6,1,0.7,2.3,0.1,3.4C142.7,110.7,141.5,111.4,140.3,111.4z
			 M138.1,109.4C138.1,109.4,138.1,109.4,138.1,109.4L138.1,109.4z M137.1,102.3C137.1,102.3,137.1,102.3,137.1,102.3
			C137.1,102.3,137.1,102.3,137.1,102.3z M138.4,98.4L138.4,98.4C138.4,98.4,138.4,98.4,138.4,98.4z"/>
	</g>
	<g>
		<path class="st2" d="M143.6,108V88.2c0-0.2,0.2-0.4,0.4-0.4h4.2c0.2,0,0.4,0.2,0.4,0.4V108c0,0.2-0.2,0.4-0.4,0.4h-4.2
			C143.7,108.4,143.6,108.2,143.6,108z"/>
		<path class="st3" d="M148.2,111.4h-4.2c-1.9,0-3.4-1.5-3.4-3.4V88.2c0-1.9,1.5-3.4,3.4-3.4h4.2c1.9,0,3.4,1.5,3.4,3.4V108
			C151.6,109.9,150,111.4,148.2,111.4z"/>
	</g>
	<g>
		<path class="st2" d="M162.8,108.4h-4.4c-0.2,0-0.3-0.1-0.4-0.2l-7.5-19.8c-0.1-0.2,0.1-0.5,0.4-0.5h4.7c0.2,0,0.3,0.1,0.4,0.3
			l4.7,14.3h0.1l4.6-14.3c0.1-0.2,0.2-0.3,0.4-0.3h4.6c0.3,0,0.5,0.3,0.4,0.5l-7.6,19.8C163.1,108.3,163,108.4,162.8,108.4z"/>
		<path class="st3" d="M162.8,111.4h-4.4c-1.4,0-2.7-0.9-3.2-2.2l-7.5-19.8c-0.4-1-0.3-2.2,0.4-3.1s1.7-1.5,2.8-1.5h4.7
			c1.5,0,2.8,0.9,3.2,2.3l1.9,5.7l1.9-5.7c0.5-1.4,1.7-2.3,3.2-2.3h4.6c1.1,0,2.2,0.5,2.8,1.5s0.8,2.1,0.4,3.1l-7.6,19.8
			C165.5,110.5,164.2,111.4,162.8,111.4z M160.4,107.1C160.4,107.1,160.4,107.1,160.4,107.1L160.4,107.1z M168.3,89L168.3,89
			C168.3,89,168.3,89,168.3,89z"/>
	</g>
	<g>
		<path class="st2" d="M185.8,108.1l-1.4-3.5c-0.1-0.1-0.2-0.2-0.4-0.2h-7.4c-0.2,0-0.3,0.1-0.4,0.2l-1.3,3.5
			c-0.1,0.1-0.2,0.2-0.4,0.2H170c-0.3,0-0.5-0.3-0.4-0.5l8.3-19.8c0.1-0.1,0.2-0.2,0.4-0.2h4.3c0.2,0,0.3,0.1,0.4,0.2l8.2,19.8
			c0.1,0.3-0.1,0.5-0.4,0.5h-4.7C186,108.4,185.9,108.3,185.8,108.1z M180,94.3l-2.1,5.6c-0.1,0.2,0.1,0.5,0.4,0.5h4.1
			c0.3,0,0.4-0.3,0.4-0.5l-2-5.6C180.6,94,180.2,94,180,94.3z"/>
		<path class="st3" d="M190.8,111.4h-4.7c-1.4,0-2.6-0.8-3.1-2.1v0l-0.8-1.9h-3.8l-0.7,1.8c-0.5,1.3-1.8,2.2-3.2,2.2H170
			c-1.1,0-2.2-0.6-2.8-1.5c-0.6-0.9-0.7-2.1-0.3-3.2l8.3-19.8c0.5-1.3,1.8-2.1,3.1-2.1h4.3c1.4,0,2.6,0.8,3.1,2.1l8.2,19.8
			c0.4,1,0.3,2.2-0.3,3.2C193,110.8,192,111.4,190.8,111.4z M172.1,107.1C172.1,107.1,172.1,107.1,172.1,107.1L172.1,107.1z
			 M188.6,107L188.6,107C188.6,107,188.6,107,188.6,107z M179.1,105.7L179.1,105.7C179.1,105.7,179.1,105.7,179.1,105.7z
			 M180.4,91.1c0.2,0,0.4,0,0.6,0.1l-0.1-0.3h-0.8l-0.1,0.2C180.1,91.1,180.2,91.1,180.4,91.1z"/>
	</g>
	<g>
		<path class="st2" d="M200.3,92.5V108c0,0.2-0.2,0.4-0.4,0.4h-4.2c-0.2,0-0.4-0.2-0.4-0.4V92.5c0-0.2-0.2-0.4-0.4-0.4h-5
			c-0.2,0-0.4-0.2-0.4-0.4v-3.5c0-0.2,0.2-0.4,0.4-0.4h15.8c0.2,0,0.4,0.2,0.4,0.4v3.5c0,0.2-0.2,0.4-0.4,0.4h-5
			C200.5,92.1,200.3,92.3,200.3,92.5z"/>
		<path class="st3" d="M199.9,111.4h-4.2c-1.9,0-3.4-1.5-3.4-3.4V95.1h-2.4c-1.9,0-3.4-1.5-3.4-3.4v-3.5c0-1.9,1.5-3.4,3.4-3.4h15.8
			c1.9,0,3.4,1.5,3.4,3.4v3.5c0,1.9-1.5,3.4-3.4,3.4h-2.4V108C203.3,109.9,201.8,111.4,199.9,111.4z"/>
	</g>
	<g>
		<path class="st2" d="M226.4,92.9c-0.2,0.2-0.4,0.1-0.6,0c-0.4-0.4-0.8-0.7-1.4-1c-0.7-0.3-1.3-0.5-2-0.5c-0.3,0-0.7,0-1,0.1
			c-0.3,0.1-0.6,0.2-0.9,0.3c-0.3,0.2-0.5,0.4-0.7,0.6c-0.2,0.3-0.3,0.6-0.3,1c0,0.3,0.1,0.6,0.2,0.9c0.1,0.2,0.4,0.4,0.6,0.6
			s0.6,0.3,1,0.5c0.4,0.1,0.8,0.3,1.3,0.4c0.7,0.2,1.4,0.5,2.2,0.8s1.4,0.7,2.1,1.1c0.6,0.5,1.1,1,1.5,1.7c0.4,0.7,0.6,1.5,0.6,2.6
			c0,1.2-0.2,2.2-0.7,3.1c-0.4,0.9-1,1.6-1.8,2.1s-1.6,1-2.5,1.2s-1.9,0.4-2.9,0.4c-1.5,0-2.9-0.3-4.3-0.8c-1.2-0.5-2.3-1.1-3.1-1.9
			c-0.2-0.1-0.2-0.4,0-0.6l2.7-2.7c0.2-0.2,0.4-0.1,0.5,0c0.5,0.5,1,0.9,1.7,1.3c0.8,0.4,1.6,0.6,2.5,0.6c0.4,0,0.7,0,1.1-0.1
			c0.3-0.1,0.7-0.2,0.9-0.4c0.3-0.2,0.5-0.4,0.6-0.7c0.2-0.3,0.2-0.6,0.2-1c0-0.4-0.1-0.7-0.3-1c-0.2-0.3-0.5-0.5-0.8-0.7
			c-0.4-0.2-0.8-0.4-1.3-0.6c-0.5-0.2-1.1-0.4-1.8-0.6c-0.7-0.2-1.3-0.5-1.9-0.8c-0.6-0.3-1.2-0.7-1.7-1.1c-0.5-0.5-0.9-1-1.2-1.7
			c-0.3-0.6-0.4-1.4-0.4-2.4c0-1.1,0.2-2.1,0.7-2.9c0.5-0.8,1.1-1.5,1.8-2c0.8-0.5,1.6-0.9,2.6-1.1c0.9-0.2,1.9-0.4,2.9-0.4
			c1.2,0,2.3,0.2,3.6,0.6c1.1,0.4,2,0.9,2.9,1.6c0.2,0.1,0.2,0.4,0,0.6L226.4,92.9z"/>
		<path class="st3" d="M221.2,111.9c-1.8,0-3.6-0.3-5.3-1c-1.6-0.6-3-1.5-4.2-2.5c-0.7-0.6-1-1.5-1.1-2.4c0-0.9,0.3-1.8,1-2.4
			l2.7-2.7c0.1-0.1,0.2-0.2,0.4-0.3c-0.2-0.2-0.4-0.3-0.6-0.5c-0.8-0.7-1.4-1.6-1.9-2.6c-0.5-1-0.7-2.3-0.7-3.6
			c0-1.7,0.4-3.2,1.1-4.4c0.7-1.2,1.6-2.2,2.7-3c1-0.7,2.2-1.3,3.5-1.6c2.7-0.7,5.4-0.6,8.2,0.4c1.4,0.5,2.7,1.2,3.8,2.1
			c0.7,0.6,1.2,1.5,1.2,2.4c0.1,0.9-0.3,1.9-0.9,2.5l-2.6,2.7c-0.1,0.1-0.1,0.1-0.2,0.2c0.1,0.1,0.2,0.2,0.4,0.3
			c0.9,0.7,1.7,1.6,2.3,2.6c0.7,1.2,1,2.5,1,4.1c0,1.7-0.3,3.1-1,4.4c-0.6,1.3-1.5,2.3-2.6,3.2c-1,0.8-2.2,1.4-3.5,1.7
			C223.8,111.7,222.5,111.9,221.2,111.9z M214.9,105C214.9,105,214.9,105,214.9,105C214.9,105,214.9,105,214.9,105z M224.2,90.8
			C224.2,90.8,224.2,90.8,224.2,90.8L224.2,90.8z M226.8,88.1C226.8,88.1,226.8,88.1,226.8,88.1L226.8,88.1z"/>
	</g>
	<g>
		<path class="st2" d="M245.8,108.4c-0.1,0-0.3-0.1-0.3-0.2L237.3,95h-0.1l0.1,13c0,0.2-0.2,0.4-0.4,0.4h-4c-0.2,0-0.4-0.2-0.4-0.4
			V88.2c0-0.2,0.2-0.4,0.4-0.4h5.1c0.1,0,0.3,0.1,0.3,0.2l8.1,13.2h0.1l-0.1-13c0-0.2,0.2-0.4,0.4-0.4h4c0.2,0,0.4,0.2,0.4,0.4V108
			c0,0.2-0.2,0.4-0.4,0.4H245.8z"/>
		<path class="st3" d="M250.8,111.4h-5c-1.2,0-2.3-0.6-2.9-1.6l-2.6-4.2l0,2.4c0,0.9-0.3,1.8-1,2.4s-1.5,1-2.4,1h-4
			c-1.9,0-3.4-1.5-3.4-3.4V88.2c0-1.9,1.5-3.4,3.4-3.4h5.1c1.2,0,2.3,0.6,2.9,1.6l2.6,4.2l0-2.4c0-0.9,0.3-1.8,1-2.4s1.5-1,2.4-1h4
			c1.9,0,3.4,1.5,3.4,3.4V108C254.2,109.9,252.7,111.4,250.8,111.4z M248,106.6L248,106.6C248,106.6,248,106.6,248,106.6z
			 M247.2,105.4h0.9v-1.1h-1.6L247.2,105.4z M235.5,92h1.7l-0.7-1.1h-1V92z"/>
	</g>
	<g>
		<path class="st2" d="M269.4,108.1l-1.4-3.5c-0.1-0.1-0.2-0.2-0.4-0.2h-7.4c-0.2,0-0.3,0.1-0.4,0.2l-1.3,3.5
			c-0.1,0.1-0.2,0.2-0.4,0.2h-4.6c-0.3,0-0.5-0.3-0.4-0.5l8.3-19.8c0.1-0.1,0.2-0.2,0.4-0.2h4.3c0.2,0,0.3,0.1,0.4,0.2l8.2,19.8
			c0.1,0.3-0.1,0.5-0.4,0.5h-4.7C269.6,108.4,269.4,108.3,269.4,108.1z M263.6,94.3l-2.1,5.6c-0.1,0.2,0.1,0.5,0.4,0.5h4.1
			c0.3,0,0.4-0.3,0.4-0.5l-2-5.6C264.2,94,263.7,94,263.6,94.3z"/>
		<path class="st3" d="M274.4,111.4h-4.7c-1.4,0-2.6-0.8-3.1-2.1v0l-0.8-1.9H262l-0.7,1.8c-0.5,1.3-1.8,2.2-3.2,2.2h-4.6
			c-1.1,0-2.2-0.6-2.8-1.5s-0.7-2.1-0.3-3.2l8.3-19.8c0.5-1.3,1.8-2.1,3.1-2.1h4.3c1.4,0,2.6,0.8,3.1,2.1l8.2,19.8
			c0.4,1,0.3,2.2-0.3,3.2C276.6,110.8,275.6,111.4,274.4,111.4z M255.7,107.1C255.7,107.1,255.7,107.1,255.7,107.1L255.7,107.1z
			 M262.7,105.7L262.7,105.7C262.7,105.7,262.7,105.7,262.7,105.7z M264,91.1c0.2,0,0.4,0,0.6,0.1l-0.1-0.3h-0.8l-0.1,0.2
			C263.7,91.1,263.8,91.1,264,91.1z"/>
	</g>
	<g>
		<path class="st2" d="M289.6,108.4c-0.1,0-0.2-0.1-0.3-0.1l-7.5-9.3h-0.1v9.1c0,0.2-0.2,0.4-0.4,0.4h-4.1c-0.2,0-0.4-0.2-0.4-0.4
			V88.2c0-0.2,0.2-0.4,0.4-0.4h4.1c0.2,0,0.4,0.2,0.4,0.4v8h0.1L289,88c0.1-0.1,0.2-0.1,0.3-0.1h5.2c0.3,0,0.5,0.4,0.3,0.6l-8,8.6
			c-0.1,0.1-0.1,0.4,0,0.5l8.6,10.2c0.2,0.2,0,0.6-0.3,0.6H289.6z"/>
		<path class="st3" d="M295,111.4h-5.5c-1,0-2-0.5-2.6-1.3l-2.2-2.8v0.6c0,1.9-1.5,3.4-3.4,3.4h-4.1c-1.9,0-3.4-1.5-3.4-3.4V88.2
			c0-1.9,1.5-3.4,3.4-3.4h4.1c1.9,0,3.4,1.5,3.4,3.4v0.1l2.1-2.3c0.7-0.7,1.6-1.1,2.5-1.1h5.2c1.3,0,2.6,0.8,3.1,2
			c0.5,1.2,0.3,2.7-0.6,3.7l-6.4,6.9l7.1,8.4c0.8,1,1,2.4,0.5,3.6C297.5,110.6,296.3,111.4,295,111.4z M289,95.6L289,95.6
			C289,95.6,289,95.6,289,95.6z M292.5,86.4C292.5,86.5,292.5,86.5,292.5,86.4L292.5,86.4z"/>
	</g>
</g>
<g class="st1">
	<path class="st2" d="M121.1,94.1c0,1.2-0.2,2.2-0.7,3c-0.4,0.8-1,1.5-1.8,2c-0.8,0.5-1.6,0.9-2.6,1.1c-1,0.2-2,0.3-3.1,0.3h-2.5
		v7.8h-5V87.7h7.6c1.1,0,2.2,0.1,3.2,0.3c1,0.2,1.8,0.6,2.6,1.1c0.7,0.5,1.3,1.1,1.7,1.9C120.9,91.9,121.1,92.9,121.1,94.1z
		 M116.1,94.1c0-0.5-0.1-0.9-0.3-1.2c-0.2-0.3-0.5-0.6-0.8-0.7c-0.3-0.2-0.7-0.3-1.1-0.3c-0.4-0.1-0.8-0.1-1.3-0.1h-2.2v4.9h2.1
		c0.5,0,0.9,0,1.3-0.1c0.4-0.1,0.8-0.2,1.1-0.4c0.3-0.2,0.6-0.5,0.8-0.8C116,95,116.1,94.6,116.1,94.1z"/>
	<path class="st2" d="M135.2,108.3l-4.5-8.2h-1.7v8.2h-4.9V87.7h7.9c1,0,2,0.1,2.9,0.3c0.9,0.2,1.8,0.5,2.5,1
		c0.7,0.5,1.3,1.1,1.8,1.9s0.7,1.8,0.7,3c0,1.4-0.4,2.6-1.1,3.5s-1.8,1.6-3.1,2l5.4,8.8H135.2z M135,94.1c0-0.5-0.1-0.9-0.3-1.2
		c-0.2-0.3-0.5-0.5-0.8-0.7c-0.3-0.2-0.7-0.3-1.1-0.3c-0.4-0.1-0.8-0.1-1.2-0.1H129v4.8h2.4c0.4,0,0.8,0,1.3-0.1
		c0.4-0.1,0.8-0.2,1.2-0.4c0.4-0.2,0.6-0.4,0.9-0.8S135,94.6,135,94.1z"/>
	<path class="st2" d="M143.6,108.3V87.7h5v20.6H143.6z"/>
	<path class="st2" d="M163.1,108.3h-5l-7.8-20.6h5.6l4.8,14.6h0.1l4.7-14.6h5.5L163.1,108.3z"/>
	<path class="st2" d="M185.9,108.3l-1.6-4h-8l-1.5,4h-5.4l8.6-20.6h4.8l8.6,20.6H185.9z M180.4,93.2l-2.6,7.1h5.2L180.4,93.2z"/>
	<path class="st2" d="M200.3,92v16.3h-5V92h-5.8v-4.2h16.6V92H200.3z"/>
	<path class="st2" d="M226.1,93.1c-0.4-0.5-1-1-1.7-1.3c-0.7-0.3-1.4-0.5-2-0.5c-0.3,0-0.7,0-1,0.1c-0.3,0.1-0.6,0.2-0.9,0.3
		c-0.3,0.2-0.5,0.4-0.7,0.6s-0.3,0.6-0.3,1c0,0.3,0.1,0.6,0.2,0.9c0.1,0.2,0.4,0.4,0.6,0.6c0.3,0.2,0.6,0.3,1,0.5
		c0.4,0.1,0.8,0.3,1.3,0.5c0.7,0.2,1.4,0.5,2.2,0.8c0.8,0.3,1.4,0.7,2.1,1.1c0.6,0.5,1.1,1,1.5,1.7c0.4,0.7,0.6,1.5,0.6,2.6
		c0,1.2-0.2,2.2-0.7,3.1s-1,1.6-1.8,2.1c-0.7,0.6-1.6,1-2.5,1.3c-0.9,0.3-1.9,0.4-2.9,0.4c-1.5,0-2.9-0.3-4.3-0.8s-2.5-1.2-3.4-2.2
		l3.3-3.3c0.5,0.6,1.2,1.1,2,1.6c0.8,0.4,1.6,0.6,2.5,0.6c0.4,0,0.7,0,1.1-0.1c0.3-0.1,0.7-0.2,0.9-0.4c0.3-0.2,0.5-0.4,0.6-0.7
		s0.2-0.6,0.2-1c0-0.4-0.1-0.7-0.3-1c-0.2-0.3-0.5-0.5-0.8-0.7c-0.4-0.2-0.8-0.4-1.3-0.6s-1.1-0.4-1.8-0.6c-0.7-0.2-1.3-0.5-1.9-0.8
		c-0.6-0.3-1.2-0.7-1.7-1.1c-0.5-0.5-0.9-1-1.2-1.7c-0.3-0.6-0.5-1.4-0.5-2.4c0-1.1,0.2-2.1,0.7-2.9s1.1-1.5,1.8-2s1.6-0.9,2.6-1.1
		c0.9-0.2,1.9-0.4,2.9-0.4c1.2,0,2.4,0.2,3.6,0.6c1.2,0.4,2.3,1.1,3.2,1.9L226.1,93.1z"/>
	<path class="st2" d="M245.5,108.3l-8.3-13.5h-0.1l0.1,13.5h-4.8V87.7h5.7l8.3,13.4h0.1l-0.1-13.4h4.8v20.6H245.5z"/>
	<path class="st2" d="M269.5,108.3l-1.6-4h-8l-1.5,4H253l8.6-20.6h4.8l8.6,20.6H269.5z M264,93.2l-2.6,7.1h5.2L264,93.2z"/>
	<path class="st2" d="M289.4,108.3l-7.7-9.5h-0.1v9.5h-4.9V87.7h4.9v8.4h0.1l7.4-8.4h6.2l-8.9,9.5l9.4,11.1H289.4z"/>
</g>
<g>
	<g>
		<path d="M42.9,92.8c0-0.6,0-1.2,0-1.8c0-0.5,0-1.1,0.1-1.6c0.1-0.5,0.2-1,0.3-1.5c0.2-0.7,0.4-1.3,0.7-2c0.7-1.4,1.5-2.6,2.7-3.5
			c0.6-0.5,1.2-0.9,1.9-1.2c0.6-0.3,1.1-0.5,1.7-0.7c0.3-0.1,0.7-0.2,1-0.3c0.4-0.1,0.8-0.2,1.2-0.3c0.4-0.1,0.8-0.2,1.2-0.2
			c0.7-0.1,1.5-0.2,2.2-0.3c1-0.1,2-0.2,3-0.3c1.5-0.1,2.9-0.1,4.4-0.1c1.2,0,2.3,0.2,3.5,0.3c0.7,0.1,1.4,0.2,2.1,0.3
			c0.7,0.1,1.4,0.2,2,0.4c0.4,0.1,0.8,0.2,1.2,0.3c0.4,0.1,0.9,0.2,1.3,0.4c0.5,0.2,1,0.4,1.5,0.7c1,0.6,1.9,1.3,2.7,2.2
			c0.6,0.7,1.1,1.4,1.5,2.2c0.2,0.5,0.4,1,0.6,1.5c0.2,0.6,0.3,1.3,0.5,1.9c0.1,0.3,0.1,0.6,0.1,0.9c0.1,1.3,0.1,2.6,0.1,3.8
			c0,0.5,0,0.9,0,1.4c0,0.2,0.1,0.2,0.2,0.2c0.5-0.1,0.9-0.1,1.4,0c0.8,0.2,1.4,0.7,1.7,1.5c0.3,0.6,0.4,1.2,0.4,1.8
			c0,0.6,0,1.1-0.1,1.7c-0.1,0.3-0.2,0.6-0.3,1c-0.1,0.3-0.2,0.6-0.3,0.9c-0.1,0.4-0.3,0.7-0.5,1.1c-0.2,0.4-0.4,0.8-0.6,1.1
			c-0.4,0.6-0.8,1.2-1.4,1.7c-0.1,0.1-0.3,0.2-0.4,0.3c-0.1,0.1-0.1,0.2-0.1,0.2c0,0.5,0,0.9-0.1,1.4c-0.1,0.5-0.3,1.1-0.5,1.6
			c-0.5,1.3-1.4,2.2-2.4,3.1c-0.8,0.7-1.7,1.4-2.6,1.9c-0.6,0.4-1.3,0.8-2,1.1c-0.6,0.3-1.3,0.6-1.9,0.9c-0.7,0.3-1.3,0.6-2,0.8
			c-0.5,0.2-1.1,0.3-1.6,0.5c-0.5,0.1-1,0.3-1.5,0.4c-0.4,0.1-0.9,0.2-1.3,0.2c-0.7,0.1-1.5,0.2-2.2,0.2c-0.8,0-1.7-0.1-2.5-0.1
			c-0.4,0-0.7-0.1-1.1-0.1c-0.5-0.1-0.9-0.2-1.4-0.3c-0.4-0.1-0.8-0.2-1.2-0.3c-0.3-0.1-0.6-0.2-0.9-0.2c-0.4-0.1-0.7-0.2-1.1-0.4
			c-0.5-0.2-1-0.4-1.5-0.6c-0.5-0.2-1.1-0.5-1.6-0.7c-1.2-0.6-2.3-1.2-3.3-1.9c-1.1-0.7-2-1.6-2.9-2.5c-0.5-0.5-0.9-1.1-1.2-1.7
			c-0.2-0.5-0.4-1-0.5-1.5c-0.1-0.6-0.1-1.2-0.2-1.8c0-0.1,0-0.1-0.1-0.2c-0.7-0.5-1.3-1.2-1.7-2c-0.3-0.6-0.6-1.1-0.9-1.7
			c-0.2-0.4-0.4-0.8-0.5-1.2c-0.1-0.3-0.2-0.6-0.2-0.9c-0.1-0.4-0.2-0.8-0.2-1.2c-0.1-0.6,0-1.1,0.1-1.7c0.1-0.6,0.4-1.2,0.8-1.7
			c0.3-0.4,0.7-0.6,1.2-0.7c0.4-0.1,0.7-0.1,1.1-0.1c0.1,0,0.1,0,0.2,0c0.3,0.1,0.3,0.1,0.3-0.2C42.9,94.4,42.9,93.6,42.9,92.8z
			 M79.6,99.6C79.6,99.6,79.5,99.6,79.6,99.6c0-0.7,0-1.4,0-2.1c0-2.5,0.1-5-0.2-7.5c-0.1-0.5-0.1-0.9-0.2-1.4
			c-0.2-0.7-0.4-1.4-0.7-2.1c-0.3-0.8-0.7-1.5-1.2-2.1c-0.8-1-1.8-1.9-3-2.4c-0.6-0.3-1.3-0.5-1.9-0.7c-0.6-0.2-1.1-0.3-1.7-0.4
			c-0.8-0.1-1.5-0.3-2.3-0.4c-1.3-0.1-2.6-0.3-3.8-0.3c-2.7-0.1-5.5,0-8.2,0.2c-0.6,0-1.2,0.1-1.8,0.2c-0.7,0.1-1.4,0.3-2.1,0.4
			c-0.8,0.2-1.6,0.3-2.3,0.6c-1,0.4-1.9,1-2.7,1.7c-0.8,0.7-1.5,1.6-2,2.5c-0.3,0.5-0.5,1.1-0.7,1.7c-0.2,0.5-0.3,1-0.4,1.5
			c-0.2,0.7-0.3,1.5-0.3,2.2c0,5.2,0,10.3,0,15.5c0,0,0,0,0,0c0,0.8,0.1,1.6,0.4,2.4c0.3,0.7,0.6,1.3,1.1,1.8c0.8,1,1.8,1.8,2.8,2.5
			c0.7,0.5,1.4,0.9,2.1,1.3c0.7,0.4,1.4,0.7,2.1,1.1c0.4,0.2,0.9,0.4,1.4,0.6c0.5,0.2,1.1,0.4,1.7,0.6c0.6,0.2,1.2,0.3,1.8,0.5
			c0.6,0.1,1.1,0.2,1.7,0.3c0.3,0.1,0.6,0.1,0.9,0.1c0.7,0.1,1.4,0.1,2.1,0.1c1.1,0,2.2-0.1,3.2-0.4c0.6-0.1,1.1-0.2,1.7-0.4
			c0.7-0.2,1.3-0.4,1.9-0.6c0.7-0.2,1.4-0.5,2-0.8c0.6-0.3,1.2-0.6,1.8-0.9c0.9-0.5,1.8-1,2.7-1.6c1-0.7,2-1.5,2.8-2.5
			c0.6-0.7,1-1.4,1.2-2.3c0.2-0.6,0.2-1.3,0.2-1.9C79.6,104.3,79.6,101.9,79.6,99.6z M80.5,105.3C80.5,105.4,80.5,105.4,80.5,105.3
			c0.3-0.3,0.6-0.6,0.8-0.9c0.3-0.4,0.5-0.9,0.8-1.4c0.2-0.4,0.4-0.7,0.5-1.1c0.1-0.2,0.2-0.4,0.2-0.6c0.1-0.2,0.1-0.3,0.2-0.5
			c0.1-0.2,0.1-0.4,0.1-0.6c0.1-0.4,0.2-0.8,0.2-1.2c0-0.3-0.1-0.6-0.1-0.8c0-0.4-0.2-0.8-0.4-1.2c-0.3-0.4-0.6-0.7-1.1-0.7
			c-0.3,0-0.7,0-1,0c-0.1,0-0.2,0.1-0.2,0.3c0,0.9,0,1.8,0,2.7c0,1.5,0,3,0,4.4C80.5,104.3,80.5,104.8,80.5,105.3z M42.8,105.2
			C42.8,105.2,42.9,105.2,42.8,105.2c0-0.1,0-0.1,0-0.2c0-2,0-3.9,0-5.9c0-0.8,0-1.7,0-2.5c0-0.2-0.1-0.3-0.3-0.3
			c-0.1,0-0.3,0-0.4,0c-0.4,0-0.8,0-1.1,0.2c-0.3,0.2-0.5,0.5-0.6,0.7c-0.2,0.4-0.3,0.9-0.4,1.4c-0.1,0.7,0.1,1.5,0.3,2.2
			c0.1,0.4,0.2,0.7,0.4,1.1c0.1,0.4,0.3,0.7,0.5,1c0.3,0.7,0.7,1.3,1.1,1.9C42.5,105,42.7,105.1,42.8,105.2z"/>
		<path class="st4" d="M79.6,99.6c0,2.4,0,4.7,0,7.1c0,0.6-0.1,1.3-0.2,1.9c-0.2,0.8-0.6,1.6-1.2,2.3c-0.8,1-1.8,1.8-2.8,2.5
			c-0.9,0.6-1.8,1.2-2.7,1.6c-0.6,0.3-1.2,0.6-1.8,0.9c-0.7,0.3-1.3,0.6-2,0.8c-0.6,0.2-1.3,0.4-1.9,0.6c-0.6,0.1-1.1,0.2-1.7,0.4
			c-1.1,0.2-2.1,0.3-3.2,0.4c-0.7,0-1.4-0.1-2.1-0.1c-0.3,0-0.6-0.1-0.9-0.1c-0.6-0.1-1.1-0.2-1.7-0.3c-0.6-0.1-1.2-0.3-1.8-0.5
			c-0.6-0.2-1.1-0.4-1.7-0.6c-0.5-0.2-0.9-0.3-1.4-0.6c-0.7-0.3-1.4-0.7-2.1-1.1c-0.7-0.4-1.5-0.8-2.1-1.3c-1-0.7-2-1.5-2.8-2.5
			c-0.5-0.6-0.9-1.2-1.1-1.8c-0.3-0.8-0.4-1.6-0.4-2.4c0,0,0,0,0,0c0-5.2,0-10.3,0-15.5c0-0.8,0.1-1.5,0.3-2.2
			c0.1-0.5,0.2-1,0.4-1.5c0.2-0.6,0.5-1.1,0.7-1.7c0.5-1,1.2-1.8,2-2.5c0.8-0.7,1.7-1.3,2.7-1.7c0.8-0.3,1.5-0.5,2.3-0.6
			c0.7-0.1,1.4-0.3,2.1-0.4c0.6-0.1,1.2-0.2,1.8-0.2c2.7-0.2,5.4-0.3,8.2-0.2c1.3,0.1,2.6,0.2,3.8,0.3c0.8,0.1,1.5,0.2,2.3,0.4
			c0.6,0.1,1.2,0.2,1.7,0.4c0.6,0.2,1.3,0.4,1.9,0.7c1.2,0.5,2.2,1.4,3,2.4c0.5,0.6,1,1.3,1.2,2.1c0.3,0.7,0.5,1.4,0.7,2.1
			c0.1,0.4,0.2,0.9,0.2,1.4c0.3,2.5,0.1,5,0.2,7.5C79.6,98.1,79.5,98.8,79.6,99.6C79.5,99.6,79.6,99.6,79.6,99.6z"/>
		<path class="st4" d="M80.5,105.3c0-0.5,0-1.1,0-1.6c0-1.5,0-3,0-4.4c0-0.9,0-1.8,0-2.7c0-0.2,0.1-0.3,0.2-0.3c0.3,0,0.7-0.1,1,0
			c0.5,0,0.9,0.3,1.1,0.7c0.2,0.4,0.4,0.8,0.4,1.2c0,0.3,0.1,0.6,0.1,0.8c0,0.4-0.1,0.8-0.2,1.2c0,0.2-0.1,0.4-0.1,0.6
			c-0.1,0.2-0.1,0.3-0.2,0.5c-0.1,0.2-0.2,0.4-0.2,0.6c-0.2,0.4-0.3,0.8-0.5,1.1c-0.2,0.5-0.5,0.9-0.8,1.4
			C81,104.8,80.8,105.1,80.5,105.3C80.5,105.4,80.5,105.4,80.5,105.3z"/>
		<path class="st4" d="M42.8,105.2c-0.1-0.1-0.3-0.3-0.4-0.4c-0.4-0.6-0.8-1.2-1.1-1.9c-0.2-0.3-0.3-0.7-0.5-1
			c-0.1-0.4-0.3-0.7-0.4-1.1c-0.2-0.7-0.4-1.4-0.3-2.2c0-0.5,0.1-0.9,0.4-1.4c0.2-0.3,0.3-0.6,0.6-0.7c0.4-0.2,0.7-0.2,1.1-0.2
			c0.1,0,0.3,0,0.4,0c0.2,0,0.3,0.1,0.3,0.3c0,0.8,0,1.7,0,2.5c0,2,0,3.9,0,5.9C42.9,105.1,42.9,105.2,42.8,105.2
			C42.9,105.2,42.8,105.2,42.8,105.2z"/>
		<path d="M53.1,104.1c-0.4,0-0.9-0.1-1.3-0.1c-0.5-0.1-0.9-0.2-1.4-0.4c-1-0.3-1.7-0.9-2.4-1.6c-0.4-0.4-0.7-0.9-0.9-1.5
			c-0.2-0.5-0.3-1.1-0.2-1.7c0.1-1,0.5-1.7,1.3-2.3c0.5-0.3,1.1-0.6,1.6-0.8c0.5-0.2,1.1-0.2,1.6-0.3c1.2-0.2,2.4-0.2,3.6-0.1
			c0.5,0,0.9,0.2,1.4,0.3c0.5,0.1,0.9,0.3,1.4,0.6c0.6,0.4,1.2,0.9,1.5,1.6c0.3,0.7,0.4,1.4,0.3,2.2c-0.1,0.5-0.2,1.1-0.4,1.5
			c-0.3,0.6-0.7,1.1-1.3,1.5c-0.4,0.2-0.8,0.4-1.2,0.6c-0.3,0.1-0.7,0.2-1.1,0.3c-0.4,0.1-0.8,0.1-1.1,0.1c-0.2,0-0.5,0-0.7,0.1
			C53.7,104.1,53.2,104.1,53.1,104.1z"/>
		<path class="st5" d="M46.4,96.6c0.1-0.2,0.1-0.5,0.2-0.7c0.3-0.6,0.6-1.2,0.9-1.7c0.3-0.5,0.8-0.8,1.2-1c0.6-0.3,1.3-0.6,2-0.7
			c0.7-0.2,1.5-0.3,2.2-0.4c1.4-0.2,2.7-0.3,4.1-0.5c0.3,0,0.8,0.2,0.9,0.7c0.1,0.5,0,1.3-0.6,1.5c-0.3,0.1-0.7,0.2-1,0.3
			c-0.9,0.2-1.9,0.2-2.8,0.1c-1.1-0.1-2.2-0.1-3.2,0.1c-0.6,0.1-1.2,0.3-1.8,0.6c-0.8,0.4-1.4,0.9-2,1.6
			C46.6,96.6,46.5,96.6,46.4,96.6C46.5,96.6,46.4,96.6,46.4,96.6z"/>
		<path class="st5" d="M77,96.2c-0.3-0.3-0.6-0.6-0.9-0.9c-0.5-0.5-1-0.8-1.6-1.1c-0.9-0.4-1.9-0.6-2.9-0.7c-0.6,0-1.2,0-1.8,0
			c-0.3,0-0.6,0-0.9,0c-0.8,0-1.7-0.1-2.5-0.3c-0.4-0.1-0.8-0.3-0.9-0.8c-0.1-0.3-0.2-0.7,0-1.1c0.1-0.3,0.3-0.5,0.6-0.5
			c0.2,0,0.4,0,0.6,0c1.6,0.2,3.2,0.3,4.7,0.7c0.8,0.2,1.5,0.4,2.2,0.6c0.8,0.3,1.5,0.6,2.1,1.2c0.3,0.3,0.5,0.8,0.7,1.2
			c0.2,0.5,0.4,0.9,0.5,1.4C77,96,77,96.1,77,96.2z"/>
		<path class="st6" d="M65.6,105.1c-0.1,0.2-0.1,0.4-0.2,0.6c-0.2,0.3-0.4,0.7-0.7,0.8c-0.3,0.2-0.8,0.3-1.1,0.4
			c-0.2,0.1-0.7,0.2-0.9,0.2c0,0-0.1,0-0.1,0c-0.1,0-0.3,0-0.4,0c-1,0-2,0-2.9-0.5c-0.5-0.2-0.8-0.6-1-1.1c-0.1-0.2-0.1-0.3-0.1-0.5
			c0,0,0.1,0.1,0.1,0.1c0.3,0.3,0.6,0.6,1,0.8c0.3,0.1,0.7,0.2,1,0.3c0.6,0.2,1.2,0.1,1.8,0.2c0.4,0,0.9,0,1.3-0.1
			c0.6-0.1,1.2-0.4,1.7-0.8C65.3,105.3,65.4,105.2,65.6,105.1C65.6,105,65.6,105.1,65.6,105.1z"/>
		<path class="st7" d="M72.3,109c0.1-0.1,0.1-0.2,0.2-0.2c-0.3-0.1-0.7,0-1-0.1c-0.5,0-0.9-0.1-1.4-0.1c-1.1-0.1-2.1-0.1-3.2-0.2
			c-0.8-0.1-1.7-0.1-2.5-0.1c-0.7,0-1.4,0.4-2.1,0.5c-0.8,0.2-1.6-0.3-2.4-0.4c-0.7-0.1-1.4,0-2.1,0c-1.2,0.1-2.3,0.1-3.5,0.2
			c-0.6,0-1.2,0.1-1.8,0.1c-0.3,0-0.7-0.1-1,0c-0.4,0.1-0.2,0.3,0.1,0.5c1.2,0.9,2.9,1.5,4.3,2c0.8,0.3,4.5,1,5.5,1
			c0.6,0,1.1-0.1,1.7-0.1c0.6-0.1,1.2-0.1,1.7-0.2c0.6-0.1,1.1-0.1,1.7-0.3c1.1-0.3,2.1-0.7,3.1-1.1C70.7,110.1,71.7,109.6,72.3,109
			z"/>
		<path class="st8" d="M70.5,109.4c0.1-0.1,0.1-0.1,0.2-0.2c-0.2-0.1-0.5,0-0.8,0c-0.4,0-0.7,0-1.1-0.1c-0.9,0-1.7-0.1-2.6-0.1
			c-0.7,0-1.4-0.1-2.1-0.1c-0.6,0-1.1,0.3-1.7,0.4c-0.6,0.1-1.3-0.2-1.9-0.3c-0.6,0-1.1,0-1.7,0c-0.9,0-1.9,0.1-2.8,0.1
			c-0.5,0-0.9,0-1.4,0.1c-0.3,0-0.6-0.1-0.8,0c-0.4,0.1-0.1,0.2,0.1,0.3c1,0.6,2.3,1,3.5,1.3c0.7,0.2,3.6,0.7,4.5,0.7
			c0.5,0,0.9-0.1,1.4-0.1c0.5,0,0.9-0.1,1.4-0.1c0.5,0,0.9-0.1,1.4-0.2c0.9-0.2,1.7-0.5,2.5-0.8C69.2,110.2,69.9,109.8,70.5,109.4z"
			/>
		<path d="M73.8,108c-0.1-0.1-0.1-0.1-0.2-0.1c-0.4-0.1-0.8-0.2-1.1-0.2c-0.2,0-0.5-0.1-0.7-0.1c-0.2,0-0.3-0.2-0.3-0.3
			c0-0.2,0.1-0.3,0.3-0.3c0.4,0,0.8,0.1,1.2,0.2c0.4,0.1,0.9,0.2,1.3,0.4c0.5,0.2,0.8,0.5,0.9,1.1c0,0.2,0.1,0.5,0.1,0.7
			c0,0.1,0,0.1,0,0.2c-0.1,0.1-0.2,0.3-0.3,0.2c-0.2,0-0.2-0.2-0.3-0.3c0-0.2,0-0.4,0-0.6c0-0.1,0-0.1-0.1-0.2
			c-0.1-0.2-0.1-0.2-0.4-0.1c-0.5,0.2-1,0.3-1.4,0.5c-0.3,0.1-0.5,0.2-0.8,0.3c-0.3,0.1-0.6,0.2-1,0.3c-0.4,0.1-0.8,0.2-1.1,0.3
			c-0.2,0-0.4,0.1-0.6,0.1c-0.5,0.1-0.9,0.2-1.4,0.2c-0.6,0.1-1.3,0.2-1.9,0.3c-0.6,0.1-1.3,0.1-1.9,0.1c-1.5,0.1-3,0.1-4.5,0
			c-0.6,0-1.2-0.1-1.7-0.1c-0.7-0.1-1.4-0.2-2-0.3c-0.3,0-0.6-0.1-0.9-0.1c-0.3-0.1-0.6-0.1-0.9-0.2c-0.2,0-0.4-0.1-0.6-0.1
			c-0.5-0.1-1.1-0.2-1.6-0.4c-0.6-0.2-1.1-0.3-1.7-0.5c-0.4-0.1-0.7-0.2-1.1-0.3c-0.3-0.1-0.5,0.1-0.5,0.5c0,0.2,0.1,0.4,0.1,0.6
			c0.1,0.2,0,0.3-0.1,0.4c-0.2,0.1-0.3,0-0.4-0.1c-0.4-0.8-0.2-1.6,0.6-2.2c0.4-0.3,0.9-0.4,1.5-0.5c0.5-0.1,1-0.1,1.4-0.2
			c0.1,0,0.2,0,0.2,0.1c0.1,0.1,0.1,0.2,0.1,0.3c0,0.1-0.1,0.2-0.2,0.2c-0.5,0.1-0.9,0.1-1.4,0.2c-0.3,0.1-0.6,0.1-0.9,0.2
			c0,0,0,0,0,0.1c0.2,0.1,0.4,0.1,0.7,0.2c0.5,0.1,1,0.3,1.5,0.4c0.4,0.1,0.7,0.2,1.1,0.2c0.4,0.1,0.8,0.2,1.2,0.3
			c0.2,0,0.4,0.1,0.6,0.1c0.5,0.1,1,0.2,1.5,0.2c0.7,0.1,1.4,0.2,2.1,0.3c1,0.1,2.1,0.1,3.1,0.1c0.8,0,1.7,0,2.5,0
			c0.6,0,1.2-0.1,1.8-0.2c0.4,0,0.9-0.1,1.3-0.1c0.5-0.1,1.1-0.2,1.6-0.3c0.2,0,0.5-0.1,0.7-0.1c0.2-0.1,0.5-0.1,0.7-0.2
			c0.2,0,0.3-0.1,0.5-0.1c0.6-0.1,1.2-0.3,1.8-0.5C72.9,108.3,73.3,108.1,73.8,108z"/>
		<path class="st2" d="M58.4,98.2c-0.5-0.6-1.2-1.1-2-1.2c0,0,0,0,0,0c0.2,0.4,0.3,0.7,0.4,1.2c0,0.2,0,0.3,0,0.5
			c0,1.2-0.6,2.2-1.5,2.8c-0.5,0.3-1,0.5-1.6,0.5c-0.2,0-0.5,0-0.7,0c-0.4,0-0.7-0.1-1.1-0.3c-0.1,0-0.1-0.1-0.2-0.1
			c-1-0.6-1.7-1.7-1.7-2.9c0-0.1,0-0.2,0-0.3c0-0.5,0.2-0.9,0.4-1.3c0,0-0.1,0-0.1,0c-0.3,0.1-0.5,0.2-0.8,0.3
			c-0.7,0.3-1.3,0.7-1.7,1.4c-0.2,0.3-0.4,0.6-0.4,1c0,0.2,0.1,0.5,0.2,0.7c0.1,0.3,0.2,0.5,0.4,0.8c0.4,0.6,1,1,1.6,1.4
			c0.7,0.4,1.4,0.7,2.1,0.8c0.6,0.1,1.2,0.1,1.7,0.2c0.5,0,1-0.1,1.4-0.1c0.4-0.1,0.9-0.1,1.3-0.2c0.5-0.1,0.9-0.3,1.3-0.5
			c1-0.6,1.5-1.6,1.6-2.7C59.2,99.2,58.8,98.7,58.4,98.2z"/>
		<circle class="st2" cx="52.1" cy="97.8" r="1.1"/>
		<g>
			<path d="M70.4,104.1c0.4,0,0.9-0.1,1.3-0.1c0.5-0.1,0.9-0.2,1.4-0.4c1-0.3,1.7-0.9,2.4-1.6c0.4-0.4,0.7-0.9,0.9-1.5
				c0.2-0.5,0.3-1.1,0.2-1.7c-0.1-1-0.5-1.7-1.3-2.3c-0.5-0.3-1.1-0.6-1.6-0.8c-0.5-0.2-1.1-0.2-1.6-0.3c-1.2-0.2-2.4-0.2-3.6-0.1
				c-0.5,0-0.9,0.2-1.4,0.3c-0.5,0.1-0.9,0.3-1.4,0.6c-0.6,0.4-1.2,0.9-1.5,1.6c-0.3,0.7-0.4,1.4-0.3,2.2c0.1,0.5,0.2,1.1,0.4,1.5
				c0.3,0.6,0.7,1.1,1.3,1.5c0.4,0.2,0.8,0.4,1.2,0.6c0.3,0.1,0.7,0.2,1.1,0.3c0.4,0.1,0.8,0.1,1.1,0.1c0.2,0,0.5,0,0.7,0.1
				C69.8,104.1,70.3,104.1,70.4,104.1z"/>
			<path class="st2" d="M65.1,98.2c0.5-0.6,1.2-1.1,2-1.2c0,0,0,0,0,0c-0.2,0.4-0.3,0.7-0.4,1.2c0,0.2,0,0.3,0,0.5
				c0,1.2,0.6,2.2,1.5,2.8c0.5,0.3,1,0.5,1.6,0.5c0.2,0,0.5,0,0.7,0c0.4,0,0.7-0.1,1.1-0.3c0.1,0,0.1-0.1,0.2-0.1
				c1-0.6,1.7-1.7,1.7-2.9c0-0.1,0-0.2,0-0.3c0-0.5-0.2-0.9-0.4-1.3c0,0,0.1,0,0.1,0c0.3,0.1,0.5,0.2,0.8,0.3
				c0.7,0.3,1.3,0.7,1.7,1.4c0.2,0.3,0.4,0.6,0.4,1c0,0.2-0.1,0.5-0.2,0.7c-0.1,0.3-0.2,0.5-0.4,0.8c-0.4,0.6-1,1-1.6,1.4
				c-0.7,0.4-1.4,0.7-2.1,0.8c-0.6,0.1-1.2,0.1-1.7,0.2c-0.5,0-1-0.1-1.4-0.1c-0.4-0.1-0.9-0.1-1.3-0.2c-0.5-0.1-0.9-0.3-1.3-0.5
				c-1-0.6-1.5-1.6-1.6-2.7C64.4,99.3,64.7,98.7,65.1,98.2z"/>
			<circle class="st2" cx="68.9" cy="97.9" r="1.1"/>
		</g>
	</g>
	<g>
		<path d="M80.3,91.8c0-0.3,0-0.6,0-0.8c0,0,0-0.1,0-0.1C80.3,91.2,80.3,91.5,80.3,91.8z"/>
		<path d="M90.7,111.6c-0.2-0.8-0.6-1.5-1.1-2.1c-0.1-0.2-0.2-0.3-0.1-0.5c0.2-0.4,0.4-0.7,0.6-1.1c0.2-0.4,0.4-0.8,0.4-1.3
			c0.1-1-0.2-1.9-0.9-2.6c-0.3-0.3-0.7-0.6-1.1-0.8c-0.2-0.1-0.3-0.3-0.3-0.4c0-0.4,0-0.8,0-1.2c0.1-0.5,0.2-1,0.2-1.5
			c0-0.3,0-0.5-0.1-0.8c-0.1-0.4-0.3-0.8-0.6-1.2c-0.2-0.4-0.5-0.7-0.7-1c-0.3-0.5-0.6-1-0.5-1.6c0.1-0.6,0.1-1.2,0.1-1.7
			c0-0.8,0-1.6-0.3-2.3c-0.2-0.5-0.4-1-0.8-1.5c-0.3-0.4-0.8-0.8-1.2-1.1c-0.3-0.2-0.6-0.5-0.9-0.7c-0.4-0.5-0.7-1-0.9-1.7
			c-0.2-0.7-0.4-1.3-0.6-1.9c-0.2-0.6-0.5-1.3-0.7-1.9c-0.3-0.8-0.9-1.3-1.7-1.7c-0.8-0.4-1.6-0.5-2.4-0.5c-0.7,0-1.5-0.1-2.2-0.3
			c-0.5-0.2-1-0.4-1.4-0.7c-0.7-0.6-1.3-1.2-1.9-1.9c-0.4-0.4-0.9-0.9-1.3-1.3c-0.3-0.3-0.7-0.6-1.1-0.9c-0.7-0.4-1.4-0.7-2.1-0.9
			c-0.5-0.1-1-0.2-1.6-0.2c-1,0-1.9-0.1-2.9,0.1c-0.4,0.1-0.9,0.2-1.3,0.4c-0.3,0.2-0.7,0.4-1,0.5c-0.5-0.2-1-0.3-1.5-0.5
			c-0.3-0.1-0.6-0.2-0.9-0.2c-0.4-0.1-0.8-0.2-1.2-0.2c-0.5,0-1,0-1.5,0.1c-0.5,0.1-1,0.2-1.4,0.4c-0.7,0.3-1.3,0.8-1.9,1.3
			c-0.8,0.7-1.6,1.4-2.5,1.9c-0.5,0.3-1,0.6-1.5,0.8c-0.3,0.1-0.7,0.2-1,0.3c-0.8,0.3-1.4,0.8-1.9,1.4c-0.8,0.9-1.4,1.8-1.9,2.8
			c-0.2,0.4-0.4,0.8-0.6,1.1c0,0.1-0.1,0.2-0.2,0.2c-0.4,0.1-0.8,0.1-1.2,0.2c-0.4,0.1-0.7,0.1-1.1,0.3c-1,0.4-1.7,1.2-2,2.2
			c-0.1,0.3-0.1,0.5-0.2,0.8c0,0.1,0,0.3,0,0.4c0,0.2,0.1,0.3,0.1,0.5c0.1,0.4,0.1,0.9,0.1,1.3c0,0.4-0.1,0.8-0.4,1.1
			c-0.3,0.3-0.5,0.6-0.8,0.9c-0.4,0.3-0.8,0.6-1.1,1c-0.5,0.7-0.8,1.4-0.8,2.2c0,0.1,0,0.2,0,0.3c-0.2,0.6,0,1.2,0.1,1.8
			c0.1,0.3,0.2,0.6,0.2,0.9c0.1,0.5,0.2,1.1,0.1,1.7c0,0.2-0.1,0.5-0.1,0.7c-0.3,0.9-0.8,1.8-1.5,2.5c-0.2,0.2-0.3,0.4-0.5,0.6
			c-0.5,0.8-0.5,1.7-0.3,2.6c0.1,0.3,0.2,0.6,0.3,0.9c0,0-0.1,0.1-0.1,0.1c-0.7,0.5-1.2,1.2-1.3,2.1c-0.1,0.6,0,1.2,0.4,1.6
			c0.2,0.2,0.4,0.4,0.5,0.6c-0.1,0.2-0.2,0.5-0.4,0.7c-0.3,0.5-0.5,0.9-0.5,1.5c-0.1,0.5-0.1,1,0,1.5c0.1,0.6,0.3,1.2,0.8,1.6
			c0.7,0.6,1.5,0.9,2.5,1c0.1,0,0.2,0,0.2,0c0.5-0.1,1-0.3,1.4-0.5c0.2-0.2,0.4-0.2,0.7,0c0.9,0.7,2,0.8,3.1,0.5
			c0.7-0.2,1.4-0.6,1.9-1.1c0.2-0.2,0.4-0.3,0.5-0.5c0,0,0,0,0.1,0c0,0,0,0,0.1,0.1c0.6,0.8,1.4,1.2,2.4,1c0.7-0.2,1.3-0.6,1.7-1.2
			c0.3-0.5,0.4-1,0.4-1.5c0,0,0-0.1,0-0.1c0-0.3,0-0.6,0-1c0-0.3-0.1-0.5-0.1-0.8c0,0,0,0,0,0c-0.2-0.9-0.7-1.6-1.5-2.1
			c-0.2-0.1-0.2-0.2-0.2-0.4c0-0.7-0.2-1.3-0.5-1.9c-0.2-0.2-0.2-0.5-0.1-0.8c0.1-0.5,0.3-0.9,0.6-1.2c0.4-0.5,0.6-1,0.7-1.6
			c0.1-1,0-2.1-0.5-3c-0.3-0.6-0.6-1.2-1-1.8c-0.3-0.5-0.6-1-0.8-1.5c0-0.1,0-0.1-0.1-0.2c-0.2-0.3-0.5-0.6-0.7-0.9
			c-0.1-0.2-0.2-0.4-0.4-0.6c-0.2-0.2-0.4-0.4-0.4-0.7c0-0.2,0.2-0.5,0.2-0.7c0-0.2-0.1-0.3-0.2-0.5c-0.2-0.4-0.2-1-0.2-1.5
			c0.1-1,0-2.1,0.2-3.1c0-0.1,0.1-0.3,0.1-0.4c0-0.1,0.1-0.1,0.1-0.2c0.8-1,1.7-2,2.5-3c0.8-0.9,1.4-2,1.9-3.1
			c0.1-0.4,0.3-0.7,0.5-1.1c0.3-0.6,0.7-1.1,1.2-1.4c0.7-0.5,1.5-0.9,2.3-1.1c0.8-0.3,1.7-0.6,2.5-0.8c0.4-0.1,0.8-0.2,1.2-0.3
			c0.5-0.1,1-0.2,1.5-0.3c0.5-0.1,0.9-0.1,1.4-0.2c0.7-0.1,1.4-0.1,2.2-0.1c0.7,0,1.3,0,2,0c0.2,0,0.4,0,0.7,0c0.7,0,1.4,0.1,2,0.2
			c0.5,0,0.9,0.1,1.4,0.2c0.5,0.1,0.9,0.1,1.4,0.2c0.6,0.1,1.2,0.2,1.8,0.4c0.5,0.1,0.9,0.3,1.3,0.4c0.7,0.3,1.4,0.5,2.1,0.9
			c0.7,0.3,1.2,0.7,1.7,1.3c0.3,0.4,0.4,0.9,0.6,1.3c0.3,0.7,0.6,1.3,1,1.9c0.3,0.5,0.7,0.9,1.1,1.2c0.8,0.7,1.5,1.5,2.1,2.3
			c0.1,0.1,0.1,0.2,0.2,0.3c0.3,0.4,0.3,0.8,0.4,1.3c0,0,0,0,0,0.1c0,0,0,0-0.1-0.1c0,0.2,0.1,0.3,0.1,0.5c0-0.4,0-0.8-0.1-1.3
			c0.1,0.4,0.1,0.8,0.1,1.3c0,0,0,0.1,0,0.1c0,0.3,0,0.6,0,0.8c0,0.1,0,0.3,0,0.4c0,0.6,0.2,1.1,0.2,1.7c0,0.2,0,0.5-0.2,0.6
			c-0.2,0.1-0.3,0.1-0.5,0.3c0,0.2-0.1,0.3-0.1,0.5c0,0.1,0,0.2,0,0.3c0,0.1,0,0.2,0.1,0.4c0,0.2,0.1,0.4,0,0.5
			c-0.3,0.6-0.9,1-1.3,1.4C78.2,98,78,98.2,78,98.5c0,0.1,0,0.1,0,0.2c0.1,0.1,0.1,0.3,0.2,0.4c0.3,0.6,0.6,1.3,0.9,1.9
			c0.2,0.4,0.2,0.7,0.2,1.1c0,0.2,0,0.5,0,0.7c0,0.3-0.1,0.6-0.3,0.8c-0.2,0.2-0.5,0.4-0.8,0.6c-0.2,0.2-0.5,0.3-0.7,0.4
			c-0.6,0.4-0.9,1.1-1.1,1.8c-0.1,0.6,0,1.3,0.2,1.8c0.2,0.5,0.4,1,0.6,1.5c0.1,0.1,0.1,0.3,0,0.4c-0.2,0.7-0.7,1.1-1.2,1.5
			c-0.4,0.3-0.7,0.6-1,0.9c-0.3,0.3-0.6,0.6-0.8,1c0,0.1-0.1,0.1-0.1,0.2c0,0,0,0,0,0c-0.1,0.1-0.1,0.3-0.1,0.4
			c-0.1,0.5-0.3,0.9-0.4,1.4c0,0,0,0,0,0c0,0.2,0,0.4,0,0.6c0.2,0.5,0.4,1,0.7,1.5c0.3,0.5,0.8,0.9,1.3,1.1c0.5,0.2,1.1,0.3,1.6,0.3
			c0.4,0,0.7-0.1,0.9-0.4c0.2-0.2,0.3-0.4,0.3-0.7c0-0.1,0-0.3,0.1-0.4c0.3,0.1,0.6,0.3,0.8,0.4c0.4,0.1,0.8,0.3,1.2,0.4
			c0.7,0.1,1.4,0,2-0.4c0.4-0.2,0.8-0.4,1.2-0.7c0.1,0,0.1,0.1,0.2,0.1c0.3,0.2,0.6,0.4,0.9,0.6c0.7,0.4,1.5,0.5,2.3,0.3
			c0.8-0.2,1.4-0.6,2-1.1c0.3-0.2,0.5-0.5,0.7-0.7c0.6-0.8,0.8-1.8,0.9-2.7C91,113.1,91,112.4,90.7,111.6z M68.5,78
			c-1.2-0.2-2.5-0.4-3.7-0.5c0,0,0,0,0-0.1c0.1,0,0.3-0.1,0.4-0.1c0.4,0,0.8-0.1,1.2-0.1c0.1,0,0.2,0,0.3-0.1c0.1,0,0.1-0.1,0.1-0.2
			c0-0.1-0.1-0.1-0.1-0.2c-0.1,0-0.2-0.1-0.3,0c-0.7,0.1-1.5,0.1-2.2,0.4c-0.5,0.2-1,0.2-1.5,0.2c-0.5,0-1.1,0-1.6,0
			c-0.1,0-0.3,0-0.5,0c0-0.1,0-0.1,0-0.2c0-0.2,0-0.3-0.2-0.4c-0.1-0.1-0.3,0-0.4,0.1c-0.1,0.1-0.2,0.3-0.3,0.4
			c-0.1,0.1-0.2,0.2-0.3,0.2c-0.4,0-0.8,0.1-1.2,0.1c-0.1,0-0.2,0-0.3-0.1c-0.1-0.1-0.2-0.1-0.4-0.2c-0.5-0.4-1.2-0.4-1.8-0.3
			c-0.3,0-0.6,0.2-0.8,0.5c0,0-0.1,0.1-0.1,0.1c0,0.1,0,0.1,0,0.2c0,0,0.1,0,0.2,0c0.1,0,0.2-0.1,0.3-0.2c0.4-0.3,0.8-0.4,1.2-0.2
			c0.2,0.1,0.4,0.1,0.7,0.3c-0.3,0-0.6,0.1-0.8,0.1c-1.3,0.2-2.6,0.5-3.9,0.9c-1,0.3-2,0.7-2.9,1.2c-1.1,0.6-1.9,1.5-2.4,2.7
			c-0.3,0.8-0.7,1.5-1.1,2.2C46,84.9,46,85,45.9,85.1c-0.1,0.2-0.3,0.3-0.5,0.3c-0.5,0-0.9,0.3-1.4,0.6c-0.6,0.4-1,1-1.3,1.7
			c0,0.1-0.1,0.2-0.1,0.3c0,0.1,0.1,0.2,0.1,0.2c0.1,0,0.2,0,0.2-0.1c0,0,0-0.1,0.1-0.2c0.3-0.9,0.9-1.5,1.7-1.9
			c0.1-0.1,0.3-0.1,0.4-0.2c0,0,0,0.1,0,0.1c-0.1,0.1-0.2,0.3-0.3,0.4c-0.8,1-1.6,1.9-2.4,2.9c-0.2,0.2-0.3,0.5-0.3,0.7
			c0,0.2-0.1,0.5-0.1,0.7c0,1.2,0,2.5,0,3.7c0,0.3,0.1,0.6,0.2,0.9c0.1,0.2,0.1,0.3,0,0.5c-0.3,0.7-0.3,0.7,0.1,1.3
			c0.3,0.6,0.7,1.1,1.1,1.7c0.1,0.2,0.2,0.3,0.3,0.5c0.3,0.6,0.6,1.1,1,1.7c0.4,0.7,0.8,1.5,1,2.3c0.1,0.3,0.1,0.6,0,0.9
			c-0.5,1.3-1.5,2.1-2.9,2.3c-0.5,0.1-1,0.1-1.5,0.1c-0.1,0-0.2,0-0.3,0c0,0,0,0,0,0.1c0.1,0.1,0.1,0.1,0.2,0.2
			c0.5,0.4,0.6,1,0.4,1.6c-0.2,0.3-0.4,0.7-0.6,1c-0.2,0.4-0.6,0.5-1,0.5c-0.1,0-0.2,0-0.2,0c-0.1,0-0.1,0.1-0.2,0.1
			c0.1,0.1,0.1,0.1,0.2,0.2c0.1,0,0.1,0,0.2,0.1c0.4,0,0.8,0,1.1-0.3c0.1-0.1,0.2-0.1,0.2-0.2c0.2-0.2,0.3-0.2,0.6-0.2
			c0.5,0,0.9-0.1,1.3-0.4c0.2-0.1,0.3-0.2,0.5-0.3c0.3-0.2,0.6-0.3,0.9-0.4c0.2,0,0.2,0,0.3,0.1c0.1,0.2,0.2,0.4,0.3,0.6
			c0.2,0.3,0.3,0.6,0.3,1c0,0.3,0,0.6,0,0.9c0,0.6-0.3,1.2-0.7,1.6c-0.3,0.3-0.7,0.4-1.2,0.3c-0.1,0-0.2,0-0.3,0
			c-0.1,0-0.2,0.1-0.2,0.2c0,0.1,0.1,0.2,0.1,0.2c0,0,0.1,0.1,0.2,0.1c0.8,0.1,1.5,0,2.1-0.9c0.1-0.2,0.2-0.4,0.3-0.7
			c0.1-0.1,0.1-0.2,0.2-0.3c0.3,0.1,0.5,0.3,0.5,0.6c0,0.6,0,1.1-0.1,1.7c-0.1,0.3-0.2,0.6-0.4,0.8c-0.3,0.3-0.6,0.4-0.9,0.3
			c-0.4-0.1-0.7-0.3-1.1-0.5c-0.3-0.2-0.6-0.3-0.9-0.5c-0.2-0.1-0.4-0.1-0.5,0.2c-0.1,0.2-0.2,0.3-0.2,0.5c-0.3,0.8-0.9,1.2-1.7,1.3
			c-0.3,0-0.5,0.1-0.8,0c0-1.1,0.3-2.1,1.2-2.8c0.2-0.2,0.5-0.4,0.8-0.6c0.1-0.1,0.2-0.1,0.3-0.2c0,0,0.1-0.1,0-0.2
			c0,0-0.1-0.1-0.2-0.1c-0.1,0-0.2,0-0.2,0.1c-1.1,0.6-1.9,1.5-2.2,2.7c0,0.1-0.1,0.3-0.1,0.4c0,0.2,0,0.4,0,0.6c-0.1,0-0.1,0-0.2,0
			c-0.5-0.2-1-0.5-1.4-0.9c-0.3-0.3-0.3-0.5-0.1-0.9c0.3-0.5,0.7-0.8,1.1-1.2c0.2-0.1,0.3-0.2,0.5-0.3c0.1-0.1,0.1-0.2,0.1-0.3
			c-0.1-0.1-0.2-0.2-0.3-0.1c-0.3,0.2-0.6,0.4-0.8,0.6c-0.4,0.3-0.7,0.6-1,1c-0.2,0.2-0.4,0.5-0.5,0.7c-0.2,0.3-0.3,0.6-0.4,0.9
			c-0.2,0.4-0.7,0.6-1.1,0.4c-0.3-0.1-0.4-0.3-0.4-0.6c0-0.4,0-0.8,0.2-1.2c0.2-0.5,0.4-1.1,0.7-1.6c0.2-0.4,0.2-0.5-0.2-0.7
			c-0.1-0.1-0.3-0.2-0.4-0.3c-0.2-0.2-0.3-0.3-0.3-0.6c0-0.4,0-0.8,0.1-1.2c0.1-0.8,0.6-1.3,1.3-1.7c0.1-0.1,0.2-0.1,0.4-0.2
			c-0.1-0.2-0.3-0.4-0.4-0.5c-0.3-0.3-0.5-0.7-0.6-1.1c0-0.3,0-0.6,0.1-0.9c0.2-0.8,0.5-1.5,0.7-2.3c0.3-0.8,0.6-1.6,0.7-2.4
			c0.1-0.7,0.1-1.3,0.1-2c-0.1-0.9-0.3-1.7-0.5-2.5c-0.2-0.8,0-1.5,0.6-2.1c0.2-0.3,0.5-0.5,0.8-0.7c0.5-0.5,1-0.9,1.3-1.6
			c0-0.1,0.1-0.1,0.1-0.1c0.3,0.1,0.5,0,0.5-0.3c0-0.9,0-1.8-0.3-2.6c-0.2-0.5-0.1-0.9,0.2-1.3c0.4-0.7,0.9-1.1,1.6-1.3
			c0.7-0.1,1.3-0.3,2-0.3c0.2,0,0.3-0.1,0.3-0.2c0.3-0.6,0.6-1.3,0.9-1.9c0.5-1,1.1-1.9,1.9-2.7c0.4-0.4,0.9-0.7,1.4-0.9
			c1-0.3,1.9-0.7,2.8-1.3c0.8-0.5,1.5-1.1,2.3-1.7c0.6-0.4,1.1-0.9,1.7-1.3c0.5-0.2,1-0.4,1.6-0.4c1.3-0.1,2.6,0.2,3.8,0.7
			c0.2,0.1,0.4,0.1,0.5,0.2c0.2,0.1,0.3,0.1,0.5-0.1c0.4-0.3,0.8-0.5,1.2-0.7c0.6-0.2,1.2-0.4,1.8-0.4c0.8,0,1.5,0,2.3,0.1
			c1.4,0.2,2.6,0.7,3.7,1.7c0.7,0.7,1.4,1.3,2,2c0.1,0.1,0.2,0.2,0.2,0.3C70.9,78.6,69.7,78.2,68.5,78z M88.6,115.3
			c-0.2,0.2-0.5,0.3-0.8,0.4c-0.7,0-1.2-0.1-1.8-0.5c-0.3-0.2-0.4-0.5-0.4-0.9c0-0.3,0.1-0.6,0.3-0.9c0.1-0.1,0.1-0.2,0.2-0.3
			c0,0,0,0,0-0.1c-0.1,0-0.2,0-0.3,0.1c-0.5,0.2-1,0.5-1.3,1c-0.3,0.4-0.5,0.7-0.8,1.1c-0.4,0.5-0.9,0.8-1.5,0.9
			c-0.4,0.1-0.8,0-1.2,0c-0.2,0-0.3-0.1-0.4-0.3c-0.2-0.5-0.5-0.9-0.5-1.4c0-0.4,0.1-0.8,0.4-1c0.1-0.1,0.2-0.1,0.3-0.2
			c0.1-0.1,0.2-0.1,0.1-0.2c-0.1-0.1-0.2-0.1-0.3,0c-0.5,0.2-0.8,0.6-0.9,1.1c-0.1,0.3-0.1,0.5,0,0.8c0.1,0.3,0.2,0.6,0.3,0.8
			c0,0.1,0.1,0.2,0.1,0.2c-0.7,0-1.6-0.8-1.7-1.5c-0.2,0-0.4,0.1-0.5,0.2c-0.2,0.2-0.4,0.4-0.5,0.6c-0.1,0.3-0.2,0.6-0.3,0.9
			c0,0.2,0.1,0.5,0.1,0.7c0,0.1,0.1,0.2,0.1,0.4c-0.2,0-0.4,0-0.5,0c-0.6,0-1-0.4-1.3-0.9c-0.1-0.2-0.1-0.3-0.2-0.5
			c-0.2-0.4-0.1-0.8,0.1-1.1c0.2-0.4,0.6-0.8,1-1c0.8-0.5,1.5-1,2.3-1.5c0.7-0.5,1.5-1,2.2-1.5c0.2-0.1,0.3-0.3,0.4-0.4
			c-0.1,0-0.1-0.1-0.1-0.1c-0.4-0.1-0.7-0.2-1.1-0.2c-0.7-0.2-1.2-0.6-1.6-1.2c-0.3-0.4-0.7-0.8-0.8-1.4c-0.1-0.4-0.1-0.9,0.1-1.3
			c0.1-0.3,0.3-0.5,0.6-0.7c0.4-0.2,0.8-0.5,1.1-0.8c0.1-0.1,0.2-0.1,0.4-0.2c1-0.1,1.7-1.1,1.8-2c0-0.2,0-0.5-0.1-0.7
			c-0.2-0.4-0.5-0.8-0.9-1.1c-0.3-0.3-0.7-0.6-1-1c0,0,0,0-0.1-0.1c-0.4-0.2-0.5-0.6-0.7-1c-0.1-0.2-0.1-0.3,0.1-0.4
			c0.2-0.2,0.4-0.3,0.6-0.5c0.2-0.2,0.4-0.4,0.6-0.7c0.2-0.2,0.3-0.5,0.3-0.8c0-0.2,0-0.4,0-0.7c0.6-0.1,0.8-0.5,0.8-1
			c0.1-0.4,0.1-0.8,0.1-1.3c0-1-0.1-1.9-0.1-2.9c0-0.2,0-0.4-0.1-0.6c0-0.3-0.2-0.6-0.3-0.9c-0.8-1.2-1.7-2.2-2.7-3.1
			c-0.4-0.4-0.8-0.8-1-1.3c-0.3-0.6-0.6-1.3-0.9-1.9c0-0.1,0-0.2-0.1-0.3c0.2,0,0.4,0.1,0.5,0.1c0.6,0.1,1.1,0.3,1.6,0.7
			c0.2,0.2,0.3,0.4,0.4,0.6c0.1,0.1,0.1,0.2,0.2,0.3c0,0,0.1,0.1,0.2,0c0,0,0.1-0.1,0.1-0.2c0-0.1,0-0.1-0.1-0.2
			c-0.2-0.5-0.6-0.8-1-1.1c-0.5-0.3-1.1-0.5-1.7-0.6c-0.4,0-0.6-0.2-0.8-0.5c0-0.1-0.1-0.1-0.2-0.3c0.2,0,0.3,0,0.5,0.1
			c0.6,0.1,1.2,0.1,1.8,0.2c1.3,0.1,2.3,0.6,2.8,1.9c0.5,1.1,0.8,2.2,1.2,3.3c0.3,1.1,0.9,2,1.8,2.8c0.3,0.2,0.5,0.4,0.8,0.6
			c0.6,0.5,1,1.2,1.2,1.9c0.2,0.7,0.3,1.5,0.2,2.2c0,0.4-0.1,0.8-0.1,1.2c0,0.4-0.2,0.8-0.4,1.2c-0.1,0.1-0.2,0.3-0.2,0.4
			c-0.1,0.2,0.1,0.3,0.3,0.2c0.1,0,0.2-0.1,0.2-0.2c0.1-0.1,0.1-0.2,0.2-0.3c0.3,0.7,0.7,1.2,1,1.7c0.3,0.4,0.6,0.9,0.7,1.4
			c0.1,0.4,0,0.8-0.1,1.3c-0.1,0.5-0.2,0.9-0.1,1.4c0,0.2,0,0.3-0.1,0.4c-0.2,0.2-0.2,0.4,0.1,0.6c0.1,0.1,0.2,0.1,0.3,0.2
			c0.3,0.2,0.7,0.4,1,0.6c0.1,0.1,0.2,0.2,0.2,0.4c0.1,1.8-1,3.6-2.7,4.4c-0.4,0.2-0.8,0.3-1.3,0.2c0,0-0.1,0-0.2,0
			c0.2,0.3,0.3,0.5,0.6,0.7c0.4,0.3,0.8,0.5,1.3,0.7c0.5,0.1,1,0.2,1.5,0.4c0.4,0.1,0.7,0.2,1,0.4c0.2,0.1,0.4,0.3,0.5,0.4
			c0.2,0.2,0.2,0.4,0.2,0.6C89.8,113.5,89.4,114.5,88.6,115.3z"/>
		<path d="M79.7,95.2c0-0.1,0.1-0.3,0.1-0.5c0,0-0.1,0.1-0.1,0.2C79.7,95,79.7,95.1,79.7,95.2z"/>
		<path class="st5" d="M69.9,76.8c-1-1-2.3-1.5-3.7-1.7C65.5,75,64.7,75,64,75c-0.6,0-1.2,0.2-1.8,0.4c-0.4,0.2-0.8,0.4-1.2,0.7
			c-0.2,0.1-0.3,0.2-0.5,0.1c-0.2-0.1-0.4-0.1-0.5-0.2c-1.2-0.5-2.5-0.8-3.8-0.7c-0.6,0-1.1,0.2-1.6,0.4c-0.7,0.3-1.2,0.8-1.7,1.3
			c-0.7,0.6-1.5,1.2-2.3,1.7c-0.8,0.6-1.8,1-2.8,1.3c-0.6,0.2-1,0.5-1.4,0.9c-0.8,0.8-1.4,1.7-1.9,2.7c-0.3,0.6-0.6,1.3-0.9,1.9
			c-0.1,0.1-0.2,0.2-0.3,0.2c-0.7,0-1.3,0.2-2,0.3c-0.8,0.2-1.3,0.6-1.6,1.3c-0.2,0.4-0.3,0.8-0.2,1.3c0.3,0.8,0.3,1.7,0.3,2.6
			c0,0.4-0.2,0.5-0.5,0.3c0,0-0.1,0.1-0.1,0.1c-0.3,0.6-0.8,1.1-1.3,1.6c-0.3,0.2-0.5,0.4-0.8,0.7c-0.6,0.6-0.8,1.3-0.6,2.1
			c0.2,0.8,0.4,1.7,0.5,2.5c0.1,0.6,0.1,1.3-0.1,2c-0.2,0.8-0.4,1.6-0.7,2.4c-0.3,0.8-0.5,1.5-0.7,2.3c-0.1,0.3-0.2,0.6-0.1,0.9
			c0.1,0.4,0.3,0.8,0.6,1.1c0.1,0.2,0.2,0.3,0.4,0.5c-0.2,0.1-0.3,0.1-0.4,0.2c-0.7,0.3-1.2,0.9-1.3,1.7c-0.1,0.4,0,0.8-0.1,1.2
			c0,0.3,0.1,0.4,0.3,0.6c0.1,0.1,0.3,0.2,0.4,0.3c0.3,0.3,0.3,0.4,0.2,0.7c-0.2,0.5-0.4,1.1-0.7,1.6c-0.2,0.4-0.2,0.8-0.2,1.2
			c0,0.3,0.2,0.5,0.4,0.6c0.4,0.2,1,0,1.1-0.4c0.1-0.3,0.2-0.6,0.4-0.9c0.1-0.3,0.3-0.5,0.5-0.7c0.3-0.4,0.7-0.7,1-1
			c0.2-0.2,0.5-0.4,0.8-0.6c0.1-0.1,0.2,0,0.3,0.1c0.1,0.1,0,0.2-0.1,0.3c-0.2,0.1-0.3,0.2-0.5,0.3c-0.4,0.3-0.8,0.7-1.1,1.2
			c-0.2,0.4-0.2,0.6,0.1,0.9c0.4,0.4,0.9,0.7,1.4,0.9c0.1,0,0.2,0,0.2,0c0-0.2,0-0.4,0-0.6c0-0.1,0-0.3,0.1-0.4
			c0.3-1.3,1.1-2.1,2.2-2.7c0.1,0,0.2-0.1,0.2-0.1c0.1,0,0.2,0,0.2,0.1c0,0,0,0.1,0,0.2c-0.1,0.1-0.2,0.1-0.3,0.2
			c-0.3,0.2-0.5,0.4-0.8,0.6c-0.9,0.7-1.2,1.7-1.2,2.8c0.3,0,0.5,0,0.8,0c0.8-0.1,1.4-0.5,1.7-1.3c0.1-0.2,0.1-0.3,0.2-0.5
			c0.1-0.2,0.3-0.3,0.5-0.2c0.3,0.1,0.6,0.3,0.9,0.5c0.3,0.2,0.7,0.3,1.1,0.5c0.4,0.1,0.7,0,0.9-0.3c0.2-0.2,0.3-0.5,0.4-0.8
			c0.1-0.5,0.1-1.1,0.1-1.7c0-0.3-0.1-0.5-0.5-0.6c-0.1,0.1-0.1,0.2-0.2,0.3c-0.1,0.2-0.2,0.5-0.3,0.7c-0.6,0.9-1.3,1-2.1,0.9
			c-0.1,0-0.2,0-0.2-0.1c-0.1-0.1-0.1-0.2-0.1-0.2c0-0.1,0.1-0.2,0.2-0.2c0.1,0,0.2,0,0.3,0c0.4,0.1,0.9,0,1.2-0.3
			c0.5-0.4,0.7-0.9,0.7-1.6c0-0.3,0-0.6,0-0.9c0-0.4-0.1-0.7-0.3-1c-0.1-0.2-0.2-0.4-0.3-0.6c-0.1-0.1-0.1-0.2-0.3-0.1
			c-0.3,0.1-0.6,0.2-0.9,0.4c-0.2,0.1-0.3,0.2-0.5,0.3c-0.4,0.3-0.8,0.4-1.3,0.4c-0.2,0-0.4,0.1-0.6,0.2c-0.1,0.1-0.2,0.1-0.2,0.2
			c-0.3,0.3-0.7,0.3-1.1,0.3c-0.1,0-0.1,0-0.2-0.1c-0.1,0-0.1-0.1-0.2-0.2c0.1,0,0.1-0.1,0.2-0.1c0.1,0,0.2,0,0.2,0
			c0.4,0,0.8-0.1,1-0.5c0.2-0.3,0.4-0.7,0.6-1c0.3-0.5,0.1-1.2-0.4-1.6c-0.1-0.1-0.1-0.1-0.2-0.2c0,0,0,0,0-0.1c0.1,0,0.2,0,0.3,0
			c0.5,0,1,0,1.5-0.1c1.4-0.2,2.4-1,2.9-2.3c0.1-0.3,0.1-0.6,0-0.9c-0.2-0.8-0.6-1.5-1-2.3c-0.3-0.6-0.6-1.1-1-1.7
			c-0.1-0.2-0.2-0.4-0.3-0.5c-0.4-0.6-0.7-1.1-1.1-1.7c-0.4-0.6-0.4-0.6-0.1-1.3c0.1-0.2,0.1-0.3,0-0.5c-0.1-0.3-0.2-0.6-0.2-0.9
			c0-1.2,0-2.5,0-3.7c0-0.2,0-0.5,0.1-0.7c0-0.3,0.1-0.5,0.3-0.7c0.8-1,1.6-1.9,2.4-2.9c0.1-0.1,0.2-0.3,0.3-0.4c0,0,0-0.1,0-0.1
			c-0.1,0.1-0.3,0.1-0.4,0.2c-0.8,0.4-1.4,1-1.7,1.9c0,0.1,0,0.1-0.1,0.2c-0.1,0.1-0.2,0.1-0.2,0.1c0,0-0.1-0.1-0.1-0.2
			c0-0.1,0-0.2,0.1-0.3c0.2-0.7,0.7-1.3,1.3-1.7c0.4-0.3,0.8-0.5,1.4-0.6c0.2,0,0.4-0.1,0.5-0.3c0.1-0.1,0.2-0.2,0.2-0.4
			c0.4-0.7,0.8-1.5,1.1-2.2c0.5-1.2,1.3-2,2.4-2.7c0.9-0.5,1.9-0.9,2.9-1.2c1.3-0.4,2.6-0.8,3.9-0.9c0.3,0,0.5-0.1,0.8-0.1
			c-0.2-0.2-0.4-0.2-0.7-0.3c-0.5-0.1-0.9-0.1-1.2,0.2c-0.1,0.1-0.2,0.1-0.3,0.2c0,0-0.1,0-0.2,0c0,0-0.1-0.1,0-0.2
			c0,0,0-0.1,0.1-0.1c0.2-0.2,0.5-0.4,0.8-0.5c0.6-0.1,1.2,0,1.8,0.3c0.1,0.1,0.2,0.2,0.4,0.2c0.1,0,0.2,0.1,0.3,0.1
			c0.4,0,0.8-0.1,1.2-0.1c0.2,0,0.3,0,0.3-0.2c0.1-0.1,0.2-0.3,0.3-0.4c0.1-0.1,0.3-0.2,0.4-0.1c0.1,0.1,0.2,0.2,0.2,0.4
			c0,0,0,0.1,0,0.2c0.2,0,0.3,0,0.5,0c0.5,0,1.1,0,1.6,0c0.5,0,1,0,1.5-0.2c0.7-0.3,1.4-0.3,2.2-0.4c0.1,0,0.2,0,0.3,0
			c0.1,0,0.1,0.1,0.1,0.2c0,0.1,0,0.1-0.1,0.2c-0.1,0-0.2,0.1-0.3,0.1c-0.4,0-0.8,0.1-1.2,0.1c-0.1,0-0.3,0.1-0.4,0.1c0,0,0,0,0,0.1
			c1.3,0.1,2.5,0.3,3.7,0.5c1.2,0.2,2.4,0.6,3.6,1c-0.1-0.1-0.1-0.2-0.2-0.3C71.2,78.1,70.5,77.4,69.9,76.8z M37.7,104.6
			c-0.1,0.1-0.3,0.1-0.4,0.2c-0.1,0-0.2,0-0.2-0.1c-0.1-0.1,0-0.2,0.1-0.3c0.1,0,0.1-0.1,0.2-0.1c0.6-0.3,0.8-0.8,0.9-1.4
			c0-0.5-0.1-1-0.2-1.5c-0.2-0.7-0.5-1.4-0.6-2.2c-0.3-1.2,0-2.3,0.8-3.3c0.1-0.1,0.1-0.1,0.2-0.2c0.1,0,0.2,0,0.2,0
			c0,0,0.1,0.1,0.1,0.2c0,0.1-0.1,0.2-0.2,0.3c-0.3,0.3-0.5,0.7-0.6,1.1c-0.1,0.2-0.1,0.4-0.1,0.6c-0.1,0.8,0.1,1.6,0.4,2.4
			c0.2,0.5,0.3,1,0.5,1.5c0.1,0.3,0.1,0.6,0.1,0.8C38.7,103.6,38.4,104.2,37.7,104.6z"/>
		<path class="st5" d="M89.6,111.7c-0.2-0.2-0.3-0.3-0.5-0.4c-0.3-0.2-0.7-0.3-1-0.4c-0.5-0.1-1-0.2-1.5-0.4
			c-0.5-0.1-0.9-0.3-1.3-0.7c-0.2-0.2-0.4-0.4-0.6-0.7c0.1,0,0.1,0,0.2,0c0.5,0.1,0.9,0,1.3-0.2c1.7-0.7,2.8-2.5,2.7-4.4
			c0-0.2-0.1-0.3-0.2-0.4c-0.3-0.2-0.7-0.4-1-0.6c-0.1-0.1-0.2-0.1-0.3-0.2c-0.2-0.2-0.2-0.3-0.1-0.6c0.1-0.1,0.1-0.3,0.1-0.4
			c0-0.5,0.1-0.9,0.1-1.4c0.1-0.4,0.2-0.8,0.1-1.3c-0.1-0.5-0.4-1-0.7-1.4c-0.4-0.5-0.8-1.1-1-1.7c-0.1,0.1-0.1,0.2-0.2,0.3
			c-0.1,0.1-0.1,0.2-0.2,0.2c-0.2,0.1-0.3,0-0.3-0.2c0-0.2,0.1-0.3,0.2-0.4c0.2-0.4,0.3-0.8,0.4-1.2c0-0.4,0.1-0.8,0.1-1.2
			c0.1-0.8,0-1.5-0.2-2.2c-0.2-0.7-0.6-1.4-1.2-1.9c-0.3-0.2-0.5-0.4-0.8-0.6c-0.9-0.7-1.5-1.6-1.8-2.8c-0.3-1.1-0.7-2.2-1.2-3.3
			c-0.5-1.2-1.5-1.8-2.8-1.9c-0.6-0.1-1.2-0.1-1.8-0.2c-0.1,0-0.3,0-0.5-0.1c0.1,0.1,0.1,0.2,0.2,0.3c0.2,0.3,0.4,0.5,0.8,0.5
			c0.6,0.1,1.2,0.2,1.7,0.6c0.4,0.3,0.8,0.6,1,1.1c0,0.1,0.1,0.1,0.1,0.2c0,0.1,0,0.1-0.1,0.2c0,0-0.1,0-0.2,0
			c-0.1-0.1-0.1-0.2-0.2-0.3c-0.1-0.2-0.3-0.4-0.4-0.6c-0.5-0.4-1-0.6-1.6-0.7c-0.2,0-0.3-0.1-0.5-0.1c0,0.1,0,0.2,0.1,0.3
			c0.3,0.6,0.6,1.3,0.9,1.9c0.2,0.5,0.6,0.9,1,1.3c1.1,0.9,2,2,2.7,3.1c0.2,0.3,0.3,0.6,0.3,0.9c0,0.2,0,0.4,0.1,0.6
			c0,1,0.1,1.9,0.1,2.9c0,0.4,0,0.8-0.1,1.3c-0.1,0.5-0.2,0.9-0.8,1c0,0.2,0,0.5,0,0.7c0,0.3-0.1,0.6-0.3,0.8
			c-0.2,0.2-0.4,0.5-0.6,0.7c-0.2,0.2-0.4,0.3-0.6,0.5c-0.2,0.2-0.2,0.3-0.1,0.4c0.2,0.3,0.3,0.8,0.7,1c0,0,0,0,0.1,0.1
			c0.3,0.3,0.7,0.6,1,1c0.3,0.3,0.7,0.7,0.9,1.1c0.1,0.2,0.2,0.5,0.1,0.7c-0.1,0.9-0.9,1.9-1.8,2c-0.1,0-0.3,0.1-0.4,0.2
			c-0.4,0.2-0.8,0.5-1.1,0.8c-0.3,0.2-0.5,0.4-0.6,0.7c-0.1,0.4-0.2,0.9-0.1,1.3c0.1,0.5,0.5,1,0.8,1.4c0.4,0.6,1,1,1.6,1.2
			c0.4,0.1,0.7,0.2,1.1,0.2c0,0,0.1,0,0.1,0.1c-0.2,0.2-0.3,0.3-0.4,0.4c-0.7,0.5-1.5,1-2.2,1.5c-0.8,0.5-1.5,1-2.3,1.5
			c-0.4,0.3-0.7,0.6-1,1c-0.2,0.4-0.3,0.7-0.1,1.1c0.1,0.2,0.1,0.3,0.2,0.5c0.3,0.6,0.7,0.9,1.3,0.9c0.2,0,0.3,0,0.5,0
			c0-0.2-0.1-0.3-0.1-0.4c0-0.2-0.1-0.5-0.1-0.7c0-0.3,0.2-0.6,0.3-0.9c0.1-0.3,0.3-0.5,0.5-0.6c0.2-0.1,0.3-0.2,0.5-0.2
			c0.1,0.7,1,1.5,1.7,1.5c0-0.1-0.1-0.2-0.1-0.2c-0.1-0.3-0.2-0.6-0.3-0.8c-0.1-0.2-0.1-0.5,0-0.8c0.1-0.5,0.4-0.8,0.9-1.1
			c0.1,0,0.2-0.1,0.3,0c0.1,0.1,0,0.2-0.1,0.2c-0.1,0.1-0.2,0.1-0.3,0.2c-0.3,0.2-0.5,0.6-0.4,1c0.1,0.5,0.3,1,0.5,1.4
			c0.1,0.2,0.2,0.3,0.4,0.3c0.4,0,0.8,0,1.2,0c0.6-0.1,1.1-0.5,1.5-0.9c0.3-0.4,0.5-0.7,0.8-1.1c0.4-0.4,0.8-0.8,1.3-1
			c0.1,0,0.2-0.1,0.3-0.1c0,0,0,0,0,0.1c-0.1,0.1-0.1,0.2-0.2,0.3c-0.2,0.3-0.3,0.6-0.3,0.9c0,0.4,0.1,0.7,0.4,0.9
			c0.5,0.4,1.1,0.5,1.8,0.5c0.3,0,0.6-0.1,0.8-0.4c0.8-0.9,1.2-1.8,1.2-3C89.8,112.1,89.7,111.9,89.6,111.7z M83.6,112.5
			c0,0-0.1,0.1-0.1,0.1c0,0-0.1-0.1-0.1-0.1c0-0.1,0-0.2,0-0.2c0-0.7-0.3-1.3-0.8-1.7c-0.4-0.4-0.9-0.7-1.3-1.1
			c-0.5-0.4-1-0.8-1.3-1.4c-0.3-0.5-0.5-1-0.4-1.5c0-0.2,0.1-0.3,0.3-0.4c0.1,0,0.2,0,0.2,0c0,0,0,0.1,0,0.2c-0.2,0.4-0.2,0.8,0,1.2
			c0.1,0.2,0.3,0.4,0.4,0.6c0.5,0.6,1.2,1.1,1.8,1.7c0.3,0.2,0.5,0.4,0.7,0.7c0.4,0.4,0.6,0.9,0.7,1.6
			C83.7,112.2,83.6,112.3,83.6,112.5z M84.2,104c-0.1,0.3-0.3,0.6-0.4,0.9c-0.1,0.1-0.1,0.2-0.3,0.2c-0.1,0-0.1-0.2,0-0.4
			c0,0,0-0.1,0.1-0.1c0.5-0.7,0.4-1.4,0.1-2.2c-0.1-0.1-0.2-0.3-0.3-0.4c-0.1-0.1-0.1-0.2,0.2-0.4c0.1,0.1,0.1,0.2,0.2,0.3
			c0.3,0.5,0.5,0.9,0.6,1.5C84.3,103.6,84.2,103.8,84.2,104z M84.3,98.8c-0.9-0.3-1.5-1-1.7-1.9c-0.1-0.4,0-0.8,0-1.2
			c0-0.5,0.1-1.1,0.1-1.6c0-0.4-0.2-0.8-0.4-1.1c-0.1-0.1-0.2-0.2-0.3-0.4c-0.1-0.1-0.1-0.2-0.2-0.3c0,0,0-0.1,0-0.2
			c0,0,0.1,0,0.2,0c0.1,0,0.1,0.1,0.2,0.1c0.5,0.5,0.9,1,0.9,1.8c0,0.1,0,0.3,0,0.4c0,0,0,0,0,0c0,0.5-0.1,1.1-0.1,1.6
			c0,0.2,0,0.3,0,0.5c0,0.3,0.1,0.5,0.3,0.8c0.3,0.4,0.6,0.8,1.1,1c0.4,0.2,0.8,0.4,1.2,0.6c0.7,0.4,1.1,1,1.2,1.8
			c0.1,0.3,0,0.6-0.1,0.9c0,0,0,0.1,0,0.1c-0.1,0-0.1,0.1-0.2,0.1c-0.1,0-0.1-0.1-0.1-0.2c0-0.2,0-0.5,0-0.7c0-0.7-0.3-1.3-0.8-1.7
			C85.1,99.2,84.7,99,84.3,98.8z"/>
		<path d="M38.1,100.4c-0.3-0.8-0.4-1.6-0.4-2.4c0-0.2,0.1-0.4,0.1-0.6c0.1-0.4,0.3-0.8,0.6-1.1c0.1-0.1,0.1-0.2,0.2-0.3
			c0-0.1,0-0.2-0.1-0.2c0,0-0.1,0-0.2,0c-0.1,0-0.1,0.1-0.2,0.2c-0.8,1-1.1,2.1-0.8,3.3c0.2,0.7,0.4,1.5,0.6,2.2
			c0.2,0.5,0.3,1,0.2,1.5c0,0.6-0.3,1.1-0.9,1.4c-0.1,0-0.1,0.1-0.2,0.1c-0.1,0.1-0.2,0.1-0.1,0.3c0,0.1,0.2,0.1,0.2,0.1
			c0.1-0.1,0.3-0.1,0.4-0.2c0.7-0.4,0.9-1.1,0.9-1.9c0-0.2-0.1-0.5-0.1-0.8C38.4,101.4,38.3,100.9,38.1,100.4z"/>
		<path d="M86.3,101.2c0,0.2,0,0.5,0,0.7c0,0.1,0,0.2,0.1,0.2c0.1,0,0.1-0.1,0.2-0.1c0,0,0-0.1,0-0.1c0.1-0.3,0.1-0.6,0.1-0.9
			c-0.1-0.8-0.5-1.4-1.2-1.8c-0.4-0.2-0.8-0.4-1.2-0.6c-0.5-0.2-0.8-0.6-1.1-1C83.1,97.2,83,97,83,96.7c0-0.2,0-0.3,0-0.5
			c0-0.5,0.1-1.1,0.1-1.6c0,0,0,0,0,0c0-0.1,0-0.3,0-0.4c0-0.7-0.4-1.3-0.9-1.8c-0.1,0-0.1-0.1-0.2-0.1c0,0-0.1,0-0.2,0
			c0,0,0,0.1,0,0.2c0,0.1,0.1,0.2,0.2,0.3c0.1,0.1,0.2,0.2,0.3,0.4c0.3,0.3,0.4,0.7,0.4,1.1c0,0.5,0,1.1-0.1,1.6
			c0,0.4-0.1,0.8,0,1.2c0.2,0.9,0.8,1.5,1.7,1.9c0.4,0.2,0.8,0.4,1.2,0.7C86.1,99.9,86.3,100.5,86.3,101.2z"/>
		<path d="M82.3,109.8c-0.6-0.5-1.3-1-1.8-1.7c-0.2-0.2-0.3-0.4-0.4-0.6c-0.2-0.4-0.2-0.8,0-1.2c0-0.1,0-0.2,0-0.2
			c0,0-0.1-0.1-0.2,0c-0.2,0-0.3,0.2-0.3,0.4c-0.2,0.6,0,1.1,0.4,1.5c0.4,0.5,0.8,0.9,1.3,1.4c0.4,0.4,0.9,0.7,1.3,1.1
			c0.5,0.4,0.8,1,0.8,1.7c0,0.1,0,0.2,0,0.2c0,0,0.1,0.1,0.1,0.1c0,0,0.1-0.1,0.1-0.1c0-0.1,0.1-0.3,0.1-0.4c0-0.6-0.2-1.1-0.7-1.6
			C82.8,110.2,82.5,110,82.3,109.8z"/>
		<path d="M83.7,101.9c-0.1-0.1-0.1-0.2-0.2-0.3c-0.2,0.1-0.2,0.2-0.2,0.4c0.1,0.1,0.2,0.3,0.3,0.4c0.4,0.7,0.4,1.5-0.1,2.2
			c0,0-0.1,0.1-0.1,0.1c-0.1,0.2-0.1,0.3,0,0.4c0.1,0,0.2-0.1,0.3-0.2c0.2-0.3,0.3-0.6,0.4-0.9c0.1-0.2,0.1-0.4,0.1-0.6
			C84.2,102.8,84,102.4,83.7,101.9z"/>
	</g>
	<g>
		<g>
			<path d="M47.9,94.4c-0.1,0-0.2,0-0.2,0c-0.4,0-0.8-0.2-1.1-0.5c-0.2-0.2-0.4-0.5-0.5-0.8c-0.1-0.2-0.2-0.4-0.2-0.6
				c0,0,0-0.1-0.1-0.1c0,0-0.1,0-0.1,0.1c-0.1,0.2-1.3,1.8-1.4,1.9c-0.1,0.1-0.2,0.3-0.4,0.4c-0.2,0.2-0.4,0.5-0.5,0.7
				c0,0.1-0.1,0.1-0.2,0.1c-0.1,0-0.2,0-0.2,0.1c-0.1,0.1-0.2,0.1-0.4,0c0,0-0.1,0-0.1,0c-0.1,0-0.1-0.1-0.2-0.2
				c-0.1-0.2-0.1-0.4-0.1-0.5c-0.1-0.4-0.1-0.8-0.1-1.2c0-0.8,0-1.6,0-2.4c0-0.2,0-0.5,0.1-0.7c0-0.1,0-0.3,0-0.4
				c0-0.3,0.1-0.7,0.4-0.9c0,0,0.1-0.1,0.1-0.1c0.2-0.2,0.4-0.4,0.6-0.7c0,0,0.1-0.1,0.1-0.1c0.1-0.2,0.3-0.4,0.5-0.6
				c0.2-0.2,0.4-0.4,0.6-0.6c0,0,0,0,0-0.1c0.1-0.3,0.4-0.6,0.6-0.8c0.2-0.3,0.5-0.6,0.7-0.9c0.4-0.5,0.7-1.1,0.9-1.7
				c0.1-0.1,0.1-0.3,0.2-0.5c0,0,0-0.1,0-0.1c0.2-0.3,0.3-0.6,0.5-0.9c0.1-0.2,0.2-0.4,0.3-0.6c0.2-0.4,0.6-0.7,0.9-1.1
				c0.1-0.1,0.1-0.2,0.2-0.2c0.2-0.1,0.4-0.3,0.6-0.4c0.3-0.2,0.7-0.3,1-0.5c0.1-0.1,0.3-0.1,0.4-0.2c0.1-0.1,0.3-0.1,0.4-0.2
				c0.1,0,0.2-0.1,0.4-0.1c0.3-0.1,0.6-0.2,0.9-0.3c0.3-0.1,0.5-0.2,0.8-0.2c0.2-0.1,0.5-0.1,0.7-0.2c0.2-0.1,0.5-0.1,0.7-0.2
				c0.3-0.1,0.5-0.1,0.8-0.2c0.3-0.1,0.7-0.1,1-0.2c0.1,0,0.2,0,0.3-0.1c0.2,0,0.5-0.1,0.7-0.1c0.3,0,0.6-0.1,0.9-0.1
				c0.2,0,0.4,0,0.7-0.1c0.3,0,0.7,0,1,0c0.9,0,1.8,0,2.7,0c0.4,0,0.8,0,1.2,0.1c0.4,0,0.8,0.1,1.1,0.1c0.3,0,0.6,0.1,0.9,0.1
				c0.4,0.1,0.8,0.1,1.1,0.2c0.3,0,0.6,0.1,0.9,0.1c0.3,0.1,0.7,0.1,1,0.2c0.3,0.1,0.5,0.1,0.8,0.2c0.2,0,0.4,0.1,0.6,0.1
				c0.2,0.1,0.4,0.1,0.6,0.2c0.2,0.1,0.4,0.1,0.6,0.1c0.2,0,0.3,0.1,0.5,0.1c0.3,0.1,0.6,0.2,0.9,0.3c0.3,0.1,0.7,0.2,1,0.4
				c0.1,0.1,0.2,0.1,0.3,0.1c0.1,0.1,0.3,0.1,0.4,0.2c0,0,0,0,0.1,0.1c0.2,0.1,0.4,0.4,0.6,0.6c0,0.1,0.1,0.1,0.1,0.2
				c0.1,0.1,0.2,0.3,0.3,0.4c0.1,0.2,0.3,0.3,0.3,0.6c0,0,0,0.1,0.1,0.1c0.2,0.2,0.3,0.5,0.4,0.7c0.1,0.3,0.3,0.7,0.4,1
				c0.2,0.3,0.3,0.6,0.5,0.9c0.2,0.3,0.4,0.6,0.7,0.9c0.4,0.4,0.8,0.8,1.2,1.2c0.2,0.1,0.3,0.3,0.4,0.5c0.2,0.2,0.4,0.5,0.5,0.7
				c0.1,0.1,0.1,0.2,0.2,0.3c0.1,0.2,0.2,0.5,0.4,0.7c0.2,0.2,0.3,0.4,0.4,0.6c0.1,0.2,0.1,0.3,0.1,0.5c0,0.2,0,0.3,0.1,0.5
				c0,0.3,0,0.5,0.1,0.8c0,0.6,0,1.2,0,1.8c0,0.5,0,1,0,1.5c0,0.2,0,0.3-0.1,0.5c-0.1,0.2-0.1,0.4-0.2,0.6c0,0.1-0.1,0.2-0.3,0.2
				c-0.1,0-0.3,0-0.4-0.1c0,0-0.1,0-0.1-0.1c-0.2-0.3-0.5-0.6-0.7-0.8c0,0,0-0.1-0.1-0.1c-0.1-0.2-0.2-0.3-0.2-0.5
				c0-0.1-0.1-0.1-0.1-0.2c0,0,0-0.1-0.1-0.1c-0.2-0.3-0.3-0.5-0.6-0.8c-0.1-0.1-0.3-0.3-0.4-0.4c-0.1-0.1-0.2-0.2-0.3-0.2
				c-0.1-0.1-0.2,0-0.2,0.1c-0.1,0.2-0.2,0.4-0.2,0.7c-0.1,0.1-0.1,0.3-0.2,0.4c-0.1,0.3-0.3,0.5-0.6,0.7c-0.7,0.5-1.4,0.3-2.1-0.1
				c-0.1-0.1-0.3-0.1-0.4-0.2c-0.1-0.1-0.1-0.1-0.2-0.2c-0.2-0.1-1.5-1.3-1.9-1.6c-0.3-0.3-0.6-0.5-1-0.7c-0.5-0.3-1-0.6-1.6-0.8
				c-0.2-0.1-0.5-0.2-0.7-0.3c-0.2-0.1-0.3-0.1-0.5-0.2c-0.2-0.1-0.4-0.1-0.5-0.1c0,0,0,0-0.1,0c-0.2-0.1-0.5-0.1-0.7-0.2
				c-0.1,0-0.1,0-0.2,0c-0.4-0.1-0.7-0.1-1.1-0.2c-0.1,0-0.2,0-0.3,0c-0.2,0-0.3,0-0.5-0.1c-0.2,0-0.4,0-0.6,0c-0.5,0-0.9,0-1.4-0.1
				c-0.8,0-1.7,0-2.5,0c-0.4,0-0.7,0-1.1,0.1c-0.2,0-0.5,0-0.7,0c-0.2,0-0.4,0-0.7,0.1c-0.1,0-0.3,0-0.4,0c-0.3,0-0.6,0.1-0.9,0.1
				c-0.3,0.1-0.6,0.1-0.8,0.2c-0.3,0.1-0.5,0.1-0.8,0.2c-0.2,0.1-0.4,0.1-0.5,0.1c-0.2,0-0.3,0.1-0.5,0.2c-0.2,0.1-0.3,0.1-0.5,0.2
				c-0.1,0-0.2,0.1-0.3,0.1c-0.3,0.1-0.5,0.3-0.8,0.4c-0.5,0.2-1,0.5-1.4,0.9c-0.3,0.2-0.7,0.5-0.9,0.8c-0.2,0.3-0.5,0.5-0.8,0.7
				c-0.3,0.2-0.6,0.5-0.9,0.7c-0.2,0.1-0.4,0.1-0.6,0.2C48.2,94.4,48,94.4,47.9,94.4z M80.8,94.2C80.8,94.2,80.8,94.1,80.8,94.2
				c0-0.2,0.1-0.3,0.1-0.5c0-0.2,0-0.4,0-0.5c0-0.9,0-1.7,0-2.6c0-0.1,0-0.3,0-0.4c0-0.2,0-0.3-0.1-0.5c0-0.1,0-0.1-0.1-0.1
				c-0.1-0.2-0.2-0.4-0.4-0.5c-0.2-0.2-0.3-0.5-0.5-0.7c-0.2-0.2-0.4-0.5-0.6-0.7c-0.2-0.3-0.5-0.6-0.8-0.8
				c-0.4-0.3-0.8-0.7-1.1-1.1c-0.1-0.1-0.2-0.2-0.2-0.3c-0.1-0.2-0.2-0.4-0.4-0.6c-0.1-0.2-0.2-0.4-0.3-0.5
				c-0.1-0.2-0.2-0.4-0.3-0.6c0-0.1-0.1-0.2-0.1-0.3c-0.1-0.1-0.1-0.3-0.2-0.4c0-0.1-0.1-0.3-0.1-0.4c-0.1-0.2-0.2-0.5-0.4-0.7
				c-0.3-0.4-0.6-0.7-1-0.9c-0.1-0.1-0.3-0.2-0.4-0.3c-0.2-0.1-0.3-0.2-0.5-0.3c-0.2-0.1-0.4-0.2-0.6-0.3c-0.2-0.1-0.3-0.1-0.5-0.2
				c-0.1,0-0.2-0.1-0.4-0.1c-0.1-0.1-0.3-0.1-0.4-0.2c-0.2-0.1-0.3-0.1-0.5-0.1c-0.1,0-0.2-0.1-0.4-0.1c-0.2-0.1-0.3-0.1-0.5-0.2
				c-0.2-0.1-0.4-0.1-0.6-0.1c0,0-0.1,0-0.1,0c-0.1,0-0.2,0-0.3-0.1c-0.1,0-0.1,0-0.2,0c-0.3-0.1-0.6-0.1-0.9-0.2
				c-0.1,0-0.2,0-0.3,0c-0.3-0.1-0.6-0.1-0.9-0.2c-0.3,0-0.5-0.1-0.8-0.1c-0.3,0-0.7-0.1-1-0.1c-0.1,0-0.3,0-0.4,0
				c-0.5-0.1-0.9-0.1-1.4-0.1c-0.1,0-0.1,0-0.2,0c-0.5,0-0.9,0-1.4-0.1c-0.4,0-0.9,0-1.3,0c-0.6,0-1.3,0-1.9,0.1c-0.2,0-0.4,0-0.6,0
				c-0.3,0-0.6,0.1-0.8,0.1c0,0-0.1,0-0.1,0c-0.2,0-0.4,0.1-0.6,0.1c-0.1,0-0.2,0-0.3,0.1c-0.1,0-0.1,0-0.2,0
				c-0.3,0-0.6,0.1-0.8,0.1c0,0-0.1,0-0.1,0c-0.1,0-0.1,0-0.2,0c-0.2,0-0.4,0.1-0.6,0.1c0,0,0,0-0.1,0c-0.2,0.1-0.4,0.1-0.5,0.2
				c-0.2,0-0.3,0.1-0.5,0.1c-0.2,0.1-0.3,0.1-0.5,0.2c-0.1,0-0.3,0.1-0.4,0.1c-0.2,0-0.3,0.1-0.5,0.2c-0.1,0.1-0.3,0.1-0.4,0.2
				c-0.1,0-0.3,0.1-0.4,0.1c-0.2,0.1-0.5,0.2-0.7,0.3c-0.1,0-0.2,0.1-0.3,0.1c-0.2,0.1-0.3,0.2-0.5,0.3c-0.2,0.1-0.5,0.3-0.7,0.5
				c-0.3,0.3-0.6,0.6-0.8,1.1c-0.1,0.2-0.2,0.4-0.3,0.6c-0.1,0.2-0.2,0.4-0.3,0.6c0,0.1-0.1,0.2-0.2,0.3c0,0.1-0.1,0.2-0.1,0.3
				c-0.1,0.2-0.2,0.4-0.3,0.5c-0.1,0.2-0.2,0.3-0.3,0.5c-0.1,0.2-0.3,0.4-0.4,0.6c-0.2,0.3-0.4,0.5-0.6,0.7c-0.3,0.3-0.5,0.7-0.8,1
				c-0.3,0.3-0.5,0.6-0.8,0.9c-0.4,0.4-0.7,0.9-1.1,1.3C43.1,90,43,90.1,43,90.3c0,0.1,0,0.2,0,0.3c0,0.2,0,0.4,0,0.6
				c0,0.1,0,0.3,0,0.4c0,0.4,0,0.7,0,1.1c0,0.3,0,0.7,0,1c0,0.2,0,0.4,0,0.7c0,0.1,0,0.1,0,0.2c0.1-0.1,0.2-0.2,0.2-0.3
				c0.1-0.2,0.2-0.4,0.4-0.6c0-0.1,0.1-0.1,0.1-0.2c0.1-0.2,0.2-0.3,0.4-0.5c0.1-0.2,0.3-0.4,0.4-0.6c0.1-0.1,0.2-0.2,0.2-0.3
				c0.2-0.2,0.4-0.5,0.5-0.7c0.1-0.2,0.2-0.3,0.4-0.5c0.1-0.1,0.2-0.2,0.3-0.2c0.1,0,0.2-0.1,0.2-0.1c0.2-0.2,0.4-0.5,0.6-0.7
				c0.3-0.3,0.6-0.6,1-0.9c0.2-0.2,0.4-0.3,0.6-0.5c0.2-0.1,0.4-0.3,0.5-0.4c0.2-0.1,0.3-0.2,0.5-0.3c0.1-0.1,0.3-0.2,0.4-0.3
				c0.1-0.1,0.3-0.1,0.4-0.2c0.1-0.1,0.2-0.1,0.3-0.2c0.1-0.1,0.2-0.1,0.3-0.1c0.1-0.1,0.3-0.2,0.4-0.2c0,0,0,0,0,0
				c0.1-0.1,0.2-0.1,0.3-0.2c0.1-0.1,0.3-0.1,0.4-0.1c0,0,0,0,0,0c0.1,0,0.1-0.1,0.2-0.1c0,0,0.1,0,0.1,0c0.1,0,0.1,0,0.2-0.1
				c0,0,0.1,0,0.1,0c0.1,0,0.1-0.1,0.2-0.1c0,0,0.1,0,0.1,0c0.1,0,0.2-0.1,0.2-0.1c0,0,0.1,0,0.1,0c0.1,0,0.2-0.1,0.2-0.1
				c0,0,0.1,0,0.1,0c0.2-0.1,0.3-0.1,0.5-0.2c0.2,0,0.3-0.1,0.5-0.1c0.1,0,0.3,0,0.4-0.1c0.1,0,0.1,0,0.2,0c0,0,0.1,0,0.1,0
				c0.1-0.1,0.2-0.1,0.3-0.1c0.1,0,0.3,0,0.4-0.1c0,0,0.1,0,0.1,0c0.1,0,0.3,0,0.4,0c0.2-0.1,0.4-0.1,0.6-0.1c0.1,0,0.2,0,0.2,0
				c0.2-0.1,0.5-0.1,0.7-0.1c0.2,0,0.3,0,0.5,0c0.3-0.1,0.6-0.1,0.8-0.1c1.7,0,3.3,0,5,0c0.2,0,0.4,0,0.6,0c0.3,0,0.5,0.1,0.8,0.1
				c0.2,0,0.3,0,0.5,0.1c0.1,0,0.3,0,0.4,0.1c0.1,0,0.3,0,0.4,0.1c0.1,0,0.2,0,0.3,0c0.1,0,0.2,0,0.4,0.1c0.1,0,0.2,0,0.3,0.1
				c0.1,0,0.2,0,0.3,0.1c0.1,0,0.1,0,0.2,0c0.1,0,0.2,0,0.3,0.1c0.1,0,0.1,0,0.2,0.1c0.1,0,0.2,0,0.3,0.1c0.1,0,0.1,0,0.2,0.1
				c0.2,0,0.4,0.1,0.5,0.2c0.1,0,0.2,0.1,0.3,0.1c0.1,0,0.3,0.1,0.4,0.1c0,0,0,0,0,0c0.2,0.1,0.3,0.1,0.5,0.2c0.1,0,0.3,0.1,0.4,0.1
				c0,0,0,0,0,0c0.1,0.1,0.3,0.1,0.4,0.2c0.1,0.1,0.3,0.1,0.4,0.2c0.1,0.1,0.2,0.1,0.4,0.2c0.1,0,0.2,0.1,0.3,0.1
				c0.2,0.1,0.4,0.2,0.5,0.3c0.1,0.1,0.3,0.2,0.4,0.2c0.1,0.1,0.3,0.2,0.4,0.3c0.2,0.1,0.4,0.3,0.6,0.4c0.2,0.2,0.4,0.3,0.6,0.5
				c0.1,0.1,0.3,0.2,0.4,0.3c0.1,0.1,0.3,0.2,0.4,0.3c0.1,0.1,0.2,0.2,0.4,0.3c0.2,0.2,0.3,0.3,0.5,0.5c0.1,0.1,0.2,0.2,0.3,0.3
				c0.1,0.1,0.2,0.2,0.3,0.2c0.1,0,0.1,0,0.2,0.1c0.1,0.1,0.1,0.2,0.2,0.2c0.2,0.3,0.5,0.6,0.7,0.8c0.2,0.2,0.3,0.4,0.5,0.6
				c0.2,0.2,0.3,0.4,0.5,0.6c0.1,0.2,0.3,0.3,0.4,0.5C80.5,93.8,80.7,94,80.8,94.2z M61.8,85.4c-0.7,0-1.6,0-2.4,0.1
				c-0.3,0-0.6,0-1,0c-0.1,0-0.3,0-0.4,0c-0.2,0.1-0.4,0.1-0.6,0.1c-0.1,0-0.2,0-0.3,0c-0.2,0-0.3,0.1-0.5,0.1c-0.1,0-0.2,0-0.3,0
				c-0.1,0-0.2,0-0.3,0.1c-0.1,0-0.2,0-0.3,0c-0.1,0-0.2,0.1-0.3,0.1c-0.2,0-0.4,0.1-0.7,0.1c-0.2,0-0.4,0.1-0.6,0.2
				c-0.1,0-0.2,0.1-0.4,0.1c-0.2,0-0.3,0.1-0.5,0.1c-0.1,0-0.3,0.1-0.4,0.1c0,0,0,0,0,0c-0.1,0.1-0.3,0.1-0.4,0.2
				c-0.1,0-0.3,0.1-0.4,0.1c-0.1,0.1-0.3,0.1-0.4,0.2c-0.1,0-0.1,0.1-0.2,0.1c-0.2,0.1-0.4,0.2-0.6,0.3c-0.1,0-0.2,0.1-0.2,0.1
				c-0.2,0.1-0.3,0.2-0.5,0.3c-0.2,0.1-0.3,0.2-0.5,0.3c-0.3,0.2-0.5,0.3-0.8,0.5c-0.2,0.2-0.5,0.3-0.7,0.5
				c-0.2,0.2-0.4,0.3-0.6,0.5c-0.2,0.2-0.4,0.5-0.7,0.6c-0.1,0.1-0.2,0.2-0.3,0.3c-0.1,0.1-0.1,0.2-0.2,0.2
				c-0.1,0.1-0.1,0.2-0.1,0.3c0,0.2,0,0.4,0.1,0.5c0.1,0.1,0.1,0.3,0.1,0.5c0.1,0.2,0.1,0.4,0.2,0.6c0.1,0.1,0.1,0.3,0.3,0.4
				c0.1,0.2,0.3,0.3,0.6,0.3c0.1,0,0.2,0,0.3,0c0.1,0,0.3-0.1,0.4-0.2c0.2-0.1,0.3-0.2,0.5-0.3c0.2-0.2,0.4-0.3,0.6-0.5
				c0.2-0.2,0.4-0.4,0.6-0.6c0.2-0.2,0.5-0.4,0.7-0.6c0.2-0.1,0.3-0.2,0.5-0.4c0.1-0.1,0.3-0.2,0.4-0.3c0.1-0.1,0.3-0.2,0.4-0.2
				c0.1-0.1,0.2-0.1,0.3-0.2c0.2-0.1,0.4-0.2,0.6-0.3c0.1,0,0.2-0.1,0.3-0.2c0,0,0.1,0,0.1-0.1c0,0,0.1,0,0.1,0c0,0,0.1,0,0.1-0.1
				c0.1,0,0.3-0.1,0.4-0.1c0,0,0,0,0,0c0.1,0,0.1,0,0.2-0.1c0,0,0.1,0,0.1,0c0.1,0,0.1,0,0.2-0.1c0.2,0,0.3-0.1,0.5-0.1c0,0,0,0,0,0
				c0.1,0,0.1,0,0.2-0.1c0.1,0,0.1,0,0.2-0.1c0,0,0.1,0,0.1,0c0.2,0,0.3-0.1,0.5-0.1c0.2,0,0.4-0.1,0.5-0.1c0,0,0,0,0,0
				c0.2,0,0.4,0,0.6-0.1c0.2,0,0.4,0,0.6-0.1c0.3-0.1,0.6-0.1,0.8-0.1c0.1,0,0.3,0,0.4,0c0.2,0,0.5-0.1,0.7-0.1c1.3,0,2.6,0,3.8,0
				c0.2,0,0.3,0,0.5,0c0.3,0.1,0.6,0.1,0.9,0.1c0.1,0,0.2,0,0.4,0c0.2,0,0.3,0,0.5,0.1c0.1,0,0.3,0,0.4,0.1c0.1,0,0.2,0,0.3,0
				c0.1,0,0.3,0,0.4,0.1c0,0,0.1,0,0.2,0c0.2,0,0.5,0.1,0.7,0.1c0,0,0,0,0.1,0c0.2,0.1,0.3,0.1,0.5,0.2c0,0,0,0,0.1,0
				c0.2,0,0.3,0.1,0.5,0.1c0,0,0,0,0,0c0,0,0.1,0,0.1,0c0,0,0.1,0,0.1,0c0.2,0.1,0.4,0.1,0.5,0.2c0.1,0,0.2,0.1,0.3,0.1
				c0.1,0.1,0.2,0.1,0.3,0.2c0.2,0.1,0.3,0.1,0.5,0.2c0.2,0.1,0.4,0.2,0.6,0.3c0.1,0,0.1,0.1,0.2,0.1c0.1,0.1,0.3,0.2,0.4,0.3
				c0.2,0.2,0.4,0.3,0.6,0.5c0.2,0.2,0.5,0.4,0.7,0.6c0.2,0.2,0.4,0.4,0.6,0.6c0.3,0.3,0.6,0.5,0.9,0.7c0.1,0.1,0.2,0.2,0.3,0.2
				c0,0,0.1,0,0.1,0c0,0,0.1,0,0.1,0c0.1,0,0.3,0,0.4,0c0,0,0.1,0,0.1,0c0.1-0.1,0.2-0.2,0.3-0.3c0.2-0.2,0.3-0.5,0.4-0.7
				c0,0,0,0,0-0.1c0.1-0.1,0.1-0.2,0.1-0.3c0,0,0-0.1,0-0.1c0.1-0.1,0.1-0.2,0.1-0.3c0-0.1,0-0.1,0-0.2c0-0.1,0-0.2,0.1-0.4
				c0,0,0-0.1,0-0.1c-0.1-0.2-0.3-0.3-0.4-0.5c0,0,0,0-0.1-0.1c-0.1-0.1-0.2-0.3-0.4-0.4c0,0,0,0,0,0c-0.2-0.2-0.4-0.3-0.6-0.5
				c-0.2-0.2-0.4-0.3-0.6-0.5c-0.2-0.2-0.4-0.3-0.7-0.5c-0.2-0.2-0.5-0.3-0.8-0.5c-0.2-0.1-0.4-0.2-0.6-0.4c-0.1,0-0.2-0.1-0.2-0.1
				c-0.1-0.1-0.2-0.1-0.3-0.2c-0.1-0.1-0.3-0.1-0.4-0.2c-0.1,0-0.2-0.1-0.3-0.1c-0.1-0.1-0.3-0.1-0.4-0.1c-0.1-0.1-0.3-0.1-0.4-0.2
				c-0.1-0.1-0.3-0.1-0.4-0.1c0,0,0,0,0,0c-0.1,0-0.1,0-0.2-0.1c0,0-0.1,0-0.1,0c-0.1-0.1-0.2-0.1-0.3-0.1c0,0-0.1,0-0.1,0
				c-0.1,0-0.2-0.1-0.2-0.1c0,0-0.1,0-0.1,0c-0.1-0.1-0.2-0.1-0.3-0.1c-0.1,0-0.1,0-0.2,0c-0.1,0-0.2,0-0.3-0.1
				c-0.2,0-0.5-0.1-0.7-0.1c0,0,0,0,0,0c-0.1-0.1-0.2-0.1-0.4-0.1c-0.1,0-0.2,0-0.3,0c-0.1,0-0.1,0-0.2,0c-0.2,0-0.4,0-0.5-0.1
				c-0.2,0-0.3-0.1-0.5-0.1c-0.2,0-0.3,0-0.5-0.1c0,0-0.1,0-0.1,0c-0.2,0-0.5,0-0.7,0c-0.1,0-0.1,0-0.2,0c-0.2,0-0.5-0.1-0.7-0.1
				c-0.4,0-0.7,0-1.1,0C62.6,85.4,62.3,85.4,61.8,85.4z"/>
		</g>
		<path class="st9" d="M80.8,94.2c-0.1-0.2-0.3-0.4-0.4-0.6c-0.1-0.2-0.3-0.3-0.4-0.5c-0.2-0.2-0.3-0.4-0.5-0.6
			c-0.2-0.2-0.3-0.4-0.5-0.6c-0.2-0.3-0.5-0.6-0.7-0.8c-0.1-0.1-0.1-0.2-0.2-0.2c0-0.1-0.1-0.1-0.2-0.1c-0.2,0-0.3-0.1-0.3-0.2
			c-0.1-0.1-0.2-0.2-0.3-0.3c-0.2-0.2-0.3-0.3-0.5-0.5c-0.1-0.1-0.2-0.2-0.4-0.3c-0.1-0.1-0.3-0.2-0.4-0.3c-0.1-0.1-0.3-0.2-0.4-0.3
			c-0.2-0.2-0.4-0.3-0.6-0.5c-0.2-0.1-0.4-0.3-0.6-0.4c-0.1-0.1-0.3-0.2-0.4-0.3c-0.1-0.1-0.3-0.2-0.4-0.2c-0.2-0.1-0.4-0.2-0.5-0.3
			c-0.1-0.1-0.2-0.1-0.3-0.1c-0.1-0.1-0.2-0.1-0.4-0.2c-0.1-0.1-0.3-0.1-0.4-0.2c-0.1-0.1-0.3-0.1-0.4-0.2c0,0,0,0,0,0
			c-0.1,0-0.3-0.1-0.4-0.1c-0.2-0.1-0.3-0.1-0.5-0.2c0,0,0,0,0,0c-0.1,0-0.3-0.1-0.4-0.1c-0.1,0-0.2,0-0.3-0.1
			c-0.2-0.1-0.4-0.1-0.5-0.2c-0.1,0-0.1,0-0.2-0.1c-0.1,0-0.2,0-0.3-0.1c-0.1,0-0.1,0-0.2-0.1c-0.1,0-0.2,0-0.3-0.1
			c-0.1,0-0.1,0-0.2,0c-0.1,0-0.2,0-0.3-0.1c-0.1,0-0.2,0-0.3-0.1c-0.1,0-0.2,0-0.4-0.1c-0.1,0-0.2,0-0.3,0c-0.1,0-0.3,0-0.4-0.1
			c-0.1,0-0.3,0-0.4-0.1c-0.2,0-0.3,0-0.5-0.1c-0.3,0-0.5,0-0.8-0.1c-0.2,0-0.4,0-0.6,0c-0.7,0-1.3,0-2,0c-1.2,0-2.5,0-3.7,0
			c-0.1,0-1.5,0.2-1.8,0.2c-1.2,0.2-2.4,0.4-3.6,0.8c-0.7,0.2-1.4,0.5-2,0.8c0,0,0,0,0,0c-0.2,0-0.3,0.1-0.4,0.2
			c-0.1,0.1-0.2,0.1-0.3,0.1c-0.1,0.1-0.2,0.1-0.3,0.2c-0.1,0.1-0.3,0.1-0.4,0.2c-0.1,0.1-0.3,0.2-0.4,0.3c-0.2,0.1-0.3,0.2-0.5,0.3
			c-0.2,0.1-0.4,0.3-0.5,0.4c-0.2,0.2-0.4,0.3-0.6,0.5c-0.4,0.3-0.7,0.6-1,0.9c-0.2,0.2-0.4,0.4-0.6,0.7c-0.1,0.1-0.1,0.1-0.2,0.1
			c-0.1,0-0.2,0.1-0.3,0.2c-0.1,0.2-0.2,0.3-0.4,0.5c-0.2,0.2-0.4,0.5-0.5,0.7c-0.1,0.1-0.2,0.2-0.2,0.3c-0.1,0.2-0.3,0.4-0.4,0.6
			c-0.1,0.2-0.2,0.3-0.4,0.5c0,0.1-0.1,0.1-0.1,0.2c-0.1,0.2-0.2,0.4-0.4,0.6c-0.1,0.1-0.1,0.2-0.2,0.3c0-0.1,0-0.1,0-0.2
			c0-0.2,0-0.4,0-0.7c0-0.3,0-0.7,0-1c0-0.4,0-0.7,0-1.1c0-0.1,0-0.3,0-0.4c0-0.2,0-0.4,0-0.6c0-0.1,0-0.2,0-0.3
			c0-0.2,0.1-0.3,0.2-0.4c0.4-0.4,0.7-0.9,1.1-1.3c0.3-0.3,0.5-0.6,0.8-0.9c0.3-0.3,0.5-0.7,0.8-1c0.2-0.2,0.4-0.5,0.6-0.7
			c0.1-0.2,0.3-0.4,0.4-0.6c0.1-0.2,0.2-0.3,0.3-0.5c0.1-0.2,0.2-0.4,0.3-0.5c0-0.1,0.1-0.2,0.1-0.3c0.1-0.1,0.1-0.2,0.2-0.3
			c0.1-0.2,0.2-0.4,0.3-0.6c0.1-0.2,0.2-0.4,0.3-0.6c0.2-0.4,0.5-0.8,0.8-1.1c0.2-0.2,0.4-0.4,0.7-0.5c0.2-0.1,0.3-0.2,0.5-0.3
			c0.1,0,0.2-0.1,0.3-0.1c0.2-0.1,0.5-0.2,0.7-0.3c0.1-0.1,0.3-0.1,0.4-0.1c0.1-0.1,0.3-0.1,0.4-0.2c0.2-0.1,0.3-0.1,0.5-0.2
			c0.1,0,0.3-0.1,0.4-0.1c0.2-0.1,0.3-0.1,0.5-0.2c0.2-0.1,0.3-0.1,0.5-0.1c0.2-0.1,0.4-0.1,0.5-0.2c0,0,0,0,0.1,0
			c0.2,0,0.4-0.1,0.6-0.1c0.1,0,0.1,0,0.2,0c0,0,0.1,0,0.1,0c0.3,0,0.6-0.1,0.8-0.1c0.1,0,0.1,0,0.2,0c0.1,0,0.2,0,0.3-0.1
			c0.2,0,0.4-0.1,0.6-0.1c0,0,0.1,0,0.1,0c0.3,0,0.6-0.1,0.8-0.1c0.2,0,0.4,0,0.6,0c0.6-0.1,1.3-0.1,1.9-0.1c0.4,0,0.9-0.1,1.3,0
			c0.5,0,0.9,0,1.4,0.1c0.1,0,0.1,0,0.2,0c0.5,0,0.9,0,1.4,0.1c0.1,0,0.3,0,0.4,0c0.3,0,0.7,0.1,1,0.1c0.3,0,0.6,0.1,0.8,0.1
			c0.3,0,0.6,0.1,0.9,0.2c0.1,0,0.2,0,0.3,0c0.3,0.1,0.6,0.1,0.9,0.2c0.1,0,0.1,0,0.2,0c0.1,0,0.2,0,0.3,0.1c0,0,0.1,0,0.1,0
			c0.2,0,0.4,0.1,0.6,0.1c0.2,0,0.3,0.1,0.5,0.2c0.1,0,0.2,0.1,0.4,0.1c0.2,0,0.3,0.1,0.5,0.1c0.1,0.1,0.3,0.1,0.4,0.2
			c0.1,0,0.3,0.1,0.4,0.1c0.2,0.1,0.3,0.1,0.5,0.2c0.2,0.1,0.4,0.2,0.6,0.3c0.2,0.1,0.3,0.2,0.5,0.3c0.1,0.1,0.3,0.2,0.4,0.3
			c0.4,0.3,0.7,0.6,1,0.9c0.2,0.2,0.3,0.4,0.4,0.7c0.1,0.1,0.1,0.3,0.1,0.4c0.1,0.1,0.1,0.3,0.2,0.4c0,0.1,0.1,0.2,0.1,0.3
			c0.1,0.2,0.2,0.4,0.3,0.6c0.1,0.2,0.2,0.4,0.3,0.5c0.1,0.2,0.2,0.4,0.4,0.6c0.1,0.1,0.1,0.2,0.2,0.3c0.3,0.4,0.7,0.8,1.1,1.1
			c0.3,0.2,0.6,0.5,0.8,0.8c0.2,0.2,0.4,0.5,0.6,0.7c0.2,0.2,0.3,0.5,0.5,0.7c0.1,0.2,0.2,0.4,0.4,0.5c0,0,0,0.1,0.1,0.1
			c0,0.2,0.1,0.3,0.1,0.5c0,0.1,0,0.3,0,0.4c0,0.9,0,1.7,0,2.6c0,0.2,0,0.4,0,0.5C80.8,93.8,80.8,94,80.8,94.2
			C80.8,94.1,80.8,94.2,80.8,94.2z"/>
		<path class="st9" d="M61.8,85.4c0.5,0,0.8,0,1.2,0c0.4,0,0.7,0,1.1,0c0.2,0,0.5,0,0.7,0.1c0.1,0,0.1,0,0.2,0c0.2,0,0.5,0,0.7,0
			c0,0,0.1,0,0.1,0c0.2,0,0.3,0.1,0.5,0.1c0.2,0,0.3,0,0.5,0.1c0.2,0,0.4,0,0.5,0.1c0.1,0,0.1,0,0.2,0c0.1,0,0.2,0,0.3,0
			c0.1,0,0.2,0,0.4,0.1c0,0,0,0,0,0c0.2,0,0.5,0.1,0.7,0.1c0.1,0,0.2,0,0.3,0.1c0.1,0,0.1,0,0.2,0c0.1,0,0.2,0,0.3,0.1
			c0,0,0.1,0,0.1,0c0.1,0,0.2,0,0.2,0.1c0,0,0.1,0,0.1,0c0.1,0,0.2,0,0.3,0.1c0,0,0.1,0,0.1,0c0.1,0,0.1,0,0.2,0.1c0,0,0,0,0,0
			c0.1,0,0.3,0.1,0.4,0.1c0.1,0.1,0.3,0.1,0.4,0.2c0.1,0.1,0.3,0.1,0.4,0.1c0.1,0,0.2,0.1,0.3,0.1c0.1,0.1,0.3,0.1,0.4,0.2
			c0.1,0.1,0.2,0.1,0.3,0.2c0.1,0,0.2,0.1,0.2,0.1c0.2,0.1,0.4,0.2,0.6,0.4c0.3,0.2,0.5,0.3,0.8,0.5c0.2,0.2,0.5,0.3,0.7,0.5
			c0.2,0.2,0.4,0.3,0.6,0.5c0.2,0.2,0.4,0.3,0.6,0.5c0,0,0,0,0,0c0.2,0.1,0.3,0.2,0.4,0.4c0,0,0,0,0.1,0.1c0.1,0.2,0.3,0.3,0.4,0.5
			c0,0,0,0.1,0,0.1c0,0.1,0,0.2-0.1,0.4c0,0.1,0,0.1,0,0.2c0,0.1,0,0.2-0.1,0.3c0,0,0,0.1,0,0.1c0,0.1,0,0.2-0.1,0.3c0,0,0,0,0,0.1
			c-0.1,0.3-0.2,0.5-0.4,0.7c-0.1,0.1-0.2,0.2-0.3,0.3c0,0-0.1,0-0.1,0c-0.1,0-0.3,0-0.4,0c0,0-0.1,0-0.1,0c0,0-0.1,0-0.1,0
			c-0.1,0-0.2-0.1-0.3-0.2c-0.3-0.2-0.6-0.4-0.9-0.7c-0.2-0.2-0.4-0.4-0.6-0.6c-0.2-0.2-0.4-0.4-0.7-0.6c-0.2-0.2-0.4-0.3-0.6-0.5
			c-0.1-0.1-0.3-0.2-0.4-0.3c-0.1,0-0.1-0.1-0.2-0.1c-0.2-0.1-0.4-0.2-0.6-0.3c-0.1-0.1-0.3-0.1-0.5-0.2c-0.1,0-0.2-0.1-0.3-0.2
			c-0.1,0-0.2-0.1-0.3-0.1c-0.2-0.1-0.4-0.1-0.5-0.2c0,0-0.1,0-0.1,0c0,0-0.1,0-0.1,0c0,0,0,0,0,0c-0.2,0-0.3-0.1-0.5-0.1
			c0,0,0,0-0.1,0c-0.2,0-0.3-0.1-0.5-0.2c0,0,0,0-0.1,0c-0.2,0-0.5-0.1-0.7-0.1c-0.1,0-0.1,0-0.2,0c-0.1-0.1-0.3-0.1-0.4-0.1
			c-0.1,0-0.2,0-0.3,0c-0.1,0-0.3,0-0.4-0.1c-0.2,0-0.3,0-0.5-0.1c-0.1,0-0.2,0-0.4,0c-0.3,0-0.6,0-0.9-0.1c-0.2,0-0.3,0-0.5,0
			c-1.3,0-2.6,0-3.8,0c-0.2,0-0.5,0-0.7,0.1c-0.1,0-0.3,0-0.4,0c-0.3,0-0.6,0-0.8,0.1c-0.2,0-0.4,0-0.6,0.1c-0.2,0-0.4,0.1-0.6,0.1
			c0,0,0,0,0,0c-0.2,0.1-0.4,0.1-0.5,0.1c-0.2,0-0.3,0.1-0.5,0.1c0,0-0.1,0-0.1,0c-0.1,0-0.1,0-0.2,0.1c-0.1,0-0.1,0-0.2,0.1
			c0,0,0,0,0,0c-0.2,0-0.3,0.1-0.5,0.1c-0.1,0-0.1,0-0.2,0.1c0,0-0.1,0-0.1,0c-0.1,0-0.1,0-0.2,0.1c0,0,0,0,0,0
			c-0.1,0-0.3,0.1-0.4,0.1c0,0-0.1,0-0.1,0.1c0,0-0.1,0-0.1,0c0,0-0.1,0-0.1,0.1c-0.1,0-0.2,0.1-0.3,0.2c-0.2,0.1-0.4,0.2-0.6,0.3
			c-0.1,0.1-0.2,0.1-0.3,0.2c-0.1,0.1-0.3,0.2-0.4,0.2c-0.1,0.1-0.3,0.2-0.4,0.3c-0.2,0.1-0.3,0.2-0.5,0.4c-0.2,0.2-0.5,0.4-0.7,0.6
			c-0.2,0.2-0.4,0.4-0.6,0.6c-0.2,0.2-0.4,0.4-0.6,0.5c-0.1,0.1-0.3,0.2-0.5,0.3c-0.1,0.1-0.2,0.1-0.4,0.2c-0.1,0-0.2,0-0.3,0
			c-0.2,0-0.4-0.1-0.6-0.3c-0.1-0.1-0.2-0.3-0.3-0.4c-0.1-0.2-0.2-0.4-0.2-0.6c-0.1-0.2-0.1-0.3-0.1-0.5c-0.1-0.2-0.1-0.4-0.1-0.5
			c0-0.1,0-0.2,0.1-0.3c0.1-0.1,0.1-0.2,0.2-0.2c0.1-0.1,0.2-0.2,0.3-0.3c0.3-0.2,0.5-0.4,0.7-0.6c0.2-0.2,0.4-0.3,0.6-0.5
			c0.2-0.2,0.4-0.4,0.7-0.5c0.2-0.2,0.5-0.4,0.8-0.5c0.1-0.1,0.3-0.2,0.5-0.3c0.2-0.1,0.3-0.2,0.5-0.3c0.1,0,0.2-0.1,0.2-0.1
			c0.2-0.1,0.4-0.2,0.6-0.3c0.1,0,0.1-0.1,0.2-0.1c0.1-0.1,0.3-0.1,0.4-0.2c0.1-0.1,0.3-0.1,0.4-0.1c0.1-0.1,0.3-0.1,0.4-0.2
			c0,0,0,0,0,0c0.1,0,0.3-0.1,0.4-0.1c0.2,0,0.3-0.1,0.5-0.1c0.1,0,0.2-0.1,0.4-0.1c0.2,0,0.4-0.1,0.6-0.2c0.2,0,0.4-0.1,0.7-0.1
			c0.1,0,0.2,0,0.3-0.1c0.1,0,0.2,0,0.3,0c0.1,0,0.2,0,0.3-0.1c0.1,0,0.2,0,0.3,0c0.2,0,0.3,0,0.5-0.1c0.1,0,0.2,0,0.3,0
			c0.2,0,0.4,0,0.6-0.1c0.1,0,0.3,0,0.4,0c0.3,0,0.6,0,1,0C60.2,85.4,61.1,85.4,61.8,85.4z"/>
	</g>
	<path class="st10" d="M42.9,91c0-0.3,0-0.6,0.1-0.9c0-0.1,0.1-0.1,0.1-0.2c0.9-1,1.7-2.1,2.6-3.1c0.8-1,1.5-2,1.9-3.2
		c0.2-0.4,0.3-0.8,0.5-1.1c0.3-0.6,0.7-1.1,1.2-1.5c0.7-0.5,1.5-0.9,2.3-1.2c0.8-0.3,1.7-0.6,2.6-0.8c0.4-0.1,0.8-0.2,1.3-0.3
		c0.5-0.1,1-0.2,1.5-0.3c0.5-0.1,0.9-0.1,1.4-0.2c0.7-0.1,1.5-0.1,2.2-0.1c0.7,0,1.4,0,2,0c0.2,0,0.5,0,0.7,0
		c0.7,0.1,1.4,0.1,2.1,0.2c0.5,0,1,0.1,1.4,0.2c0.5,0.1,0.9,0.1,1.4,0.2c0.6,0.1,1.2,0.3,1.9,0.4c0.5,0.1,0.9,0.3,1.4,0.4
		c0.7,0.3,1.5,0.6,2.2,0.9c0.7,0.3,1.3,0.7,1.7,1.3c0.3,0.4,0.4,0.9,0.6,1.3c0.3,0.7,0.6,1.3,1,2c0.3,0.5,0.7,0.9,1.1,1.3
		c0.8,0.7,1.5,1.5,2.2,2.4c0.1,0.1,0.1,0.2,0.2,0.3c0.3,0.4,0.4,0.9,0.4,1.3c0,0,0,0,0,0.1c-0.2-0.3-0.4-0.5-0.6-0.8
		c-0.7-0.8-1.4-1.6-2.2-2.4c-0.3-0.3-0.6-0.5-0.9-0.8c-0.5-0.4-0.8-1-1.1-1.6c-0.3-0.6-0.6-1.2-0.8-1.9c-0.1-0.3-0.3-0.5-0.5-0.8
		c-0.6-0.7-1.3-1.1-2.1-1.5c-0.4-0.2-0.8-0.4-1.3-0.5c-0.4-0.1-0.8-0.2-1.2-0.3c-0.3-0.1-0.5-0.2-0.8-0.3c-0.8-0.2-1.7-0.2-2.5-0.3
		c-0.2,0-0.4-0.1-0.6-0.1c-0.2,0-0.5-0.1-0.7-0.1c-0.9-0.2-1.9-0.2-2.7-0.3c-0.9-0.1-1.8-0.1-2.7,0c-0.5,0-2.2,0.2-2.5,0.3
		c-0.3,0.1-1.5,0.2-1.8,0.3c-0.7,0.1-1.4,0.3-2,0.5c-1.1,0.3-2.2,0.6-3.2,1.2c-0.5,0.3-0.9,0.6-1.3,1c-0.4,0.4-0.7,0.9-0.8,1.5
		c-0.2,0.7-0.6,1.3-0.9,1.9c-0.3,0.5-0.7,1-1.1,1.4c-1,1-1.9,2.1-2.8,3.3C43.3,90.6,43.1,90.8,42.9,91C42.9,91,42.9,91,42.9,91z"/>
	<path class="st2" d="M47,90.4c0.1,0.2,0.1,0.3,0.1,0.5c0.1,0.4,0.2,0.8,0.3,1.2c0,0,0,0,0,0c0.2,0.4,0.3,0.5,0.7,0.3
		c0.3-0.1,0.6-0.3,0.8-0.5c0.7-0.6,1.4-1.3,2.1-1.9c0.9-0.7,1.9-1.3,2.9-1.7c0.9-0.3,1.7-0.6,2.6-0.8c0.8-0.1,1.5-0.2,2.3-0.3
		c1.8-0.2,3.5-0.1,5.3-0.1c0.6,0,1.3,0.1,1.9,0.2c0.5,0.1,1,0.1,1.6,0.2c1.3,0.3,2.6,0.7,3.8,1.3c0.7,0.4,1.3,0.9,1.9,1.4
		c0.6,0.6,1.3,1.1,2,1.5c0.1,0,0.2,0.1,0.2,0.1c0.5,0.2,0.8,0,0.9-0.5c0.1-0.4,0.1-0.7,0.1-1.1c0,0,0-0.1,0-0.2
		c0.3,0.2,0.5,0.4,0.4,0.7c0,0.3-0.1,0.6-0.1,0.8c-0.2,0.7-0.8,0.9-1.5,0.6c-0.6-0.3-1.2-0.7-1.7-1.1c-0.5-0.4-1-0.9-1.6-1.3
		c-0.5-0.4-1-0.7-1.5-1c-0.8-0.4-1.6-0.6-2.4-0.8c-0.5-0.1-1-0.2-1.4-0.3c-0.4-0.1-0.8-0.1-1.2-0.2c-0.4,0-0.8-0.1-1.2-0.1
		c-1.1,0-2.3-0.1-3.4,0c-0.9,0-1.8,0.1-2.6,0.2c-0.8,0.1-1.7,0.2-2.5,0.5c-1.1,0.3-2.1,0.7-3,1.2c-0.8,0.5-1.5,1-2.2,1.6
		c-0.4,0.4-0.8,0.8-1.3,1.2c-0.3,0.3-0.7,0.5-1.1,0.7c-0.4,0.1-0.7,0.1-0.9-0.3c-0.1-0.3-0.2-0.5-0.3-0.8c-0.1-0.3-0.1-0.5-0.1-0.8
		C46.6,90.7,46.7,90.6,47,90.4z"/>
	<g>
		<path class="st11" d="M58.8,81.7C58.8,81.7,58.8,81.7,58.8,81.7c-0.2,0.1-0.3,0.2-0.4,0.3c0,0,0,0,0,0c0,0,0,0,0,0
			c0-0.1,0-0.3,0-0.4c0,0,0,0,0,0c-0.1,0-0.2,0-0.3,0c-0.1,0-0.2-0.1-0.2-0.2c0-0.5,0-1-0.1-1.5c0-0.1,0.1-0.2,0.2-0.2
			c2.1-0.1,4.3-0.2,6.4-0.2c0.1,0,0.2,0.1,0.2,0.2c0,0.5,0,1,0.1,1.6c0,0.1-0.1,0.2-0.2,0.2c0,0,0,0-0.1,0c-1.3,0-2.6,0.1-3.8,0.1
			c-0.5,0-1,0-1.5,0.1c0,0-0.1,0-0.1,0c0,0-0.1,0.1-0.2,0.1C58.9,81.6,58.9,81.7,58.8,81.7z"/>
		<path class="st12" d="M58.8,81.7c0,0,0.1-0.1,0.1-0.1c0.1,0,0.1-0.1,0.2-0.1c0,0,0.1,0,0.1,0c0.5,0,1,0,1.5-0.1
			c1.3,0,2.6-0.1,3.8-0.1c0,0,0,0,0.1,0c0,0,0,0,0.1,0c0.1,0,0.1,0.1,0.1,0.2c0,0.5,0,1,0.1,1.5c0,0.1-0.1,0.2-0.2,0.2
			c-1,0-2.1,0.1-3.1,0.1c-0.4,0-0.8,0-1.1,0c0,0-0.1,0-0.1,0c-0.2,0.1-0.3,0.3-0.5,0.4c0,0-0.1,0.1-0.1,0.1c0,0,0,0,0,0
			c0-0.1,0-0.3,0-0.4c0-0.1,0-0.1-0.1-0.1c-0.1,0-0.2,0-0.3,0c-0.1,0-0.2-0.1-0.2-0.2C58.9,82.7,58.9,82.2,58.8,81.7
			C58.9,81.7,58.9,81.7,58.8,81.7z"/>
		<path class="st2" d="M59,81l-0.3,0l0-1l0.5,0c0.1,0,0.2,0,0.3,0.1s0.1,0.1,0.1,0.2c0,0.1,0,0.2-0.1,0.3c-0.1,0.1-0.2,0.1-0.3,0.1
			l-0.2,0L59,81z M59,80.5L59,80.5c0.2,0,0.3-0.1,0.3-0.1c0-0.1-0.1-0.1-0.2-0.1l-0.1,0L59,80.5z"/>
		<path class="st2" d="M60.6,80.9l-0.4,0l-0.3-0.4l0,0.4l-0.3,0l0-1l0.5,0c0.1,0,0.1,0,0.2,0c0,0,0.1,0,0.1,0.1c0,0,0.1,0.1,0.1,0.1
			c0,0,0,0.1,0,0.1c0,0.1,0,0.1-0.1,0.2c0,0-0.1,0.1-0.2,0.1L60.6,80.9z M59.9,80.4L59.9,80.4c0.1,0,0.2,0,0.2,0c0,0,0-0.1,0-0.1
			c0,0,0-0.1-0.1-0.1c0,0-0.1,0-0.1,0l-0.1,0L59.9,80.4z"/>
		<path class="st2" d="M61,79.9l0,1l-0.3,0l0-1L61,79.9z"/>
		<path class="st2" d="M61.4,79.9l0.3,0.6l0.2-0.6l0.3,0l-0.4,1l-0.2,0l-0.5-1L61.4,79.9z"/>
		<path class="st2" d="M62.9,80.7l-0.4,0l-0.1,0.2l-0.3,0l0.4-1l0.3,0l0.5,1l-0.3,0L62.9,80.7z M62.8,80.5l-0.1-0.3l-0.1,0.3
			L62.8,80.5z"/>
		<path class="st2" d="M63.7,80l0,0.8l-0.3,0l0-0.8l-0.2,0l0-0.2l0.8,0l0,0.2L63.7,80z"/>
		<g>
			<path class="st2" d="M60.4,82.1C60.3,82.1,60.3,82.1,60.4,82.1c-0.1-0.1-0.2-0.1-0.2-0.1c0,0-0.1,0-0.1,0c0,0,0,0,0,0.1
				c0,0,0,0,0,0c0,0,0,0,0,0c0,0,0,0,0.1,0c0,0,0,0,0.1,0c0.1,0,0.2,0.1,0.2,0.1c0,0,0.1,0.1,0.1,0.2c0,0.1,0,0.1,0,0.1
				c0,0,0,0.1-0.1,0.1c0,0-0.1,0.1-0.1,0.1c-0.1,0-0.1,0-0.2,0c-0.1,0-0.3,0-0.4-0.1l0.1-0.2c0,0,0.1,0.1,0.1,0.1c0,0,0.1,0,0.1,0
				c0,0,0.1,0,0.1,0c0,0,0,0,0-0.1c0,0,0,0,0,0c0,0,0,0,0,0c0,0,0,0-0.1,0c0,0-0.1,0-0.1,0c0,0-0.1,0-0.1,0c0,0-0.1,0-0.1,0
				c0,0-0.1,0-0.1-0.1c0,0,0-0.1,0-0.1c0,0,0-0.1,0-0.1c0,0,0-0.1,0.1-0.1c0,0,0.1-0.1,0.1-0.1c0,0,0.1,0,0.2,0c0.1,0,0.1,0,0.2,0
				c0.1,0,0.1,0,0.2,0.1L60.4,82.1z"/>
			<path class="st2" d="M60.7,82.9l0-1l0.3,0l0.6,0.6l0-0.6l0.3,0l0,1l-0.3,0L61,82.3l0,0.6L60.7,82.9z"/>
			<path class="st2" d="M62.7,82.6l-0.4,0l-0.1,0.2l-0.3,0l0.4-1l0.3,0l0.5,1l-0.3,0L62.7,82.6z M62.6,82.4l-0.1-0.3l-0.1,0.3
				L62.6,82.4z"/>
			<path class="st2" d="M63.4,82.2l0.3-0.4l0.4,0l-0.4,0.5l0.5,0.5l-0.4,0l-0.4-0.4l0,0.4l-0.3,0l0-1l0.3,0L63.4,82.2z"/>
		</g>
	</g>
	<g>
		<path class="st2" d="M59.4,83.4c-0.1,0-0.2,0-0.3,0c0,0,0,0,0,0c0,0,0,0,0,0c0,0.1,0.1,0.2,0.2,0.2c0,0,0.1,0,0.1,0
			C59.5,83.6,59.5,83.5,59.4,83.4C59.5,83.4,59.5,83.4,59.4,83.4z"/>
		<path class="st2" d="M65,83.1c0-0.2,0-0.4,0-0.6c0-0.3,0-0.6,0-0.9c0-0.1,0-0.1-0.1-0.2c0,0,0,0-0.1,0c0,0,0,0-0.1,0
			c0,0.4,0,0.7,0,1.1c0,0.2,0,0.3,0,0.5c0,0,0,0,0,0c0,0.1-0.1,0.2-0.2,0.2c-1,0-2.1,0.1-3.1,0.1c-0.4,0-0.8,0-1.1,0
			c0,0-0.1,0-0.1,0c-0.2,0.1-0.3,0.2-0.5,0.3c0,0.1,0,0.2,0,0.3c0,0,0,0,0,0c0,0,0.1-0.1,0.1-0.1c0.2-0.1,0.3-0.3,0.5-0.4
			c0,0,0.1,0,0.1,0c0.4,0,0.8,0,1.1,0c1,0,2.1-0.1,3.1-0.1c0.1,0,0.2-0.1,0.2-0.2C65,83.2,65,83.1,65,83.1z"/>
	</g>
</g>
<g>
	<path class="st11" d="M264.2,43.3c-0.5,0.2-0.8,0.6-1.2,0.9c-1.3,1.1-2.7,2.2-4,3.3c-0.1,0.1-0.2,0.3-0.4,0.2
		c-0.2-0.1-0.1-0.3-0.1-0.4c-0.1-2.1-0.2-4.3-0.3-6.4c0-0.5-0.2-0.6-0.6-0.6c-1.4,0.1-2.7,0.1-4.1,0.2c-1.7,0.1-2.9-1.2-3-2.8
		c-0.3-7.8-0.6-15.6-1-23.4c-0.1-2,1.3-3.3,3.1-3.4c28.7-1.1,57.3-2.3,86-3.5c1.8-0.1,3,1.1,3.1,2.8c0.3,7.9,0.6,15.8,1,23.7
		c0.1,1.5-0.7,2.5-2.2,3c-0.3,0-0.6,0-0.9,0.1c-17,0.7-34.1,1.4-51.1,2.1c-6.6,0.3-13.1,0.5-19.7,0.8c-0.4,0-0.8,0.1-1.1,0.4
		c-0.7,0.6-1.4,1.1-2.1,1.7C265.2,42.4,264.6,42.7,264.2,43.3z"/>
	<path class="st12" d="M264.2,43.3c0.3-0.6,0.9-0.9,1.4-1.3c0.7-0.6,1.4-1.1,2.1-1.7c0.3-0.3,0.7-0.4,1.1-0.4
		c6.6-0.3,13.1-0.5,19.7-0.8c17-0.7,34.1-1.4,51.1-2.1c0.3,0,0.6,0,0.9-0.1c0.2,0.3,0.6,0.3,0.8,0.4c0.9,0.6,1.4,1.3,1.5,2.4
		c0.3,7.8,0.6,15.7,1,23.5c0.1,1.6-1,3.2-3,3.3c-14,0.5-28,1.1-42,1.7c-5.1,0.2-10.1,0.4-15.2,0.6c-0.6,0-1,0.2-1.5,0.6
		c-2.3,1.9-4.6,3.9-6.9,5.8c-0.5,0.4-1.1,0.9-1.6,1.3c-0.3,0.3-0.5,0.2-0.5-0.2c-0.1-2-0.2-4.1-0.3-6.1c0-0.8-0.1-0.8-0.9-0.8
		c-1.2,0-2.5,0.1-3.7,0.2c-1.7,0.1-3.1-1.2-3.2-3c-0.3-7.6-0.6-15.1-0.9-22.7C264.3,43.7,264.2,43.5,264.2,43.3z"/>
	<path class="st2" d="M266.1,32.8l-4,0.2l-0.6-15.3l6.3-0.3c1.7-0.1,3.1,0.3,4,1.2c0.9,0.9,1.5,2.1,1.5,3.7s-0.3,2.9-1.2,3.8
		c-0.9,0.9-2.2,1.4-3.9,1.5l-2.4,0.1L266.1,32.8z M265.8,24.6l1.3-0.1c1.5-0.1,2.2-0.7,2.1-2c-0.1-1.3-0.8-1.9-2.3-1.8l-1.3,0.1
		L265.8,24.6z"/>
	<path class="st2" d="M287.9,31.9l-4.9,0.2l-4-5.7l0.2,5.9l-4,0.2l-0.6-15.3l6.2-0.3c0.9,0,1.6,0.1,2.2,0.3c0.6,0.2,1.2,0.5,1.6,1
		c0.4,0.4,0.8,0.9,1,1.5c0.2,0.6,0.4,1.2,0.4,1.8c0,1.2-0.2,2.1-0.7,2.9c-0.5,0.7-1.3,1.3-2.4,1.6L287.9,31.9z M278.8,23.8l0.8,0
		c0.8,0,1.4-0.2,1.8-0.6c0.4-0.3,0.6-0.8,0.6-1.4c0-0.6-0.3-1.1-0.7-1.4c-0.4-0.3-1-0.4-1.8-0.4l-0.8,0L278.8,23.8z"/>
	<path class="st2" d="M292.4,16.4l0.6,15.3l-4,0.2l-0.6-15.3L292.4,16.4z"/>
	<path class="st2" d="M297.9,16.2l4.1,9.2l3.3-9.5l4.3-0.2l-5.8,15.6l-3.2,0.1l-7-15L297.9,16.2z"/>
	<path class="st2" d="M318.8,28.1l-5.7,0.2l-0.8,2.7l-4.2,0.2l5.2-15.5l4.3-0.2l6.4,15.1l-4.2,0.2L318.8,28.1z M317.6,25.2l-2-5
		l-1.6,5.2L317.6,25.2z"/>
	<path class="st2" d="M329.5,18.4l0.5,11.9l-4,0.2l-0.5-11.9l-3.3,0.1l-0.1-3.4l10.5-0.4l0.1,3.4L329.5,18.4z"/>
	<g>
		<path class="st2" d="M284.7,50.2c-0.4-0.3-0.9-0.6-1.3-0.7c-0.4-0.2-0.9-0.2-1.3-0.2c-0.5,0-0.9,0.2-1.2,0.4
			c-0.3,0.3-0.5,0.6-0.4,1c0,0.3,0.1,0.5,0.3,0.7c0.2,0.2,0.4,0.3,0.7,0.4c0.3,0.1,0.6,0.2,0.9,0.3c0.3,0.1,0.7,0.2,1,0.3
			c1.3,0.4,2.3,0.9,2.9,1.6c0.6,0.7,1,1.6,1,2.8c0,0.8-0.1,1.5-0.3,2.1c-0.2,0.6-0.6,1.2-1.1,1.7c-0.5,0.5-1.1,0.8-1.8,1.1
			c-0.7,0.3-1.6,0.4-2.5,0.5c-1.9,0.1-3.7-0.4-5.4-1.5l1.6-3.3c0.6,0.5,1.2,0.9,1.8,1.1c0.6,0.2,1.2,0.3,1.7,0.3
			c0.6,0,1.1-0.2,1.4-0.5c0.3-0.3,0.4-0.7,0.4-1c0-0.2-0.1-0.4-0.1-0.6c-0.1-0.2-0.2-0.3-0.4-0.4c-0.2-0.1-0.4-0.3-0.8-0.4
			s-0.7-0.2-1.1-0.4c-0.5-0.1-1-0.3-1.5-0.5c-0.5-0.2-0.9-0.4-1.3-0.7c-0.4-0.3-0.7-0.7-1-1.2c-0.3-0.5-0.4-1.1-0.4-1.9
			c0-0.8,0.1-1.4,0.3-2.1c0.2-0.6,0.6-1.2,1-1.6c0.4-0.5,1-0.8,1.6-1.1c0.6-0.3,1.4-0.4,2.2-0.5c0.8,0,1.5,0,2.4,0.2
			c0.8,0.2,1.6,0.5,2.4,0.8L284.7,50.2z"/>
		<path class="st2" d="M288.9,61.4l-0.6-15.3l4-0.2l7.7,9l-0.4-9.3l3.9-0.2l0.6,15.3l-3.9,0.2l-7.7-9l0.4,9.3L288.9,61.4z"/>
		<path class="st2" d="M315.6,57.6l-5.7,0.2l-0.8,2.7l-4.2,0.2l5.2-15.5l4.3-0.2l6.4,15l-4.2,0.2L315.6,57.6z M314.4,54.6l-2-5
			l-1.6,5.1L314.4,54.6z"/>
		<path class="st2" d="M325.2,50.9l4.6-6.5l4.9-0.2l-5.8,7.5l6.9,7.8l-5.1,0.2l-5.4-6.4l0.3,6.6l-4,0.2l-0.6-15.3l4-0.2L325.2,50.9z
			"/>
	</g>
</g>
<g>
	<path class="st13" d="M272.1,69.4c-1.2,0-2.5,0.1-3.7,0.2c0,0-0.1,0-0.1,0c0,0.1,0,0.2,0,0.3c0.1,1.8,1.5,3.1,3.2,3
		c0.5,0,1-0.1,1.6-0.1c0-0.8-0.1-1.7-0.1-2.5C272.9,69.3,272.9,69.3,272.1,69.4z"/>
	<path class="st2" d="M346.8,64.8c-0.1-2.8-0.3-5.6-0.4-8.5c-0.2-4.4-0.4-8.8-0.5-13.2c0-1.1-0.5-1.9-1.5-2.4
		c-0.3-0.2-0.7-0.1-0.8-0.4c-0.3,0-0.5,0-0.8,0c0.2,5.3,0.4,10.7,0.7,16c0.1,2.3,0.2,4.7,0.3,7c0,0.2,0,0.5-0.1,0.7
		c-0.2,1.3-1.3,2.5-3,2.6c-14,0.5-28,1.1-42,1.7c-5.1,0.2-10.1,0.4-15.2,0.6c-0.6,0-1,0.2-1.5,0.6c-2,1.7-4.1,3.4-6.1,5.1
		c0.1,1.7,0.1,3.3,0.2,5c0,0.4,0.1,0.5,0.5,0.2c0.5-0.4,1.1-0.9,1.6-1.3c2.3-1.9,4.6-3.8,6.9-5.8c0.4-0.4,0.9-0.6,1.5-0.6
		c5.1-0.2,10.1-0.4,15.2-0.6c14-0.6,28-1.1,42-1.7c2-0.1,3.1-1.6,3-3.3C346.9,66,346.8,65.4,346.8,64.8z"/>
</g>
</svg>
