<?xml version="1.0" encoding="utf-8"?>
<!-- Generator: Adobe Illustrator 22.0.0, SVG Export Plug-In . SVG Version: 6.00 Build 0)  -->
<svg version="1.1" id="Layer_1" xmlns="http://www.w3.org/2000/svg" xmlns:xlink="http://www.w3.org/1999/xlink" x="0px" y="0px"
	 viewBox="0 0 353.5 102.5" style="enable-background:new 0 0 353.5 102.5;" xml:space="preserve">
<style type="text/css">
	.st0{fill:#F79A30;}
	.st1{fill:#FFFFFF;}
	.st2{enable-background:new    ;}
</style>
<title>startknap</title>
<g>
	<path class="st0" d="M333.5,95.2h-314c-8.7,0-15.8-7.1-15.8-15.8V23.1c0-8.7,7.1-15.8,15.8-15.8h314c8.7,0,15.8,7.1,15.8,15.8v56.3
		C349.3,88.2,342.2,95.2,333.5,95.2z"/>
	<path d="M333.5,97.3h-314c-9.9,0-17.9-8-17.9-17.9V23.1c0-9.9,8-17.9,17.9-17.9h314c9.9,0,17.9,8,17.9,17.9v56.3
		C351.4,89.3,343.4,97.3,333.5,97.3z M19.4,9.3c-7.6,0-13.7,6.2-13.7,13.7v56.3c0,7.6,6.2,13.7,13.7,13.7h314
		c7.6,0,13.7-6.2,13.7-13.7V23.1c0-7.6-6.2-13.7-13.7-13.7H19.4z"/>
</g>
<g>
	<g>
		<path class="st1" d="M48.3,54.4c0,1.4-0.3,2.6-0.9,3.6c-0.6,1-1.3,1.8-2.3,2.4c-0.9,0.6-2,1-3.2,1.3c-1.2,0.3-2.4,0.4-3.7,0.4
			h-9.9c-0.3,0-0.6-0.3-0.6-0.6v-25c0-0.3,0.3-0.6,0.6-0.6h9.9c1,0,2,0.1,3.1,0.3c1.1,0.2,2,0.6,2.9,1.1c0.9,0.5,1.6,1.2,2.1,2.1
			c0.5,0.9,0.8,2,0.8,3.3c0,1.5-0.4,2.7-1.2,3.6c-0.8,1-1.8,1.6-3.1,2.1v0.1c0.7,0.1,1.4,0.4,2.1,0.7c0.7,0.3,1.2,0.8,1.7,1.3
			c0.5,0.5,0.9,1.1,1.1,1.8C48.2,52.8,48.3,53.6,48.3,54.4z M41.1,43.4c0-0.9-0.3-1.5-1-1.9c-0.7-0.4-1.7-0.6-3-0.6h-2.5
			c-0.3,0-0.6,0.3-0.6,0.6v4.2c0,0.3,0.3,0.6,0.6,0.6h2.8c1.2,0,2.1-0.2,2.8-0.7C40.8,45.1,41.1,44.4,41.1,43.4z M42,53.8
			c0-1.1-0.4-1.8-1.2-2.3c-0.8-0.4-1.9-0.6-3.3-0.6h-2.9c-0.3,0-0.6,0.3-0.6,0.6v4.8c0,0.3,0.3,0.6,0.6,0.6h3c0.5,0,1,0,1.5-0.1
			c0.5-0.1,1-0.2,1.4-0.5c0.4-0.2,0.8-0.5,1.1-0.9C41.9,55,42,54.5,42,53.8z"/>
		<path d="M38.3,66.6h-9.9c-2.8,0-5.1-2.3-5.1-5.1v-25c0-2.8,2.3-5.1,5.1-5.1h9.9c1.3,0,2.6,0.1,4,0.4c1.6,0.3,3,0.8,4.3,1.6
			c1.5,0.9,2.7,2.1,3.7,3.6c1,1.6,1.5,3.5,1.5,5.7c0,1.9-0.4,3.6-1.3,5.1c0.6,0.8,1.2,1.7,1.6,2.7c0.5,1.2,0.8,2.6,0.8,4.1
			c0,2.2-0.5,4.2-1.5,5.9c-0.9,1.6-2.2,2.9-3.8,3.9c-1.4,0.9-3,1.5-4.7,1.9C41.5,66.4,39.9,66.6,38.3,66.6z M37.5,53.8
			c0,0.1,0,0.2,0.1,0.4c0.1-0.1,0.1-0.2,0.2-0.2c0,0-0.1-0.1-0.1-0.1h0.2h-0.2c0-0.1-0.1-0.1-0.1-0.2C37.5,53.7,37.5,53.8,37.5,53.8
			z M38.5,53.8H42H38.5z M36.9,42.5c-0.2,0.4-0.3,0.7-0.3,0.9c0,0.3,0.1,0.8,0.4,1.2c0.4-0.3,0.7-0.6,0.9-1
			C37.7,43.2,37.3,42.8,36.9,42.5z M37.8,41.7L37.8,41.7L37.8,41.7z"/>
	</g>
	<g>
		<path class="st1" d="M69.6,53c0,0.2,0,0.5,0,0.7c0,0.2,0,0.5,0,0.7H56.9c-0.4,0-0.7,0.4-0.6,0.7c0.1,0.2,0.2,0.5,0.3,0.7
			c0.3,0.4,0.6,0.8,1,1.1c0.4,0.3,0.9,0.5,1.4,0.7c0.5,0.2,1,0.3,1.6,0.3c1,0,1.8-0.2,2.4-0.5c0.5-0.3,1-0.6,1.3-1
			c0.2-0.2,0.5-0.2,0.7-0.1l3.3,2.1c0.3,0.2,0.4,0.6,0.2,0.8c-0.8,1-1.8,1.8-3,2.4c-1.4,0.7-3.1,1-4.9,1c-1.4,0-2.7-0.2-3.9-0.6
			c-1.2-0.4-2.3-1.1-3.2-1.9c-0.9-0.8-1.7-1.8-2.2-3.1c-0.5-1.2-0.8-2.6-0.8-4.1c0-1.5,0.3-2.9,0.8-4.1c0.5-1.2,1.2-2.3,2.1-3.1
			c0.9-0.9,1.9-1.5,3.1-2c1.2-0.5,2.5-0.7,3.9-0.7c1.4,0,2.6,0.2,3.7,0.7c1.1,0.5,2.1,1.1,2.9,2c0.8,0.9,1.4,1.9,1.9,3.1
			C69.4,50.1,69.6,51.5,69.6,53z M63.4,50.7c0.4,0,0.6-0.3,0.6-0.7c-0.1-0.7-0.4-1.3-0.9-1.8c-0.6-0.7-1.5-1-2.7-1
			c-0.6,0-1.1,0.1-1.6,0.3c-0.5,0.2-0.9,0.4-1.3,0.8c-0.4,0.3-0.7,0.7-0.9,1.1c-0.1,0.2-0.2,0.4-0.2,0.6c-0.1,0.4,0.2,0.8,0.6,0.8
			H63.4z"/>
		<path d="M60.5,67.2c-1.9,0-3.7-0.3-5.4-0.9c-1.8-0.6-3.4-1.6-4.8-2.8c-1.4-1.3-2.5-2.8-3.3-4.6c-0.8-1.8-1.2-3.8-1.2-6
			c0-2.1,0.4-4.1,1.1-5.9c0.8-1.8,1.8-3.3,3.1-4.6c1.3-1.3,2.9-2.3,4.6-2.9c1.7-0.7,3.6-1,5.6-1c1.9,0,3.8,0.3,5.4,1
			c1.7,0.7,3.3,1.7,4.5,3.1c1.2,1.3,2.2,2.9,2.9,4.7c0.6,1.7,1,3.7,1,5.8v0.7c0,0.4,0,0.8-0.1,1.2l-0.4,4h-0.5c0,1.1-0.4,2.2-1.1,3
			c-1.2,1.5-2.8,2.8-4.6,3.7C65.4,66.7,63.1,67.2,60.5,67.2z M67.7,59.5C67.7,59.5,67.7,59.5,67.7,59.5
			C67.7,59.5,67.7,59.5,67.7,59.5z M59.4,50h1.4c0-0.7-0.3-1.5-0.7-2.1C59.7,48.5,59.5,49.2,59.4,50z"/>
	</g>
	<g>
		<path class="st1" d="M83.8,48.6c-0.2,0.2-0.5,0.2-0.8,0.1c-0.4-0.3-0.9-0.6-1.4-0.8c-0.7-0.3-1.4-0.5-2.1-0.5
			c-0.6,0-1.1,0.1-1.6,0.3c-0.5,0.2-0.7,0.6-0.7,1.1c0,0.5,0.3,0.9,0.8,1.1c0.5,0.2,1.4,0.5,2.6,0.7c0.7,0.1,1.4,0.4,2.1,0.6
			c0.7,0.3,1.3,0.6,1.9,1.1c0.6,0.4,1,1,1.4,1.6c0.3,0.6,0.5,1.4,0.5,2.3c0,1.2-0.2,2.1-0.7,2.9c-0.5,0.8-1.1,1.5-1.8,1.9
			c-0.8,0.5-1.6,0.9-2.5,1.1c-0.9,0.2-1.9,0.3-2.8,0.3c-1.5,0-3-0.2-4.4-0.7c-1.2-0.4-2.3-1-3.2-1.7c-0.3-0.2-0.3-0.6,0-0.8l2.6-2.7
			c0.2-0.2,0.6-0.2,0.8,0c0.5,0.4,1,0.8,1.6,1.1c0.8,0.4,1.6,0.6,2.5,0.6c0.5,0,1-0.1,1.5-0.4c0.5-0.2,0.7-0.6,0.7-1.2
			c0-0.6-0.3-1-0.9-1.3c-0.6-0.3-1.5-0.6-2.8-0.9c-0.6-0.1-1.3-0.3-1.9-0.6c-0.6-0.2-1.2-0.6-1.7-1c-0.5-0.4-0.9-0.9-1.2-1.6
			c-0.3-0.6-0.5-1.4-0.5-2.2c0-1.1,0.2-2.1,0.7-2.8c0.5-0.8,1.1-1.4,1.8-1.9c0.7-0.5,1.6-0.9,2.5-1.1c0.9-0.2,1.8-0.4,2.7-0.4
			c1.4,0,2.7,0.2,4.1,0.6c1.1,0.4,2.1,0.9,2.9,1.5c0.3,0.2,0.3,0.6,0,0.8L83.8,48.6z"/>
		<path d="M78.6,67.2c-2,0-4-0.3-5.9-1c-1.8-0.6-3.3-1.5-4.7-2.6c-1.1-0.9-1.7-2.2-1.8-3.6c-0.1-1.4,0.4-2.8,1.4-3.8l1.3-1.3
			c-0.3-0.4-0.6-0.9-0.9-1.4c-0.7-1.3-1-2.7-1-4.3c0-1.9,0.5-3.7,1.4-5.2c0.8-1.3,1.9-2.5,3.2-3.3c1.2-0.8,2.5-1.3,3.8-1.7
			c3.1-0.8,6.3-0.6,9.3,0.4c1.6,0.5,3.1,1.3,4.3,2.3c1.1,0.9,1.8,2.2,1.9,3.6c0.1,1.4-0.4,2.9-1.4,3.9l-0.8,0.9
			c0.5,0.6,0.9,1.2,1.3,1.8c0.7,1.3,1.1,2.8,1.1,4.4c0,2-0.4,3.7-1.3,5.2c-0.8,1.4-1.9,2.6-3.3,3.4c-1.2,0.8-2.5,1.4-4,1.7
			C81.2,67,79.9,67.2,78.6,67.2z M85.8,45.2C85.8,45.2,85.8,45.2,85.8,45.2C85.8,45.2,85.8,45.2,85.8,45.2z"/>
	</g>
	<g>
		<path class="st1" d="M107,46.5c-0.2,0.2-0.2,0.5,0,0.8c1.1,1.5,1.7,3.4,1.7,5.5c0,1.5-0.3,2.8-0.8,4c-0.5,1.2-1.3,2.2-2.2,3.1
			c-0.9,0.9-2,1.5-3.3,2c-1.2,0.5-2.6,0.7-4,0.7c-1.1,0-2.2-0.1-3.1-0.4c-0.8-0.2-1.6-0.6-2.3-1c-0.2-0.1-0.5-0.1-0.7,0.1l-2,2
			c-0.2,0.2-0.6,0.2-0.8,0l-1.3-1.3c-0.2-0.2-0.2-0.6,0-0.8l1.9-1.8c0.2-0.2,0.2-0.5,0-0.8c-0.5-0.7-0.9-1.4-1.2-2.3
			c-0.4-1-0.6-2.2-0.6-3.4c0-1.5,0.3-2.8,0.8-4c0.5-1.2,1.3-2.2,2.2-3.1c0.9-0.9,2-1.5,3.3-2c1.2-0.5,2.6-0.7,4-0.7
			c2.1,0,4,0.5,5.5,1.5c0.2,0.2,0.5,0.1,0.7-0.1l1.9-1.9c0.2-0.2,0.6-0.2,0.8,0l1.4,1.3c0.2,0.2,0.2,0.6,0,0.8L107,46.5z
			 M100.5,48.5c-0.3-0.2-0.6-0.4-1-0.5c-0.4-0.1-0.8-0.2-1.2-0.2c-0.7,0-1.4,0.1-1.9,0.4c-0.6,0.3-1,0.6-1.4,1.1
			c-0.4,0.4-0.7,1-0.9,1.5c-0.2,0.6-0.3,1.2-0.3,1.8c0,0.4,0,0.8,0.1,1.1c0.1,0.4,0.2,0.7,0.4,1L100.5,48.5z M102.9,52.9
			c0-0.4,0-0.8-0.1-1.2c-0.1-0.4-0.2-0.7-0.4-1l-6.2,6.2c0.3,0.2,0.6,0.4,1,0.6c0.4,0.1,0.8,0.2,1.2,0.2c0.7,0,1.4-0.1,1.9-0.4
			c0.6-0.3,1-0.6,1.4-1.1c0.4-0.4,0.6-1,0.8-1.5C102.8,54.1,102.9,53.5,102.9,52.9z"/>
		<path d="M89.8,67.9c-1.3,0-2.6-0.5-3.6-1.5l-1.4-1.3c-1-1-1.5-2.3-1.5-3.7c0-1.2,0.5-2.5,1.3-3.4c0-0.1-0.1-0.2-0.1-0.3
			c-0.6-1.5-0.9-3.2-0.9-5c0-2.1,0.4-4.1,1.2-5.9c0.8-1.8,1.9-3.3,3.3-4.6c1.4-1.2,2.9-2.2,4.7-2.9c1.8-0.7,3.6-1,5.6-1
			c1.8,0,3.5,0.3,5,0.8c2-1.9,5.1-1.9,7.1,0l1.4,1.3c1,1,1.6,2.3,1.6,3.7c0,1.2-0.4,2.4-1.2,3.3c0.6,1.6,0.9,3.3,0.9,5.2
			c0,2.1-0.4,4.1-1.2,5.9c-0.8,1.8-1.9,3.3-3.2,4.6c-1.4,1.3-3,2.3-4.8,2.9c-1.8,0.7-3.6,1-5.6,1c-1.5,0-3-0.2-4.5-0.6
			c-0.2,0-0.3-0.1-0.5-0.1l-0.1,0.1C92.5,67.4,91.2,67.9,89.8,67.9z M86.4,61.2C86.4,61.2,86.4,61.2,86.4,61.2
			C86.4,61.2,86.4,61.2,86.4,61.2z M110.2,49.7L110.2,49.7C110.2,49.7,110.2,49.7,110.2,49.7z M110.6,44.5
			C110.6,44.5,110.6,44.5,110.6,44.5C110.6,44.5,110.6,44.5,110.6,44.5z"/>
	</g>
	<g>
		<path class="st1" d="M131.2,60.3c0,1.8-0.3,3.4-0.8,4.7c-0.5,1.3-1.2,2.4-2.2,3.3c-0.9,0.9-2.1,1.5-3.4,2
			c-1.3,0.4-2.8,0.6-4.5,0.6c-1.6,0-3.3-0.2-5-0.7c-1.5-0.4-2.8-1-4-1.8c-0.3-0.2-0.3-0.6-0.1-0.8l2.3-3.3c0.2-0.3,0.6-0.3,0.9-0.1
			c0.8,0.6,1.6,1,2.5,1.4c1.1,0.4,2.1,0.6,3.2,0.6c1.8,0,3.1-0.5,3.9-1.4c0.9-0.9,1.3-2.2,1.3-3.7v-1.1h-0.1
			c-0.6,0.7-1.3,1.3-2.3,1.8c-1,0.4-2.1,0.7-3.3,0.7c-1.4,0-2.7-0.3-3.7-0.8c-1.1-0.5-2-1.2-2.8-2.1c-0.8-0.9-1.3-1.9-1.7-3
			c-0.4-1.1-0.6-2.4-0.6-3.6c0-1.3,0.2-2.5,0.6-3.7c0.4-1.2,1-2.2,1.7-3.1c0.8-0.9,1.7-1.6,2.8-2.1c1.1-0.5,2.3-0.8,3.7-0.8
			c1.2,0,2.3,0.2,3.3,0.7c1.1,0.5,1.9,1.2,2.6,2.2h0.1v-1.8c0-0.3,0.3-0.6,0.6-0.6h4.6c0.3,0,0.6,0.3,0.6,0.6V60.3z M125.5,52.7
			c0-0.6-0.1-1.2-0.3-1.8c-0.2-0.6-0.5-1.1-0.9-1.5c-0.4-0.4-0.9-0.8-1.4-1c-0.5-0.2-1.2-0.4-1.9-0.4c-0.7,0-1.3,0.1-1.8,0.4
			c-0.5,0.2-1,0.6-1.4,1c-0.4,0.4-0.7,0.9-0.9,1.5c-0.2,0.6-0.3,1.2-0.3,1.8c0,0.6,0.1,1.2,0.3,1.8c0.2,0.6,0.5,1.1,0.9,1.5
			c0.4,0.4,0.8,0.8,1.4,1c0.5,0.3,1.1,0.4,1.8,0.4c0.7,0,1.3-0.1,1.9-0.4c0.6-0.3,1-0.6,1.4-1c0.4-0.4,0.7-0.9,0.9-1.5
			C125.4,54,125.5,53.4,125.5,52.7z"/>
		<path d="M120.4,75.5c-2,0-4.2-0.3-6.3-0.9c-2-0.6-3.7-1.4-5.3-2.4c-1.1-0.8-1.9-2-2.2-3.3c-0.3-1.3,0.1-2.8,0.8-3.9l1.9-2.8
			c-1-1.3-1.9-2.7-2.4-4.3c-0.6-1.6-0.8-3.3-0.8-5.1c0-1.8,0.3-3.5,0.8-5.1c0.6-1.7,1.4-3.2,2.6-4.5c1.2-1.4,2.6-2.5,4.2-3.3
			c1.7-0.8,3.6-1.3,5.7-1.3c1.6,0,3.2,0.3,4.7,0.9c0.6-0.2,1.2-0.4,1.9-0.4h4.6c2.8,0,5.1,2.3,5.1,5.1v16.1c0,2.4-0.4,4.5-1.1,6.3
			c-0.8,2-1.9,3.6-3.3,5c-1.4,1.3-3.2,2.3-5.1,3C124.4,75.2,122.5,75.5,120.4,75.5z"/>
	</g>
	<g>
		<path class="st1" d="M163.8,43.9c0,1.5-0.3,2.8-0.9,3.9c-0.6,1-1.3,1.9-2.3,2.5c-1,0.6-2.1,1.1-3.3,1.4c-1.3,0.3-2.6,0.4-3.9,0.4
			h-2.6c-0.3,0-0.6,0.3-0.6,0.6v8.7c0,0.3-0.3,0.6-0.6,0.6h-5.2c-0.3,0-0.6-0.3-0.6-0.6v-25c0-0.3,0.3-0.6,0.6-0.6h9
			c1.4,0,2.8,0.1,4,0.4c1.2,0.3,2.3,0.7,3.3,1.4c0.9,0.6,1.7,1.5,2.2,2.5C163.5,41.1,163.8,42.4,163.8,43.9z M157.5,43.9
			c0-0.6-0.1-1.1-0.4-1.5c-0.2-0.4-0.6-0.7-1-0.9c-0.4-0.2-0.9-0.4-1.4-0.4c-0.5-0.1-1.1-0.1-1.6-0.1h-2.2c-0.3,0-0.6,0.3-0.6,0.6v5
			c0,0.3,0.3,0.6,0.6,0.6h2.1c0.6,0,1.2,0,1.7-0.1c0.5-0.1,1-0.3,1.5-0.5c0.4-0.2,0.8-0.6,1-1C157.4,45.1,157.5,44.6,157.5,43.9z"/>
		<path d="M149.7,66.6h-5.2c-2.8,0-5.1-2.3-5.1-5.1v-25c0-2.8,2.3-5.1,5.1-5.1h9c1.8,0,3.5,0.2,5,0.5c1.8,0.4,3.4,1.1,4.8,2
			c1.6,1.1,2.8,2.4,3.7,4.1c0.9,1.7,1.3,3.7,1.3,5.9c0,2.3-0.5,4.3-1.4,6c-0.9,1.7-2.2,3.1-3.8,4.2c-1.4,0.9-3,1.6-4.8,2
			c-1.2,0.3-2.4,0.4-3.6,0.5v4.8C154.8,64.3,152.5,66.6,149.7,66.6z M152.9,43.9c0,0.1,0,0.4,0.3,0.8c0.3-0.2,0.5-0.4,0.7-0.7
			c0,0-0.1-0.1-0.1-0.1h0.2c0,0,0,0,0,0h-0.2c-0.2-0.2-0.4-0.4-0.7-0.6C153,43.6,152.9,43.9,152.9,43.9L152.9,43.9
			C152.9,43.9,152.9,43.9,152.9,43.9L152.9,43.9L152.9,43.9z M154.8,43.9L154.8,43.9h2.7H154.8z"/>
	</g>
	<g>
		<path class="st1" d="M176.8,48.6c-0.3-0.1-0.5-0.1-0.8-0.1c-0.3,0-0.5,0-0.8,0c-0.8,0-1.5,0.1-2.1,0.4c-0.6,0.3-1,0.7-1.3,1.1
			c-0.3,0.4-0.6,0.9-0.7,1.4c-0.1,0.5-0.2,0.9-0.2,1.3v8.9c0,0.3-0.3,0.6-0.6,0.6h-4.9c-0.3,0-0.6-0.3-0.6-0.6V44.2
			c0-0.3,0.3-0.6,0.6-0.6h4.7c0.3,0,0.6,0.3,0.6,0.6v2.1h0.1c0.5-0.9,1.1-1.7,2-2.3c0.9-0.6,1.9-0.9,3-0.9c0.2,0,0.5,0,0.7,0
			c0.2,0,0.4,0.1,0.6,0.1L176.8,48.6z"/>
		<path d="M170.3,66.6h-4.9c-2.8,0-5.1-2.3-5.1-5.1V44.2c0-2.8,2.3-5.1,5.1-5.1h4.7c0.6,0,1.1,0.1,1.7,0.3c1.6-0.7,3.4-0.9,5.2-0.8
			c0.6,0.1,1.1,0.2,1.5,0.3l3.3,1.1l-0.7,14.5l-5.5-1.5c0,0-0.1,0-0.1,0v8.5C175.5,64.3,173.2,66.6,170.3,66.6z M175.1,53L175.1,53
			L175.1,53z M175.1,53L175.1,53L175.1,53z"/>
	</g>
	<g>
		<path class="st1" d="M185.2,37.7c0,0.5-0.1,0.9-0.3,1.3c-0.2,0.4-0.4,0.8-0.7,1.1c-0.3,0.3-0.7,0.5-1.1,0.7
			c-0.4,0.2-0.9,0.3-1.4,0.3c-1,0-1.8-0.3-2.5-1c-0.7-0.7-1-1.4-1-2.4c0-0.4,0.1-0.9,0.3-1.3c0.2-0.4,0.4-0.8,0.7-1.1
			c0.3-0.3,0.7-0.5,1.1-0.7c0.4-0.2,0.9-0.3,1.4-0.3c0.5,0,0.9,0.1,1.4,0.3c0.4,0.2,0.8,0.4,1.1,0.7c0.3,0.3,0.6,0.6,0.7,1.1
			C185.1,36.8,185.2,37.3,185.2,37.7z M178.7,61.5V44.2c0-0.3,0.3-0.6,0.6-0.6h4.9c0.3,0,0.6,0.3,0.6,0.6v17.3
			c0,0.3-0.3,0.6-0.6,0.6h-4.9C179,62,178.7,61.8,178.7,61.5z"/>
		<path d="M184.2,66.6h-4.9c-2.8,0-5.1-2.3-5.1-5.1V44.2c0-0.9,0.2-1.7,0.6-2.5c-0.7-1.2-1.1-2.5-1.1-4c0-1.1,0.2-2.1,0.6-3.1
			c0.4-1,1-1.9,1.8-2.6c0.7-0.6,1.5-1.2,2.4-1.5c1.9-0.8,4.2-0.9,6.2-0.1c1,0.4,1.8,0.9,2.6,1.6c0.7,0.7,1.3,1.5,1.7,2.4
			c0.5,1,0.7,2.1,0.7,3.2s-0.2,2.2-0.7,3.2c-0.1,0.3-0.3,0.5-0.4,0.8c0.4,0.7,0.6,1.6,0.6,2.5v17.3C189.3,64.3,187,66.6,184.2,66.6z
			 M181.8,36.5c-0.1,0-0.2,0-0.3,0.1c0,0-0.2,0.1-0.3,0.2c-0.1,0.1-0.2,0.2-0.2,0.3c-0.1,0.2-0.1,0.4-0.1,0.6s0,0.4,0.1,0.6
			c0.1,0.1,0.1,0.2,0.2,0.3c0.2,0.2,0.3,0.2,0.3,0.2c0.1,0,0.2,0.1,0.3,0.1c0.1,0,0.2,0,0.5-0.1c0,0,0.1,0,0.1-0.1
			c0.2-0.1,0.3-0.3,0.4-0.5c0.1-0.1,0.1-0.3,0.1-0.5c0-0.3-0.2-0.7-0.4-0.9C182.2,36.6,181.9,36.5,181.8,36.5z"/>
	</g>
	<g>
		<path class="st1" d="M199.8,62H194c-0.2,0-0.5-0.1-0.5-0.4l-6.8-17.3c-0.2-0.4,0.1-0.8,0.5-0.8h5.4c0.3,0,0.5,0.2,0.6,0.4
			l3.8,11.6h0.1l3.8-11.6c0.1-0.2,0.3-0.4,0.6-0.4h5.2c0.4,0,0.7,0.4,0.5,0.8l-6.8,17.3C200.2,61.9,200,62,199.8,62z"/>
		<path d="M199.8,66.6H194c-2.1,0-4-1.3-4.8-3.2l-6.8-17.3c-0.6-1.6-0.4-3.4,0.5-4.8c1-1.4,2.5-2.2,4.2-2.2h5.4
			c1.8,0,3.5,0.9,4.4,2.4c0.9-1.5,2.6-2.4,4.4-2.4h5.2c1.7,0,3.3,0.8,4.2,2.2c1,1.4,1.2,3.2,0.5,4.8l-6.8,17.3
			C203.7,65.3,201.9,66.6,199.8,66.6z"/>
	</g>
	<g>
		<path class="st1" d="M209,46.6c-0.2-0.2-0.2-0.6,0-0.8c1-0.8,2.1-1.5,3.3-1.9c1.4-0.5,2.9-0.8,4.4-0.8c1.6,0,2.9,0.2,3.9,0.6
			c1.1,0.4,1.9,1,2.6,1.8c0.7,0.8,1.2,1.8,1.5,3c0.3,1.2,0.5,2.7,0.5,4.3v8.7c0,0.3-0.3,0.6-0.6,0.6h-4.4c-0.3,0-0.6-0.3-0.6-0.6
			v-1.4h-0.1c-0.5,0.8-1.2,1.4-2.1,1.8c-1,0.4-2,0.6-3.1,0.6c-0.7,0-1.5-0.1-2.3-0.3c-0.8-0.2-1.5-0.5-2.2-1c-0.7-0.4-1.2-1-1.6-1.8
			c-0.4-0.7-0.6-1.7-0.6-2.7c0-1.3,0.4-2.4,1.1-3.2c0.7-0.8,1.7-1.4,2.8-1.9c1.1-0.4,2.4-0.7,3.8-0.9c1.4-0.1,2.8-0.2,4.1-0.2v-0.3
			c0-0.9-0.3-1.6-1-2c-0.6-0.4-1.4-0.6-2.4-0.6c-0.9,0-1.7,0.2-2.5,0.6c-0.6,0.3-1.2,0.6-1.6,1c-0.2,0.2-0.6,0.2-0.8,0L209,46.6z
			 M219.8,54H219c-0.7,0-1.3,0-2,0.1c-0.7,0.1-1.3,0.2-1.8,0.4c-0.5,0.2-1,0.4-1.3,0.8c-0.3,0.3-0.5,0.8-0.5,1.3
			c0,0.3,0.1,0.6,0.2,0.9c0.2,0.2,0.4,0.4,0.6,0.6c0.2,0.1,0.5,0.3,0.9,0.3c0.3,0.1,0.6,0.1,0.9,0.1c1.2,0,2.2-0.3,2.8-1
			c0.7-0.7,1-1.6,1-2.8V54z"/>
		<path d="M214.4,67c-1.1,0-2.3-0.1-3.4-0.4c-1.3-0.3-2.5-0.9-3.6-1.6c-1.2-0.8-2.2-1.9-3-3.3c-0.8-1.4-1.2-3.1-1.2-5
			c0-3.1,1.2-5.1,2.2-6.2c0.2-0.2,0.3-0.4,0.5-0.5l-0.2-0.3c-0.9-1-1.4-2.4-1.4-3.8c0.1-1.4,0.7-2.7,1.8-3.6c1.4-1.2,3-2.1,4.8-2.8
			c1.9-0.7,3.9-1,6-1c2.1,0,3.9,0.3,5.5,0.8c1.8,0.7,3.4,1.7,4.6,3.2c1.1,1.3,1.9,2.9,2.4,4.8c0.4,1.6,0.6,3.4,0.6,5.5v8.7
			c0,2.8-2.3,5.1-5.1,5.1h-4.4c-0.6,0-1.2-0.1-1.7-0.3C217.3,66.8,215.9,67,214.4,67z"/>
	</g>
	<g>
		<path class="st1" d="M235.8,48.1c-0.3,0-0.6,0.3-0.6,0.6v6.5c0,0.9,0.2,1.5,0.5,2c0.3,0.4,0.9,0.6,1.8,0.6c0.3,0,0.6,0,0.9-0.1
			c0.3,0,0.6-0.1,0.8-0.2l0.1,4c0,0.3-0.2,0.5-0.4,0.6c-0.3,0.1-0.7,0.2-1.2,0.3c-0.6,0.1-1.3,0.2-1.9,0.2c-1.2,0-2.3-0.2-3.1-0.5
			c-0.8-0.3-1.5-0.8-2-1.3c-0.5-0.6-0.9-1.3-1.1-2.1c-0.2-0.8-0.3-1.7-0.3-2.7v-7.2c0-0.3-0.3-0.6-0.6-0.6h-1.8
			c-0.3,0-0.6-0.3-0.6-0.6v-3.3c0-0.3,0.3-0.6,0.6-0.6h1.8c0.3,0,0.6-0.3,0.6-0.6v-3.7c0-0.3,0.3-0.6,0.6-0.6h4.8
			c0.3,0,0.6,0.3,0.6,0.6V43c0,0.3,0.3,0.6,0.6,0.6h3.2c0.3,0,0.6,0.3,0.6,0.6v3.3c0,0.3-0.3,0.6-0.6,0.6H235.8z"/>
		<path d="M235.8,67c-1.8,0-3.3-0.2-4.7-0.7c-1.6-0.6-2.9-1.5-3.9-2.6c-1-1.1-1.6-2.4-2-3.8c-0.3-1.2-0.5-2.5-0.5-3.9v-3.7
			c-1.7-0.8-3-2.6-3-4.6v-3.3c0-2,1.2-3.8,2.9-4.6v-0.2c0-2.8,2.3-5.1,5.1-5.1h4.8c2.8,0,5,2.2,5.1,4.9c2.5,0.4,4.3,2.5,4.3,5.1v3.3
			c0,1.3-0.5,2.5-1.3,3.4l1-0.4l0.2,10.9c0,2.3-1.5,4.4-3.8,5c-0.5,0.1-1,0.2-1.6,0.4C237.6,66.9,236.7,67,235.8,67z"/>
	</g>
	<g>
		<path class="st1" d="M256.2,42.1c-0.2,0.3-0.6,0.3-0.9,0c-0.5-0.5-1-0.9-1.7-1.2c-0.9-0.4-1.7-0.6-2.5-0.6c-0.4,0-0.8,0-1.3,0.1
			c-0.4,0.1-0.8,0.2-1.2,0.4c-0.3,0.2-0.6,0.5-0.9,0.8c-0.2,0.3-0.4,0.8-0.4,1.3c0,0.4,0.1,0.8,0.3,1.1c0.2,0.3,0.5,0.6,0.8,0.8
			c0.4,0.2,0.8,0.4,1.3,0.6c0.5,0.2,1,0.4,1.7,0.6c0.9,0.3,1.8,0.6,2.8,1c1,0.4,1.8,0.8,2.6,1.4c0.8,0.6,1.4,1.3,2,2.2
			c0.5,0.9,0.8,2,0.8,3.3c0,1.5-0.3,2.8-0.8,3.9c-0.6,1.1-1.3,2-2.2,2.7c-0.9,0.7-2,1.2-3.2,1.6c-1.2,0.3-2.5,0.5-3.7,0.5
			c-1.9,0-3.7-0.3-5.4-1c-1.5-0.6-2.8-1.4-3.9-2.3c-0.3-0.2-0.3-0.7,0-0.9l3.2-3.3c0.2-0.3,0.7-0.3,0.9,0c0.6,0.6,1.3,1.1,2.1,1.5
			c1,0.5,2.1,0.8,3.1,0.8c0.5,0,0.9,0,1.4-0.1c0.4-0.1,0.8-0.3,1.2-0.5c0.3-0.2,0.6-0.5,0.8-0.9c0.2-0.4,0.3-0.8,0.3-1.3
			c0-0.5-0.1-0.9-0.4-1.3c-0.2-0.3-0.6-0.7-1.1-0.9c-0.5-0.3-1-0.5-1.7-0.8c-0.7-0.2-1.5-0.5-2.3-0.8c-0.8-0.3-1.7-0.6-2.5-1
			c-0.8-0.4-1.5-0.8-2.1-1.4c-0.6-0.6-1.1-1.3-1.5-2.1c-0.4-0.8-0.6-1.8-0.6-3c0-1.5,0.3-2.7,0.9-3.7s1.4-1.9,2.3-2.6
			c1-0.7,2-1.2,3.3-1.5c1.2-0.3,2.4-0.5,3.7-0.5c1.5,0,3,0.3,4.5,0.8c1.3,0.5,2.5,1.1,3.5,2c0.3,0.2,0.3,0.7,0,0.9L256.2,42.1z"/>
		<path d="M249.5,67.2c-2.4,0-4.8-0.4-7-1.3c-2.1-0.8-3.9-1.9-5.4-3.3c-1-0.9-1.6-2.3-1.7-3.7c0-1.4,0.5-2.8,1.5-3.8l3.2-3.3
			c0,0,0,0,0,0c-0.1,0-0.1-0.1-0.1-0.1c-1.1-1-1.9-2.2-2.6-3.5c-0.7-1.4-1-3.1-1-4.9c0-2.2,0.5-4.3,1.5-6c0.9-1.6,2.2-3,3.7-4
			c1.4-1,3-1.7,4.7-2.1c3.5-0.9,7.2-0.8,10.8,0.5c1.8,0.6,3.5,1.6,4.9,2.7c1.1,0.9,1.8,2.2,1.9,3.7c0.1,1.4-0.4,2.9-1.4,3.9l-2.8,3
			c1.2,0.9,2.2,2.1,3,3.4c0.9,1.6,1.4,3.5,1.4,5.6c0,2.2-0.4,4.2-1.3,6c-0.9,1.7-2.1,3.1-3.5,4.3c-1.4,1.1-3,1.8-4.7,2.3
			C252.9,67,251.2,67.2,249.5,67.2z M241.1,58.4C241.1,58.4,241.1,58.4,241.1,58.4C241.1,58.4,241.1,58.4,241.1,58.4z M249.9,52.9
			C249.9,52.9,249.9,52.9,249.9,52.9C249.9,52.9,249.9,52.9,249.9,52.9z M250.9,41C250.9,41,250.9,41,250.9,41
			C250.9,41,250.9,41,250.9,41z M258.5,38.9C258.5,38.9,258.5,38.9,258.5,38.9C258.5,38.9,258.5,38.9,258.5,38.9z M256,35.8
			C256,35.8,256,35.8,256,35.8L256,35.8z"/>
	</g>
	<g>
		<path class="st1" d="M275.3,62c-0.4,0-0.6-0.3-0.6-0.6V52c0-0.5,0-1-0.1-1.5c-0.1-0.5-0.2-0.9-0.4-1.2c-0.2-0.4-0.5-0.6-0.8-0.9
			c-0.4-0.2-0.8-0.3-1.4-0.3s-1,0.1-1.4,0.3c-0.4,0.2-0.7,0.5-1,0.9c-0.3,0.4-0.5,0.8-0.6,1.3c-0.1,0.5-0.2,1-0.2,1.5v9.4
			c0,0.4-0.3,0.6-0.6,0.6h-4.8c-0.4,0-0.6-0.3-0.6-0.6V44.2c0-0.4,0.3-0.6,0.6-0.6h4.6c0.4,0,0.6,0.3,0.6,0.6v1.9h0.1
			c0.2-0.4,0.5-0.8,0.9-1.2c0.4-0.4,0.8-0.7,1.3-1c0.5-0.3,1-0.5,1.6-0.7c0.6-0.2,1.2-0.3,1.8-0.3c1.2,0,2.3,0.2,3.1,0.7
			c0.9,0.4,1.6,1,2.1,1.7c0.5,0.7,0.9,1.5,1.1,2.4c0.2,0.9,0.4,1.8,0.4,2.7v10.8c0,0.4-0.3,0.6-0.6,0.6H275.3z"/>
		<path d="M280.1,66.6h-4.8c-1.4,0-2.7-0.6-3.6-1.5c-0.9,0.9-2.2,1.5-3.6,1.5h-4.8c-2.9,0-5.2-2.3-5.2-5.2V44.2
			c0-2.9,2.3-5.2,5.2-5.2h4.6c0.7,0,1.3,0.1,1.9,0.4c0.4-0.2,0.8-0.3,1.2-0.4c1-0.3,2.1-0.5,3.1-0.5c2,0,3.7,0.4,5.2,1.2
			c1.5,0.8,2.7,1.8,3.6,3c0.9,1.2,1.5,2.5,1.9,4c0.3,1.3,0.5,2.6,0.5,3.9v10.8C285.3,64.3,283,66.6,280.1,66.6z"/>
	</g>
	<g>
		<path class="st1" d="M284.7,46.6c-0.2-0.3-0.2-0.7,0-0.9c1-0.8,2.1-1.5,3.3-1.9c1.4-0.5,2.9-0.8,4.4-0.8c1.6,0,2.9,0.2,3.9,0.6
			c1.1,0.4,1.9,1,2.6,1.8c0.7,0.8,1.2,1.8,1.5,3c0.3,1.2,0.5,2.7,0.5,4.3v8.7c0,0.4-0.3,0.6-0.6,0.6H296c-0.4,0-0.6-0.3-0.6-0.6
			v-1.3h-0.1c-0.5,0.8-1.2,1.4-2.1,1.8c-1,0.4-2,0.6-3.1,0.6c-0.7,0-1.5-0.1-2.3-0.3c-0.8-0.2-1.5-0.5-2.2-1c-0.7-0.4-1.2-1-1.6-1.8
			c-0.4-0.7-0.6-1.7-0.6-2.7c0-1.3,0.4-2.4,1.1-3.2c0.7-0.8,1.7-1.4,2.8-1.9c1.1-0.4,2.4-0.7,3.8-0.9c1.4-0.1,2.8-0.2,4.1-0.2v-0.3
			c0-0.9-0.3-1.6-1-2c-0.6-0.4-1.4-0.6-2.4-0.6c-0.9,0-1.7,0.2-2.5,0.6c-0.6,0.3-1.1,0.6-1.6,1c-0.3,0.2-0.6,0.2-0.8-0.1L284.7,46.6
			z M295.4,54h-0.8c-0.7,0-1.3,0-2,0.1c-0.7,0.1-1.3,0.2-1.8,0.4c-0.5,0.2-1,0.4-1.3,0.8c-0.3,0.3-0.5,0.8-0.5,1.3
			c0,0.3,0.1,0.6,0.2,0.9c0.2,0.2,0.4,0.4,0.6,0.6c0.2,0.1,0.5,0.3,0.9,0.3c0.3,0.1,0.6,0.1,0.9,0.1c1.2,0,2.2-0.3,2.8-1
			c0.7-0.7,1-1.6,1-2.8V54z"/>
		<path d="M290.1,67c-1.1,0-2.3-0.1-3.4-0.4c-1.3-0.3-2.5-0.9-3.6-1.6c-1.2-0.8-2.2-1.9-3-3.3c-0.8-1.4-1.2-3.1-1.2-5
			c0-3.1,1.2-5.1,2.2-6.2c0.2-0.2,0.3-0.4,0.5-0.5l-0.2-0.2c-1-1-1.5-2.4-1.4-3.8c0.1-1.4,0.7-2.7,1.8-3.6c1.4-1.2,3-2.1,4.7-2.7
			c1.9-0.7,3.9-1,6-1c2.1,0,3.9,0.3,5.5,0.8c1.8,0.7,3.4,1.7,4.6,3.2c1.1,1.3,1.9,2.9,2.4,4.8c0.4,1.6,0.6,3.4,0.6,5.5v8.7
			c0,2.9-2.3,5.2-5.2,5.2H296c-0.6,0-1.2-0.1-1.7-0.3C293,66.8,291.5,67,290.1,67z M285,45.4C285,45.4,285,45.4,285,45.4
			C285,45.4,285,45.4,285,45.4z M288,43.5L288,43.5C288,43.5,288,43.5,288,43.5L288,43.5z"/>
	</g>
	<g>
		<path class="st1" d="M323.2,62h-5.9c-0.2,0-0.4-0.1-0.5-0.3l-5.8-8.6h-0.1v8.2c0,0.4-0.3,0.6-0.6,0.6h-4.8c-0.4,0-0.6-0.3-0.6-0.6
			V34.7c0-0.4,0.3-0.6,0.6-0.6h4.8c0.4,0,0.6,0.3,0.6,0.6v16.4h0.1l5.7-7.2c0.1-0.2,0.3-0.2,0.5-0.2h5.7c0.5,0,0.8,0.6,0.5,1.1
			l-5.9,6.9c-0.2,0.2-0.2,0.6,0,0.8l6.4,8.7C324,61.4,323.7,62,323.2,62z"/>
		<path d="M323.2,66.6h-5.9c-1.3,0-2.6-0.5-3.6-1.4c-0.9,0.9-2.2,1.4-3.6,1.4h-4.8c-2.9,0-5.2-2.3-5.2-5.2V34.7
			c0-2.9,2.3-5.2,5.2-5.2h4.8c2.9,0,5.2,2.3,5.2,5.2v4.7c0.6-0.2,1.2-0.3,1.8-0.3h5.7c2,0,3.9,1.2,4.7,3c0.8,1.8,0.5,4-0.8,5.5
			l-3.9,4.5l4.5,6.2c1.2,1.6,1.3,3.7,0.4,5.4C326.9,65.5,325.1,66.6,323.2,66.6z M320.5,59.2L320.5,59.2
			C320.5,59.2,320.5,59.2,320.5,59.2z M320.1,46.7L320.1,46.7C320.1,46.7,320.1,46.7,320.1,46.7z"/>
	</g>
</g>
<g class="st2">
	<path class="st1" d="M48.3,54.4c0,1.4-0.3,2.6-0.9,3.6c-0.6,1-1.3,1.8-2.3,2.4c-0.9,0.6-2,1-3.2,1.3c-1.2,0.3-2.4,0.4-3.7,0.4H27.9
		V35.8h10.4c1,0,2,0.1,3.1,0.3c1.1,0.2,2,0.6,2.9,1.1c0.9,0.5,1.6,1.2,2.1,2.1c0.5,0.9,0.8,2,0.8,3.3c0,1.5-0.4,2.7-1.2,3.6
		c-0.8,1-1.8,1.6-3.1,2.1v0.1c0.7,0.1,1.4,0.4,2.1,0.7c0.7,0.3,1.2,0.8,1.7,1.3c0.5,0.5,0.9,1.1,1.1,1.8
		C48.2,52.8,48.3,53.6,48.3,54.4z M41.1,43.4c0-0.9-0.3-1.5-1-1.9c-0.7-0.4-1.7-0.6-3-0.6H34v5.4h3.4c1.2,0,2.1-0.2,2.8-0.7
		C40.8,45.1,41.1,44.4,41.1,43.4z M42,53.8c0-1.1-0.4-1.8-1.2-2.3c-0.8-0.4-1.9-0.6-3.3-0.6H34v6h3.6c0.5,0,1,0,1.5-0.1
		c0.5-0.1,1-0.2,1.4-0.5c0.4-0.2,0.8-0.5,1.1-0.9C41.9,55,42,54.5,42,53.8z"/>
	<path class="st1" d="M69.6,53c0,0.2,0,0.5,0,0.7c0,0.2,0,0.5,0,0.7H56.2c0,0.5,0.2,1,0.5,1.4c0.3,0.4,0.6,0.8,1,1.1
		c0.4,0.3,0.9,0.5,1.4,0.7c0.5,0.2,1,0.3,1.6,0.3c1,0,1.8-0.2,2.4-0.5c0.7-0.4,1.2-0.8,1.6-1.4l4.2,2.7c-0.9,1.3-2,2.2-3.4,2.9
		c-1.4,0.7-3.1,1-4.9,1c-1.4,0-2.7-0.2-3.9-0.6c-1.2-0.4-2.3-1.1-3.2-1.9c-0.9-0.8-1.7-1.8-2.2-3.1c-0.5-1.2-0.8-2.6-0.8-4.1
		c0-1.5,0.3-2.9,0.8-4.1c0.5-1.2,1.2-2.3,2.1-3.1c0.9-0.9,1.9-1.5,3.1-2c1.2-0.5,2.5-0.7,3.9-0.7c1.4,0,2.6,0.2,3.7,0.7
		c1.1,0.5,2.1,1.1,2.9,2c0.8,0.9,1.4,1.9,1.9,3.1C69.4,50.1,69.6,51.5,69.6,53z M64,50.7c0-1-0.3-1.8-0.9-2.5c-0.6-0.7-1.5-1-2.7-1
		c-0.6,0-1.1,0.1-1.6,0.3c-0.5,0.2-0.9,0.4-1.3,0.8c-0.4,0.3-0.7,0.7-0.9,1.1c-0.2,0.4-0.3,0.9-0.4,1.4H64z"/>
	<path class="st1" d="M83.4,49c-0.5-0.5-1.1-0.9-1.7-1.2c-0.7-0.3-1.4-0.5-2.1-0.5c-0.6,0-1.1,0.1-1.6,0.3c-0.5,0.2-0.7,0.6-0.7,1.1
		c0,0.5,0.3,0.9,0.8,1.1c0.5,0.2,1.4,0.5,2.6,0.7c0.7,0.1,1.4,0.4,2.1,0.6c0.7,0.3,1.3,0.6,1.9,1.1c0.6,0.4,1,1,1.4,1.6
		c0.3,0.6,0.5,1.4,0.5,2.3c0,1.2-0.2,2.1-0.7,2.9c-0.5,0.8-1.1,1.5-1.8,1.9c-0.8,0.5-1.6,0.9-2.5,1.1c-0.9,0.2-1.9,0.3-2.8,0.3
		c-1.5,0-3-0.2-4.4-0.7c-1.4-0.5-2.6-1.2-3.6-2.1l3.4-3.6c0.5,0.6,1.2,1.1,2,1.5c0.8,0.4,1.6,0.6,2.5,0.6c0.5,0,1-0.1,1.5-0.4
		c0.5-0.2,0.7-0.6,0.7-1.2c0-0.6-0.3-1-0.9-1.3c-0.6-0.3-1.5-0.6-2.8-0.9c-0.6-0.1-1.3-0.3-1.9-0.6c-0.6-0.2-1.2-0.6-1.7-1
		c-0.5-0.4-0.9-0.9-1.2-1.6c-0.3-0.6-0.5-1.4-0.5-2.2c0-1.1,0.2-2.1,0.7-2.8c0.5-0.8,1.1-1.4,1.8-1.9c0.7-0.5,1.6-0.9,2.5-1.1
		c0.9-0.2,1.8-0.4,2.7-0.4c1.4,0,2.7,0.2,4.1,0.6c1.3,0.4,2.4,1.1,3.4,1.9L83.4,49z"/>
	<path class="st1" d="M106.7,46.8c1.4,1.6,2,3.6,2,6c0,1.5-0.3,2.8-0.8,4c-0.5,1.2-1.3,2.2-2.2,3.1c-0.9,0.9-2,1.5-3.3,2
		c-1.2,0.5-2.6,0.7-4,0.7c-1.1,0-2.2-0.1-3.1-0.4c-1-0.3-1.9-0.7-2.7-1.3l-2.8,2.7l-2.2-2.1l2.7-2.6c-0.6-0.7-1.2-1.6-1.5-2.7
		c-0.4-1-0.6-2.2-0.6-3.4c0-1.5,0.3-2.8,0.8-4c0.5-1.2,1.3-2.2,2.2-3.1c0.9-0.9,2-1.5,3.3-2c1.2-0.5,2.6-0.7,4-0.7
		c2.3,0,4.3,0.6,5.9,1.8l2.7-2.7l2.2,2.1L106.7,46.8z M100.5,48.5c-0.3-0.2-0.6-0.4-1-0.5c-0.4-0.1-0.8-0.2-1.2-0.2
		c-0.7,0-1.4,0.1-1.9,0.4c-0.6,0.3-1,0.6-1.4,1.1c-0.4,0.4-0.7,1-0.9,1.5c-0.2,0.6-0.3,1.2-0.3,1.8c0,0.4,0,0.8,0.1,1.1
		c0.1,0.4,0.2,0.7,0.4,1L100.5,48.5z M102.9,52.9c0-0.4,0-0.8-0.1-1.2c-0.1-0.4-0.2-0.7-0.4-1l-6.2,6.2c0.3,0.2,0.6,0.4,1,0.6
		c0.4,0.1,0.8,0.2,1.2,0.2c0.7,0,1.4-0.1,1.9-0.4c0.6-0.3,1-0.6,1.4-1.1c0.4-0.4,0.6-1,0.8-1.5C102.8,54.1,102.9,53.5,102.9,52.9z"
		/>
	<path class="st1" d="M131.2,60.3c0,1.8-0.3,3.4-0.8,4.7c-0.5,1.3-1.2,2.4-2.2,3.3c-0.9,0.9-2.1,1.5-3.4,2c-1.3,0.4-2.8,0.6-4.5,0.6
		c-1.6,0-3.3-0.2-5-0.7c-1.7-0.5-3.2-1.2-4.5-2.1l3-4.3c0.9,0.8,1.9,1.4,2.9,1.8c1.1,0.4,2.1,0.6,3.2,0.6c1.8,0,3.1-0.5,3.9-1.4
		c0.9-0.9,1.3-2.2,1.3-3.7v-1.1h-0.1c-0.6,0.7-1.3,1.3-2.3,1.8c-1,0.4-2.1,0.7-3.3,0.7c-1.4,0-2.7-0.3-3.7-0.8
		c-1.1-0.5-2-1.2-2.8-2.1c-0.8-0.9-1.3-1.9-1.7-3c-0.4-1.1-0.6-2.4-0.6-3.6c0-1.3,0.2-2.5,0.6-3.7c0.4-1.2,1-2.2,1.7-3.1
		c0.8-0.9,1.7-1.6,2.8-2.1c1.1-0.5,2.3-0.8,3.7-0.8c1.2,0,2.3,0.2,3.3,0.7c1.1,0.5,1.9,1.2,2.6,2.2h0.1v-2.4h5.7V60.3z M125.5,52.7
		c0-0.6-0.1-1.2-0.3-1.8c-0.2-0.6-0.5-1.1-0.9-1.5c-0.4-0.4-0.9-0.8-1.4-1c-0.5-0.2-1.2-0.4-1.9-0.4c-0.7,0-1.3,0.1-1.8,0.4
		c-0.5,0.2-1,0.6-1.4,1c-0.4,0.4-0.7,0.9-0.9,1.5c-0.2,0.6-0.3,1.2-0.3,1.8c0,0.6,0.1,1.2,0.3,1.8c0.2,0.6,0.5,1.1,0.9,1.5
		c0.4,0.4,0.8,0.8,1.4,1c0.5,0.3,1.1,0.4,1.8,0.4c0.7,0,1.3-0.1,1.9-0.4c0.6-0.3,1-0.6,1.4-1c0.4-0.4,0.7-0.9,0.9-1.5
		C125.4,54,125.5,53.4,125.5,52.7z"/>
	<path class="st1" d="M163.8,43.9c0,1.5-0.3,2.8-0.9,3.9c-0.6,1-1.3,1.9-2.3,2.5c-1,0.6-2.1,1.1-3.3,1.4c-1.3,0.3-2.6,0.4-3.9,0.4
		h-3.1V62h-6.3V35.8h9.6c1.4,0,2.8,0.1,4,0.4c1.2,0.3,2.3,0.7,3.3,1.4c0.9,0.6,1.7,1.5,2.2,2.5C163.5,41.1,163.8,42.4,163.8,43.9z
		 M157.5,43.9c0-0.6-0.1-1.1-0.4-1.5c-0.2-0.4-0.6-0.7-1-0.9c-0.4-0.2-0.9-0.4-1.4-0.4c-0.5-0.1-1.1-0.1-1.6-0.1h-2.8v6.2h2.7
		c0.6,0,1.2,0,1.7-0.1c0.5-0.1,1-0.3,1.5-0.5c0.4-0.2,0.8-0.6,1-1C157.4,45.1,157.5,44.6,157.5,43.9z"/>
	<path class="st1" d="M176.8,48.6c-0.3-0.1-0.5-0.1-0.8-0.1c-0.3,0-0.5,0-0.8,0c-0.8,0-1.5,0.1-2.1,0.4c-0.6,0.3-1,0.7-1.3,1.1
		c-0.3,0.4-0.6,0.9-0.7,1.4c-0.1,0.5-0.2,0.9-0.2,1.3V62h-6.1V43.6h5.8v2.7h0.1c0.5-0.9,1.1-1.7,2-2.3c0.9-0.6,1.9-0.9,3-0.9
		c0.2,0,0.5,0,0.7,0c0.2,0,0.4,0.1,0.6,0.1L176.8,48.6z"/>
	<path class="st1" d="M185.2,37.7c0,0.5-0.1,0.9-0.3,1.3c-0.2,0.4-0.4,0.8-0.7,1.1c-0.3,0.3-0.7,0.5-1.1,0.7
		c-0.4,0.2-0.9,0.3-1.4,0.3c-1,0-1.8-0.3-2.5-1c-0.7-0.7-1-1.4-1-2.4c0-0.4,0.1-0.9,0.3-1.3c0.2-0.4,0.4-0.8,0.7-1.1
		c0.3-0.3,0.7-0.5,1.1-0.7c0.4-0.2,0.9-0.3,1.4-0.3c0.5,0,0.9,0.1,1.4,0.3c0.4,0.2,0.8,0.4,1.1,0.7c0.3,0.3,0.6,0.6,0.7,1.1
		C185.1,36.8,185.2,37.3,185.2,37.7z M178.7,62V43.6h6.1V62H178.7z"/>
	<path class="st1" d="M200.2,62h-6.6l-7.3-18.4h6.7l3.9,12h0.1l3.9-12h6.5L200.2,62z"/>
	<path class="st1" d="M208.6,46.1c1.1-1,2.4-1.8,3.8-2.3c1.4-0.5,2.9-0.8,4.4-0.8c1.6,0,2.9,0.2,3.9,0.6c1.1,0.4,1.9,1,2.6,1.8
		c0.7,0.8,1.2,1.8,1.5,3c0.3,1.2,0.5,2.7,0.5,4.3V62h-5.6v-2h-0.1c-0.5,0.8-1.2,1.4-2.1,1.8c-1,0.4-2,0.6-3.1,0.6
		c-0.7,0-1.5-0.1-2.3-0.3c-0.8-0.2-1.5-0.5-2.2-1c-0.7-0.4-1.2-1-1.6-1.8c-0.4-0.7-0.6-1.7-0.6-2.7c0-1.3,0.4-2.4,1.1-3.2
		c0.7-0.8,1.7-1.4,2.8-1.9c1.1-0.4,2.4-0.7,3.8-0.9c1.4-0.1,2.8-0.2,4.1-0.2v-0.3c0-0.9-0.3-1.6-1-2c-0.6-0.4-1.4-0.6-2.4-0.6
		c-0.9,0-1.7,0.2-2.5,0.6c-0.8,0.4-1.5,0.8-2.1,1.3L208.6,46.1z M219.8,54H219c-0.7,0-1.3,0-2,0.1c-0.7,0.1-1.3,0.2-1.8,0.4
		c-0.5,0.2-1,0.4-1.3,0.8c-0.3,0.3-0.5,0.8-0.5,1.3c0,0.3,0.1,0.6,0.2,0.9c0.2,0.2,0.4,0.4,0.6,0.6c0.2,0.1,0.5,0.3,0.9,0.3
		c0.3,0.1,0.6,0.1,0.9,0.1c1.2,0,2.2-0.3,2.8-1c0.7-0.7,1-1.6,1-2.8V54z"/>
	<path class="st1" d="M235.2,48.1v7.1c0,0.9,0.2,1.5,0.5,2c0.3,0.4,0.9,0.6,1.8,0.6c0.3,0,0.6,0,0.9-0.1c0.3,0,0.6-0.1,0.8-0.2
		l0.1,4.4c-0.4,0.1-1,0.3-1.6,0.4c-0.6,0.1-1.3,0.2-1.9,0.2c-1.2,0-2.3-0.2-3.1-0.5c-0.8-0.3-1.5-0.8-2-1.3
		c-0.5-0.6-0.9-1.3-1.1-2.1c-0.2-0.8-0.3-1.7-0.3-2.7v-7.8h-3v-4.5h2.9v-4.8h6v4.8h4.3v4.5H235.2z"/>
	<path class="st1" d="M255.7,42.6c-0.5-0.7-1.3-1.2-2.1-1.6c-0.9-0.4-1.7-0.6-2.5-0.6c-0.4,0-0.8,0-1.3,0.1
		c-0.4,0.1-0.8,0.2-1.2,0.4c-0.3,0.2-0.6,0.5-0.9,0.8c-0.2,0.3-0.4,0.8-0.4,1.3c0,0.4,0.1,0.8,0.3,1.1c0.2,0.3,0.5,0.6,0.8,0.8
		c0.4,0.2,0.8,0.4,1.3,0.6c0.5,0.2,1,0.4,1.7,0.6c0.9,0.3,1.8,0.6,2.8,1c1,0.4,1.8,0.8,2.6,1.4c0.8,0.6,1.4,1.3,2,2.2
		c0.5,0.9,0.8,2,0.8,3.3c0,1.5-0.3,2.8-0.8,3.9c-0.6,1.1-1.3,2-2.2,2.7c-0.9,0.7-2,1.2-3.2,1.6c-1.2,0.3-2.5,0.5-3.7,0.5
		c-1.9,0-3.7-0.3-5.4-1c-1.8-0.7-3.2-1.6-4.4-2.8l4.1-4.2c0.6,0.8,1.5,1.5,2.5,2c1,0.5,2.1,0.8,3.1,0.8c0.5,0,0.9,0,1.4-0.1
		c0.4-0.1,0.8-0.3,1.2-0.5c0.3-0.2,0.6-0.5,0.8-0.9c0.2-0.4,0.3-0.8,0.3-1.3c0-0.5-0.1-0.9-0.4-1.3c-0.2-0.3-0.6-0.7-1.1-0.9
		c-0.5-0.3-1-0.5-1.7-0.8c-0.7-0.2-1.5-0.5-2.3-0.8c-0.8-0.3-1.7-0.6-2.5-1c-0.8-0.4-1.5-0.8-2.1-1.4c-0.6-0.6-1.1-1.3-1.5-2.1
		c-0.4-0.8-0.6-1.8-0.6-3c0-1.5,0.3-2.7,0.9-3.7s1.4-1.9,2.3-2.6c1-0.7,2-1.2,3.3-1.5c1.2-0.3,2.4-0.5,3.7-0.5c1.5,0,3,0.3,4.5,0.8
		c1.5,0.5,2.9,1.3,4.1,2.4L255.7,42.6z"/>
	<path class="st1" d="M274.7,62V52c0-0.5,0-1-0.1-1.5c-0.1-0.5-0.2-0.9-0.4-1.2c-0.2-0.4-0.5-0.6-0.8-0.9c-0.4-0.2-0.8-0.3-1.4-0.3
		s-1,0.1-1.4,0.3c-0.4,0.2-0.7,0.5-1,0.9c-0.3,0.4-0.5,0.8-0.6,1.3c-0.1,0.5-0.2,1-0.2,1.5v10h-6.1V43.6h5.9v2.6h0.1
		c0.2-0.4,0.5-0.8,0.9-1.2c0.4-0.4,0.8-0.7,1.3-1c0.5-0.3,1-0.5,1.6-0.7c0.6-0.2,1.2-0.3,1.8-0.3c1.2,0,2.3,0.2,3.1,0.7
		c0.9,0.4,1.6,1,2.1,1.7c0.5,0.7,0.9,1.5,1.1,2.4c0.2,0.9,0.4,1.8,0.4,2.7V62H274.7z"/>
	<path class="st1" d="M284.3,46.1c1.1-1,2.4-1.8,3.8-2.3c1.4-0.5,2.9-0.8,4.4-0.8c1.6,0,2.9,0.2,3.9,0.6c1.1,0.4,1.9,1,2.6,1.8
		c0.7,0.8,1.2,1.8,1.5,3c0.3,1.2,0.5,2.7,0.5,4.3V62h-5.6v-2h-0.1c-0.5,0.8-1.2,1.4-2.1,1.8c-1,0.4-2,0.6-3.1,0.6
		c-0.7,0-1.5-0.1-2.3-0.3c-0.8-0.2-1.5-0.5-2.2-1c-0.7-0.4-1.2-1-1.6-1.8c-0.4-0.7-0.6-1.7-0.6-2.7c0-1.3,0.4-2.4,1.1-3.2
		c0.7-0.8,1.7-1.4,2.8-1.9c1.1-0.4,2.4-0.7,3.8-0.9c1.4-0.1,2.8-0.2,4.1-0.2v-0.3c0-0.9-0.3-1.6-1-2c-0.6-0.4-1.4-0.6-2.4-0.6
		c-0.9,0-1.7,0.2-2.5,0.6c-0.8,0.4-1.5,0.8-2.1,1.3L284.3,46.1z M295.4,54h-0.8c-0.7,0-1.3,0-2,0.1c-0.7,0.1-1.3,0.2-1.8,0.4
		c-0.5,0.2-1,0.4-1.3,0.8c-0.3,0.3-0.5,0.8-0.5,1.3c0,0.3,0.1,0.6,0.2,0.9c0.2,0.2,0.4,0.4,0.6,0.6c0.2,0.1,0.5,0.3,0.9,0.3
		c0.3,0.1,0.6,0.1,0.9,0.1c1.2,0,2.2-0.3,2.8-1c0.7-0.7,1-1.6,1-2.8V54z"/>
	<path class="st1" d="M324.4,62h-7.5l-6-8.8h-0.1V62h-6.1v-28h6.1v17h0.1l5.9-7.5h7.4l-7.1,8.3L324.4,62z"/>
</g>
</svg>
