<?xml version="1.0" encoding="utf-8"?>
<!-- Generator: Adobe Illustrator 22.0.0, SVG Export Plug-In . SVG Version: 6.00 Build 0)  -->
<svg version="1.1" id="Layer_1" xmlns="http://www.w3.org/2000/svg" xmlns:xlink="http://www.w3.org/1999/xlink" x="0px" y="0px"
	 viewBox="0 0 353.5 102.5" style="enable-background:new 0 0 353.5 102.5;" xml:space="preserve">
<style type="text/css">
	.st0{fill:#F2912A;}
	.st1{enable-background:new    ;}
	.st2{fill:#FFFFFF;}
</style>
<title>startknap</title>
<g>
	<path class="st0" d="M331.8,94.9h-308c-11,0-20-9-20-20V28.1c0-11,9-20,20-20h308c11,0,20,9,20,20v46.7
		C351.8,85.9,342.8,94.9,331.8,94.9z"/>
	<path d="M331.8,96.7h-308C11.7,96.7,2,86.9,2,74.9V28.1c0-12,9.8-21.8,21.8-21.8h308c12,0,21.8,9.8,21.8,21.8v46.7
		C353.5,86.9,343.8,96.7,331.8,96.7z M23.7,9.9c-10,0-18.2,8.2-18.2,18.2v46.7c0,10,8.2,18.2,18.2,18.2h308c10,0,18.2-8.2,18.2-18.2
		V28.1c0-10-8.2-18.2-18.2-18.2H23.7z"/>
</g>
<g class="st1">
	<g>
		<path class="st2" d="M62.2,42.4v4.1c0,0.1,0.1,0.3,0.3,0.3h8.1c0.1,0,0.3,0.1,0.3,0.3V51c0,0.1-0.1,0.3-0.3,0.3h-8.1
			c-0.1,0-0.3,0.1-0.3,0.3v8.2c0,0.1-0.1,0.3-0.3,0.3h-4.8c-0.1,0-0.3-0.1-0.3-0.3V37.8c0-0.1,0.1-0.3,0.3-0.3h14.2
			c0.1,0,0.3,0.1,0.3,0.3v4.1c0,0.1-0.1,0.3-0.3,0.3h-8.9C62.3,42.2,62.2,42.3,62.2,42.4z"/>
		<path d="M61.9,63.1h-4.8c-1.9,0-3.5-1.6-3.5-3.5V37.8c0-1.9,1.6-3.5,3.5-3.5h14.2c1.9,0,3.5,1.6,3.5,3.5v4.1
			c0,1.2-0.6,2.3-1.5,2.9c0.5,0.6,0.8,1.4,0.8,2.2V51c0,1.9-1.6,3.5-3.5,3.5h-5.2v5.2C65.4,61.5,63.8,63.1,61.9,63.1z"/>
	</g>
	<g>
		<path class="st2" d="M88.5,59.7l-1.6-4.1c0-0.1-0.1-0.2-0.2-0.2h-8.3c-0.1,0-0.2,0.1-0.2,0.2l-1.5,4.1c0,0.1-0.1,0.2-0.2,0.2h-5.3
			c-0.2,0-0.3-0.2-0.2-0.3L80,37.7c0-0.1,0.1-0.2,0.2-0.2h4.9c0.1,0,0.2,0.1,0.2,0.2l9.1,21.8c0.1,0.2-0.1,0.3-0.2,0.3h-5.4
			C88.6,59.9,88.5,59.8,88.5,59.7z M86.1,32.9c0,0.5-0.1,0.9-0.3,1.4c-0.2,0.4-0.4,0.8-0.7,1.1c-0.3,0.3-0.7,0.5-1.1,0.7
			c-0.4,0.2-0.9,0.3-1.3,0.3c-0.5,0-0.9-0.1-1.3-0.3c-0.4-0.2-0.8-0.4-1.1-0.7c-0.3-0.3-0.6-0.6-0.7-1.1c-0.2-0.4-0.3-0.9-0.3-1.3
			c0-1,0.3-1.8,1-2.4c0.7-0.6,1.5-1,2.4-1c0.5,0,0.9,0.1,1.3,0.3c0.4,0.2,0.8,0.4,1.1,0.7c0.3,0.3,0.6,0.7,0.7,1.1
			C86,32,86.1,32.4,86.1,32.9z M82.3,44.2l-2.5,6.7c-0.1,0.2,0.1,0.3,0.2,0.3H85c0.2,0,0.3-0.2,0.2-0.3l-2.4-6.7
			C82.7,43.9,82.4,43.9,82.3,44.2z M84.6,32.9c0-0.5-0.2-1-0.5-1.3c-0.4-0.3-0.8-0.5-1.3-0.5c-0.5,0-1,0.2-1.3,0.5
			c-0.3,0.4-0.5,0.8-0.5,1.3c0,0.5,0.2,0.9,0.5,1.3c0.4,0.3,0.8,0.5,1.3,0.5c0.5,0,1-0.2,1.3-0.5C84.4,33.8,84.6,33.4,84.6,32.9z"/>
		<path d="M94.2,63.1h-5.4c-1.4,0-2.7-0.9-3.2-2.2l0,0l-0.9-2.2h-4.2l-0.8,2.1c-0.5,1.4-1.8,2.3-3.3,2.3h-5.3
			c-1.2,0-2.2-0.6-2.9-1.6c-0.6-1-0.8-2.2-0.3-3.3L77,36.5c0,0,0,0,0,0c-0.2-0.3-0.3-0.6-0.5-0.9c-0.4-0.8-0.5-1.7-0.5-2.6
			c0-1.9,0.7-3.5,2-4.8c1.3-1.2,2.9-1.9,4.7-1.9c0.9,0,1.7,0.2,2.5,0.5c0.8,0.3,1.5,0.8,2.1,1.4c0.6,0.6,1.1,1.3,1.5,2.1
			c0.4,0.8,0.5,1.7,0.5,2.6c0,0.9-0.2,1.8-0.5,2.6c-0.1,0.3-0.3,0.7-0.5,1c0,0,0,0,0,0l9.1,21.8c0.4,1.1,0.3,2.3-0.3,3.3
			C96.4,62.5,95.3,63.1,94.2,63.1z M82.9,40.8c0.1,0,0.2,0,0.3,0l0,0H82.9z M82.2,40.8L82.2,40.8C82.2,40.8,82.3,40.8,82.2,40.8
			L82.2,40.8z M82.6,33c0,0,0.2,0,0.2,0c0.1,0,0.1,0,0.1-0.1c0,0,0-0.1,0-0.1c0,0,0-0.1,0-0.1l-0.1-0.1c0,0-0.1,0-0.1,0
			c-0.1,0-0.2,0-0.2,0l-0.1,0c0,0,0,0.1,0,0.1C82.5,33,82.5,33,82.6,33L82.6,33z"/>
	</g>
	<g>
		<path class="st2" d="M124.8,48.7c0,2-0.4,3.6-1.1,5.1c-0.7,1.4-1.7,2.6-2.9,3.5c-1.2,0.9-2.5,1.6-4,2c-1.5,0.4-3,0.6-4.5,0.6h-8.1
			c-0.1,0-0.3-0.1-0.3-0.3V37.8c0-0.1,0.1-0.3,0.3-0.3h7.8c1.6,0,3.1,0.2,4.7,0.6c1.5,0.4,2.9,1,4.1,1.8c1.2,0.9,2.2,2,2.9,3.4
			C124.5,44.8,124.8,46.6,124.8,48.7z M119.2,48.7c0-1.3-0.2-2.3-0.6-3.1c-0.4-0.8-1-1.5-1.6-2c-0.7-0.5-1.5-0.8-2.3-1.1
			c-0.9-0.2-1.8-0.3-2.7-0.3h-2.4c-0.1,0-0.3,0.1-0.3,0.3V55c0,0.1,0.1,0.3,0.3,0.3h2.3c1,0,1.9-0.1,2.8-0.3
			c0.9-0.2,1.7-0.6,2.4-1.1c0.7-0.5,1.2-1.2,1.6-2C119,50.9,119.2,49.9,119.2,48.7z"/>
		<path d="M112.3,63.1h-8.1c-1.9,0-3.5-1.6-3.5-3.5V37.8c0-1.9,1.6-3.5,3.5-3.5h7.8c1.8,0,3.6,0.2,5.4,0.6c1.9,0.5,3.7,1.2,5.2,2.3
			c1.6,1.2,2.9,2.7,3.9,4.6c1,1.9,1.5,4.2,1.5,6.8c0,2.5-0.5,4.7-1.4,6.5c-0.9,1.8-2.2,3.4-3.8,4.6c-1.5,1.2-3.2,2-5.1,2.6
			C116,62.8,114.1,63.1,112.3,63.1z M112.5,45.4V52c0.5,0,0.9-0.1,1.3-0.2c0.5-0.1,0.9-0.3,1.2-0.6c0.3-0.2,0.5-0.5,0.7-0.8
			c0.1-0.3,0.3-0.8,0.3-1.7c0-1-0.2-1.5-0.3-1.7c-0.2-0.4-0.4-0.6-0.6-0.8c-0.3-0.2-0.7-0.4-1.2-0.5C113.4,45.5,113,45.4,112.5,45.4
			z"/>
	</g>
	<g>
		<path class="st2" d="M128.5,59.6V37.8c0-0.1,0.1-0.3,0.3-0.3h4.9c0.1,0,0.3,0.1,0.3,0.3v21.8c0,0.1-0.1,0.3-0.3,0.3h-4.9
			C128.6,59.9,128.5,59.8,128.5,59.6z"/>
		<path d="M133.7,63.1h-4.9c-1.9,0-3.5-1.6-3.5-3.5V37.8c0-1.9,1.6-3.5,3.5-3.5h4.9c1.9,0,3.5,1.6,3.5,3.5v21.8
			C137.2,61.5,135.6,63.1,133.7,63.1z"/>
	</g>
	<g>
		<path class="st2" d="M153,59.9c-0.1,0-0.2,0-0.2-0.1l-8.9-14.5h-0.1l0.1,14.4c0,0.1-0.1,0.3-0.3,0.3h-4.7c-0.1,0-0.3-0.1-0.3-0.3
			V37.8c0-0.1,0.1-0.3,0.3-0.3h5.8c0.1,0,0.2,0,0.2,0.1l8.9,14.5h0.1l-0.1-14.3c0-0.1,0.1-0.3,0.3-0.3h4.7c0.1,0,0.3,0.1,0.3,0.3
			v21.8c0,0.1-0.1,0.3-0.3,0.3H153z"/>
		<path d="M158.7,63.1H153c-1.2,0-2.3-0.6-3-1.6l-2.9-4.8l0,2.9c0,0.9-0.4,1.8-1,2.5c-0.7,0.7-1.5,1-2.5,1h-4.7
			c-1.9,0-3.5-1.6-3.5-3.5V37.8c0-1.9,1.6-3.5,3.5-3.5h5.8c1.2,0,2.3,0.6,3,1.6l2.9,4.7l0-2.9c0-0.9,0.4-1.8,1-2.5
			c0.7-0.7,1.5-1,2.5-1h4.7c1.9,0,3.5,1.6,3.5,3.5v21.8C162.2,61.5,160.7,63.1,158.7,63.1z M154.7,56.7h1.1v-1.3h-1.9L154.7,56.7z
			 M141.9,42.1h1.9l-0.8-1.3h-1.1V42.1z"/>
	</g>
	<g>
		<path class="st2" d="M188.7,44.4c0,1.3-0.2,2.4-0.7,3.3c-0.5,0.9-1.1,1.6-2,2.2c-0.8,0.5-1.8,0.9-2.8,1.2
			c-1.1,0.3-2.2,0.4-3.3,0.4h-2.4c-0.1,0-0.3,0.1-0.3,0.3v7.9c0,0.1-0.1,0.3-0.3,0.3H172c-0.1,0-0.3-0.1-0.3-0.3V37.8
			c0-0.1,0.1-0.3,0.3-0.3h7.9c1.2,0,2.4,0.1,3.4,0.4c1.1,0.2,2,0.6,2.8,1.2c0.8,0.5,1.4,1.2,1.9,2.1
			C188.4,42.1,188.7,43.1,188.7,44.4z M183.3,44.5c0-0.5-0.1-1-0.3-1.3c-0.2-0.3-0.5-0.6-0.9-0.8c-0.4-0.2-0.8-0.3-1.2-0.4
			c-0.5-0.1-0.9-0.1-1.4-0.1h-2.1c-0.1,0-0.3,0.1-0.3,0.3v4.8c0,0.1,0.1,0.3,0.3,0.3h2c0.5,0,1,0,1.5-0.1c0.5-0.1,0.9-0.2,1.2-0.4
			c0.4-0.2,0.7-0.5,0.9-0.8C183.2,45.4,183.3,45,183.3,44.5z"/>
		<path d="M176.9,63.1H172c-1.9,0-3.5-1.6-3.5-3.5V37.8c0-1.9,1.6-3.5,3.5-3.5h7.9c1.4,0,2.8,0.1,4.1,0.4c1.5,0.3,2.8,0.9,3.9,1.6
			c1.2,0.8,2.2,1.9,2.9,3.3c0.7,1.3,1,2.9,1,4.7c0,1.8-0.4,3.5-1.1,4.8c-0.7,1.4-1.7,2.5-3,3.3c-1.1,0.8-2.4,1.3-3.9,1.7
			c-1.1,0.3-2.3,0.4-3.5,0.5v5C180.4,61.5,178.8,63.1,176.9,63.1z M180.5,43.8C180.5,43.8,180.5,43.8,180.5,43.8
			S180.5,43.8,180.5,43.8z"/>
	</g>
	<g>
		<path class="st2" d="M203.9,59.8l-4.7-8.6c0-0.1-0.1-0.1-0.2-0.1h-1.4c-0.1,0-0.3,0.1-0.3,0.3v8.4c0,0.1-0.1,0.3-0.3,0.3h-4.8
			c-0.1,0-0.3-0.1-0.3-0.3V37.8c0-0.1,0.1-0.3,0.3-0.3h8.3c1.1,0,2.1,0.1,3.1,0.3c1,0.2,1.9,0.6,2.7,1.1c0.8,0.5,1.5,1.2,1.9,2.1
			c0.5,0.9,0.7,1.9,0.7,3.2c0,1.5-0.4,2.8-1.2,3.8c-0.8,1-1.8,1.7-3.1,2.1c-0.2,0.1-0.2,0.2-0.1,0.4l5.4,8.9c0.1,0.2,0,0.4-0.2,0.4
			h-5.7C204.1,59.9,204,59.8,203.9,59.8z M203.8,44.4c0-0.5-0.1-1-0.3-1.3c-0.2-0.3-0.5-0.6-0.9-0.8c-0.3-0.2-0.7-0.3-1.2-0.4
			c-0.4-0.1-0.8-0.1-1.3-0.1h-2.6c-0.1,0-0.3,0.1-0.3,0.3v4.7c0,0.1,0.1,0.3,0.3,0.3h2.3c0.4,0,0.9,0,1.4-0.1
			c0.5-0.1,0.9-0.2,1.3-0.4c0.4-0.2,0.7-0.5,0.9-0.8C203.7,45.4,203.8,45,203.8,44.4z"/>
		<path d="M209.9,63.1h-5.7c-1.3,0-2.4-0.7-3-1.8l0,0l-0.6-1.1c-0.3,1.7-1.7,2.9-3.4,2.9h-4.8c-1.9,0-3.5-1.6-3.5-3.5V37.8
			c0-1.9,1.6-3.5,3.5-3.5h8.3c1.3,0,2.6,0.1,3.8,0.4c1.4,0.3,2.7,0.8,3.8,1.6c1.3,0.8,2.3,1.9,3,3.2c0.8,1.3,1.1,3,1.1,4.8
			c0,2.3-0.7,4.2-1.9,5.8c-0.4,0.5-0.9,1-1.4,1.4l3.8,6.3c0.7,1.1,0.7,2.4,0.1,3.5C212.3,62.4,211.1,63.1,209.9,63.1z"/>
	</g>
	<g>
		<path class="st2" d="M227,59.6v-4.3c0-0.1-0.1-0.3-0.3-0.3h-6.9c-0.1,0-0.2,0-0.2,0.1l-2.6,4.6c0,0.1-0.1,0.1-0.2,0.1h-5.7
			c-0.2,0-0.3-0.2-0.2-0.4l12.8-21.8c0-0.1,0.1-0.1,0.2-0.1h17.4c0.1,0,0.3,0.1,0.3,0.3v4c0,0.1-0.1,0.3-0.3,0.3h-8.9
			c-0.1,0-0.3,0.1-0.3,0.3v3.7c0,0.1,0.1,0.3,0.3,0.3h8.4c0.1,0,0.3,0.1,0.3,0.3v3.8c0,0.1-0.1,0.3-0.3,0.3h-8.4
			c-0.1,0-0.3,0.1-0.3,0.3V55c0,0.1,0.1,0.3,0.3,0.3h9.5c0.1,0,0.3,0.1,0.3,0.3v4.1c0,0.1-0.1,0.3-0.3,0.3h-14.6
			C227.1,59.9,227,59.8,227,59.6z M227,42.1h-0.3l-4.6,8.2c-0.1,0.2,0,0.4,0.2,0.4h4.5c0.1,0,0.3-0.1,0.3-0.3V42.1z"/>
		<path d="M241.9,63.1h-14.6c-1.9,0-3.5-1.6-3.5-3.5v-1.3h-2.2l-1.8,3.1c-0.6,1.1-1.8,1.7-3,1.7h-5.7c-1.2,0-2.4-0.7-3-1.7
			c-0.6-1.1-0.6-2.4,0-3.5L220.9,36c0.6-1.1,1.8-1.7,3-1.7h17.4c1.9,0,3.5,1.6,3.5,3.5v4c0,1.1-0.5,2-1.2,2.6
			c0.4,0.6,0.7,1.3,0.7,2.1v3.8c0,0.8-0.3,1.5-0.7,2.1c1.1,0.6,1.8,1.7,1.8,3v4.1C245.3,61.5,243.8,63.1,241.9,63.1z M222.4,56.8
			L222.4,56.8C222.4,56.8,222.4,56.8,222.4,56.8z M219.1,51.8L219.1,51.8C219.1,51.9,219.1,51.9,219.1,51.8
			C219.1,51.9,219.1,51.9,219.1,51.8z"/>
	</g>
	<g>
		<path class="st2" d="M266.3,59.9c-0.1,0-0.3-0.1-0.3-0.3l0.1-15.5h-0.1l-5.7,15.6c0,0.1-0.1,0.2-0.2,0.2h-3.4
			c-0.1,0-0.2-0.1-0.2-0.2l-5.6-15.6h-0.1l0.1,15.5c0,0.1-0.1,0.3-0.3,0.3H246c-0.1,0-0.3-0.1-0.3-0.3V37.8c0-0.1,0.1-0.3,0.3-0.3
			h7.2c0.1,0,0.2,0.1,0.2,0.2l5,14.2h0.1l4.8-14.1c0-0.1,0.1-0.2,0.2-0.2h7.4c0.1,0,0.3,0.1,0.3,0.3v21.8c0,0.1-0.1,0.3-0.3,0.3
			H266.3z"/>
		<path d="M271.1,63.1h-4.8c-0.9,0-1.8-0.4-2.5-1c-0.3-0.3-0.5-0.6-0.6-0.9c-0.6,1.2-1.8,1.9-3.1,1.9h-3.4c-1.3,0-2.4-0.7-3-1.8
			c-0.1,0.3-0.3,0.5-0.6,0.7c-0.6,0.7-1.5,1-2.5,1H246c-1.9,0-3.5-1.6-3.5-3.5V37.8c0-1.9,1.6-3.5,3.5-3.5h7.2
			c1.5,0,2.8,0.9,3.3,2.3l2,5.6l1.9-5.5c0.5-1.4,1.8-2.4,3.3-2.4h7.4c1.9,0,3.5,1.6,3.5,3.5v21.8C274.6,61.5,273,63.1,271.1,63.1z
			 M247.6,59.7C247.6,59.7,247.6,59.7,247.6,59.7L247.6,59.7z M269.3,59.6L269.3,59.6C269.3,59.7,269.3,59.6,269.3,59.6z
			 M258.2,55.1l0.2,0.5l0.2-0.5H258.2z M265.8,40.9h2.3v-0.1L265.8,40.9L265.8,40.9z M249,40.9h2.2l0-0.1L249,40.9L249,40.9z"/>
	</g>
	<g>
		<path class="st2" d="M276,59.6V37.8c0-0.1,0.1-0.3,0.3-0.3h4.9c0.1,0,0.3,0.1,0.3,0.3v21.8c0,0.1-0.1,0.3-0.3,0.3h-4.9
			C276.1,59.9,276,59.8,276,59.6z"/>
		<path d="M281.2,63.1h-4.9c-1.9,0-3.5-1.6-3.5-3.5V37.8c0-1.9,1.6-3.5,3.5-3.5h4.9c1.9,0,3.5,1.6,3.5,3.5v21.8
			C284.7,61.5,283.1,63.1,281.2,63.1z"/>
	</g>
	<g>
		<path class="st2" d="M286.2,59.6V37.8c0-0.1,0.1-0.3,0.3-0.3H301c0.1,0,0.3,0.1,0.3,0.3v4c0,0.1-0.1,0.3-0.3,0.3h-9.3
			c-0.1,0-0.3,0.1-0.3,0.3v3.7c0,0.1,0.1,0.3,0.3,0.3h8.8c0.1,0,0.3,0.1,0.3,0.3v3.8c0,0.1-0.1,0.3-0.3,0.3h-8.8
			c-0.1,0-0.3,0.1-0.3,0.3V55c0,0.1,0.1,0.3,0.3,0.3h9.9c0.1,0,0.3,0.1,0.3,0.3v4.1c0,0.1-0.1,0.3-0.3,0.3h-15.1
			C286.3,59.9,286.2,59.8,286.2,59.6z"/>
		<path d="M301.5,63.1h-15.1c-1.9,0-3.5-1.6-3.5-3.5V37.8c0-1.9,1.6-3.5,3.5-3.5H301c1.9,0,3.5,1.6,3.5,3.5v4c0,1.1-0.5,2-1.2,2.6
			c0.4,0.6,0.7,1.3,0.7,2.1v3.8c0,0.8-0.3,1.5-0.7,2.1c1.1,0.6,1.8,1.7,1.8,3v4.1C305,61.5,303.4,63.1,301.5,63.1z"/>
	</g>
</g>
<g class="st1">
	<path class="st2" d="M62.2,42.2v4.6h8.6v4.4h-8.6v8.7h-5.3V37.6h14.7v4.6H62.2z"/>
	<path class="st2" d="M88.6,59.9l-1.7-4.4h-8.6l-1.6,4.4h-5.9L80,37.6h5.2l9.3,22.3H88.6z M86.1,32.9c0,0.5-0.1,0.9-0.3,1.4
		c-0.2,0.4-0.4,0.8-0.7,1.1c-0.3,0.3-0.7,0.5-1.1,0.7c-0.4,0.2-0.9,0.3-1.3,0.3c-0.5,0-0.9-0.1-1.3-0.3c-0.4-0.2-0.8-0.4-1.1-0.7
		c-0.3-0.3-0.6-0.6-0.7-1.1c-0.2-0.4-0.3-0.9-0.3-1.3c0-1,0.3-1.8,1-2.4c0.7-0.6,1.5-1,2.4-1c0.5,0,0.9,0.1,1.3,0.3
		c0.4,0.2,0.8,0.4,1.1,0.7c0.3,0.3,0.6,0.7,0.7,1.1C86,32,86.1,32.4,86.1,32.9z M82.6,43.5l-2.8,7.7h5.6L82.6,43.5z M84.6,32.9
		c0-0.5-0.2-1-0.5-1.3c-0.4-0.3-0.8-0.5-1.3-0.5c-0.5,0-1,0.2-1.3,0.5c-0.3,0.4-0.5,0.8-0.5,1.3c0,0.5,0.2,0.9,0.5,1.3
		c0.4,0.3,0.8,0.5,1.3,0.5c0.5,0,1-0.2,1.3-0.5C84.4,33.8,84.6,33.4,84.6,32.9z"/>
	<path class="st2" d="M124.8,48.7c0,2-0.4,3.6-1.1,5.1c-0.7,1.4-1.7,2.6-2.9,3.5c-1.2,0.9-2.5,1.6-4,2c-1.5,0.4-3,0.6-4.5,0.6H104
		V37.6h8.1c1.6,0,3.1,0.2,4.7,0.6c1.5,0.4,2.9,1,4.1,1.8c1.2,0.9,2.2,2,2.9,3.4C124.5,44.8,124.8,46.6,124.8,48.7z M119.2,48.7
		c0-1.3-0.2-2.3-0.6-3.1c-0.4-0.8-1-1.5-1.6-2c-0.7-0.5-1.5-0.8-2.3-1.1c-0.9-0.2-1.8-0.3-2.7-0.3h-2.7v13.1h2.6
		c1,0,1.9-0.1,2.8-0.3c0.9-0.2,1.7-0.6,2.4-1.1c0.7-0.5,1.2-1.2,1.6-2C119,50.9,119.2,49.9,119.2,48.7z"/>
	<path class="st2" d="M128.5,59.9V37.6h5.4v22.3H128.5z"/>
	<path class="st2" d="M152.9,59.9l-9-14.6h-0.1l0.1,14.6h-5.2V37.6h6.2l9,14.6h0.1l-0.1-14.6h5.2v22.3H152.9z"/>
	<path class="st2" d="M188.7,44.4c0,1.3-0.2,2.4-0.7,3.3c-0.5,0.9-1.1,1.6-2,2.2c-0.8,0.5-1.8,0.9-2.8,1.2c-1.1,0.3-2.2,0.4-3.3,0.4
		h-2.7v8.4h-5.4V37.6h8.2c1.2,0,2.4,0.1,3.4,0.4c1.1,0.2,2,0.6,2.8,1.2c0.8,0.5,1.4,1.2,1.9,2.1C188.4,42.1,188.7,43.1,188.7,44.4z
		 M183.3,44.5c0-0.5-0.1-1-0.3-1.3c-0.2-0.3-0.5-0.6-0.9-0.8c-0.4-0.2-0.8-0.3-1.2-0.4c-0.5-0.1-0.9-0.1-1.4-0.1h-2.4v5.3h2.3
		c0.5,0,1,0,1.5-0.1c0.5-0.1,0.9-0.2,1.2-0.4c0.4-0.2,0.7-0.5,0.9-0.8C183.2,45.4,183.3,45,183.3,44.5z"/>
	<path class="st2" d="M204,59.9l-4.8-8.9h-1.8v8.9H192V37.6h8.5c1.1,0,2.1,0.1,3.1,0.3c1,0.2,1.9,0.6,2.7,1.1
		c0.8,0.5,1.5,1.2,1.9,2.1c0.5,0.9,0.7,1.9,0.7,3.2c0,1.5-0.4,2.8-1.2,3.8c-0.8,1-2,1.8-3.4,2.2l5.8,9.6H204z M203.8,44.4
		c0-0.5-0.1-1-0.3-1.3c-0.2-0.3-0.5-0.6-0.9-0.8c-0.3-0.2-0.7-0.3-1.2-0.4c-0.4-0.1-0.8-0.1-1.3-0.1h-2.9v5.2h2.6
		c0.4,0,0.9,0,1.4-0.1c0.5-0.1,0.9-0.2,1.3-0.4c0.4-0.2,0.7-0.5,0.9-0.8C203.7,45.4,203.8,45,203.8,44.4z"/>
	<path class="st2" d="M227,59.9v-4.8h-7.3l-2.8,4.8h-6.3l13.1-22.3h17.8v4.5h-9.4v4.2h8.9v4.3h-8.9v4.6h10v4.6H227z M227,42.1h-0.3
		l-4.8,8.6h5.1V42.1z"/>
	<path class="st2" d="M266,59.9l0.1-15.8h-0.1l-5.8,15.8h-3.8l-5.6-15.8h-0.1l0.1,15.8h-5.1V37.6h7.7l5.1,14.3h0.1l4.9-14.3h7.8
		v22.3H266z"/>
	<path class="st2" d="M276,59.9V37.6h5.4v22.3H276z"/>
	<path class="st2" d="M286.2,59.9V37.6h15v4.5h-9.8v4.2h9.3v4.3h-9.3v4.6h10.4v4.6H286.2z"/>
</g>
</svg>
