<?xml version="1.0" encoding="utf-8"?>
<!-- Generator: Adobe Illustrator 22.0.0, SVG Export Plug-In . SVG Version: 6.00 Build 0)  -->
<svg version="1.1" id="Layer_1" xmlns="http://www.w3.org/2000/svg" xmlns:xlink="http://www.w3.org/1999/xlink" x="0px" y="0px"
	 viewBox="0 0 353.5 102.5" style="enable-background:new 0 0 353.5 102.5;" xml:space="preserve">
<style type="text/css">
	.st0{fill:#FF0000;}
	.st1{enable-background:new    ;}
	.st2{fill:#FFFFFF;}
</style>
<title>startknap</title>
<g>
	<path class="st0" d="M333.6,94H19.4c-8.7,0-15.8-7.1-15.8-15.8V21.8C3.6,13.1,10.7,6,19.4,6h314.1c8.7,0,15.8,7.1,15.8,15.8v56.3
		C349.4,86.9,342.3,94,333.6,94z"/>
	<path d="M333.6,96.1H19.4c-9.9,0-17.9-8-17.9-17.9V21.8c0-9.9,8-17.9,17.9-17.9h314.1c9.9,0,17.9,8,17.9,17.9v56.3
		C351.5,88.1,343.4,96.1,333.6,96.1z M19.4,8.1c-7.6,0-13.7,6.2-13.7,13.7v56.3c0,7.6,6.2,13.7,13.7,13.7h314.1
		c7.6,0,13.7-6.2,13.7-13.7V21.8c0-7.6-6.2-13.7-13.7-13.7H19.4z"/>
</g>
<g class="st1">
	<g>
		<path class="st2" d="M57.6,42.7c0,1.5-0.3,2.8-0.9,3.9c-0.6,1-1.3,1.9-2.3,2.5c-1,0.6-2.1,1.1-3.3,1.4c-1.3,0.3-2.6,0.4-3.9,0.4
			h-2.8c-0.2,0-0.4,0.2-0.4,0.4v9.2c0,0.2-0.2,0.4-0.4,0.4H38c-0.2,0-0.4-0.2-0.4-0.4V34.9c0-0.2,0.2-0.4,0.4-0.4h9.3
			c1.4,0,2.8,0.1,4,0.4c1.2,0.3,2.3,0.7,3.3,1.4s1.7,1.5,2.2,2.5C57.3,39.9,57.6,41.1,57.6,42.7z M51.2,42.7c0-0.6-0.1-1.1-0.4-1.5
			c-0.2-0.4-0.6-0.7-1-0.9c-0.4-0.2-0.9-0.4-1.4-0.4c-0.5-0.1-1.1-0.1-1.6-0.1h-2.4c-0.2,0-0.4,0.2-0.4,0.4v5.5
			c0,0.2,0.2,0.4,0.4,0.4h2.3c0.6,0,1.2,0,1.7-0.1c0.5-0.1,1-0.3,1.5-0.5c0.4-0.2,0.8-0.6,1-1C51.1,43.8,51.2,43.3,51.2,42.7z"/>
		<path d="M43.7,65.3H38c-2.7,0-4.9-2.2-4.9-4.9V34.9c0-2.7,2.2-4.9,4.9-4.9h9.3c1.8,0,3.5,0.2,5,0.5c1.8,0.4,3.4,1.1,4.8,2
			c1.5,1.1,2.8,2.4,3.7,4.1c0.9,1.7,1.3,3.7,1.3,5.9c0,2.3-0.5,4.3-1.4,6c-0.9,1.7-2.2,3.1-3.8,4.2c-1.4,0.9-3,1.6-4.8,2
			c-1.2,0.3-2.4,0.4-3.6,0.5v5C48.6,63.1,46.4,65.3,43.7,65.3z M46.7,42.7c0,0.1,0,0.4,0.2,0.7c0.2-0.2,0.4-0.4,0.6-0.6
			c0,0-0.1-0.1-0.1-0.1h0.2c0,0,0,0,0,0h-0.2c-0.2-0.2-0.4-0.4-0.6-0.5C46.7,42.4,46.7,42.6,46.7,42.7L46.7,42.7
			C46.7,42.7,46.7,42.7,46.7,42.7L46.7,42.7L46.7,42.7z M48.6,42.7h2.7H48.6z"/>
	</g>
	<g>
		<path class="st2" d="M70.6,47.4c-0.3-0.1-0.5-0.1-0.8-0.1c-0.3,0-0.5,0-0.8,0c-0.8,0-1.5,0.1-2.1,0.4c-0.6,0.3-1,0.7-1.3,1.1
			c-0.3,0.4-0.6,0.9-0.7,1.4c-0.1,0.5-0.2,0.9-0.2,1.3v9.1c0,0.2-0.2,0.4-0.4,0.4H59c-0.2,0-0.4-0.2-0.4-0.4V42.7
			c0-0.2,0.2-0.4,0.4-0.4h5.1c0.2,0,0.4,0.2,0.4,0.4V45h0.1c0.5-0.9,1.1-1.7,2-2.3c0.9-0.6,1.9-0.9,3-0.9c0.2,0,0.5,0,0.7,0
			c0.2,0,0.4,0.1,0.6,0.1L70.6,47.4z"/>
		<path d="M64.3,65.3H59c-2.7,0-4.9-2.2-4.9-4.9V42.7c0-2.7,2.2-4.9,4.9-4.9h5.1c0.5,0,1,0.1,1.5,0.2c1.5-0.7,3.3-0.9,5.1-0.7
			c0.6,0.1,1.1,0.2,1.5,0.3l3.3,1.1l-0.7,14.5l-5.5-1.5c0,0-0.1,0-0.1,0v8.7C69.2,63.1,67,65.3,64.3,65.3z M68.8,51.7
			C68.8,51.7,68.8,51.7,68.8,51.7S68.8,51.7,68.8,51.7z"/>
	</g>
	<g>
		<path class="st2" d="M89.5,45.4c-0.1,0.1-0.1,0.3,0,0.5c1.2,1.5,1.8,3.4,1.8,5.7c0,1.5-0.3,2.8-0.8,4c-0.5,1.2-1.3,2.2-2.2,3.1
			c-0.9,0.9-2,1.5-3.3,2c-1.2,0.5-2.6,0.7-4,0.7c-1.1,0-2.2-0.1-3.1-0.4c-0.9-0.3-1.7-0.6-2.4-1.1c-0.1-0.1-0.3-0.1-0.4,0l-2.3,2.3
			c-0.1,0.1-0.4,0.1-0.5,0l-1.7-1.6c-0.1-0.1-0.1-0.4,0-0.5l2.2-2.1c0.1-0.1,0.1-0.3,0-0.5c-0.5-0.7-1-1.5-1.3-2.4
			c-0.4-1-0.6-2.2-0.6-3.4c0-1.5,0.3-2.8,0.8-4c0.5-1.2,1.3-2.2,2.2-3.1c0.9-0.9,2-1.5,3.3-2c1.2-0.5,2.6-0.7,4-0.7
			c2.2,0,4.1,0.5,5.7,1.6c0.1,0.1,0.3,0.1,0.5,0l2.2-2.2c0.1-0.1,0.4-0.1,0.5,0l1.7,1.6c0.1,0.1,0.1,0.4,0,0.5L89.5,45.4z
			 M83.2,47.3c-0.3-0.2-0.6-0.4-1-0.5c-0.4-0.1-0.8-0.2-1.2-0.2c-0.7,0-1.4,0.1-1.9,0.4c-0.6,0.3-1,0.6-1.4,1.1
			c-0.4,0.4-0.7,1-0.9,1.5c-0.2,0.6-0.3,1.2-0.3,1.8c0,0.4,0,0.8,0.1,1.1c0.1,0.4,0.2,0.7,0.4,1L83.2,47.3z M85.5,51.6
			c0-0.4,0-0.8-0.1-1.2c-0.1-0.4-0.2-0.7-0.4-1l-6.2,6.2c0.3,0.2,0.6,0.4,1,0.6c0.4,0.1,0.8,0.2,1.2,0.2c0.7,0,1.4-0.1,1.9-0.4
			c0.6-0.3,1-0.6,1.4-1.1c0.4-0.4,0.6-1,0.8-1.5C85.4,52.8,85.5,52.2,85.5,51.6z"/>
		<path d="M72.5,66.8c-1.2,0-2.5-0.5-3.4-1.4l-1.7-1.6c-0.9-0.9-1.5-2.2-1.5-3.5c0-1.3,0.5-2.5,1.4-3.4c0-0.1-0.1-0.2-0.1-0.3
			c-0.6-1.5-0.9-3.2-0.9-5c0-2.1,0.4-4.1,1.2-5.9c0.8-1.8,1.9-3.3,3.3-4.6c1.3-1.2,2.9-2.2,4.7-2.9c1.8-0.7,3.6-1,5.6-1
			c1.8,0,3.5,0.3,5,0.8l0.1-0.1c1.9-1.9,5-1.9,6.9-0.1l1.7,1.7c0.9,0.9,1.5,2.2,1.5,3.5c0,1.2-0.5,2.4-1.3,3.4
			c0.6,1.6,0.9,3.3,0.9,5.2c0,2.1-0.4,4.1-1.2,5.9c-0.8,1.8-1.9,3.3-3.2,4.6c-1.4,1.3-3,2.3-4.8,2.9c-1.8,0.7-3.6,1-5.6,1
			c-1.5,0-3-0.2-4.5-0.6c-0.2,0-0.3-0.1-0.5-0.1l-0.2,0.2C74.9,66.3,73.7,66.8,72.5,66.8z M73.7,63.2L73.7,63.2
			C73.7,63.2,73.7,63.2,73.7,63.2z M93,43C93,43,93,43,93,43C93,43,93,43,93,43z M84,40.1C84,40.1,84,40.1,84,40.1L84,40.1z"/>
	</g>
	<g>
		<path class="st2" d="M105.5,60.8h-6.1c-0.1,0-0.3-0.1-0.3-0.2l-7-17.7c-0.1-0.2,0.1-0.5,0.3-0.5h5.9c0.2,0,0.3,0.1,0.3,0.2
			l3.8,11.7h0.1l3.8-11.7c0-0.1,0.2-0.2,0.3-0.2h5.7c0.3,0,0.4,0.3,0.3,0.5l-7,17.7C105.7,60.7,105.6,60.8,105.5,60.8z"/>
		<path d="M105.5,65.3h-6.1c-2,0-3.8-1.2-4.6-3.1l-7-17.7c-0.6-1.5-0.4-3.2,0.5-4.6c0.9-1.3,2.4-2.1,4-2.1h5.9
			c1.8,0,3.3,0.9,4.2,2.4c0.9-1.5,2.4-2.4,4.2-2.4h5.7c1.6,0,3.1,0.8,4,2.1c0.9,1.3,1.1,3,0.5,4.6l-7,17.7
			C109.3,64.1,107.5,65.3,105.5,65.3z M101.6,58.9C101.6,58.9,101.6,58.9,101.6,58.9L101.6,58.9z M103.3,58.9L103.3,58.9
			C103.3,58.9,103.3,58.9,103.3,58.9z M94.4,44C94.4,44,94.4,44,94.4,44L94.4,44z M110.7,44L110.7,44C110.7,44,110.7,44,110.7,44z"
			/>
	</g>
	<g>
		<path class="st2" d="M137.3,41.1c-0.1,0.2-0.4,0.1-0.5,0c-0.5-0.6-1.1-1-1.9-1.3c-0.9-0.4-1.7-0.6-2.5-0.6c-0.4,0-0.8,0-1.3,0.1
			c-0.4,0.1-0.8,0.2-1.2,0.4c-0.3,0.2-0.6,0.5-0.9,0.8c-0.2,0.3-0.4,0.8-0.4,1.3c0,0.4,0.1,0.8,0.3,1.1c0.2,0.3,0.5,0.6,0.8,0.8
			c0.4,0.2,0.8,0.4,1.3,0.6c0.5,0.2,1,0.4,1.7,0.6c0.9,0.3,1.8,0.6,2.8,1c1,0.4,1.8,0.8,2.6,1.4c0.8,0.6,1.4,1.3,2,2.2
			c0.5,0.9,0.8,2,0.8,3.3c0,1.5-0.3,2.8-0.8,3.9c-0.6,1.1-1.3,2-2.2,2.7c-0.9,0.7-2,1.2-3.2,1.6c-1.2,0.3-2.5,0.5-3.7,0.5
			c-1.9,0-3.7-0.3-5.4-1c-1.6-0.6-3-1.5-4.1-2.5c-0.1-0.1-0.1-0.4,0-0.5l3.6-3.7c0.1-0.1,0.4-0.1,0.5,0c0.6,0.7,1.4,1.2,2.3,1.7
			c1,0.5,2.1,0.8,3.1,0.8c0.5,0,0.9,0,1.4-0.1c0.4-0.1,0.8-0.3,1.2-0.5c0.3-0.2,0.6-0.5,0.8-0.9c0.2-0.4,0.3-0.8,0.3-1.3
			c0-0.5-0.1-0.9-0.4-1.3c-0.2-0.3-0.6-0.7-1.1-0.9c-0.5-0.3-1-0.5-1.7-0.8c-0.7-0.2-1.5-0.5-2.3-0.8c-0.8-0.3-1.7-0.6-2.5-1
			c-0.8-0.4-1.5-0.8-2.1-1.4c-0.6-0.6-1.1-1.3-1.5-2.1c-0.4-0.8-0.6-1.8-0.6-3c0-1.5,0.3-2.7,0.9-3.7c0.6-1,1.4-1.9,2.3-2.6
			c1-0.7,2-1.2,3.3-1.5c1.2-0.3,2.4-0.5,3.7-0.5c1.5,0,3,0.3,4.5,0.8c1.4,0.5,2.7,1.2,3.8,2.2c0.2,0.1,0.2,0.4,0,0.5L137.3,41.1z"/>
		<path d="M130.8,66c-2.4,0-4.8-0.4-7-1.3c-2.2-0.8-4.1-2-5.7-3.5c-0.9-0.9-1.5-2.1-1.5-3.5c0-1.3,0.5-2.6,1.4-3.5l3.4-3.5
			c-0.1,0-0.1-0.1-0.1-0.1c-1.1-1-1.9-2.2-2.6-3.5c-0.7-1.4-1-3.1-1-4.9c0-2.2,0.5-4.3,1.5-6c0.9-1.6,2.2-3,3.7-4
			c1.4-1,3-1.7,4.7-2.1c3.5-0.9,7.2-0.8,10.8,0.5c1.9,0.7,3.7,1.7,5.2,3c1,0.9,1.6,2.1,1.7,3.5c0.1,1.3-0.4,2.7-1.3,3.6l-3.1,3.2
			c1.2,0.9,2.2,2.1,3,3.4c0.9,1.6,1.4,3.5,1.4,5.6c0,2.2-0.4,4.2-1.3,6c-0.9,1.7-2.1,3.1-3.5,4.3c-1.4,1.1-3,1.8-4.7,2.3
			C134.2,65.8,132.5,66,130.8,66z M131.2,51.7C131.2,51.7,131.2,51.7,131.2,51.7C131.2,51.7,131.2,51.7,131.2,51.7z"/>
	</g>
	<g>
		<path class="st2" d="M164.4,51.5c0,1.3-0.2,2.5-0.6,3.7c-0.4,1.2-1,2.2-1.7,3.1c-0.8,0.9-1.7,1.6-2.8,2.2
			c-1.1,0.5-2.3,0.8-3.7,0.8c-1.1,0-2.2-0.2-3.2-0.7c-1-0.5-1.8-1.1-2.4-1.9h-0.1v10.6c0,0.2-0.2,0.4-0.4,0.4h-5.4
			c-0.2,0-0.4-0.2-0.4-0.4V42.7c0-0.2,0.2-0.4,0.4-0.4h5.1c0.2,0,0.4,0.2,0.4,0.4v1.9h0.1c0.6-0.7,1.4-1.4,2.4-1.9
			c1-0.6,2.2-0.8,3.5-0.8c1.3,0,2.5,0.3,3.6,0.8c1.1,0.5,2,1.2,2.8,2.1c0.8,0.9,1.3,1.9,1.7,3.1C164.2,49,164.4,50.2,164.4,51.5z
			 M158.5,51.5c0-0.6-0.1-1.2-0.3-1.7c-0.2-0.6-0.5-1.1-0.8-1.5c-0.4-0.4-0.8-0.8-1.4-1.1c-0.5-0.3-1.2-0.4-1.9-0.4
			c-0.7,0-1.3,0.1-1.9,0.4c-0.5,0.3-1,0.6-1.4,1.1c-0.4,0.4-0.7,1-0.9,1.5c-0.2,0.6-0.3,1.1-0.3,1.7c0,0.6,0.1,1.2,0.3,1.7
			c0.2,0.6,0.5,1.1,0.9,1.5c0.4,0.4,0.8,0.8,1.4,1.1c0.5,0.3,1.2,0.4,1.9,0.4c0.7,0,1.3-0.1,1.9-0.4c0.5-0.3,1-0.6,1.4-1.1
			c0.4-0.4,0.6-1,0.8-1.5C158.4,52.7,158.5,52.1,158.5,51.5z"/>
		<path d="M149.6,74.2h-5.4c-2.7,0-4.9-2.2-4.9-4.9V42.7c0-2.7,2.2-4.9,4.9-4.9h5.1c0.6,0,1.2,0.1,1.8,0.3c1.4-0.6,2.9-0.9,4.6-0.9
			c2,0,3.9,0.4,5.6,1.2c1.7,0.8,3.1,1.9,4.3,3.3c1.1,1.3,2,2.8,2.6,4.5c0.6,1.6,0.9,3.4,0.9,5.2c0,1.8-0.3,3.5-0.8,5.1
			c-0.6,1.7-1.4,3.3-2.5,4.6c-1.2,1.4-2.6,2.5-4.2,3.3c-1.7,0.9-3.6,1.3-5.7,1.3c-0.4,0-0.8,0-1.1,0v3.5
			C154.5,72,152.3,74.2,149.6,74.2z"/>
	</g>
	<g>
		<path class="st2" d="M173.9,36.5c0,0.5-0.1,0.9-0.3,1.3c-0.2,0.4-0.4,0.8-0.7,1.1c-0.3,0.3-0.7,0.5-1.1,0.7
			c-0.4,0.2-0.9,0.3-1.4,0.3c-1,0-1.8-0.3-2.5-1c-0.7-0.7-1-1.4-1-2.4c0-0.4,0.1-0.9,0.3-1.3c0.2-0.4,0.4-0.8,0.7-1.1
			c0.3-0.3,0.7-0.5,1.1-0.7c0.4-0.2,0.9-0.3,1.4-0.3c0.5,0,0.9,0.1,1.4,0.3c0.4,0.2,0.8,0.4,1.1,0.7c0.3,0.3,0.6,0.6,0.7,1.1
			C173.8,35.6,173.9,36,173.9,36.5z M167.4,60.4V42.7c0-0.2,0.2-0.4,0.4-0.4h5.4c0.2,0,0.4,0.2,0.4,0.4v17.7c0,0.2-0.2,0.4-0.4,0.4
			h-5.4C167.6,60.8,167.4,60.6,167.4,60.4z"/>
		<path d="M173.1,65.3h-5.4c-2.7,0-4.9-2.2-4.9-4.9V42.7c0-0.8,0.2-1.6,0.6-2.3c-0.7-1.2-1-2.5-1-3.9c0-1.1,0.2-2.1,0.6-3.1
			c0.4-1,1-1.9,1.8-2.6c0.7-0.6,1.5-1.2,2.4-1.5c1.9-0.8,4.2-0.9,6.2-0.1c1,0.4,1.8,0.9,2.6,1.6c0.7,0.7,1.3,1.5,1.7,2.4
			c0.5,1,0.7,2.1,0.7,3.2c0,1.1-0.2,2.2-0.7,3.2c-0.1,0.2-0.2,0.5-0.4,0.7c0.4,0.7,0.6,1.5,0.6,2.3v17.7
			C178,63.1,175.8,65.3,173.1,65.3z M170.4,35.3c-0.1,0-0.2,0-0.3,0.1c0,0-0.2,0.1-0.3,0.2c-0.1,0.1-0.2,0.2-0.2,0.3
			c-0.1,0.2-0.1,0.4-0.1,0.6c0,0.2,0,0.4,0.1,0.6c0.1,0.1,0.1,0.2,0.2,0.3c0.2,0.2,0.3,0.2,0.3,0.2c0.1,0,0.2,0.1,0.3,0.1
			c0.1,0,0.2,0,0.5-0.1c0,0,0.1,0,0.1-0.1c0.2-0.1,0.3-0.3,0.4-0.5c0.1-0.1,0.1-0.3,0.1-0.5c0-0.3-0.2-0.7-0.4-0.9
			C170.9,35.4,170.6,35.3,170.4,35.3z"/>
	</g>
	<g>
		<path class="st2" d="M177.5,60.4V33.2c0-0.2,0.2-0.4,0.4-0.4h5.5c0.2,0,0.4,0.2,0.4,0.4v27.3c0,0.2-0.2,0.4-0.4,0.4h-5.5
			C177.7,60.8,177.5,60.6,177.5,60.4z"/>
		<path d="M183.3,65.3h-5.5c-2.7,0-4.9-2.2-4.9-4.9V33.2c0-2.7,2.2-4.9,4.9-4.9h5.5c2.7,0,4.9,2.2,4.9,4.9v27.3
			C188.2,63.1,186,65.3,183.3,65.3z"/>
	</g>
	<g>
		<path class="st2" d="M187.7,60.4V33.2c0-0.2,0.2-0.4,0.4-0.4h5.5c0.2,0,0.4,0.2,0.4,0.4v27.3c0,0.2-0.2,0.4-0.4,0.4h-5.5
			C187.9,60.8,187.7,60.6,187.7,60.4z"/>
		<path d="M193.5,65.3h-5.5c-2.7,0-4.9-2.2-4.9-4.9V33.2c0-2.7,2.2-4.9,4.9-4.9h5.5c2.7,0,4.9,2.2,4.9,4.9v27.3
			C198.4,63.1,196.2,65.3,193.5,65.3z"/>
	</g>
	<g>
		<path class="st2" d="M216.1,51.8c0,0.2,0,0.5,0,0.7c0,0.2,0,0.5,0,0.7h-12.9c-0.2,0-0.4,0.2-0.3,0.5c0.1,0.3,0.2,0.7,0.4,1
			c0.3,0.4,0.6,0.8,1,1.1c0.4,0.3,0.9,0.5,1.4,0.7c0.5,0.2,1,0.3,1.6,0.3c1,0,1.8-0.2,2.4-0.5c0.6-0.3,1-0.7,1.4-1.1
			c0.1-0.1,0.3-0.2,0.5-0.1l3.6,2.3c0.2,0.1,0.2,0.4,0.1,0.5c-0.8,1.1-1.9,2-3.2,2.6c-1.4,0.7-3.1,1-4.9,1c-1.4,0-2.7-0.2-3.9-0.6
			c-1.2-0.4-2.3-1.1-3.2-1.9c-0.9-0.8-1.7-1.8-2.2-3.1c-0.5-1.2-0.8-2.6-0.8-4.1c0-1.5,0.3-2.9,0.8-4.1c0.5-1.2,1.2-2.3,2.1-3.1
			c0.9-0.9,1.9-1.5,3.1-2c1.2-0.5,2.5-0.7,3.9-0.7c1.4,0,2.6,0.2,3.7,0.7c1.1,0.5,2.1,1.1,2.9,2c0.8,0.9,1.4,1.9,1.9,3.1
			C215.9,48.8,216.1,50.2,216.1,51.8z M210.1,49.5c0.2,0,0.4-0.2,0.4-0.4c-0.1-0.8-0.4-1.5-0.9-2.1c-0.6-0.7-1.5-1-2.7-1
			c-0.6,0-1.1,0.1-1.6,0.3c-0.5,0.2-0.9,0.4-1.3,0.8c-0.4,0.3-0.7,0.7-0.9,1.1c-0.2,0.3-0.3,0.6-0.3,0.9c0,0.2,0.1,0.4,0.4,0.4
			H210.1z"/>
		<path d="M207,65.9c-1.9,0-3.7-0.3-5.4-0.9c-1.8-0.6-3.4-1.6-4.8-2.8c-1.4-1.3-2.5-2.8-3.3-4.6c-0.8-1.8-1.2-3.8-1.2-6
			c0-2.1,0.4-4.1,1.1-5.9c0.8-1.8,1.8-3.3,3.2-4.6c1.3-1.3,2.9-2.3,4.6-2.9c1.7-0.7,3.6-1,5.6-1c1.9,0,3.8,0.3,5.4,1
			c1.7,0.7,3.3,1.7,4.5,3.1c1.2,1.3,2.2,2.9,2.9,4.7c0.6,1.7,1,3.7,1,5.8v0.7c0,0.4,0,0.8-0.1,1.2l-0.4,4.1h-0.4c0,1-0.4,1.9-1,2.7
			c-1.3,1.7-2.9,3-4.9,4C211.9,65.4,209.6,65.9,207,65.9z M212.6,61.1C212.6,61.1,212.6,61.1,212.6,61.1L212.6,61.1z M206,48.7h1.3
			c-0.1-0.7-0.3-1.3-0.6-1.9C206.3,47.4,206,48,206,48.7z"/>
	</g>
	<g>
		<path class="st2" d="M226,46.9c-0.2,0-0.4,0.2-0.4,0.4v6.7c0,0.9,0.2,1.5,0.5,2c0.3,0.4,0.9,0.7,1.8,0.7c0.3,0,0.6,0,0.9-0.1
			c0.3,0,0.6-0.1,0.8-0.2l0.1,4.2c0,0.2-0.1,0.3-0.2,0.3c-0.4,0.1-0.8,0.2-1.3,0.3c-0.6,0.1-1.3,0.2-1.9,0.2c-1.2,0-2.3-0.2-3.1-0.5
			c-0.8-0.3-1.5-0.8-2-1.3c-0.5-0.6-0.9-1.3-1.1-2.1c-0.2-0.8-0.3-1.7-0.3-2.7v-7.4c0-0.2-0.2-0.4-0.4-0.4h-2.2
			c-0.2,0-0.4-0.2-0.4-0.4v-3.8c0-0.2,0.2-0.4,0.4-0.4h2.2c0.2,0,0.4-0.2,0.4-0.4v-4.1c0-0.2,0.2-0.4,0.4-0.4h5.2
			c0.2,0,0.4,0.2,0.4,0.4V42c0,0.2,0.2,0.4,0.4,0.4h3.6c0.2,0,0.4,0.2,0.4,0.4v3.8c0,0.2-0.2,0.4-0.4,0.4H226z"/>
		<path d="M226.2,65.8c-1.8,0-3.3-0.2-4.7-0.7c-1.6-0.6-2.9-1.5-3.9-2.6c-1-1.1-1.6-2.4-2-3.8c-0.3-1.2-0.5-2.5-0.5-3.9V51
			c-1.7-0.8-3-2.5-3-4.5v-3.8c0-2,1.2-3.7,2.9-4.5v-0.4c0-2.7,2.2-4.9,4.9-4.9h5.2c2.7,0,4.9,2.2,4.9,4.9c2.4,0.3,4.3,2.4,4.3,4.9
			v3.8c0,1.2-0.4,2.3-1.1,3.1l0.8-0.3l0.2,11c0,2.2-1.4,4.1-3.4,4.8c-0.6,0.2-1.2,0.3-1.9,0.4C228,65.7,227.1,65.8,226.2,65.8z"/>
	</g>
	<g>
		<path class="st2" d="M240.7,60.4V34.9c0-0.2,0.2-0.4,0.4-0.4h5.7c0.2,0,0.4,0.2,0.4,0.4v25.5c0,0.2-0.2,0.4-0.4,0.4H241
			C240.8,60.8,240.7,60.6,240.7,60.4z"/>
		<path d="M246.7,65.3H241c-2.7,0-4.9-2.2-4.9-4.9V34.9c0-2.7,2.2-4.9,4.9-4.9h5.7c2.7,0,4.9,2.2,4.9,4.9v25.5
			C251.6,63.1,249.4,65.3,246.7,65.3z"/>
	</g>
	<g>
		<path class="st2" d="M270.8,59.1c0,1.8-0.3,3.4-0.8,4.7c-0.5,1.3-1.2,2.4-2.2,3.3c-0.9,0.9-2.1,1.5-3.4,2
			c-1.3,0.4-2.8,0.6-4.5,0.6c-1.6,0-3.3-0.2-5-0.7c-1.6-0.5-3-1.1-4.2-1.9c-0.2-0.1-0.2-0.3-0.1-0.5l2.6-3.7
			c0.1-0.2,0.4-0.2,0.5-0.1c0.8,0.7,1.7,1.2,2.6,1.5c1.1,0.4,2.1,0.6,3.2,0.6c1.8,0,3.1-0.5,3.9-1.4c0.9-0.9,1.3-2.2,1.3-3.7v-1.1
			h-0.1c-0.6,0.7-1.3,1.3-2.3,1.8c-1,0.4-2.1,0.7-3.3,0.7c-1.4,0-2.7-0.3-3.7-0.8c-1.1-0.5-2-1.2-2.8-2.1c-0.8-0.9-1.3-1.9-1.7-3
			c-0.4-1.1-0.6-2.4-0.6-3.6c0-1.3,0.2-2.5,0.6-3.7c0.4-1.2,1-2.2,1.7-3.1c0.8-0.9,1.7-1.6,2.8-2.1c1.1-0.5,2.3-0.8,3.7-0.8
			c1.2,0,2.3,0.2,3.3,0.7c1.1,0.5,1.9,1.2,2.6,2.2h0.1v-2c0-0.2,0.2-0.4,0.4-0.4h5c0.2,0,0.4,0.2,0.4,0.4V59.1z M265,51.5
			c0-0.6-0.1-1.2-0.3-1.8c-0.2-0.6-0.5-1.1-0.9-1.5c-0.4-0.4-0.9-0.8-1.4-1c-0.5-0.2-1.2-0.4-1.9-0.4c-0.7,0-1.3,0.1-1.8,0.4
			c-0.5,0.2-1,0.6-1.4,1c-0.4,0.4-0.7,0.9-0.9,1.5c-0.2,0.6-0.3,1.2-0.3,1.8c0,0.6,0.1,1.2,0.3,1.8c0.2,0.6,0.5,1.1,0.9,1.5
			c0.4,0.4,0.8,0.8,1.4,1c0.5,0.3,1.1,0.4,1.8,0.4c0.7,0,1.3-0.1,1.9-0.4c0.6-0.3,1-0.6,1.4-1c0.4-0.4,0.7-0.9,0.9-1.5
			C264.9,52.7,265,52.1,265,51.5z"/>
		<path d="M260,74.2c-2,0-4.2-0.3-6.3-0.9c-2.1-0.6-3.9-1.5-5.5-2.6c-1.1-0.8-1.8-1.9-2-3.2c-0.2-1.3,0.1-2.6,0.8-3.7l2.1-3
			c-1-1.3-1.9-2.7-2.4-4.3c-0.6-1.6-0.8-3.3-0.8-5.1c0-1.8,0.3-3.5,0.8-5.1c0.6-1.7,1.4-3.2,2.6-4.5c1.2-1.4,2.6-2.5,4.2-3.3
			c1.7-0.8,3.6-1.3,5.7-1.3c1.6,0,3.1,0.3,4.6,0.8c0.5-0.2,1.1-0.3,1.8-0.3h5c2.7,0,4.9,2.2,4.9,4.9v16.3c0,2.4-0.4,4.5-1.1,6.3
			c-0.8,2-1.9,3.6-3.3,5c-1.4,1.3-3.2,2.3-5.1,3C264,73.9,262.1,74.2,260,74.2z M250.9,66.2C250.9,66.2,251,66.2,250.9,66.2
			C251,66.2,250.9,66.2,250.9,66.2z"/>
	</g>
	<g>
		<path class="st2" d="M293.1,51.8c0,0.2,0,0.5,0,0.7c0,0.2,0,0.5,0,0.7h-12.9c-0.3,0-0.5,0.2-0.4,0.5c0.1,0.3,0.2,0.6,0.4,0.9
			c0.3,0.4,0.6,0.8,1,1.1c0.4,0.3,0.9,0.5,1.4,0.7c0.5,0.2,1,0.3,1.6,0.3c1,0,1.8-0.2,2.4-0.5c0.6-0.3,1-0.7,1.4-1.1
			c0.1-0.2,0.3-0.2,0.5-0.1l3.6,2.2c0.2,0.1,0.3,0.4,0.1,0.6c-0.8,1.1-1.9,1.9-3.2,2.6c-1.4,0.7-3.1,1-4.9,1c-1.4,0-2.7-0.2-3.9-0.6
			c-1.2-0.4-2.3-1.1-3.2-1.9c-0.9-0.8-1.7-1.8-2.2-3.1c-0.5-1.2-0.8-2.6-0.8-4.1c0-1.5,0.3-2.9,0.8-4.1c0.5-1.2,1.2-2.3,2.1-3.1
			c0.9-0.9,1.9-1.5,3.1-2c1.2-0.5,2.5-0.7,3.9-0.7c1.4,0,2.6,0.2,3.7,0.7c1.1,0.5,2.1,1.1,2.9,2s1.4,1.9,1.9,3.1
			C292.8,48.8,293.1,50.2,293.1,51.8z M287.1,49.5c0.2,0,0.4-0.2,0.4-0.4c-0.1-0.8-0.4-1.5-0.9-2.1c-0.6-0.7-1.5-1-2.7-1
			c-0.6,0-1.1,0.1-1.6,0.3c-0.5,0.2-0.9,0.4-1.3,0.8c-0.4,0.3-0.7,0.7-0.9,1.1c-0.1,0.3-0.2,0.6-0.3,0.9c-0.1,0.2,0.1,0.5,0.4,0.5
			H287.1z"/>
		<path d="M284,65.9c-1.9,0-3.7-0.3-5.4-0.9c-1.8-0.6-3.4-1.6-4.8-2.8c-1.4-1.3-2.5-2.8-3.3-4.6c-0.8-1.8-1.2-3.8-1.2-6
			c0-2.1,0.4-4.1,1.1-5.9c0.8-1.8,1.8-3.3,3.2-4.6c1.3-1.3,2.9-2.3,4.6-2.9c1.7-0.7,3.6-1,5.6-1c1.9,0,3.8,0.3,5.4,1
			c1.7,0.7,3.3,1.7,4.5,3.1c1.2,1.3,2.2,2.9,2.9,4.7c0.6,1.7,1,3.7,1,5.8v0.7c0,0.4,0,0.8-0.1,1.2l-0.4,4.1h-0.4c0,1-0.4,2-1,2.8
			c-1.3,1.7-2.9,3-4.8,3.9C288.9,65.4,286.5,65.9,284,65.9z M282.9,48.7h1.3c-0.1-0.7-0.3-1.3-0.7-1.9C283.2,47.4,283,48,282.9,48.7
			z"/>
	</g>
	<g>
		<path class="st2" d="M308.5,60.8c-0.2,0-0.4-0.2-0.4-0.4v-9.7c0-0.5,0-1-0.1-1.5c-0.1-0.5-0.2-0.9-0.4-1.2
			c-0.2-0.4-0.5-0.6-0.8-0.9c-0.4-0.2-0.8-0.3-1.4-0.3s-1,0.1-1.4,0.3c-0.4,0.2-0.7,0.5-1,0.9c-0.3,0.4-0.5,0.8-0.6,1.3
			c-0.1,0.5-0.2,1-0.2,1.5v9.6c0,0.2-0.2,0.4-0.4,0.4h-5.3c-0.2,0-0.4-0.2-0.4-0.4V42.8c0-0.2,0.2-0.4,0.4-0.4h5.1
			c0.2,0,0.4,0.2,0.4,0.4v2.2h0.1c0.2-0.4,0.5-0.8,0.9-1.2c0.4-0.4,0.8-0.7,1.3-1c0.5-0.3,1-0.5,1.6-0.7c0.6-0.2,1.2-0.3,1.8-0.3
			c1.2,0,2.3,0.2,3.1,0.7c0.9,0.4,1.6,1,2.1,1.7c0.5,0.7,0.9,1.5,1.1,2.4c0.2,0.9,0.4,1.8,0.4,2.7v11c0,0.2-0.2,0.4-0.4,0.4H308.5z"
			/>
		<path d="M313.8,65.3h-5.3c-1.3,0-2.5-0.5-3.4-1.4c-0.9,0.8-2.1,1.4-3.4,1.4h-5.3c-2.7,0-4.9-2.2-4.9-4.9V42.8
			c0-2.7,2.2-4.9,4.9-4.9h5.1c0.6,0,1.2,0.1,1.8,0.3c0.4-0.1,0.7-0.3,1.1-0.4c1-0.3,2.1-0.5,3.1-0.5c2,0,3.7,0.4,5.2,1.2
			c1.5,0.8,2.7,1.8,3.6,3c0.9,1.2,1.5,2.5,1.9,4c0.3,1.3,0.5,2.6,0.5,3.9v11C318.7,63.1,316.5,65.3,313.8,65.3z"/>
	</g>
</g>
<g class="st1">
	<path class="st2" d="M57.6,42.7c0,1.5-0.3,2.8-0.9,3.9c-0.6,1-1.3,1.9-2.3,2.5c-1,0.6-2.1,1.1-3.3,1.4c-1.3,0.3-2.6,0.4-3.9,0.4H44
		v9.9h-6.3V34.6h9.6c1.4,0,2.8,0.1,4,0.4c1.2,0.3,2.3,0.7,3.3,1.4s1.7,1.5,2.2,2.5C57.3,39.9,57.6,41.1,57.6,42.7z M51.2,42.7
		c0-0.6-0.1-1.1-0.4-1.5c-0.2-0.4-0.6-0.7-1-0.9c-0.4-0.2-0.9-0.4-1.4-0.4c-0.5-0.1-1.1-0.1-1.6-0.1H44v6.2h2.7c0.6,0,1.2,0,1.7-0.1
		c0.5-0.1,1-0.3,1.5-0.5c0.4-0.2,0.8-0.6,1-1C51.1,43.8,51.2,43.3,51.2,42.7z"/>
	<path class="st2" d="M70.6,47.4c-0.3-0.1-0.5-0.1-0.8-0.1c-0.3,0-0.5,0-0.8,0c-0.8,0-1.5,0.1-2.1,0.4c-0.6,0.3-1,0.7-1.3,1.1
		c-0.3,0.4-0.6,0.9-0.7,1.4c-0.1,0.5-0.2,0.9-0.2,1.3v9.5h-6.1V42.4h5.8V45h0.1c0.5-0.9,1.1-1.7,2-2.3c0.9-0.6,1.9-0.9,3-0.9
		c0.2,0,0.5,0,0.7,0c0.2,0,0.4,0.1,0.6,0.1L70.6,47.4z"/>
	<path class="st2" d="M89.3,45.6c1.4,1.6,2,3.6,2,6c0,1.5-0.3,2.8-0.8,4c-0.5,1.2-1.3,2.2-2.2,3.1c-0.9,0.9-2,1.5-3.3,2
		c-1.2,0.5-2.6,0.7-4,0.7c-1.1,0-2.2-0.1-3.1-0.4c-1-0.3-1.9-0.7-2.7-1.3l-2.8,2.7l-2.2-2.1l2.7-2.6c-0.6-0.7-1.2-1.6-1.5-2.7
		c-0.4-1-0.6-2.2-0.6-3.4c0-1.5,0.3-2.8,0.8-4c0.5-1.2,1.3-2.2,2.2-3.1c0.9-0.9,2-1.5,3.3-2c1.2-0.5,2.6-0.7,4-0.7
		c2.3,0,4.3,0.6,5.9,1.8l2.7-2.7l2.2,2.1L89.3,45.6z M83.2,47.3c-0.3-0.2-0.6-0.4-1-0.5c-0.4-0.1-0.8-0.2-1.2-0.2
		c-0.7,0-1.4,0.1-1.9,0.4c-0.6,0.3-1,0.6-1.4,1.1c-0.4,0.4-0.7,1-0.9,1.5c-0.2,0.6-0.3,1.2-0.3,1.8c0,0.4,0,0.8,0.1,1.1
		c0.1,0.4,0.2,0.7,0.4,1L83.2,47.3z M85.5,51.6c0-0.4,0-0.8-0.1-1.2c-0.1-0.4-0.2-0.7-0.4-1l-6.2,6.2c0.3,0.2,0.6,0.4,1,0.6
		c0.4,0.1,0.8,0.2,1.2,0.2c0.7,0,1.4-0.1,1.9-0.4c0.6-0.3,1-0.6,1.4-1.1c0.4-0.4,0.6-1,0.8-1.5C85.4,52.8,85.5,52.2,85.5,51.6z"/>
	<path class="st2" d="M105.7,60.8h-6.6l-7.3-18.4h6.7l3.9,12h0.1l3.9-12h6.5L105.7,60.8z"/>
	<path class="st2" d="M137,41.4c-0.5-0.7-1.3-1.2-2.1-1.6c-0.9-0.4-1.7-0.6-2.5-0.6c-0.4,0-0.8,0-1.3,0.1c-0.4,0.1-0.8,0.2-1.2,0.4
		c-0.3,0.2-0.6,0.5-0.9,0.8c-0.2,0.3-0.4,0.8-0.4,1.3c0,0.4,0.1,0.8,0.3,1.1c0.2,0.3,0.5,0.6,0.8,0.8c0.4,0.2,0.8,0.4,1.3,0.6
		c0.5,0.2,1,0.4,1.7,0.6c0.9,0.3,1.8,0.6,2.8,1c1,0.4,1.8,0.8,2.6,1.4c0.8,0.6,1.4,1.3,2,2.2c0.5,0.9,0.8,2,0.8,3.3
		c0,1.5-0.3,2.8-0.8,3.9c-0.6,1.1-1.3,2-2.2,2.7c-0.9,0.7-2,1.2-3.2,1.6c-1.2,0.3-2.5,0.5-3.7,0.5c-1.9,0-3.7-0.3-5.4-1
		c-1.8-0.7-3.2-1.6-4.4-2.8l4.1-4.2c0.6,0.8,1.5,1.5,2.5,2c1,0.5,2.1,0.8,3.1,0.8c0.5,0,0.9,0,1.4-0.1c0.4-0.1,0.8-0.3,1.2-0.5
		c0.3-0.2,0.6-0.5,0.8-0.9c0.2-0.4,0.3-0.8,0.3-1.3c0-0.5-0.1-0.9-0.4-1.3c-0.2-0.3-0.6-0.7-1.1-0.9c-0.5-0.3-1-0.5-1.7-0.8
		c-0.7-0.2-1.5-0.5-2.3-0.8c-0.8-0.3-1.7-0.6-2.5-1c-0.8-0.4-1.5-0.8-2.1-1.4c-0.6-0.6-1.1-1.3-1.5-2.1c-0.4-0.8-0.6-1.8-0.6-3
		c0-1.5,0.3-2.7,0.9-3.7c0.6-1,1.4-1.9,2.3-2.6c1-0.7,2-1.2,3.3-1.5c1.2-0.3,2.4-0.5,3.7-0.5c1.5,0,3,0.3,4.5,0.8
		c1.5,0.5,2.9,1.3,4.1,2.4L137,41.4z"/>
	<path class="st2" d="M164.4,51.5c0,1.3-0.2,2.5-0.6,3.7c-0.4,1.2-1,2.2-1.7,3.1c-0.8,0.9-1.7,1.6-2.8,2.2c-1.1,0.5-2.3,0.8-3.7,0.8
		c-1.1,0-2.2-0.2-3.2-0.7c-1-0.5-1.8-1.1-2.4-1.9h-0.1v10.9h-6.1V42.4h5.8v2.3h0.1c0.6-0.7,1.4-1.4,2.4-1.9c1-0.6,2.2-0.8,3.5-0.8
		c1.3,0,2.5,0.3,3.6,0.8c1.1,0.5,2,1.2,2.8,2.1c0.8,0.9,1.3,1.9,1.7,3.1C164.2,49,164.4,50.2,164.4,51.5z M158.5,51.5
		c0-0.6-0.1-1.2-0.3-1.7c-0.2-0.6-0.5-1.1-0.8-1.5c-0.4-0.4-0.8-0.8-1.4-1.1c-0.5-0.3-1.2-0.4-1.9-0.4c-0.7,0-1.3,0.1-1.9,0.4
		c-0.5,0.3-1,0.6-1.4,1.1c-0.4,0.4-0.7,1-0.9,1.5c-0.2,0.6-0.3,1.1-0.3,1.7c0,0.6,0.1,1.2,0.3,1.7c0.2,0.6,0.5,1.1,0.9,1.5
		c0.4,0.4,0.8,0.8,1.4,1.1c0.5,0.3,1.2,0.4,1.9,0.4c0.7,0,1.3-0.1,1.9-0.4c0.5-0.3,1-0.6,1.4-1.1c0.4-0.4,0.6-1,0.8-1.5
		C158.4,52.7,158.5,52.1,158.5,51.5z"/>
	<path class="st2" d="M173.9,36.5c0,0.5-0.1,0.9-0.3,1.3c-0.2,0.4-0.4,0.8-0.7,1.1c-0.3,0.3-0.7,0.5-1.1,0.7
		c-0.4,0.2-0.9,0.3-1.4,0.3c-1,0-1.8-0.3-2.5-1c-0.7-0.7-1-1.4-1-2.4c0-0.4,0.1-0.9,0.3-1.3c0.2-0.4,0.4-0.8,0.7-1.1
		c0.3-0.3,0.7-0.5,1.1-0.7c0.4-0.2,0.9-0.3,1.4-0.3c0.5,0,0.9,0.1,1.4,0.3c0.4,0.2,0.8,0.4,1.1,0.7c0.3,0.3,0.6,0.6,0.7,1.1
		C173.8,35.6,173.9,36,173.9,36.5z M167.4,60.8V42.4h6.1v18.4H167.4z"/>
	<path class="st2" d="M177.5,60.8v-28h6.2v28H177.5z"/>
	<path class="st2" d="M187.7,60.8v-28h6.2v28H187.7z"/>
	<path class="st2" d="M216.1,51.8c0,0.2,0,0.5,0,0.7c0,0.2,0,0.5,0,0.7h-13.4c0,0.5,0.2,1,0.5,1.4c0.3,0.4,0.6,0.8,1,1.1
		c0.4,0.3,0.9,0.5,1.4,0.7c0.5,0.2,1,0.3,1.6,0.3c1,0,1.8-0.2,2.4-0.5c0.7-0.4,1.2-0.8,1.6-1.4l4.2,2.7c-0.9,1.3-2,2.2-3.4,2.9
		c-1.4,0.7-3.1,1-4.9,1c-1.4,0-2.7-0.2-3.9-0.6c-1.2-0.4-2.3-1.1-3.2-1.9c-0.9-0.8-1.7-1.8-2.2-3.1c-0.5-1.2-0.8-2.6-0.8-4.1
		c0-1.5,0.3-2.9,0.8-4.1c0.5-1.2,1.2-2.3,2.1-3.1c0.9-0.9,1.9-1.5,3.1-2c1.2-0.5,2.5-0.7,3.9-0.7c1.4,0,2.6,0.2,3.7,0.7
		c1.1,0.5,2.1,1.1,2.9,2c0.8,0.9,1.4,1.9,1.9,3.1C215.9,48.8,216.1,50.2,216.1,51.8z M210.5,49.5c0-1-0.3-1.8-0.9-2.5
		c-0.6-0.7-1.5-1-2.7-1c-0.6,0-1.1,0.1-1.6,0.3c-0.5,0.2-0.9,0.4-1.3,0.8c-0.4,0.3-0.7,0.7-0.9,1.1c-0.2,0.4-0.3,0.9-0.4,1.4H210.5z
		"/>
	<path class="st2" d="M225.6,46.9v7.1c0,0.9,0.2,1.5,0.5,2c0.3,0.4,0.9,0.7,1.8,0.7c0.3,0,0.6,0,0.9-0.1c0.3,0,0.6-0.1,0.8-0.2
		l0.1,4.4c-0.4,0.1-1,0.3-1.6,0.4c-0.6,0.1-1.3,0.2-1.9,0.2c-1.2,0-2.3-0.2-3.1-0.5c-0.8-0.3-1.5-0.8-2-1.3
		c-0.5-0.6-0.9-1.3-1.1-2.1c-0.2-0.8-0.3-1.7-0.3-2.7v-7.8h-3v-4.5h2.9v-4.8h6v4.8h4.3v4.5H225.6z"/>
	<path class="st2" d="M240.7,60.8V34.6h6.4v26.2H240.7z"/>
	<path class="st2" d="M270.8,59.1c0,1.8-0.3,3.4-0.8,4.7c-0.5,1.3-1.2,2.4-2.2,3.3c-0.9,0.9-2.1,1.5-3.4,2c-1.3,0.4-2.8,0.6-4.5,0.6
		c-1.6,0-3.3-0.2-5-0.7c-1.7-0.5-3.2-1.2-4.5-2.1l3-4.3c0.9,0.8,1.9,1.4,2.9,1.8c1.1,0.4,2.1,0.6,3.2,0.6c1.8,0,3.1-0.5,3.9-1.4
		c0.9-0.9,1.3-2.2,1.3-3.7v-1.1h-0.1c-0.6,0.7-1.3,1.3-2.3,1.8c-1,0.4-2.1,0.7-3.3,0.7c-1.4,0-2.7-0.3-3.7-0.8
		c-1.1-0.5-2-1.2-2.8-2.1c-0.8-0.9-1.3-1.9-1.7-3c-0.4-1.1-0.6-2.4-0.6-3.6c0-1.3,0.2-2.5,0.6-3.7c0.4-1.2,1-2.2,1.7-3.1
		c0.8-0.9,1.7-1.6,2.8-2.1c1.1-0.5,2.3-0.8,3.7-0.8c1.2,0,2.3,0.2,3.3,0.7c1.1,0.5,1.9,1.2,2.6,2.2h0.1v-2.4h5.7V59.1z M265,51.5
		c0-0.6-0.1-1.2-0.3-1.8c-0.2-0.6-0.5-1.1-0.9-1.5c-0.4-0.4-0.9-0.8-1.4-1c-0.5-0.2-1.2-0.4-1.9-0.4c-0.7,0-1.3,0.1-1.8,0.4
		c-0.5,0.2-1,0.6-1.4,1c-0.4,0.4-0.7,0.9-0.9,1.5c-0.2,0.6-0.3,1.2-0.3,1.8c0,0.6,0.1,1.2,0.3,1.8c0.2,0.6,0.5,1.1,0.9,1.5
		c0.4,0.4,0.8,0.8,1.4,1c0.5,0.3,1.1,0.4,1.8,0.4c0.7,0,1.3-0.1,1.9-0.4c0.6-0.3,1-0.6,1.4-1c0.4-0.4,0.7-0.9,0.9-1.5
		C264.9,52.7,265,52.1,265,51.5z"/>
	<path class="st2" d="M293.1,51.8c0,0.2,0,0.5,0,0.7c0,0.2,0,0.5,0,0.7h-13.4c0,0.5,0.2,1,0.5,1.4c0.3,0.4,0.6,0.8,1,1.1
		c0.4,0.3,0.9,0.5,1.4,0.7c0.5,0.2,1,0.3,1.6,0.3c1,0,1.8-0.2,2.4-0.5c0.7-0.4,1.2-0.8,1.6-1.4l4.2,2.7c-0.9,1.3-2,2.2-3.4,2.9
		c-1.4,0.7-3.1,1-4.9,1c-1.4,0-2.7-0.2-3.9-0.6c-1.2-0.4-2.3-1.1-3.2-1.9c-0.9-0.8-1.7-1.8-2.2-3.1c-0.5-1.2-0.8-2.6-0.8-4.1
		c0-1.5,0.3-2.9,0.8-4.1c0.5-1.2,1.2-2.3,2.1-3.1c0.9-0.9,1.9-1.5,3.1-2c1.2-0.5,2.5-0.7,3.9-0.7c1.4,0,2.6,0.2,3.7,0.7
		c1.1,0.5,2.1,1.1,2.9,2s1.4,1.9,1.9,3.1C292.8,48.8,293.1,50.2,293.1,51.8z M287.5,49.5c0-1-0.3-1.8-0.9-2.5c-0.6-0.7-1.5-1-2.7-1
		c-0.6,0-1.1,0.1-1.6,0.3c-0.5,0.2-0.9,0.4-1.3,0.8c-0.4,0.3-0.7,0.7-0.9,1.1c-0.2,0.4-0.3,0.9-0.4,1.4H287.5z"/>
	<path class="st2" d="M308.1,60.8V50.7c0-0.5,0-1-0.1-1.5c-0.1-0.5-0.2-0.9-0.4-1.2c-0.2-0.4-0.5-0.6-0.8-0.9
		c-0.4-0.2-0.8-0.3-1.4-0.3s-1,0.1-1.4,0.3c-0.4,0.2-0.7,0.5-1,0.9c-0.3,0.4-0.5,0.8-0.6,1.3c-0.1,0.5-0.2,1-0.2,1.5v10H296V42.4
		h5.9v2.6h0.1c0.2-0.4,0.5-0.8,0.9-1.2c0.4-0.4,0.8-0.7,1.3-1c0.5-0.3,1-0.5,1.6-0.7c0.6-0.2,1.2-0.3,1.8-0.3c1.2,0,2.3,0.2,3.1,0.7
		c0.9,0.4,1.6,1,2.1,1.7c0.5,0.7,0.9,1.5,1.1,2.4c0.2,0.9,0.4,1.8,0.4,2.7v11.4H308.1z"/>
</g>
</svg>
