<svg xmlns="http://www.w3.org/2000/svg" viewBox="0 0 242.08 174.66"><defs><style>.cls-1{fill:#152230;}.cls-2{fill:#f18f29;}.cls-3{fill:#fff;}</style></defs><title>ps_logo</title><g id="Layer_2" data-name="Layer 2"><g id="Layer_4" data-name="Layer 4"><path class="cls-1" d="M35.23,86.21A11.8,11.8,0,0,0,32,88.42c-3.65,2.75-7.26,5.54-10.89,8.31-.29.22-.55.64-1,.48s-.31-.74-.31-1.13c0-5.62-.06-11.24,0-16.85,0-1.32-.4-1.58-1.61-1.55-3.57.08-7.14,0-10.71,0A7.42,7.42,0,0,1,.05,70c0-20.52.1-41,0-61.55C0,3.25,3.72,0,8.51,0Q121.4.14,234.29.06a7.39,7.39,0,0,1,7.78,7.79q0,31.07,0,62.12c0,3.89-2,6.44-6.16,7.67-.81,0-1.61,0-2.42,0H47.62a4,4,0,0,0-2.87.91c-1.82,1.53-3.83,2.82-5.66,4.33C37.8,84,36.18,84.72,35.23,86.21Z"/><path class="cls-2" d="M35.23,86.21c1-1.49,2.57-2.22,3.86-3.3,1.83-1.51,3.84-2.8,5.66-4.33a4,4,0,0,1,2.87-.91H233.5c.81,0,1.61,0,2.42,0,.45.86,1.46.77,2.15,1.22a7.32,7.32,0,0,1,3.59,6.53c0,20.56-.07,41.12.06,61.69a8,8,0,0,1-8.29,8.27q-55.12-.1-110.24,0c-13.28,0-26.56,0-39.84,0a5.9,5.9,0,0,0-3.88,1.35q-9.34,7.22-18.71,14.41c-1.42,1.1-2.89,2.14-4.33,3.23-.89.67-1.21.44-1.21-.64q0-8.07,0-16.14c0-2.15,0-2.18-2.15-2.18-3.23,0-6.47-.11-9.71,0a7.84,7.84,0,0,1-8.09-8.16c.08-19.85,0-39.7,0-59.55C35.26,87.16,35.24,86.68,35.23,86.21Z"/><path class="cls-3" d="M41.36,58.9H30.92V18.74H47.54q6.76,0,10.36,3.51t3.59,9.91q0,6.39-3.59,9.91T47.54,45.58H41.36Zm0-21.73h3.46c3.84,0,5.75-1.67,5.75-5s-1.91-5-5.75-5H41.36Z"/><path class="cls-3" d="M98.4,58.9h-13l-10-15.45V58.9H65V18.74H81.24a15.88,15.88,0,0,1,5.86,1,11.3,11.3,0,0,1,4.13,2.69,11.42,11.42,0,0,1,2.45,3.94,13.75,13.75,0,0,1,.83,4.8,11.81,11.81,0,0,1-2.21,7.43,11.13,11.13,0,0,1-6.53,3.86Zm-23-22.21h2a7.62,7.62,0,0,0,4.74-1.28,4.38,4.38,0,0,0,1.65-3.68,4.36,4.36,0,0,0-1.65-3.67,7.56,7.56,0,0,0-4.74-1.28h-2Z"/><path class="cls-3" d="M112,18.74V58.9H101.58V18.74Z"/><path class="cls-3" d="M126.4,18.74l9.69,24.45,9.75-24.45h11.35L140.25,58.9h-8.31L115.05,18.74Z"/><path class="cls-3" d="M179.91,52.21H165l-2.4,7H151.47L166.75,19h11.4l15.29,40.17H182.31Zm-2.77-7.94L172.45,30.9l-4.68,13.37Z"/><path class="cls-3" d="M208.89,27.86V59.19H198.45V27.86h-8.58V19h27.6v8.84Z"/><path class="cls-3" d="M88.16,106.31a12.78,12.78,0,0,0-3.4-2,8.87,8.87,0,0,0-3.29-.67,5.34,5.34,0,0,0-3.3,1,3,3,0,0,0-1.27,2.5,2.47,2.47,0,0,0,.64,1.75A5.37,5.37,0,0,0,79.21,110a14.12,14.12,0,0,0,2.34.88c.86.25,1.72.51,2.57.8a16,16,0,0,1,7.47,4.54A11.22,11.22,0,0,1,94,123.63a14.48,14.48,0,0,1-1,5.58,11.67,11.67,0,0,1-3,4.27A14,14,0,0,1,85,136.25a20.51,20.51,0,0,1-6.56,1,24.13,24.13,0,0,1-14.08-4.52l4.46-8.39a18,18,0,0,0,4.63,3.08,11.11,11.11,0,0,0,4.51,1,5.39,5.39,0,0,0,3.8-1.17A3.56,3.56,0,0,0,83,124.59a3.6,3.6,0,0,0-.32-1.57,3.42,3.42,0,0,0-1.06-1.22,8.49,8.49,0,0,0-1.94-1c-.8-.32-1.77-.67-2.9-1.06q-2-.65-4-1.41a12.17,12.17,0,0,1-3.45-2.05A9.4,9.4,0,0,1,66.94,113a11.35,11.35,0,0,1-.93-4.91,14.26,14.26,0,0,1,1-5.39,12.07,12.07,0,0,1,2.76-4.15,12.39,12.39,0,0,1,4.36-2.68,16.41,16.41,0,0,1,5.76-1,25.19,25.19,0,0,1,6.22.83,27.46,27.46,0,0,1,6.21,2.41Z"/><path class="cls-3" d="M97.88,136.11V96.06h10.41l19.23,24.49V96.06h10.36v40.05H127.52l-19.23-24.49v24.49Z"/><path class="cls-3" d="M168.32,129.15H153.45l-2.39,7H140L155.2,96.06h11.37l15.24,40.05h-11.1Zm-2.76-7.91-4.68-13.34-4.67,13.34Z"/><path class="cls-3" d="M194.19,112.58l12.7-16.52h12.85l-15.88,19,17.37,21.09H207.74l-13.55-17.37v17.37H183.78V96.06h10.41Z"/></g></g></svg>
