<svg xmlns="http://www.w3.org/2000/svg" viewBox="0 0 637.01 177.48"><defs><style>.cls-1{fill:#f2912a;}.cls-2{fill:#231f20;}.cls-3{fill:#fff;}</style></defs><title>Asset 2</title><g id="Layer_2" data-name="Layer 2"><g id="Layer_1-2" data-name="Layer 1"><rect class="cls-1" x="2.7" y="2.7" width="631.61" height="172.07" rx="46.16" ry="46.16"/><path d="M588.15,177.48H48.87A48.93,48.93,0,0,1,0,128.61V48.87A48.92,48.92,0,0,1,48.87,0H588.15A48.92,48.92,0,0,1,637,48.87v79.74A48.93,48.93,0,0,1,588.15,177.48ZM48.87,5.41A43.5,43.5,0,0,0,5.41,48.87v79.74a43.51,43.51,0,0,0,43.46,43.46H588.15a43.51,43.51,0,0,0,43.46-43.46V48.87A43.51,43.51,0,0,0,588.15,5.41Z"/><path class="cls-2" d="M116.28,134.5a52.49,52.49,0,0,1-18.44-3.33,41.13,41.13,0,0,1-15.54-10,8.12,8.12,0,0,1,.07-11.3l11.89-12.1a8.08,8.08,0,0,1,3.55-2.11,31.23,31.23,0,0,1-5.44-4A27,27,0,0,1,86.15,83,28.63,28.63,0,0,1,83.76,71a29.33,29.33,0,0,1,3.62-14.74,30.25,30.25,0,0,1,9.11-10,36.94,36.94,0,0,1,12-5.38A50.47,50.47,0,0,1,121,39.32a47.14,47.14,0,0,1,15.69,2.8A41.57,41.57,0,0,1,151,50.68a8.12,8.12,0,0,1,.42,11.56L139.89,74.45a8.26,8.26,0,0,1-2.44,1.76,36.64,36.64,0,0,1,4.6,2.94,29.68,29.68,0,0,1,7.74,8.67,26.2,26.2,0,0,1,3.36,13.52,32.7,32.7,0,0,1-3.26,14.86,30.48,30.48,0,0,1-8.74,10.59,35.6,35.6,0,0,1-11.92,5.91A47.36,47.36,0,0,1,116.28,134.5Zm-15.85-19.86.77.38-.7-.45ZM107,58.82c-.43.25-.85.51-1.25.79a14.09,14.09,0,0,0-4.26,4.68A13.38,13.38,0,0,0,100,71a13,13,0,0,0,.89,5.24,10.77,10.77,0,0,0,2.49,3.49,15.35,15.35,0,0,0,4.06,2.69,53.66,53.66,0,0,0,6.15,2.41c2.49.78,4.79,1.54,6.79,2.23a32.37,32.37,0,0,1,6.51,3,18.43,18.43,0,0,1,5.34,4.88,14.2,14.2,0,0,1,2.58,8.32,16.13,16.13,0,0,1-1.8,7.64,15.36,15.36,0,0,1-3,3.91q.66-.43,1.29-.9a14.39,14.39,0,0,0,4.11-5,16.78,16.78,0,0,0,1.51-7.54,10.43,10.43,0,0,0-1.1-5.26,13.26,13.26,0,0,0-3.51-4,21.86,21.86,0,0,0-5.5-3c-2.69-1-5.28-1.92-7.69-2.72-1.79-.57-3.52-1.17-5.06-1.74A29.4,29.4,0,0,1,109,82.23,15.1,15.1,0,0,1,104,77.41a13.92,13.92,0,0,1-2-7.48,14.14,14.14,0,0,1,2.48-8.33A16,16,0,0,1,107,58.82Zm1.13,41.27a17,17,0,0,0,2.87,1.82,11.36,11.36,0,0,0,6.31,1.36,20.75,20.75,0,0,0-2.22-.9c-1.85-.63-4-1.34-6.42-2.1Z"/><path class="cls-2" d="M176.14,133.86A33.58,33.58,0,0,1,164.42,132a21.89,21.89,0,0,1-9.1-6.12,23,23,0,0,1-4.83-9.12,37,37,0,0,1-1.25-9.87V92.68h-.38a8.11,8.11,0,0,1-8.11-8.1v-13a8.11,8.11,0,0,1,8.11-8.11h.28v-5.8a8.1,8.1,0,0,1,8.1-8.1h17.09a8.11,8.11,0,0,1,8.11,8.1v5.8h4.31a8.11,8.11,0,0,1,8.11,8.11v13a8.11,8.11,0,0,1-8.11,8.1h-4.31V104l.39-.07a8.1,8.1,0,0,1,11.28,7.32l.21,12.74a8.11,8.11,0,0,1-5.4,7.78,36.52,36.52,0,0,1-5.88,1.46A41.21,41.21,0,0,1,176.14,133.86Zm-14-55.8a8.11,8.11,0,0,1,3.28,6.52v22.34a21.09,21.09,0,0,0,.66,5.56,7,7,0,0,0,1.43,2.79,5.89,5.89,0,0,0,2.47,1.54,7.79,7.79,0,0,0,1,.3,12.3,12.3,0,0,1-1.67-1.76c-2.06-2.69-3.11-6.23-3.11-10.53V84.58a8.1,8.1,0,0,1,3.23-6.48,8.1,8.1,0,0,1-3.23-6.47v-5.8h-.87v5.8A8.08,8.08,0,0,1,162.18,78.06Zm20.37,28h0Zm.19-2.09,0,0Z"/><path class="cls-2" d="M210.84,133.86a35.11,35.11,0,0,1-8.55-1.09,27.27,27.27,0,0,1-8.8-3.92,23.13,23.13,0,0,1-7.11-7.8,23.68,23.68,0,0,1-2.86-11.85,21.22,21.22,0,0,1,5.2-14.64,27.21,27.21,0,0,1,5-4.34l-5.44-5.85A8.1,8.1,0,0,1,188.58,73a38.46,38.46,0,0,1,13.74-8.45,45.42,45.42,0,0,1,15.42-2.71,41.86,41.86,0,0,1,14,2.12,24.75,24.75,0,0,1,11,7.55,29.77,29.77,0,0,1,5.82,11.89,60,60,0,0,1,1.57,14.46v26.64a8.11,8.11,0,0,1-8.11,8.11H226.12a8.13,8.13,0,0,1-3.8-.94A30,30,0,0,1,210.84,133.86Zm23-17.49h.09V107a19,19,0,0,1-2.08,6.13A8.13,8.13,0,0,1,233.84,116.37Zm-1.65-20.29a7.89,7.89,0,0,1,1.74,3.19V97.84a56.11,56.11,0,0,0-.27-5.71A8,8,0,0,1,232.19,96.08Z"/><path class="cls-2" d="M272.4,132.59H255a8.11,8.11,0,0,1-8.11-8.11V71.69A8.11,8.11,0,0,1,255,63.58h16.77a8.11,8.11,0,0,1,3.83,1A23.15,23.15,0,0,1,286.3,62a27.88,27.88,0,0,1,2.9.15,16,16,0,0,1,3.37.69A8.11,8.11,0,0,1,298.11,71l-.74,15.39a8.11,8.11,0,0,1-10.23,7.43,5.83,5.83,0,0,0-.93-.18c-.48,0-.95-.07-1.4-.07a5.12,5.12,0,0,0-2.08.32,4.22,4.22,0,0,0-1.29,1,3.34,3.34,0,0,0-.64,1.2,5.92,5.92,0,0,0-.3,1.36v27.1A8.11,8.11,0,0,1,272.4,132.59Zm-9.3-16.22h1.19v-19a20.79,20.79,0,0,1,1-6,19.63,19.63,0,0,1,2.34-5,8.12,8.12,0,0,1-3.95-6.5h-.56Z"/><path class="cls-2" d="M316.44,133.86A33.66,33.66,0,0,1,304.72,132a21.89,21.89,0,0,1-9.1-6.12,23.09,23.09,0,0,1-4.83-9.12,37.46,37.46,0,0,1-1.24-9.87V92.68h-.39a8.1,8.1,0,0,1-8.1-8.1v-13a8.11,8.11,0,0,1,8.1-8.11h.28v-5.8a8.11,8.11,0,0,1,8.11-8.1h17.09a8.1,8.1,0,0,1,8.1,8.1v5.8h4.31a8.11,8.11,0,0,1,8.11,8.11v13a8.11,8.11,0,0,1-8.11,8.1h-4.31V104l.39-.07a8.11,8.11,0,0,1,11.29,7.32l.21,12.74a8.11,8.11,0,0,1-5.41,7.78,36.26,36.26,0,0,1-5.88,1.46A41.21,41.21,0,0,1,316.44,133.86Zm-14-55.8a8.11,8.11,0,0,1,3.28,6.52v22.34a21.52,21.52,0,0,0,.66,5.56,7.1,7.1,0,0,0,1.44,2.79,5.76,5.76,0,0,0,2.47,1.54,7.3,7.3,0,0,0,1,.3,11.27,11.27,0,0,1-1.67-1.76c-2.07-2.69-3.11-6.23-3.11-10.53V84.58a8.09,8.09,0,0,1,3.22-6.48,8.09,8.09,0,0,1-3.22-6.47v-5.8h-.87v5.8A8.09,8.09,0,0,1,302.48,78.06Zm20.37,28h0Zm.2-2.09,0,0Z"/><path class="cls-2" d="M384.68,134.5a52.44,52.44,0,0,1-18.43-3.33,41.09,41.09,0,0,1-15.55-10,8.12,8.12,0,0,1,.07-11.3l11.89-12.1a8.08,8.08,0,0,1,3.55-2.11,31.61,31.61,0,0,1-5.44-4A27,27,0,0,1,354.56,83,28.47,28.47,0,0,1,352.16,71a29.33,29.33,0,0,1,3.62-14.74,30.25,30.25,0,0,1,9.11-10,36.94,36.94,0,0,1,11.95-5.38,50.47,50.47,0,0,1,12.51-1.58A47.14,47.14,0,0,1,405,42.12a41.57,41.57,0,0,1,14.4,8.56,8.09,8.09,0,0,1,.42,11.56L408.29,74.45a8.13,8.13,0,0,1-2.44,1.76,35.93,35.93,0,0,1,4.6,2.94,29.4,29.4,0,0,1,7.74,8.67,26.2,26.2,0,0,1,3.36,13.52,32.7,32.7,0,0,1-3.26,14.86,30.48,30.48,0,0,1-8.74,10.59,35.51,35.51,0,0,1-11.92,5.91A47.3,47.3,0,0,1,384.68,134.5Zm-15.85-19.86.77.38-.7-.45Zm6.54-55.82c-.43.25-.84.51-1.25.8a14,14,0,0,0-4.26,4.67,13.49,13.49,0,0,0-1.48,6.7,13,13,0,0,0,.89,5.24,11.08,11.08,0,0,0,2.49,3.5,15.56,15.56,0,0,0,4.06,2.68A53.66,53.66,0,0,0,382,84.82c2.49.78,4.79,1.54,6.79,2.23a32.37,32.37,0,0,1,6.51,3,18.43,18.43,0,0,1,5.34,4.88,14.2,14.2,0,0,1,2.58,8.32,16.13,16.13,0,0,1-1.8,7.64,15.36,15.36,0,0,1-3,3.91,14.82,14.82,0,0,0,1.29-.9,14.29,14.29,0,0,0,4.11-5,16.78,16.78,0,0,0,1.51-7.54,10.43,10.43,0,0,0-1.1-5.26,13.26,13.26,0,0,0-3.51-4,22,22,0,0,0-5.49-3c-2.7-1-5.29-1.92-7.7-2.72-1.79-.57-3.52-1.17-5.06-1.75a28.69,28.69,0,0,1-5.09-2.45,15.2,15.2,0,0,1-4.94-4.82,13.92,13.92,0,0,1-2-7.48,14.07,14.07,0,0,1,2.49-8.33A16,16,0,0,1,375.37,58.82Zm1.13,41.27a17,17,0,0,0,2.87,1.82,11.39,11.39,0,0,0,6.32,1.36,22,22,0,0,0-2.23-.9c-1.85-.64-4-1.34-6.41-2.1Z"/><path class="cls-2" d="M441.88,158.06h-17.4a8.11,8.11,0,0,1-8.11-8.11V71.63a8.11,8.11,0,0,1,8.11-8.11H441a8.13,8.13,0,0,1,4.37,1.27A29.18,29.18,0,0,1,458.23,62a32,32,0,0,1,13.89,3,31.71,31.71,0,0,1,10.6,8.13,35.65,35.65,0,0,1,6.46,11.44,40.21,40.21,0,0,1,2.2,13.22A41.76,41.76,0,0,1,489.27,111a35.47,35.47,0,0,1-6.41,11.6,32.48,32.48,0,0,1-10.5,8.26,31.53,31.53,0,0,1-14.24,3.19A30.6,30.6,0,0,1,450,133v17A8.11,8.11,0,0,1,441.88,158.06Zm-9.29-16.22h1.19v-23.2a8.11,8.11,0,0,1,4-7,22.46,22.46,0,0,1-3.25-21.49,22.86,22.86,0,0,1,2.57-5,8.09,8.09,0,0,1-4-5.45h-.5Zm33.63-61.59a19.16,19.16,0,0,1,3.29,3.13,21,21,0,0,1,3.8,7,24,24,0,0,1,1.2,7.5,24.75,24.75,0,0,1-1.18,7.51,21.38,21.38,0,0,1-3.75,7,18.83,18.83,0,0,1-4.23,3.88,16,16,0,0,0,5.07-4,19.19,19.19,0,0,0,3.47-6.33,25.7,25.7,0,0,0,1.28-8,23.9,23.9,0,0,0-1.31-7.9,19.31,19.31,0,0,0-3.51-6.28A15.15,15.15,0,0,0,466.22,80.25ZM454,92.47a3.9,3.9,0,0,0-1.68.31,4.58,4.58,0,0,0-1.46,1.12,5.77,5.77,0,0,0-1.08,1.87,6.17,6.17,0,0,0-.4,2.18,6.29,6.29,0,0,0,.39,2.17,5.86,5.86,0,0,0,1.09,1.87,4.44,4.44,0,0,0,1.46,1.12,3.79,3.79,0,0,0,1.68.31,4.28,4.28,0,0,0,1.79-.3,3.53,3.53,0,0,0,1.19-.92,5.64,5.64,0,0,0,.92-1.78,8.28,8.28,0,0,0,.41-2.58,8.18,8.18,0,0,0-.39-2.48,4.89,4.89,0,0,0-.88-1.63,3.76,3.76,0,0,0-1.26-1A4.18,4.18,0,0,0,454,92.47Z"/><path class="cls-2" d="M511.82,132.59h-17.4a8.11,8.11,0,0,1-8.11-8.11V71.63a8.08,8.08,0,0,1,2.58-5.93,17.11,17.11,0,0,1-3.85-11,17.32,17.32,0,0,1,1.38-6.82,16.66,16.66,0,0,1,4.09-5.82,19.59,19.59,0,0,1,5.41-3.53,17.65,17.65,0,0,1,7.2-1.49A18.62,18.62,0,0,1,510,38.41a17.94,17.94,0,0,1,5.79,3.7,17.7,17.7,0,0,1,3.89,5.52,17.33,17.33,0,0,1,0,14.24,17.58,17.58,0,0,1-2.33,3.82,8.08,8.08,0,0,1,2.58,5.94v52.85A8.11,8.11,0,0,1,511.82,132.59Zm-9.29-16.22h1.19V79.74h-1.19Zm.59-63.06a1.69,1.69,0,0,0-.65.1,3.36,3.36,0,0,0-1,.61.59.59,0,0,0-.16.23,1.24,1.24,0,0,0-.1.5,1.07,1.07,0,0,0,.44,1,1.69,1.69,0,0,0,1.43.5A2.06,2.06,0,0,0,504,56a1.56,1.56,0,0,0,.58-.34,1.62,1.62,0,0,0,.36-.52,1,1,0,0,0,.07-.42.92.92,0,0,0-.07-.41,1.58,1.58,0,0,0-.36-.53,1.88,1.88,0,0,0-.58-.34A2.23,2.23,0,0,0,503.12,53.31Z"/><path class="cls-2" d="M543.56,132.59H525.83a8.12,8.12,0,0,1-8.11-8.11V44.25a8.12,8.12,0,0,1,8.11-8.11h17.73a8.11,8.11,0,0,1,8.1,8.11v80.23A8.11,8.11,0,0,1,543.56,132.59Zm-9.62-16.22h1.51v-64h-1.51Z"/><path class="cls-3" d="M134,68.87a16.27,16.27,0,0,0-6.1-4.72,17.21,17.21,0,0,0-7.27-1.76,21.91,21.91,0,0,0-3.66.32,9.4,9.4,0,0,0-3.34,1.22,8.1,8.1,0,0,0-2.5,2.34,6.21,6.21,0,0,0-1,3.66,5.91,5.91,0,0,0,.8,3.18,7,7,0,0,0,2.33,2.23,20.61,20.61,0,0,0,3.67,1.75q2.11.8,4.77,1.65,3.82,1.28,8,2.81a30,30,0,0,1,7.54,4.09A21.31,21.31,0,0,1,142.81,92a18.13,18.13,0,0,1,2.23,9.39,24.57,24.57,0,0,1-2.39,11.2,22.26,22.26,0,0,1-6.42,7.8,27.61,27.61,0,0,1-9.23,4.57,39.24,39.24,0,0,1-10.72,1.48,44.34,44.34,0,0,1-15.6-2.81,33.2,33.2,0,0,1-12.53-8L100,103.47a22,22,0,0,0,7.27,5.67,19.66,19.66,0,0,0,9,2.29,17.73,17.73,0,0,0,3.93-.43,9.73,9.73,0,0,0,3.34-1.38,6.92,6.92,0,0,0,2.28-2.54,8,8,0,0,0,.85-3.83,6.08,6.08,0,0,0-1.06-3.6,10.38,10.38,0,0,0-3-2.71,24.34,24.34,0,0,0-4.88-2.23c-1.95-.67-4.16-1.4-6.63-2.17A63.73,63.73,0,0,1,104,89.78a24,24,0,0,1-6.16-4.09,19,19,0,0,1-4.35-6A20.6,20.6,0,0,1,91.87,71a21.26,21.26,0,0,1,2.55-10.72A22,22,0,0,1,101.1,53a28.61,28.61,0,0,1,9.34-4.19A42.12,42.12,0,0,1,121,47.43a39.17,39.17,0,0,1,13,2.33,33.62,33.62,0,0,1,11.62,6.9Z"/><path class="cls-3" d="M174.33,84.58v20.24a9.13,9.13,0,0,0,1.43,5.59c1,1.25,2.67,1.87,5.15,1.87a17.53,17.53,0,0,0,2.71-.22,9.48,9.48,0,0,0,2.39-.63l.21,12.73a28.54,28.54,0,0,1-4.57,1.12,33.15,33.15,0,0,1-5.51.47,25.92,25.92,0,0,1-8.92-1.33,13.68,13.68,0,0,1-5.78-3.83,14.88,14.88,0,0,1-3.13-6,28.75,28.75,0,0,1-1-7.71V84.58h-8.49v-13h8.38V57.72h17.09V71.63h12.42v13Z"/><path class="cls-3" d="M194.18,78.84a30.38,30.38,0,0,1,10.88-6.68,37.11,37.11,0,0,1,12.68-2.23A34.06,34.06,0,0,1,229,71.57a16.85,16.85,0,0,1,7.48,5.1,21.82,21.82,0,0,1,4.2,8.7A51.66,51.66,0,0,1,242,97.84v26.64H226.12v-5.62h-.32a13.08,13.08,0,0,1-6.1,5.09,21.73,21.73,0,0,1-8.86,1.8,27.36,27.36,0,0,1-6.58-.84,19.34,19.34,0,0,1-6.21-2.76,15.18,15.18,0,0,1-4.62-5.1,15.74,15.74,0,0,1-1.8-7.85,13.35,13.35,0,0,1,3.13-9.24,20.7,20.7,0,0,1,8.07-5.41,43.1,43.1,0,0,1,11-2.55,113.7,113.7,0,0,1,11.78-.63v-.85a6.49,6.49,0,0,0-2.76-5.79A11.94,11.94,0,0,0,216,82.88a16.87,16.87,0,0,0-7.16,1.59A22.59,22.59,0,0,0,203,88.29Zm31.94,22.61h-2.23q-2.87,0-5.78.27a23.65,23.65,0,0,0-5.2,1,9.64,9.64,0,0,0-3.77,2.18,5,5,0,0,0-1.48,3.77,4.45,4.45,0,0,0,.69,2.54,5.17,5.17,0,0,0,1.75,1.7,7.1,7.1,0,0,0,2.44.9,13.78,13.78,0,0,0,2.65.27c3.54,0,6.24-1,8.12-2.92a10.93,10.93,0,0,0,2.81-7.91Z"/><path class="cls-3" d="M289.27,86a12.84,12.84,0,0,0-2.28-.43c-.74-.07-1.47-.11-2.18-.11a12.51,12.51,0,0,0-5.89,1.27,12.24,12.24,0,0,0-3.82,3.07A11.85,11.85,0,0,0,273,93.68a13.25,13.25,0,0,0-.63,3.7v27.1H255V71.69h16.77v7.64H272a17.21,17.21,0,0,1,5.73-6.62,14.77,14.77,0,0,1,8.6-2.57,20.2,20.2,0,0,1,2.07.11,7.31,7.31,0,0,1,1.64.32Z"/><path class="cls-3" d="M314.64,84.58v20.24a9.07,9.07,0,0,0,1.43,5.59c.95,1.25,2.67,1.87,5.14,1.87a17.43,17.43,0,0,0,2.71-.22,9.36,9.36,0,0,0,2.39-.63l.21,12.73a28.12,28.12,0,0,1-4.56,1.12,33.18,33.18,0,0,1-5.52.47,25.92,25.92,0,0,1-8.92-1.33,13.75,13.75,0,0,1-5.78-3.83,15,15,0,0,1-3.13-6,28.75,28.75,0,0,1-1-7.71V84.58h-8.49v-13h8.39V57.72h17.09V71.63h12.41v13Z"/><path class="cls-3" d="M402.4,68.87a16.27,16.27,0,0,0-6.1-4.72A17.17,17.17,0,0,0,389,62.39a21.91,21.91,0,0,0-3.66.32A9.4,9.4,0,0,0,382,63.93a8.32,8.32,0,0,0-2.5,2.34,6.21,6.21,0,0,0-1,3.66,5.91,5.91,0,0,0,.79,3.18,7,7,0,0,0,2.34,2.23,20.17,20.17,0,0,0,3.66,1.75q2.12.8,4.77,1.65,3.82,1.28,8,2.81a30,30,0,0,1,7.54,4.09A21.31,21.31,0,0,1,411.21,92a18.13,18.13,0,0,1,2.23,9.39,24.44,24.44,0,0,1-2.39,11.2,22.26,22.26,0,0,1-6.42,7.8,27.52,27.52,0,0,1-9.23,4.57,39.24,39.24,0,0,1-10.72,1.48,44.34,44.34,0,0,1-15.6-2.81,33.16,33.16,0,0,1-12.52-8l11.88-12.1a22,22,0,0,0,7.27,5.67,19.66,19.66,0,0,0,9,2.29,17.73,17.73,0,0,0,3.93-.43,9.64,9.64,0,0,0,3.34-1.38,6.75,6.75,0,0,0,2.28-2.54,8,8,0,0,0,.85-3.83,6,6,0,0,0-1.06-3.6,10.46,10.46,0,0,0-3-2.71,24.45,24.45,0,0,0-4.89-2.23c-1.94-.67-4.15-1.4-6.63-2.17a63.73,63.73,0,0,1-7.06-2.76,23.81,23.81,0,0,1-6.15-4.09,18.71,18.71,0,0,1-4.35-6A20.44,20.44,0,0,1,360.27,71a21.26,21.26,0,0,1,2.55-10.72A22.14,22.14,0,0,1,369.5,53a28.71,28.71,0,0,1,9.34-4.19,42.12,42.12,0,0,1,10.51-1.33,39.13,39.13,0,0,1,13,2.33A33.53,33.53,0,0,1,414,56.66Z"/><path class="cls-3" d="M483.28,97.84a33.45,33.45,0,0,1-1.7,10.62,27.4,27.4,0,0,1-4.94,9,24.16,24.16,0,0,1-7.91,6.21A23.35,23.35,0,0,1,458.12,126a22.18,22.18,0,0,1-9.23-2,16.4,16.4,0,0,1-6.79-5.36h-.22V150h-17.4V71.63H441V78.1h.32a21.54,21.54,0,0,1,6.74-5.57,20.6,20.6,0,0,1,10.14-2.39,23.8,23.8,0,0,1,10.4,2.23,23.56,23.56,0,0,1,7.91,6,27.56,27.56,0,0,1,5,8.86A31.88,31.88,0,0,1,483.28,97.84Zm-16.88,0a16,16,0,0,0-.8-5,13,13,0,0,0-2.33-4.29,11.68,11.68,0,0,0-9.29-4.2,11.64,11.64,0,0,0-5.3,1.17,12.49,12.49,0,0,0-4,3.08A13.93,13.93,0,0,0,442.15,93a14.28,14.28,0,0,0,0,10,14.16,14.16,0,0,0,2.55,4.35,12.63,12.63,0,0,0,4,3.08,11.77,11.77,0,0,0,5.3,1.16,12.11,12.11,0,0,0,5.42-1.16,11.66,11.66,0,0,0,3.87-3.08,13.59,13.59,0,0,0,2.33-4.41A16.49,16.49,0,0,0,466.4,97.84Z"/><path class="cls-3" d="M513.1,54.75a9,9,0,0,1-.8,3.77,9.62,9.62,0,0,1-2.12,3,9.76,9.76,0,0,1-3.19,2,10.21,10.21,0,0,1-3.87.74A9.73,9.73,0,0,1,496,61.49a9.1,9.1,0,0,1-2.86-6.74,9.21,9.21,0,0,1,.74-3.66,8.57,8.57,0,0,1,2.12-3A11.48,11.48,0,0,1,499.19,46a9.66,9.66,0,0,1,3.93-.8,10.4,10.4,0,0,1,3.87.74,9.53,9.53,0,0,1,5.31,5A9,9,0,0,1,513.1,54.75Zm-18.68,69.73V71.63h17.4v52.85Z"/><path class="cls-3" d="M525.83,124.48V44.25h17.73v80.23Z"/></g></g></svg>
