<svg xmlns="http://www.w3.org/2000/svg" viewBox="0 0 637.01 184.17"><defs><style>.cls-1{fill:#f2912a;}.cls-2,.cls-5,.cls-6{font-size:106.13px;font-family:AvenirNext-Bold, Avenir Next;font-weight:700;}.cls-3{letter-spacing:-0.01em;}.cls-4{letter-spacing:-0.01em;}.cls-5{fill:none;stroke:#231f20;stroke-linecap:round;stroke-linejoin:round;stroke-width:16.22px;}.cls-6{fill:#fff;}</style></defs><title>Asset 1</title><g id="Layer_2" data-name="Layer 2"><g id="Layer_1-2" data-name="Layer 1"><rect class="cls-1" x="2.7" y="2.7" width="631.61" height="172.07" rx="46.16" ry="46.16"/><path d="M588.15,177.48H48.87A48.93,48.93,0,0,1,0,128.61V48.87A48.92,48.92,0,0,1,48.87,0H588.15A48.92,48.92,0,0,1,637,48.87v79.74A48.93,48.93,0,0,1,588.15,177.48ZM48.87,5.41A43.5,43.5,0,0,0,5.41,48.87v79.74a43.51,43.51,0,0,0,43.46,43.46H588.15a43.51,43.51,0,0,0,43.46-43.46V48.87A43.51,43.51,0,0,0,588.15,5.41Z"/><text class="cls-2" transform="translate(86.56 124.48)"><tspan class="cls-3">S</tspan><tspan x="62.09" y="0">ta</tspan><tspan class="cls-4" x="161.64" y="0">r</tspan><tspan x="202.39" y="0">t Spil</tspan></text><text class="cls-5" transform="translate(86.56 124.48)"><tspan class="cls-3">S</tspan><tspan x="62.09" y="0">ta</tspan><tspan class="cls-4" x="161.64" y="0">r</tspan><tspan x="202.39" y="0">t Spil</tspan></text><text class="cls-6" transform="translate(86.56 124.48)"><tspan class="cls-3">S</tspan><tspan x="62.09" y="0">ta</tspan><tspan class="cls-4" x="161.64" y="0">r</tspan><tspan x="202.39" y="0">t Spil</tspan></text></g></g></svg>
