<?xml version="1.0" encoding="utf-8"?>
<!-- Generator: Adobe Illustrator 22.0.0, SVG Export Plug-In . SVG Version: 6.00 Build 0)  -->
<svg version="1.1" xmlns="http://www.w3.org/2000/svg" xmlns:xlink="http://www.w3.org/1999/xlink" x="0px" y="0px"
	 viewBox="0 0 1736.8 1484.8" style="enable-background:new 0 0 1736.8 1484.8;" xml:space="preserve">
<style type="text/css">
	.st0{fill:none;stroke:#000000;stroke-width:20;stroke-miterlimit:10;}
	.st1{fill:#E8CDA8;}
	.st2{fill:#FFFFFF;}
	.st3{fill:#FEFEFE;}
	.st4{fill:#D38F75;}
	.st5{fill:#BF7C65;}
	.st6{fill:#C18068;}
	.st7{fill:#BE8069;}
	.st8{fill:#352E26;}
	.st9{fill:#5B0202;}
	.st10{fill:#D2BA99;}
	.st11{fill:#1D0101;}
	.st12{fill:#1C0101;}
	.st13{fill:#6C604E;}
	.st14{fill:#5C89B3;}
	.st15{fill:#FCFCFC;}
	.st16{fill:#151F29;}
	.st17{fill:#663E22;}
	.st18{fill:#82532F;}
	.st19{fill:#66381E;}
</style>
<g id="Layer_3">
</g>
<g id="Layer_1">
	<g>
		<path d="M468.6,847.7c-3.9,7-6.9,14.6-8.8,22.4c-1.1,4.4-1.5,7.8-1.1,9c4.3,12.3,5.8,23.8,8.7,35.1c11.8,46.6,43.5,75,85.4,94.2
			c29.2,13.4,60.2,14.2,91.2,12.2c44.9-2.9,87.1-14.9,120.7-46.6c17.8-16.8,29.8-37.5,33.6-62.8c4.3-29.5-2.7-56.6-12.4-84
			c-12.8-36.3-37.3-59.6-73.2-71.5c-37.1-12.4-74.5-7.9-111.7-0.6c-21.5,4.2-42.1,11.8-63.9,19.7c-3.1,1.1-5.9,2.7-8.4,4.8
			l-17.3,11.9c-8.3,5.7-15.6,12.6-21.8,20.6c-0.8,1-1.6,2-2.3,3c-4.7,6.2-8.7,13-11.9,20.1L468.6,847.7z"/>
	</g>
	<g>
		<path class="st0" d="M1305.7,733.4c7.9-5.4,36.9-23.7,60-14.7c27.9,10.9,32.3,51.6,36,85c2.3,20.7,7.3,73.7-26,119
			c-6.6,9-13.2,15.6-18,20"/>
	</g>
	<g>
		<path class="st1" d="M733.2,1183.3c-32.7-5.6-169.4-28.8-199,35c-4.1,8.9-3.1,16.5-3,18.4c4.4,45.8,97.6,84.2,172.5,71.1
			c8.4-1.5,37.8-7.3,65.5-29.5c12.1-9.7,32.5-26.9,32.4-49.8c0-4.8-1.3-9.8-4.4-15.2C790.8,1201.8,777.5,1190.8,733.2,1183.3z"/>
	</g>
	<g>
		<path class="st1" d="M1306.8,806.5c-10.7-27.6-12-57.7-22.5-85.5c-2.9-7.8-4.8-11.4-13.9-11.5c-23.6-0.1-45.3-12.1-65.8-24.5
			c-9.5-5.8-16.5-9.7-26.7-14.2c-17-11.7-36-18.5-56.2-21.6c-38.2-5.9-76.2-3-113.9,4.6c-42.4,8.6-83.8,20.6-124.3,35.5
			c-13.2,4.8-15.1,3.7-18.6-10.1c-1.6-6.5-2.9-13.2-4.1-19.8c-2.6-14-1.6-15.6,12.3-20.6c28.8-10.4,58-19.4,87.7-26.5
			c33.6-8,67.5-15.9,102.5-14.7c26.3,0.8,52.2,3.8,72,24.5c3.3,3.5,7.7,6.5,13.3,4.1c14.1,75.6,138.9,101.6,136.1,94.6
			c-9.2-23.1-1.6-162.7-13-185c-13.2-25.7-103.5-55.4-122-77c-12.6-14.7-117.4-16.9-139.1-13.4c-22.1,3.5-44.4,6.8-65.6,14.3
			c-51.9,18.3-101.9,40.9-149.6,68.4c-6.5,3.7-13.2,10.2-21.8,7.8c-36.9-10.1-74.6-10.3-112.3-9.6c-37.1,0.7-66.7,17.3-90.5,45.2
			c-5.3,6.1-65.4,38.2-65.1,46.4c1,30.9,5.6,120.2,0,151c3.4,3.3,18,9,22,8c42.8-10.8,132.9-104.4,176.6-108.7
			c35.4-3.5,43.2,3.3,45.3,38.6c0.4,6.3-1.7,9.7-7.9,9.5c-11.3-0.2-22.3,2.4-33.5,2.9c-52.2,2.1-103.5,9.6-153.3,25.9
			c-6.5,2.1-12.7,4.3-17,10c-4.4,9.5-8.7,19-13.5,29.5c51.8-22.6,103.5-37.2,158.9-31.6c39.9,4,72,21.8,92.2,57.9
			c7.1,12.7,12,26.9,15.3,40.5c8,32.7,9.7,65.7-9.8,96.7c-12.4,19.7-28.4,35.2-48.4,45c-46.9,23-97.1,32.5-148.6,20.9
			c-53.8-12.1-95.5-40.6-111.9-97.1c-5.1-17.5-13.4-34.3-8.7-56.2c-15.9,12.2,2.1-142.4-14.9-136.8c5.6-16.4-46.4-2.9-44-18
			c0.5-2.6-16.8,65.9-22,66c-9.5,15.9,23.5,94.5,8.2,104.5c-9,5.9-9.6,11.3-7.3,20.8c8.6,36.3,16.5,72.7,26.1,108.9
			c12.9,48.5,20.4,98.5,36.1,146.4c13.1,40.1,42.1,65.7,76.9,86.5c3.8,2.2,8.2,3.6,10.6,7.7c0.9,1,2,1.7,3.3,2.1
			c10.2-0.1,20.7-3.9,30.5,2.1c1.3,0.4,2.6,0.6,3.9,0.7c5.6,0,9.9-3.8,14.9-5.6c13.9-11.8,29.5-19.2,48.1-18.6
			c4,1.7,9.1-8.2,12.3,1.2c3.1,2.4,6.7,3.1,10.5,3.4c12.1-1.4,18.6,6.8,25.7,14.4c2.8,3,6.5,5.7,10.7,3.4c4.1-2.2,2.1-6.4,1.3-9.7
			c-1.8-7.3-3-14.2,4.4-19.3c1.7-0.7,3.4-1.3,5.2-1.9c4.1-1.7,8.9-1,12.6-4c1.2-1.7,1.4-3.5,0.8-5.4c-6.1-7.6-1.1-11.6,5.1-14.4
			c8.4-3.7,16.7-2.3,24.4,2.5c3.7,1.5,7.5,3.1,11.5,3.3c12.2,0.8,18.8,7.1,19.6,19.3c0.2,3.1,1.4,6.1,2.2,9.1
			c7.6,27.5-19.1,55.3-46.9,48.8c-10.5-2.4-20.8-5.1-28.8-13.1c-2.6-2.6-5.7-4.7-9.6-2.9c-3.8,1.7-5.2,5-4.6,8.8
			c1.1,7.4-0.7,14.2-3.7,20.8c-0.1,0.3-0.2,0.6-0.4,0.8c0.2,0.1,0.4,0.3,0.6,0.4c0.1,0,0.2,0,0.3,0.1c0.1,0,0.7,0.1,0.9,0.1
			c1,0,2-0.1,3-0.1c6.4-0.1,6.4,9.9,0,10c-1.4,0-2.8,0-4.2-0.1c0.9,1.4,2.2,2.7,3.9,3.9c61.1,17.3,123.5,21.3,186.6,18.8
			c9-0.4,12.6-6,12.6-14.3c0-11.3,2.3-22.4,2.6-33.5c0.4-18.7,3.5-37.9-7.6-55.1c-6.6-6.2-16.9-4.8-23.9-11.4
			c4.8,0,9.3,0.8,12.8-2.8c1.3-9.5,11.7-14.1,12.7-23.8c-7.6-7.4-17.8-1.9-26.2-5.4c-17.1-1.3-33.8-4.5-50.4-8.4
			c-3.8-0.9-8.8-1.1-9.7-5.9c-0.9-4.5,2.8-7.3,5.9-10c8.1-7.1,18-12.1,24.6-20.8c10.7-14.3,24.4-25.7,39.8-33.8
			c27.9-14.6,57.3-23.3,89.4-13.7c19.8,5.9,38.8,14.2,58.3,21c8,2.8,14.3,6.5,18.9,13.9c5.8,9.2,13.1,16.6,24.4,19.9
			c9.2,2.7,17.6,8.9,22.3,16.8c12.3,20.8,25.7,41.3,33.2,64.3c9.5,29.1,9.5,30,36,12.6c38.3-25.1,75.5-51.9,107.9-84.4
			c16.9-17,36-32.7,46-55.6C1306.9,999.1,1306.9,902.8,1306.8,806.5z"/>
	</g>
	<g>
		<path d="M1286.8,1249.7c-47.6,6.2-95.8,7.4-145.6,13.3c52.3-32.9,99.1-67.5,141.5-108.6c18-17.4,28.5-34.2,24.2-59
			c-7.2,4.9-10,13.4-15.7,19.5c-25.1,26.5-50.7,52.4-79.8,74.6c-26.9,20.5-54,40.7-85.4,57.3c-2.5-32-21.9-55.9-34.3-82.7
			c-6.6-14.2-18.9-22.4-32.9-27.5c-5.4-2-8.7-5.3-12.9-8.4c-7.9-5.9-8.1-18-18.8-21.6c-18.2-6.2-36.1-13.1-54.2-19.5
			c-42.4-15.2-81.7-7-116.8,19.1c-20.6,15.4-38.7,34.1-57.8,51.4c-7.9,7.2-6.9,12.1,3.3,14.8c18.6,4.9,37.4,9.3,56.9,9.7
			c12.1,1.9,24.4,0.7,34.4,0.9c-1.5,0-5.1,0.4-7.2,3.9c-8.1,5-14.7,10.9-13.3,21.7c1.8,5.1,4,9.9,8.3,13.5c6.4,10.6,9.5,22,8.5,34.5
			c-1.1,13.8-2,27.7-3,41.6c-1.6,24.3-1.6,24.3-25.7,24.7c-57.8,0.9-114.8-5.2-170.8-19.8c-2,0-4,0-6-0.4c-1.3-0.3-2.9-0.5-4.2-1.1
			c-0.7-0.2-1.4-0.4-2.1-0.6c-1.8-0.1-3.4-0.6-5.1-1.3c-3.7-0.4-7.8-1.4-11.6-2.9c0,0,0,0,0,0c-0.3-0.1-0.6-0.2-1-0.2
			c-0.2,0-0.4-0.1-0.6-0.2c-0.2,0-0.4,0.1-0.6,0.1c-0.2,0-0.5,0-0.7-0.1c-0.5-0.2-1-0.3-1.5-0.5c-0.3-0.2-0.6-0.3-0.9-0.6
			c-0.2,0-0.4,0-0.7,0c-0.1,0-0.2,0-0.3,0c0,0,0,0,0,0c-21.9-6.7-43.5-14.5-64.6-23.3c-26.4-11-67.3-40.2-71.7-43.2
			c-34.5-23.1-65.5-49.2-75.6-92.4c-5.1-21.8-13.7-42.7-17.4-65c-2.4-14.1-38.5-159.7-41.5-173.8c-3-14-12.3-23-33.2-23
			c-20.8,0-48.8,7-58.8,30c-7.3,16.8-12.2,50,1,78c10.7,22.7,20.8,42.5,38,62c24.5,27.8,38.8,55,74.8,68.4c5.9,2.2,6.4,7,7.1,11.8
			c4.4,29.9,18.8,55.2,37,78.5c14.9,19.1,35.5,31.8,54.8,45.9c2.2,2.5,47.1,29.4,77.4,42c24.9,10.3,146.9,42.3,178.2,45.5
			c27.2,2.8,54.5,5,84.4,7.7c-10.9,5-18.3,11.7-29,6.9c-3.7-1.7-7.6,0.3-11.4,2.2c-33.2,17.1-66.8,33.2-98.5,53.1
			c-21.2,13.4-43.1,25.6-68.4,32.1c-21,5.4-37.3,20.9-47.6,41.7h26.8c5.6-2.1,10.1-5.8,14.1-10.1c5.7-6.2,12.9-10.2,21.1-11
			c15.3-1.6,28.2-8.6,40.9-16.2c33.9-20.2,67.7-40.6,103.1-58c9.5-4.7,16.3-4.2,23.5,4.2c32.2,37.1,73.1,57,122.1,59.7
			c8.9,0.5,10.9,4.2,8.9,11.9c-0.3,3.3-1.5,6.5-2,9.8c-0.4,3.5-0.3,6.9,2.1,9.8c7.3,0.1,14.7,0.1,22,0.2c10-9.2,6.1-23.1,11.6-33.7
			c5.7-10.8,3-19.7-3.7-28.6c-4.3-5.7-7.9-12-12.8-17.3c-12.9-14.3-25-29.4-38.4-43.3c-21.4-22.2-30.3-48.2-21.1-78.7
			c5.1-17,5.7-33.4-2.9-49.6c-3.1-5.9-5.5-12.3-7.1-18.9c-1.7-6.8,1.8-9.2,8.2-7.9c4.1,0.8,8,2.8,10.3,6.1
			c9.4,13.9,21.8,27.2,11.9,46.2c-1.4,2.7-2,6-2.8,9c-1.9,7.1-2.1,13.9,6.4,16.6c8.2,2.6,14.3-1,17-8.9c3.8-11,8.1-22,8.2-33.9
			c0.1-37.6-4-74.4-20.2-109c-2.3-4.9-5.2-10.5,1.1-14.3c5.4-3.2,10.4-0.1,14.5,3.7c2.7,2.5,4.2,5.8,5.9,9
			c17.1,32.1,30.6,65.1,26.7,102.7c-0.5,4.9-0.2,9.9,0.2,14.8c0.5,6.2,1.9,11.9,9.7,12.2c8.6,0.3,10.4-5.6,10.7-12.4
			c0.5-13.5,0.3-27,0.1-40.4c-0.1-11.3-1.1-22.7-6.8-32.6c-7.8-13.3-12.9-27.7-17.9-42.1c-1.5-4.2-6.2-9.8-0.4-13.2
			c4.8-2.8,8.9,2.4,12.9,5.2c1.1,0.8,2.2,1.7,2.9,2.8c16.8,28.1,35.6,55.4,34.6,90.3c-0.4,12.6,0.1,25.1-1.6,37.7
			c-0.8,5.8,1.4,11.1,8.2,11.8c6.8,0.7,8.2-4.8,8.3-9.8c0.2-11.3,3.1-22.2,3.1-33.5c0.1-30.9-6.6-59.8-23.9-86
			c12.3,8.4,15.8,22.8,24.3,33.6c10.1,12.8,15,27.2,16.9,43.2c2.5,21.4,4.5,42.9,7.9,64.2c1.1,6.5,2.6,13.4,10.9,12.6
			c8.9-0.8,9.6-8.3,9.1-15.4c-0.4-6.7-1.4-13.4-2.3-20.1c-4-28.6-7.3-57.4-21.2-84.2c2.8,5,5.7,9.5,8.3,14.1
			c20.6,36,33.6,74.5,35.1,116c1,26.4-10.4,50.8-17.1,75.9c-6.6,24.6-20,45-41,60c-3.7,2.6-9,6.6-6.7,10.5c6.5,11.2,3,24.8,10,35.6
			c6.8-0.1,13.7-0.2,20.5-0.3c5.1-4,2.2-9.1,1.8-13.7c-1-12.4-0.9-23.6,10.2-32.8c6.7-5.6,11.7-13.5,15.2-21.9
			c1.1-3.3,1.8-6.6,3.3-9.7c1.8-4.1,4.3-7.8,6.1-11.9c12.1-27.1,27-53.4,26.9-84.4c0-2.6,0-5.3-0.1-7.9c-0.1-5-0.7-10.4,6.7-10.7
			c5.7-1.1,11.4-1.6,17.2-2.1c40.5-3.9,81.2-5.8,121.6-10.7c3-0.6,6-1.2,9.1-1.5c3.3-0.9,6.3-2.4,8.8-5.3c0.3-5.6,1-11.2,0.2-16.8
			C1300.1,1251.1,1293.5,1250.3,1286.8,1249.7z"/>
	</g>
	<g>
		<path class="st1" d="M972.4,1481c5.5-14.5,3.4-31.2,12.7-44.8c2-2.9-1.6-6.6-3.6-9.6c-14.5-21.4-30.9-41.1-49.3-59.3
			c-12-11.9-21.9-26.1-29.3-40.9c-7.1-14.3-2.1-31.5,1.1-46.3c4-18,6.1-34.2-3-50.9c-2.8-5-4.5-10.7-6.4-16.2
			c-1.4-4-5.8-8.2-1.9-12.4c4.2-4.5,10-2.6,15.3-1.8c1.3,0.2,2.4,1.1,3.6,1.8c15.8,8,20.7,24.4,25,38.9c2.4,7.8-5,18.7-8.6,28
			c-2,5.2-1.5,9.3,3.6,11c4.6,1.5,10,1.7,12.8-4c1.2-2.4,2.3-4.9,3.1-7.4c6.2-19.1,7.6-38.7,5.1-58.5c-3.3-26.8-5.8-53.8-20.1-78.2
			c-3.1-5.3-7.5-14.7,2.2-20.2c7.9-4.5,20.1-0.4,23.8,8.8c4.1,10.2,10.1,19.4,14.7,29.3c14,29.8,18.2,60.7,15.7,93
			c-0.2,2.7-0.2,5.4-0.1,8.1c0,3.8,2,5.8,5.8,6c3.4,0.1,7-0.6,7.1-4.4c0.7-25.9,5.4-53-5.7-77.1c-7.6-16.5-13.9-33.4-21.2-49.9
			c-1.7-3.9-5.6-8.3-0.7-12c4.1-3.1,9.5-3.1,13.9,0.2c4.2,3.2,9.5,4.8,12.4,9.9c18.8,33.4,39.8,65.9,33.7,107.2
			c-1.3,8.8-1,17.9-1.1,26.9c0,3.2,0.9,6.3,5.1,6.5c4.6,0.3,4.8-3.1,5-6.3c1.4-36.3,5.2-72.7-13.2-106.7c-4-7.5-12.8-12.2-12.7-22.9
			c10.6,0.3,14.6,8.5,20.2,15c27.7,32.2,35.5,71,37.7,111.8c0.5,8.5,1.9,16.9,2.7,25.4c0.5,5.1,3.4,7.2,8.1,6.8
			c4.5-0.4,6-3.8,5.2-7.7c-4.1-19.5-4.8-39.5-8.8-59.2c-4.4-22-10.6-42.8-19.9-63.2c12.7,12.7,21.7,27.5,29.7,43.2
			c14.3,28,22.2,58.5,25.2,89c4.1,42.7-13.5,82.2-30.3,120.4c-5.4,12.3-17,23.8-30.7,30.5c-5.8,2.8-8,4.8-2,11.2
			c8,8.5,3.1,20.7,5,31.1C1030.3,1481,1001.3,1481,972.4,1481z"/>
	</g>
	<g>
		<path class="st2" d="M616.4,1480.7c10.4-15,23.5-23.6,42.8-25.8c18.7-2.2,34.2-15.3,49.9-25.2c30.4-19.1,62.1-35.5,94-51.7
			c4.9-2.5,7.3-2.4,11.2,2.1c19.4,22.6,42,40.8,69.7,52.9c18.5,8.1,37.8,12.3,57.4,12.1c15.2-0.1,16.2,5.3,11.8,16.8
			c-7.5,6.5-16.2,4.3-24.4,3c-13.7-2.2-27.3-4.9-35.9-8.2c13.3,3.7,30.8,9.4,49.4,10.2c3.2,0.1,6.2,1.1,8.4,3.6
			c-0.1,3.4-0.2,6.8-0.4,10.3C839,1480.8,727.7,1480.8,616.4,1480.7z"/>
	</g>
	<g>
		<path class="st3" d="M612.1,1006.6c-26.5-0.8-57.5-12.7-86.2-34.1c-35.2-26.1-44.7-61.3-37.2-101.1c4.1-21.7,17.2-40.1,37.4-53.7
			c47-31.8,99.5-39.7,154.2-40.7c20.6-0.4,38.8,7.9,54,20.5c43.2,36,60.3,79.1,36.8,139.7c-11.4,29.5-38.3,43.8-65.8,54.3
			C678.4,1001.8,650,1006.2,612.1,1006.6z"/>
	</g>
	<g>
		<path class="st4" d="M403.3,1093.7c-18.6-12.6-35.4-26.9-50.3-43.8c-14-16-28.6-31.3-36.6-51.2c-1.2-5.1-5-8.8-7.3-13.4
			c-4.8-14.9-8-29.4,4.1-43.1c14-15.7,25.8-18.7,45.4-10.3c3,1.3,5.6,3.2,8.7,4.2c15.2,48.7,26.4,98.3,36.3,148.1
			C405.5,1087.5,406.1,1090.7,403.3,1093.7z"/>
	</g>
	<g>
		<path class="st1" d="M368.4,936.2c-3.5,4.4-6.5,0.6-9.4-0.7c-26-11.5-48.1,3.3-47.5,32c0.2,6.6,1.8,13.2,2.8,19.9
			c0.8,2.3-0.3,3-2.4,2.7c-9.3-17.8-12.9-36.7-11.7-56.7c1.7-27.9,12.1-39,40.8-42.9c17.9-2.4,17.9-2.4,21.6,15.5
			C364.7,916,366.5,926.1,368.4,936.2z"/>
	</g>
	<g>
		<path d="M1031.1,938.9c-37.5,1.3-70-11.5-98.7-35c-1-0.8-1.9-1.9-2.7-3c-29.7-40.4-47.1-84.6-35-135c8.7-36.3,36-58.5,69.3-72.2
			c47.6-19.5,97.5-26.2,148.7-21.7c54,4.8,97.6,39.6,103.2,97.2c2.5,25.6,3.3,50.5-7.9,73.8c-19.4,40.5-52,67-94.1,81.5
			C1087.2,933.7,1059.7,939.6,1031.1,938.9z"/>
	</g>
	<g>
		<path class="st5" d="M978.5,972.8c3.5,10.2-0.7,28.6-10.8,36.7c-45.1,36.1-95.3,47-150.9,29.3c-15.2-4.9-22.7-17.4-29-29.6
			C859.3,1037.6,923.2,1027.9,978.5,972.8z"/>
	</g>
	<g>
		<path class="st6" d="M918,933c-29.8,2.9-56.7,8.6-85.1,14.7C850.9,930.5,893.9,922.2,918,933z"/>
	</g>
	<g>
		<path class="st7" d="M872.6,1208.7c6.8,2,6.7,8.3,8.3,13.5c-11.4-0.6-20.8-5.4-31.9-15.2C859.2,1207.7,865.9,1208.2,872.6,1208.7z
			"/>
	</g>
	<g>
		<path class="st1" d="M1318.8,778.7c5.1,2.2,6-2.6,8-5.1c17.3-22.6,43.9-20.4,57.1,5.2c3.1,5.9,4.8,12.5,7.1,18.8
			c0.4,2.4,1.7,2.5,3.4,1.2c-0.4-20.1-4.3-39.4-15.1-56.4c-15-23.6-31.4-27.3-58.5-16.9c-16.9,6.5-16.9,6.5-11.4,24
			C1312.4,759.2,1315.7,768.9,1318.8,778.7z"/>
	</g>
	<g>
		<path class="st8" d="M858.7,1182.1c13.4,0,26.9,0,43.7,0c-7.5,2.2-12,3.5-16.5,4.9C877.6,1180.7,867,1187.6,858.7,1182.1z"/>
	</g>
	<g>
		<path class="st4" d="M1364.2,933.5c10.3-20,20.1-39.7,25-61.7c4.6-20.8,10.1-42.2,7.5-63.5c-1.4-5-1.9-10.2-2-15.3
			c-2.9-15.4-7.2-29.6-24.4-35.7c-19.8-7-31.7-3.9-44.8,12.9c-2,2.5-6.3,5.5-8.6,7.8c10.1,50,27.2,98.8,42.5,147.3
			C1359.2,929.2,1360.2,932.2,1364.2,933.5z"/>
	</g>
	<g>
		<path class="st9" d="M815.2,1161.6c33.3-30.1,61.6-67.1,114.1-68.2c-22.9,18.7-12.6,39.1-5.5,59c3.6,10.2,3.1,14.9-9.8,16.6
			c-16.6,2.2-33.2,2.8-49.6,1.6C848,1169.2,831.4,1167.7,815.2,1161.6z"/>
	</g>
	<g>
		<path class="st1" d="M944.2,1429.9c-35.1-1.4-65-12.7-90.9-34.6c-1-0.9-1.9-1.9-3-2.7c-10.8-8.9-16.1-13.2-15.6-16.7
			c0.4-2.9,3.4-3.6,18.6-12c21.3-11.7,29.2-18.4,30.6-20.1c0.1-0.1,0.6-0.8,1.5-1.2c3-1.4,6.1-1,8.3,2.2c17,25.1,40.7,44.7,58,69.5
			c2.9,4.1,9.8,8.1,6.3,13.5C955.1,1432.3,947.9,1428.7,944.2,1429.9z"/>
	</g>
	<g>
		<path class="st10" d="M929.3,1195.3c-5.7-4.9-11.6-9.5-19.1-11.7c20.8-5.3,20.8-5.3,22.6,8.5
			C933,1194.6,932.2,1196.1,929.3,1195.3z"/>
	</g>
	<g>
		<path class="st11" d="M953.7,1095.4c-5.2,0-10.4,0-15.7,0C943.3,1093.3,948.6,1090.6,953.7,1095.4L953.7,1095.4z"/>
	</g>
	<g>
		<path class="st12" d="M953.6,1095.4c4.2,0,8.4,0.1,11.4,4.4C959.8,1101.2,956.6,1098.5,953.6,1095.4L953.6,1095.4z"/>
	</g>
	<g>
		<path class="st13" d="M929.3,1195.3c1.1-1.1,2.3-2.2,3.4-3.2c2.8,0.3,5.5,1.9,3.6,4.6C934.3,1199.5,931.2,1198.2,929.3,1195.3z"/>
	</g>
	<g>
		<path class="st14" d="M639,817.7c35.1,0.2,76.4,22.4,83.4,55.2c8.7,40.8-14.8,72.6-52.1,86.9c-30,11.5-60.9,11.9-89.5-4.6
			c-32.6-18.8-48.8-49.7-32.8-84.5c11.2-24.3,32-41.5,59.3-48.3C617.6,819.8,628.2,817.7,639,817.7z"/>
	</g>
	<g>
		<path class="st3" d="M1032.3,926.8c-55.5,0.4-96.9-25-114.9-74.4c-20.5-56.2-2.8-129.5,72.7-145.6c24.5-5.2,55-14.1,79.9-15.5
			c39.4-2.2,77.6,8.4,104.9,39.8c19.7,22.6,35.7,51.3,28.4,82.8c-8.1,34.8-29.2,64-59.7,83.1
			C1111.3,917.1,1069.6,926.2,1032.3,926.8z"/>
	</g>
	<g>
		<path d="M606.1,851.9c19.9-7.5,39.4-9.3,59.6,0c27.7,12.6,33.4,47.4,9.4,66.5c-27.1,21.5-73.6,21.6-92.5-0.7
			c-7.5-8.8-9.9-17.2-9.3-27.7c4.5-1.4,7.6,1.8,11.1,3.4c14.7,6.9,28.4,4.6,34.6-5.7c6.9-11.5,4.3-20.4-9.5-31.8
			C608.1,854.8,606.7,853.7,606.1,851.9z"/>
	</g>
	<g>
		<path class="st15" d="M606.1,851.9c17.8,7.3,24.4,20.5,17.7,34.9c-6.6,14.1-23.6,18.3-40,10.6c-4.1-1.9-7.2-4.8-10.5-7.4
			C565.6,863.2,578.4,848.3,606.1,851.9z"/>
	</g>
	<g>
		<path class="st14" d="M1059.2,735.7c40.1,0.4,68.9,15.4,85.1,47.6c8.4,16.6,7,35.1-3.8,53.4c-22.1,37.3-55.8,49.6-95.6,47.6
			c-42.5-2.1-77.1-28.4-77.7-70c-0.4-34.6,23.2-59.9,55.1-71.9C1035.2,737.7,1049,734.6,1059.2,735.7z"/>
	</g>
	<g>
		<path d="M1115.1,801.5c0,1.7,0,3.4,0.1,5.2c-2.3,2.5-2.5,6.1-4.7,8.7c-10.1,28.2-45.9,43.3-79.2,34.5c-18.9-5-30.5-15.8-33.7-35.2
			c-0.4-2.6-0.6-5.4,1.3-7.7c5-0.1,7.8,4,11.7,6.1c9.5,5,21.4,3.1,28.4-4.4c7.3-8,7.6-18.2,0.7-28.2c-2-2.9-5.1-5.2-5.4-9.1
			c8.4-11,20.6-7.8,31.5-7.7c23.1,0.2,37.9,10.6,44.8,29.4C1112.7,795.3,1112.8,799,1115.1,801.5z"/>
	</g>
	<g>
		<path class="st15" d="M1034.1,771.3c11,5.4,15.8,14.5,13.9,26.4c-1.6,10-7.4,17.2-17.5,20.1c-13,3.7-23.8,0.6-31.7-10.9
			c-0.7-1.8-1.4-3.6-2.2-5.4c-3.3-5.5-3.4-11,0.1-16.5C1006,768.9,1015.2,765.5,1034.1,771.3z"/>
	</g>
	<g>
		<path class="st16" d="M1115.1,801.5c-5.3-0.8-5.3-4.5-4.8-8.5C1115.1,794,1116,797.2,1115.1,801.5z"/>
	</g>
	<g>
		<path class="st0" d="M1296.7,1259.8c68.4,8.3,110.2,36.2,130,52c26.1,20.8,41.8,42.8,62,71c30.3,42.4,49.8,81.2,62,109"/>
	</g>
	<g>
		<g>
			<path class="st1" d="M1294.7,708.8c4.1,24.7,11.2,61.3,23,105c24.6,90.9,43.8,115.8,44,161c0.2,35.2-11.2,85.2-65,146"/>
		</g>
		<g>
			<path d="M1304.2,1127.4l-15-13.2c41.7-47.2,62.7-94,62.5-139.3c-0.1-25.3-6.5-43.7-17.2-74.3c-7.3-21-16.4-47.1-26.5-84.1
				c-9.4-34.9-20.3-70.6-26.2-106l19.7-3.3c5.8,34.7,16.5,69.8,25.8,104c9.8,36.3,18.8,62.1,26,82.8c11,31.4,18.2,52.2,18.3,80.8
				C1371.9,1025.1,1349.2,1076.4,1304.2,1127.4z"/>
		</g>
	</g>
	<g>
		<path class="st17" d="M1177.9,670.8c-3.2,0.4-6.2,0.5-9.1-1.3c-38.2-22.4-80-22.1-121.8-17.8c-57,5.9-111.5,22.3-165,42.3
			c-16.4,6.1-16.4,6.1-20-11c-1.8-8.3-2.5-17.1-5.6-24.9c-5.7-14.2,1.6-18.7,13.2-22.5c54.6-17.6,109.2-35.1,166.8-40.8
			c26.7-2.7,52.9-0.9,78.5,7.5c13.7,4.5,20.9,18.2,33.8,23.8C1158.4,641,1168.2,655.9,1177.9,670.8z"/>
	</g>
	<g>
		<path class="st17" d="M520.7,699.8c55.6-13.4,154-34.2,211-36.6c10.3-0.4,14.1,2.5,15.6,12.6c2.1,14.6,5.9,28.9,9.2,44.2
			c-74.7,3.5-180.8,21.6-250.9,48.8C512,744.8,516.7,724.6,520.7,699.8z"/>
	</g>
</g>
<g id="Layer_2">
	<g>
		<path class="st18" d="M1068.5,433.9c0.5-0.5,1.1-0.9,1.6-1.4c-1.4-2.3-2.6-4.7-4.3-6.7c-6.7-8.2-13-16.6-20.4-24.3
			c-19.7-20.4-44.2-34-77.6-34.6c-1.2,0-2.4-0.1-3.5-0.3c-3.8-0.6-6.6-1.9-6-5.8c0.6-4.2,3.4-5.2,8.2-5.2c16,0,31.2,2.3,45.4,7.9
			c23.7,9.3,40.7,24.6,55.5,42c16,18.8,24.9,41,38.4,61c37.5,55.5,60,116.4,80.9,177.9c8.2,24.1,19.5,47,35.9,67.7
			c27.5,34.9,66.5,49,117.8,40.4c21.1-3.5,42.2-7,63-11.3c18.7-3.9,37-9.6,49.6-23.1c11-11.8,21.3-24.1,30.9-36.7
			c6.5-8.4,5.7-9.5-4.9-13.1c-21.4-7.3-40.2-17.7-57.5-30.1c-22.6-16.2-39.6-36.3-54.8-57.7c-21-29.6-39.7-60.2-54.8-92.3
			c-17.9-38-34.5-76.5-51.6-114.8c-14.7-32.8-32.5-63.8-59.8-90.5c-28.3-27.7-60.3-50.2-105.4-57.1c-34.3-5.2-67.4-1.6-99.3,13.5
			c-20.3,9.6-36.7,23.3-53.9,36.2c-3.4,2.6-7.1,4.9-10.7,7.4c1.8-23.5,5.6-46.1,13-68.3c1.1-3.1,1.4-6.4,2.4-11.2
			c-3.8,1.9-5.5,2.5-6.8,3.5c-21.1,15.3-35,33.8-38.9,56.7c-0.8,4.9-2.8,8.2-9.4,8.3c-3,0-6-0.1-8.9,0.4c-7.7,1.5-9.1-2.1-10.9-7.2
			c-4.4-11.9-8.8-23.9-15.5-34.8c-7-11.5-19.8-18.4-36.1-16.8c-13.9,1.3-27.7,5-41.5,8.1c-4.1,0.9-7.8,3.3-12.6,5.4
			c14.2,9.8,28.6,17.5,39.5,27.8c11.2,10.5,20.4,22.9,27.9,35.7c7.3,12.4,11.2,26.3,16.7,39.5c-0.6,0.3-1.1,0.7-1.7,1
			c-2.7-1.3-5.4-2.6-8-4c-11.1-6.2-22-12.7-33.3-18.8c-28.5-15.3-59.6-25.3-94.4-27.4c-24-1.5-48-0.6-72.2,2.8
			c-33.2,4.6-65.9,10.4-97.8,20.5c-50,15.9-95.8,38.1-137.2,67.1c-37.5,26.2-71.1,55.7-95.5,91.1c-30.4,44.3-45.9,92.2-52.6,141.6
			c-5,36.3-7.6,72.7-11.1,109c-4.1,42.8-14.2,85-26.7,126.9c-6.2,20.8-13.7,41.2-29,59.3c-5.1,6-10.9,11.7-16.8,18
			c9.8,6.8,21,10.4,33.3,12.2c37.2,5.4,74.2,2.8,112-4.1c18-3.3,30.7-10,39.9-22.8c0.8-1.1,1.7-2.1,2.6-3.2
			c21.5-27,37-56.3,53.5-85.3c3.7-6.5,7.7-13,11.5-19.5c8.9,30.9,10.1,61.9,5.2,93.7c3-1.7,5.6-3.5,7.2-5.7
			c7.7-10.3,15.8-20.4,22.4-31.1c21.1-33.8,35-69.5,48.8-105.4c15.1-39.4,16-79.1,15.7-119c-0.1-17-3.7-34.3,5.7-51.1
			c1-1.7,0.6-3.9,0.8-5.9c1.9-19.9,3.2-39.9,6-59.7c4.6-33.3,13.2-66.1,31.5-97c13.1-22.2,31.1-41,58.9-51.4
			c22.3-8.3,45.8-11.7,69.6-12.1c18.8-0.4,35.6,4,50.3,12.9c4,2.4,9.1,5.3,5.3,10.2c-3.8,4.9-8.5,1.1-12.6-0.3
			c-9.9-3.5-19.4-8.4-29.8-10c-11.3-1.7-23.7-1.3-35.4,0c-27,3-52.5,9.9-72.4,28.1c-13.7,12.4-23,26.8-29.9,42.3
			c-15.4,34.1-22,69.3-25.4,104.9c-0.6,5.8-0.7,11.5-1.1,17.3c3.5-0.9,5.2-1.9,6.5-3.2c25.7-25.2,57-40.8,96-42.5
			c13-0.6,26.1,0.1,39,0.8c25.1,1.4,50.4,3,73.6,10.7c10.8,3.6,18.8,2.2,28.2-3.2c33.9-19.4,68.9-37.3,105.7-52.5
			c31-12.7,61.8-26.1,95.6-31.6C1018,429.1,1043.8,424.1,1068.5,433.9z"/>
		<path class="st19" d="M1521.8,651.8c-35.4-5.1-64.6-18.9-89.1-39.9c-23.2-19.9-40.2-43.3-55.3-67.8
			c-14.2-22.8-26.4-46.6-38.8-70.2c-7.9-14.9-14.9-30.2-21.9-45.5c-9.1-3.2-17.5-7.6-24.9-12.9c-2.6-1.8,2.2,0.1-0.4-1.6
			c-7.3-4.8-13.9-10.3-20.1-16.1c-12.5-11.8-22.7-25.5-29.8-40.3c-4.7-10-8.1-20.4-13.7-30c-13.9-23.9-39.9-40.7-65.1-56.6
			c-5.1-3.2-11.2-6.6-17.6-5c-0.3,12.5,15.7,19.1,28.1,25.3c17.5,8.8,31.8,21.8,40.6,37.3c5.9,10.4,9.5,21.7,13.6,32.7
			c15.1,40.1,38.5,77.2,61.8,114.1c10.4,16.4,20.8,32.9,31.2,49.3c-27.4-15.6-52-35.4-66.8-60.3c-14.7-24.7-19.3-53.5-34.1-78.2
			c-7.8-13-18.2-24.7-28.6-36.3c-16.7-18.6-33.5-37.4-53.3-53.7c-20.5-16.9-50.9-31.9-81-32.9c-2.1-0.1-4.4,0-6.1,1.1
			c-2.7,1.8-2.4,5.4-0.2,7.5c2.1,2,5.4,2.9,8.6,3.7c84.4,21.7,142.6,88.3,161.7,159.3c3.1,11.7,5.2,23.6,9.8,34.8
			c8.6,21,18.2,44.4,30.4,63.9c6.2,9.9,14.7,18.4,22.2,27.6c20.5,25.1,32.9,55,35.7,86.1c-29.9-2.3-61.8-5.4-83.6-21.8
			c-11.1-8.4-18.6-19.7-25.2-31c-22.7-39.3-37-81.8-52.6-123.8c-3.4-9.2-6.9-18.4-11.8-27c-4.9-8.7-11.2-16.7-17.5-24.6
			c-19.8-25.2-40.2-50.9-69.5-68.5c-10.8-6.5-22.9-11.9-36.1-14.3c-14.2-2.6-29.4-1.7-44,0.6c-63.1,9.9-125.1,48.7-152.2,98.2
			c-20.6-36.5-51.6-68.3-89.9-92.4c-17-10.7-36.9-21.4-59.1-20.4c-25.2,1.2-53,11.4-74.7,22.7c-14.5,7.5-27.8,16.7-39.4,27.2
			c-22.4,20.3-36.3,46.2-52.2,69.9c-17.1,25.4-29.9,52.7-37.7,80.7c-7.7,27.8-10.7,56.4-21.9,83.5c-8.4,20.3-21.3,39.5-37.9,56.3
			c2.6-41.1,5.3-82.2,7.9-123.2c0.9-14,1.8-28,5.2-41.9c7.3-29.8,22.4-52.2,46.4-75.2c10.4-10,17.9-22.1,21.5-34.7
			c-6.7-0.7-13.6,2.1-18.7,6.1c-9.7,7.7-15.1,18.6-24.2,27c-11.4,10.6-23,21-35.5,30.7c-39.2,30.2-54.4,76-59.8,119.2
			c-5.4,43.2-3,86.9-16.1,129.4c-5.2,16.9-15.2,34.4-28.3,48.3c-6.1,6.4-12.2,12.8-18.2,19.2c12.3-13.1,12-26.7,15.9-41.7
			c4.4-16.9,7-33.9,8.3-50.9c2.5-33.8-0.1-67.3-2.4-100.8c-0.9-12.4-1.7-25,1.1-37.4c3-13.1,10-25.5,16.9-37.8
			c9.8-17.4,19.6-34.8,31.9-51.1c2.7-3.7,5.6-7.3,8.2-11c1.6-2.3-11-1.7-12-1.4c-4.9,1.4-9.3,7.2-12.3,10.4
			c-9.2,10-16,21.3-22.6,32.5c-9.3,15.9-18.4,31.9-23.8,48.8c-12.5,38.6-6.4,78.1-7.8,116.9c-0.6,17.2-1.3,36.7-8.4,53.2
			c-8.4,19.4-18.6,38.4-30.6,56.6c-1.7,2.6-4,5.5-7.4,5.7c17.1-26.1,15.7-56.7,13.3-85.4c-1.3-15.5-3.9-30.4-7.1-45.2
			c-2.3-10.7-4.9-21.4-7.6-32.3c-1.9-7.7-7-13.9-13.6-19.4c-1,4.8-2,9.6-2.8,14.4c-2.2,12.6-5,25.1-7,37.7c-1.5,9.6-2.2,19.3-3,29
			c-0.6,6.9-0.4,13.9-1,20.8c-1,11.9-2.4,23.8-3.6,35.7c-1,10.2-1.1,20.4-3.1,30.5c-4.1,20.7-8.8,41.4-14,62
			c-5.5,21.7-10.6,43.5-22,64c-8.8,16-19.3,30.7-43.5,32.6c-5.9,0.5-11.8,3.2-19.7,5.4c10.5,7.9,19.3,14.4,28,21.1
			c20.2,15.7,44.6,24,72.6,25.8c9.5,0.6,19.1,1,28.7,1.4c6.2,0.2,12.6,1.3,18.6,0.3c29.8-5.3,60-8.1,88.3-20.6
			c13.6-6,24.8-12.9,33.7-23.1c3.5-4,6.6-8.1,10.1-12.1c1.1-1.3,2.7-2.3,4.1-3.5c0.8,0.2,1.5,0.5,2.3,0.7
			c-6.2,18.8-12.4,37.6-18.9,57.6c3.1-0.9,4.6-1,5.7-1.7c27.1-17.4,54.9-33.6,74.1-58.7c18.6-24.3,35.5-49.2,48.3-75.7
			c15.6-32.3,28.7-65.2,37.7-99c9.7-36.3,7.1-72.5,7.6-108.7c0.1-8.1-0.4-16.9,3.3-24.1c4.3-8.5,12.1-16.2,19.5-23.4
			c17.6-17.3,39.1-29.6,66.1-31.9c11.3-1,22.7-0.5,34,0.1c31.9,1.6,63.5,4.5,92.7,14.8c7.5,2.6,13.5,1.9,20.1-2
			c38.8-22.9,79-43.8,121.4-61.5c32.8-13.7,66.1-25.3,102-30.9c26.5-4.1,46.6,0.8,60.2,19.5c8.4,11.6,17,23.2,24.5,35.3
			c24.3,39.2,39,81.7,53.6,124.2c9.8,28.6,19.7,57.2,38.1,82.6c23.8,32.8,53,58.6,104.5,61.3c23.2,1.2,45.6,1.6,68.4-3.6
			c20.8-4.7,41.6-9.8,62.4-14.3c24.9-5.4,44.4-17.3,60.1-34.7c15.4-17,27.6-35.3,38.5-54.4c2.8-5,5.9-9.9,9.1-15.4
			C1528.5,653.2,1525.2,652.3,1521.8,651.8z"/>
		<g>
			<path d="M313.4,416.6c27.4-28.7,58-54.8,93.7-76.3c20.5-12.4,41.8-24,63.6-34.6c15.4-7.5,32.1-13.3,48.6-18.7
				c22.9-7.5,46-14.6,69.5-20.4c14.7-3.6,30.2-4.3,45.3-6.4c3.9-0.5,7.7-1.1,11.6-1.6c19.9-2.7,39.7-3,59.6-2.4
				c23.8,0.7,46.5,4.6,68.8,10.4c0.4-0.5,0.9-1,1.3-1.5c-2.2-1.5-4.3-3.1-6.5-4.6c-15.4-10.3-34.2-15.2-52.7-20.7
				c-9.6-2.9-9.9-4.1-1.2-9.7c13.8-9,27.5-18,42.1-26c7.4-4.1,16.4-6.5,24.9-8.6c9.9-2.4,20.1-3.9,30.3-5.5
				c28.9-4.4,56,6.4,69.9,26.9c1.2,1.8,3,3.3,5.3,5.8c17.9-23.8,40.6-42,70.5-52.3c16.8-5.7,34.5-8.7,52.8-9.2
				c-13.4,20.2-33.3,37.1-38.7,61.5c6.2-2.5,11.8-4.5,17.1-7c11.5-5.3,23.2-10.1,36.2-11.8c3.9-0.5,7.8-1.2,11.6-2
				c14.2-3,28.1-2.6,42.5-2.2c18.1,0.6,34.8,4.3,51.4,8.8c32.6,8.9,58.8,25.6,80.2,47.1c15.6,15.7,30.6,31.9,44.3,48.9
				c8.1,10,13.1,21.9,19.2,33.1c5.3,9.6,10.1,19.4,15.1,29.2c2.5,4.9,4.8,9.9,7,14.9c6.6,15.3,12.8,30.7,19.7,45.8
				c7.1,15.6,14.3,31.2,22.3,46.4c12.5,23.6,24.7,47.4,38.8,70.2c15.2,24.4,32.2,47.9,55.3,67.8c24.5,21,53.7,34.8,89.1,39.9
				c3.4,0.5,6.7,1.4,11.4,2.4c-3.3,5.5-6.3,10.4-9.1,15.4c-10.9,19-23.1,37.4-38.5,54.4c-15.7,17.4-35.2,29.3-60.1,34.7
				c-20.9,4.5-41.6,9.6-62.4,14.3c-22.8,5.2-45.2,4.8-68.4,3.6c-51.5-2.6-80.7-28.4-104.5-61.3c-18.4-25.4-28.3-54-38.1-82.6
				c-14.6-42.5-29.4-85.1-53.6-124.2c-7.5-12.1-16.1-23.7-24.5-35.3c-13.5-18.7-33.6-23.6-60.2-19.5c-35.9,5.6-69.2,17.2-102,30.9
				c-42.4,17.7-82.6,38.6-121.4,61.5c-6.6,3.9-12.7,4.6-20.1,2c-29.2-10.3-60.8-13.2-92.7-14.8c-11.3-0.6-22.7-1-34-0.1
				c-27.1,2.3-48.5,14.6-66.1,31.9c-7.4,7.3-15.3,14.9-19.5,23.4c-3.6,7.3-3.2,16.1-3.3,24.1c-0.5,36.2,2.1,72.4-7.6,108.7
				c-9,33.8-22.1,66.7-37.7,99c-12.8,26.5-29.7,51.3-48.3,75.7c-19.2,25.1-47.1,41.3-74.1,58.7c-1.1,0.7-2.6,0.8-5.7,1.7
				c6.6-20,12.7-38.8,18.9-57.6c-0.8-0.2-1.5-0.5-2.3-0.7c-1.4,1.1-3,2.2-4.1,3.5c-3.4,4-6.6,8.1-10.1,12.1
				c-8.9,10.2-20,17.1-33.7,23.1c-28.3,12.5-58.5,15.3-88.3,20.6c-6,1.1-12.4,0-18.6-0.3c-9.6-0.4-19.2-0.7-28.7-1.4
				c-28-1.8-52.4-10.1-72.6-25.8c-8.6-6.7-17.5-13.2-28-21.1c7.9-2.2,13.7-4.9,19.7-5.4c24.2-1.9,34.7-16.6,43.5-32.6
				c11.4-20.5,16.5-42.4,22-64c5.2-20.6,9.9-41.3,14-62c2-10.1,2.1-20.3,3.1-30.5c1.2-11.9,2.6-23.8,3.6-35.7
				c0.6-6.9,0.5-13.9,1-20.8c0.8-9.7,1.5-19.4,3-29c1.9-12.6,4.8-25.1,7-37.7c4.6-26.3,12-52.1,21.8-77.7
				c5.5-14.4,13.5-27.4,20.2-41.3c3.2-6.6,6.4-13.1,10.8-18.9c1.4-1.9,3-3.6,4.2-5.6c1.3-2.1,23.2-30.6,35.5-40.3 M1068.3,434.3
				c0.5,0.3,1,0.6,1.6,0.9c7.7,4.6,14.9,9.9,21.6,15.7c5.4,4.8,10.1,9.7,14.1,15.6c37.5,55.5,60,116.4,80.9,177.9
				c8.2,24.1,19.5,47,35.9,67.7c27.5,34.9,66.5,49,117.8,40.4c21.1-3.5,42.2-7,63-11.3c18.7-3.9,37-9.6,49.6-23.1
				c11-11.8,21.3-24.1,30.9-36.7c6.5-8.4,5.7-9.5-4.9-13.1c-21.4-7.3-40.2-17.7-57.5-30.1c-22.6-16.2-39.6-36.3-54.8-57.7
				c-21-29.6-39.7-60.2-54.8-92.3c-17.9-38-34.5-76.5-51.6-114.8c-14.7-32.8-32.5-63.8-59.8-90.5c-28.3-27.7-60.3-50.2-105.4-57.1
				c-34.3-5.2-67.4-1.6-99.3,13.5c-20.3,9.6-36.7,23.3-53.9,36.2c-3.4,2.6-7.1,4.9-10.7,7.4c1.8-23.5,5.6-46.1,13-68.3
				c1.1-3.1,1.4-6.4,2.4-11.2c-3.8,1.9-5.5,2.5-6.8,3.5c-21.1,15.3-35,33.8-38.9,56.7c-0.8,4.9-2.8,8.2-9.4,8.3c-3,0-6-0.1-8.9,0.4
				c-7.7,1.5-9.1-2.1-10.9-7.2c-4.4-11.9-8.8-23.9-15.5-34.8c-7-11.5-19.8-18.4-36.1-16.8c-13.9,1.3-27.7,5-41.5,8.1
				c-4.1,0.9-7.8,3.3-12.6,5.4c14.2,9.8,28.6,17.5,39.5,27.8c11.2,10.5,20.4,22.9,27.9,35.7c7.3,12.4,11.2,26.3,16.7,39.5
				c-0.6,0.3-1.1,0.7-1.7,1c-2.7-1.3-5.4-2.6-8-4c-11.1-6.2-22-12.7-33.3-18.8c-28.5-15.3-59.6-25.3-94.4-27.4
				c-24-1.5-48-0.6-72.2,2.8c-33.2,4.6-65.9,10.4-97.8,20.5c-50,15.9-95.8,38.1-137.2,67.1c-37.5,26.2-71.1,55.7-95.5,91.1
				c-30.4,44.3-45.9,92.2-52.6,141.6c-5,36.3-7.6,72.7-11.1,109c-4.1,42.8-14.2,85-26.7,126.9c-6.2,20.8-13.7,41.2-29,59.3
				c-5.1,6-10.9,11.7-16.8,18c9.8,6.8,21,10.4,33.3,12.2c37.2,5.4,74.2,2.8,112-4.1c18-3.3,30.7-10,39.9-22.8
				c0.8-1.1,1.7-2.1,2.6-3.2c21.5-27,37-56.3,53.5-85.3c3.7-6.5,7.7-13,11.5-19.5c8.9,30.9,10.1,61.9,5.2,93.7
				c3-1.7,5.6-3.5,7.2-5.7c7.7-10.3,15.8-20.4,22.4-31.1c21.1-33.8,35-69.5,48.8-105.4c15.1-39.4,16-79.1,15.7-119
				c-0.1-16.2-4.2-36.2,5.8-50.4c3.2-4.6,7.1-8.6,11-12.6c1.6-1.6,3.1-3.2,4.7-4.8c10-10.7,20.2-20.4,32.6-28.3
				c11.8-7.5,24.7-13.2,38.3-16.9c10.3-2.8,21-4.3,31.7-4.8c13-0.6,26.1,0.1,39,0.8c25.1,1.4,50.4,3,73.6,10.7
				c10.8,3.6,18.8,2.2,28.2-3.2c33.9-19.4,68.9-37.3,105.7-52.5c31-12.7,61.8-26.1,95.6-31.6c17.5-2.9,35.2-6.2,52.9-4.7
				C1053,429.2,1061.2,430.6,1068.3,434.3z"/>
		</g>
	</g>
</g>
</svg>
